<svg version="1.1" xmlns="http://www.w3.org/2000/svg" viewBox="0 0 919.883042495432 919.615772109391" width="919.883042495432" height="919.615772109391">
  <!-- svg-source:excalidraw -->
  
  <defs>
    <style>
      @font-face {
        font-family: "Virgil";
        src: url("https://excalidraw.com/Virgil.woff2");
      }
      @font-face {
        font-family: "Cascadia";
        src: url("https://excalidraw.com/Cascadia.woff2");
      }
    </style>
  </defs>
  <g stroke-linecap="round" transform="translate(80.3218739924109 176.33078114307685) rotate(0 36.05126953125 48.06390380859375)"><path d="M-0.74 -0.05 C25.4 -1.09, 51.38 -1.6, 72.6 0.37 M-0.14 0.38 C24.04 -0.68, 50.36 -0.92, 72.67 0.84 M74.04 0.5 C71.72 30.71, 70.24 56.18, 71.12 95.62 M71.31 0.14 C71.5 23.66, 71.06 44.5, 71.91 95.19 M72.03 96.12 C54.32 96.09, 34.96 95.35, -0.23 95.26 M71.99 96.8 C52.81 95.78, 35.38 95.99, 0.09 95.85 M1.09 97.92 C1.58 71.08, -1.91 46.95, 0.84 0.48 M0.06 95.56 C-0.77 60.24, -0.9 23.69, -0.69 -0.01" stroke="#f08c00" stroke-width="2" fill="none"></path></g><g transform="translate(87.72315725657106 199.3946849516706) rotate(0 28.649986267089844 25)"><text x="28.649986267089844" y="NaN" font-family="Segoe UI Emoji" font-size="20px" fill="#f08c00" text-anchor="middle" style="white-space: pre;" direction="ltr">Raw</text><text x="28.649986267089844" y="NaN" font-family="Segoe UI Emoji" font-size="20px" fill="#f08c00" text-anchor="middle" style="white-space: pre;" direction="ltr">Notes</text></g><g stroke-linecap="round" transform="translate(819.4042216946508 172.20719104120286) rotate(0 45.239410400390625 29.231475830078125)"><path d="M43.17 -0.09 C51.46 -0.6, 61.7 1.49, 69.12 4.76 C76.55 8.03, 84.28 14.08, 87.73 19.51 C91.17 24.94, 92.2 32.06, 89.77 37.34 C87.33 42.63, 80.07 47.71, 73.1 51.23 C66.12 54.75, 56.5 58.2, 47.91 58.48 C39.33 58.76, 28.92 56.03, 21.6 52.91 C14.28 49.79, 7.18 45.09, 3.99 39.74 C0.79 34.39, 0.38 26.35, 2.45 20.81 C4.53 15.26, 8.28 9.74, 16.44 6.49 C24.6 3.24, 43.95 2.09, 51.41 1.3 C58.87 0.52, 61.32 1.55, 61.19 1.8 M41.09 0.28 C49.23 -0.55, 59.33 1.78, 66.7 4.64 C74.06 7.51, 81.64 12.47, 85.27 17.47 C88.9 22.47, 90.25 28.96, 88.47 34.64 C86.7 40.31, 81.19 47.59, 74.63 51.52 C68.06 55.45, 57.83 57.56, 49.09 58.19 C40.34 58.82, 29.46 58.04, 22.15 55.31 C14.84 52.58, 8.79 47.37, 5.23 41.82 C1.68 36.27, -0.74 27.62, 0.81 22.02 C2.36 16.42, 8.06 11.6, 14.53 8.21 C21.01 4.82, 35.31 2.88, 39.68 1.67 C44.06 0.46, 40.41 0.67, 40.78 0.96" stroke="#1e1e1e" stroke-width="2" fill="none"></path></g><g transform="translate(848.1345415809776 188.76889208774207) rotate(0 16.519996643066406 12.5)"><text x="16.519996643066406" y="NaN" font-family="Segoe UI Emoji" font-size="20px" fill="#1e1e1e" text-anchor="middle" style="white-space: pre;" direction="ltr">You</text></g><g stroke-linecap="round" transform="translate(556.7257898698163 153.22872040340582) rotate(0 55.95873497328887 48.06390380859375)"><path d="M0.35 0.64 C28.63 -0.79, 54.89 -0.18, 110.79 1.58 M0.92 -0.29 C36.37 1.14, 72.39 1.33, 112.43 -0.71 M110.55 1.77 C113.17 23.02, 112.33 47.58, 110.5 97.1 M111.36 0.34 C110.43 23.32, 111.99 47.83, 112.12 96.91 M112.54 96.16 C84.32 96.71, 57.92 95.43, 1.55 97.13 M112.12 95.46 C72.57 95.34, 34.64 96, 0.85 95.64 M-0.77 97.72 C-0.3 70.28, -2.17 46.79, 0.24 1.18 M-0.55 96.53 C0.31 71.17, -1.29 46.52, -0.4 0.39" stroke="#2f9e44" stroke-width="2" fill="none"></path></g><g transform="translate(562.894569703945 176.29262421199957) rotate(0 49.789955139160156 25)"><text x="49.789955139160156" y="NaN" font-family="Segoe UI Emoji" font-size="20px" fill="#2f9e44" text-anchor="middle" style="white-space: pre;" direction="ltr">Processed</text><text x="49.789955139160156" y="NaN" font-family="Segoe UI Emoji" font-size="20px" fill="#2f9e44" text-anchor="middle" style="white-space: pre;" direction="ltr">Notes</text></g><g stroke-linecap="round" transform="translate(303.45124968426677 123.4812036618228) rotate(0 38.34667171532331 32.73427309731926)"><path d="M-0.53 1.65 C26.42 -0.42, 55.69 0.63, 75.66 1.85 M0.97 0.72 C16.66 0.31, 33.4 0.23, 77.37 -0.44 M75.32 1.52 C75.93 12.41, 76.72 28.72, 75.24 67.3 M77.42 0.96 C76.85 20.82, 77.44 40.57, 76.68 65.99 M76.97 63.97 C51.17 63.68, 26.97 66.91, 0.06 66.6 M76.32 65.17 C45.78 64.84, 15.88 65.96, -0.92 64.61 M-1.53 67.37 C0.88 39.88, -1.52 16.25, 1.02 1.62 M0.43 66.22 C0.77 47.01, 0.75 27.26, -0.19 -0.42" stroke="#1971c2" stroke-width="2" fill="none"></path></g><g transform="translate(326.6939403815237 146.21547675914206) rotate(0 15.103981018066406 10)"><text x="15.103981018066406" y="NaN" font-family="Segoe UI Emoji" font-size="16px" fill="#1971c2" text-anchor="middle" style="white-space: pre;" direction="ltr">Tag</text></g><g stroke-linecap="round" transform="translate(305.59729358841014 217.94378657116505) rotate(0 38.34667171532331 32.73427309731925)"><path d="M1.45 1.02 C26.75 0.4, 48.9 2.01, 77.55 1.51 M-0.96 -0.19 C25.1 -0.74, 51.03 0.07, 77.1 0.51 M75.37 -1.85 C78.79 24.75, 76.07 50.69, 77.05 66.11 M77.57 0.55 C76.47 16.96, 77.25 35.13, 77.26 64.74 M74.86 65.44 C58.81 65.93, 37.01 64.47, 1.88 64.17 M76.41 66.28 C53.69 66.15, 33.44 64.98, 0.03 65.4 M-0.55 64.91 C-1.13 44.22, -0.74 25.06, 0.91 -0.37 M-0.08 65.5 C-0.09 39.58, 0.51 14.49, 0.81 -0.73" stroke="#1971c2" stroke-width="2" fill="none"></path></g><g transform="translate(320.9279817221905 240.6780596684843) rotate(0 23.01598358154297 10)"><text x="23.01598358154297" y="NaN" font-family="Segoe UI Emoji" font-size="16px" fill="#1971c2" text-anchor="middle" style="white-space: pre;" direction="ltr">Group</text></g><g stroke-linecap="round" transform="translate(306.3579208431569 311.1668085310081) rotate(0 38.34667171532331 32.73427309731925)"><path d="M-1.48 -0.08 C13.99 -0.57, 31.55 -0.18, 77.62 0.07 M0.96 -0.52 C20.81 -1.07, 41.24 -0.95, 77.35 -0.1 M78 -0.87 C76.12 21.67, 76.5 46.82, 76.78 63.94 M76.5 0.38 C75.83 23.96, 76.19 47.11, 76.61 64.54 M77.43 63.61 C50.15 64.03, 21.61 67.08, 1.42 63.72 M76.26 64.86 C54.46 66.43, 30.58 65.54, 0.69 66.32 M1.8 66.07 C-1.78 40.65, 1.47 20.51, -0.92 0.81 M-0.44 65.37 C0.29 45.13, 1.21 26.93, -0.66 0.6" stroke="#1971c2" stroke-width="2" fill="none"></path></g><g transform="translate(323.64861569080443 333.90108162832735) rotate(0 21.05597686767578 10)"><text x="21.05597686767578" y="NaN" font-family="Segoe UI Emoji" font-size="16px" fill="#1971c2" text-anchor="middle" style="white-space: pre;" direction="ltr">Filter</text></g><g stroke-linecap="round" transform="translate(304.6316952599068 29.850303836607168) rotate(0 38.34667171532331 32.73427309731926)"><path d="M1.11 0.46 C23.85 -0.19, 44.94 -1.1, 76.39 -1.84 M-0.57 -0.79 C21.97 0.68, 44.54 0.11, 75.73 -0.7 M78.26 1.61 C76.3 13.27, 74.92 29.06, 77.3 64.85 M77.55 0.36 C77.12 25.5, 78.22 50.61, 76.61 65.92 M75.89 65.72 C60.01 66.49, 43.5 63.44, -0.61 64.97 M77.58 65.55 C49.76 65.26, 22.12 65.36, 0.9 65.73 M-1.33 64.81 C0.25 44.02, -1.04 19.67, -0.09 1.21 M-0.51 65.05 C0.61 49.27, -1.12 34.13, 0.01 0.92" stroke="#1971c2" stroke-width="2" fill="none"></path></g><g transform="translate(321.92239010755435 52.58457693392643) rotate(0 21.05597686767578 10)"><text x="21.05597686767578" y="NaN" font-family="Segoe UI Emoji" font-size="16px" fill="#1971c2" text-anchor="middle" style="white-space: pre;" direction="ltr">Filter</text></g><g stroke-linecap="round"><g transform="translate(157.1431886647731 227.08193875819143) rotate(0 73.24425329756686 -81.25530923229107)"><path d="M-0.25 -1.1 C24.34 -28.22, 121.85 -135.73, 146.42 -162.82 M1.81 0.93 C26.34 -25.99, 121.28 -134.13, 145.44 -161.44" stroke="#1e1e1e" stroke-width="2" fill="none"></path></g><g transform="translate(157.1431886647731 227.08193875819143) rotate(0 73.24425329756686 -81.25530923229107)"><path d="M132.66 -133.61 C136.28 -138.05, 137.16 -144.36, 147.23 -160.83 M133.58 -134.21 C138.44 -141.69, 141.26 -149.05, 146.05 -160.49" stroke="#1e1e1e" stroke-width="2" fill="none"></path></g><g transform="translate(157.1431886647731 227.08193875819143) rotate(0 73.24425329756686 -81.25530923229107)"><path d="M117.26 -147.18 C124.04 -148.79, 128.1 -152.3, 147.23 -160.83 M118.19 -147.78 C127.19 -151.64, 134.24 -155.27, 146.05 -160.49" stroke="#1e1e1e" stroke-width="2" fill="none"></path></g></g><g stroke-linecap="round"><g transform="translate(158.14031789107588 228.7755613808663) rotate(0 69.88872068596314 -35.048749493045776)"><path d="M0.25 1.18 C23.78 -10.53, 117.03 -57.12, 140.27 -69.11 M-1.08 0.76 C22.42 -10.77, 116.26 -58.96, 139.58 -70.71" stroke="#1e1e1e" stroke-width="2" fill="none"></path></g><g transform="translate(158.14031789107588 228.7755613808663) rotate(0 69.88872068596314 -35.048749493045776)"><path d="M121.08 -47.96 C125.11 -53.89, 126.98 -59.22, 138.05 -69.32 M119.51 -48.31 C124.7 -54.77, 130.03 -59.26, 140.47 -71.45" stroke="#1e1e1e" stroke-width="2" fill="none"></path></g><g transform="translate(158.14031789107588 228.7755613808663) rotate(0 69.88872068596314 -35.048749493045776)"><path d="M111.77 -66.25 C118.05 -68.12, 122 -69.38, 138.05 -69.32 M110.2 -66.6 C118.02 -68.18, 125.8 -67.83, 140.47 -71.45" stroke="#1e1e1e" stroke-width="2" fill="none"></path></g></g><g stroke-linecap="round"><g transform="translate(161.4470550240993 229.71015156721745) rotate(0 71.48687982423547 12.443484990613939)"><path d="M-0.45 -0.35 C23.43 3.78, 119.97 20.72, 143.91 24.77 M1.51 -1.59 C25.26 2.75, 119.95 21.85, 143.45 26.24" stroke="#1e1e1e" stroke-width="2" fill="none"></path></g><g transform="translate(161.4470550240993 229.71015156721745) rotate(0 71.48687982423547 12.443484990613939)"><path d="M113.23 32.47 C124.04 29.7, 133.09 27.29, 142.8 27.34 M113.96 30.65 C125.53 29.57, 136.19 26.54, 142.56 26.98" stroke="#1e1e1e" stroke-width="2" fill="none"></path></g><g transform="translate(161.4470550240993 229.71015156721745) rotate(0 71.48687982423547 12.443484990613939)"><path d="M117.16 12.33 C126.58 16.63, 134.24 21.3, 142.8 27.34 M117.89 10.51 C127.9 16.81, 137.13 21.11, 142.56 26.98" stroke="#1e1e1e" stroke-width="2" fill="none"></path></g></g><g stroke-linecap="round"><g transform="translate(162.60973158287942 226.15334224472238) rotate(0 70.79718697050757 60.094670277963516)"><path d="M0.14 -0.8 C23.54 19.38, 117.49 100.95, 140.87 120.92 M-1.24 1.39 C22.5 21.25, 119.21 99.47, 143.21 119.18" stroke="#1e1e1e" stroke-width="2" fill="none"></path></g><g transform="translate(162.60973158287942 226.15334224472238) rotate(0 70.79718697050757 60.094670277963516)"><path d="M113.53 108.13 C125.81 110.8, 132.33 114.83, 144.45 119.38 M115.31 109.27 C121.9 111.98, 128.91 113.41, 144.09 119.37" stroke="#1e1e1e" stroke-width="2" fill="none"></path></g><g transform="translate(162.60973158287942 226.15334224472238) rotate(0 70.79718697050757 60.094670277963516)"><path d="M126.49 92.22 C134.29 100.37, 136.36 109.87, 144.45 119.38 M128.27 93.36 C131.78 99.95, 135.65 105.23, 144.09 119.37" stroke="#1e1e1e" stroke-width="2" fill="none"></path></g></g><g stroke-linecap="round"><g transform="translate(382.69458870074953 57.07776849621047) rotate(0 85.6932088038321 75.76059988555721)"><path d="M0.39 -1.12 C29.26 24.24, 143.81 126.81, 172.28 152.35 M-0.86 0.9 C28.01 25.91, 143.27 125.8, 171.8 150.67" stroke="#1e1e1e" stroke-width="2" fill="none"></path></g><g transform="translate(382.69458870074953 57.07776849621047) rotate(0 85.6932088038321 75.76059988555721)"><path d="M141.92 141.42 C151.42 141.91, 157.24 144.83, 169.92 148.84 M144.13 140.91 C150.38 143.45, 157.02 143.99, 171.41 149.98" stroke="#1e1e1e" stroke-width="2" fill="none"></path></g><g transform="translate(382.69458870074953 57.07776849621047) rotate(0 85.6932088038321 75.76059988555721)"><path d="M155.38 125.93 C161.91 129.91, 164.74 136.26, 169.92 148.84 M157.59 125.42 C160.76 131.26, 164.42 135.22, 171.41 149.98" stroke="#1e1e1e" stroke-width="2" fill="none"></path></g></g><g stroke-linecap="round"><g transform="translate(385.86338321541535 152.8287111227988) rotate(0 84.93120332720045 28.0494576885823)"><path d="M0.93 1.18 C29.27 10.77, 141.36 47.73, 169.37 56.91 M-0.04 0.76 C28.16 10.06, 139.59 45.73, 168.16 55.21" stroke="#1e1e1e" stroke-width="2" fill="none"></path></g><g transform="translate(385.86338321541535 152.8287111227988) rotate(0 84.93120332720045 28.0494576885823)"><path d="M140.15 55.42 C146.84 54.29, 153.02 56.17, 168.01 54.31 M139.08 56.6 C145.51 56.82, 154.53 56.28, 167.42 54.45" stroke="#1e1e1e" stroke-width="2" fill="none"></path></g><g transform="translate(385.86338321541535 152.8287111227988) rotate(0 84.93120332720045 28.0494576885823)"><path d="M146.5 35.91 C151.54 39.58, 156.18 46.22, 168.01 54.31 M145.43 37.09 C150.32 42.62, 157.61 47.38, 167.42 54.45" stroke="#1e1e1e" stroke-width="2" fill="none"></path></g></g><g stroke-linecap="round"><g transform="translate(385.40227925170353 240.71984467761888) rotate(0 83.90974998632234 -11.848634864695853)"><path d="M-0.12 -1.13 C27.65 -5.22, 139.45 -19.87, 167.35 -23.65 M-1.64 0.88 C25.87 -3.07, 138.18 -18.18, 166.16 -22.09" stroke="#1e1e1e" stroke-width="2" fill="none"></path></g><g transform="translate(385.40227925170353 240.71984467761888) rotate(0 83.90974998632234 -11.848634864695853)"><path d="M137.73 -8.88 C149.13 -13.98, 158.34 -18.61, 165.86 -21.39 M139.17 -7.89 C146.6 -10.6, 152.95 -15.38, 165.38 -21.92" stroke="#1e1e1e" stroke-width="2" fill="none"></path></g><g transform="translate(385.40227925170353 240.71984467761888) rotate(0 83.90974998632234 -11.848634864695853)"><path d="M134.95 -29.21 C147.5 -27, 157.71 -24.33, 165.86 -21.39 M136.39 -28.22 C144.4 -26.01, 151.42 -25.87, 165.38 -21.92" stroke="#1e1e1e" stroke-width="2" fill="none"></path></g></g><g stroke-linecap="round"><g transform="translate(389.36715810259517 340.9407034509155) rotate(0 83.05453003817732 -60.90069461130223)"><path d="M1.16 0.78 C28.8 -19.84, 137.98 -102.39, 165.34 -122.95 M0.31 0.14 C28.38 -20.45, 139.73 -101.71, 167.65 -122.02" stroke="#1e1e1e" stroke-width="2" fill="none"></path></g><g transform="translate(389.36715810259517 340.9407034509155) rotate(0 83.05453003817732 -60.90069461130223)"><path d="M152.21 -98.4 C153.12 -104.94, 158.02 -111.32, 166.66 -120.84 M151.17 -97.28 C156.55 -104.89, 159.81 -112.34, 166.82 -122.06" stroke="#1e1e1e" stroke-width="2" fill="none"></path></g><g transform="translate(389.36715810259517 340.9407034509155) rotate(0 83.05453003817732 -60.90069461130223)"><path d="M140.12 -114.98 C144.24 -117.39, 152.23 -119.52, 166.66 -120.84 M139.08 -113.87 C147.93 -116.88, 154.62 -119.63, 166.82 -122.06" stroke="#1e1e1e" stroke-width="2" fill="none"></path></g></g><g transform="translate(185.85909073843254 428.498607653704) rotate(0 166.9198455810547 10)"><text x="0" y="NaN" font-family="Segoe UI Emoji" font-size="16px" fill="#e03131" text-anchor="start" style="white-space: pre;" direction="ltr">1-4x the effort of the original note taking</text></g><g stroke-linecap="round"><g transform="translate(394.2583047280314 10) rotate(0 0 187.93584848362073)"><path d="M0.56 -0.29 C0.64 62.4, 0.28 312.54, 0.32 375.08" stroke="#e03131" stroke-width="2.5" fill="none" stroke-dasharray="8 10"></path></g></g><g stroke-linecap="round"><g transform="translate(282.75954535674094 14.161997557288828) rotate(0 0 184.87939544115315)"><path d="M0.81 -0.53 C0.82 61.36, 0.62 308.28, 0.39 370.13" stroke="#e03131" stroke-width="2.5" fill="none" stroke-dasharray="8 10"></path></g></g><g stroke-linecap="round"><g transform="translate(823.4484086273726 201.28989634811938) rotate(0 -74.92859083793371 0.691956835077832)"><path d="M-1.16 0.08 C-26.2 0.48, -124.84 1.77, -149.62 1.8 M0.43 -0.92 C-24.79 -0.84, -125.27 -0.43, -150.45 -0.1" stroke="#1e1e1e" stroke-width="2" fill="none"></path></g><g transform="translate(823.4484086273726 201.28989634811938) rotate(0 -74.92859083793371 0.691956835077832)"><path d="M-122.2 -10.19 C-131.56 -7.18, -143.96 -2.07, -152.4 1.48 M-122.92 -10.12 C-131.51 -6.76, -138.37 -4.8, -149.59 -0.02" stroke="#1e1e1e" stroke-width="2" fill="none"></path></g><g transform="translate(823.4484086273726 201.28989634811938) rotate(0 -74.92859083793371 0.691956835077832)"><path d="M-122.04 10.33 C-131.35 6.14, -143.81 4.05, -152.4 1.48 M-122.76 10.4 C-131.57 7.55, -138.47 3.29, -149.59 -0.02" stroke="#1e1e1e" stroke-width="2" fill="none"></path></g></g><g transform="translate(716.1518444618022 191.98185318319722) rotate(0 32.36797332763672 10)"><text x="32.36797332763672" y="NaN" font-family="Segoe UI Emoji" font-size="16px" fill="#1e1e1e" text-anchor="middle" style="white-space: pre;" direction="ltr">Consume</text></g><g stroke-linecap="round" transform="translate(272.4414367675782 718.3965286191674) rotate(0 36.05126953125 48.06390380859375)"><path d="M0.56 1.77 C27.14 0.92, 56.72 -0.91, 72.29 -1.58 M-1 0.87 C16.37 -0.75, 35.18 -0.02, 72.33 -0.2 M73.02 -1.85 C70.28 21.7, 71.61 47.01, 74.01 97.72 M71.37 -0.36 C73.37 23.53, 73.51 47.55, 72.82 95.17 M70.9 94.7 C51.02 95.51, 31.43 94.04, 0.66 96.61 M72.26 95.43 C48.4 95.5, 25.76 96.53, -0.46 96.11 M-1.33 97.13 C-1.03 71.71, -1.91 44.37, 1 -0.97 M0.57 95.62 C-0.42 59.67, 0.14 22.28, -0.63 0.95" stroke="#f08c00" stroke-width="2" fill="none"></path></g><g transform="translate(279.84272003173834 753.9604324277611) rotate(0 28.649986267089844 12.5)"><text x="28.649986267089844" y="NaN" font-family="Segoe UI Emoji" font-size="20px" fill="#f08c00" text-anchor="middle" style="white-space: pre;" direction="ltr">Notes</text></g><g stroke-linecap="round" transform="translate(10 732.6838821347924) rotate(0 45.239410400390625 29.231475830078125)"><path d="M42.47 0.88 C50.91 0.19, 62.81 0.95, 70.46 3.79 C78.12 6.62, 85.42 12.3, 88.41 17.9 C91.41 23.5, 90.87 31.68, 88.44 37.41 C86.01 43.13, 80.71 48.85, 73.84 52.25 C66.97 55.66, 56.16 57.51, 47.21 57.86 C38.26 58.22, 27.45 57.57, 20.15 54.37 C12.84 51.18, 6.61 44.28, 3.39 38.66 C0.17 33.05, -1.42 26.05, 0.82 20.7 C3.06 15.35, 8.5 9.85, 16.81 6.55 C25.13 3.26, 44.23 1.67, 50.69 0.94 C57.15 0.21, 55.96 1.96, 55.57 2.19 M38.22 0.19 C46.44 -1.33, 58.22 -1.2, 65.95 1.46 C73.69 4.11, 80.65 10.97, 84.61 16.1 C88.57 21.24, 91.01 26.92, 89.72 32.26 C88.43 37.6, 82.99 44.1, 76.86 48.14 C70.73 52.19, 61.75 55.21, 52.96 56.53 C44.18 57.85, 32.02 58.25, 24.16 56.06 C16.29 53.87, 9.48 48.61, 5.76 43.39 C2.04 38.17, 0.65 30.65, 1.82 24.75 C3 18.84, 7.04 12.12, 12.79 7.98 C18.55 3.84, 32.28 0.92, 36.37 -0.07 C40.45 -1.06, 37.16 1.48, 37.31 2.04" stroke="#1e1e1e" stroke-width="2" fill="none"></path></g><g transform="translate(38.73031988632681 749.2455831813315) rotate(0 16.519996643066406 12.5)"><text x="16.519996643066406" y="NaN" font-family="Segoe UI Emoji" font-size="20px" fill="#1e1e1e" text-anchor="middle" style="white-space: pre;" direction="ltr">You</text></g><g stroke-linecap="round"><g transform="translate(101.62346783397513 763.3054375622727) rotate(0 84.75378732324685 -0.16360806724159715)"><path d="M-0.95 -0.71 C27.49 -0.7, 142.31 -0.06, 170.52 0.18 M0.76 1.53 C29.14 1.17, 141.81 -1.25, 170.11 -1.68" stroke="#1e1e1e" stroke-width="2" fill="none"></path></g><g transform="translate(101.62346783397513 763.3054375622727) rotate(0 84.75378732324685 -0.16360806724159715)"><path d="M140.93 10.79 C151.07 4.19, 160.1 1.11, 169.22 -0.71 M141.55 8.81 C151.98 6.07, 159.56 1.3, 169.26 -1.79" stroke="#1e1e1e" stroke-width="2" fill="none"></path></g><g transform="translate(101.62346783397513 763.3054375622727) rotate(0 84.75378732324685 -0.16360806724159715)"><path d="M140.54 -9.72 C150.82 -10.36, 159.96 -7.49, 169.22 -0.71 M141.16 -11.71 C151.77 -7.7, 159.47 -5.74, 169.26 -1.79" stroke="#1e1e1e" stroke-width="2" fill="none"></path></g></g><g transform="translate(154.13745546318705 750.6418291566689) rotate(0 32.23997497558594 12.5)"><text x="32.23997497558594" y="NaN" font-family="Segoe UI Emoji" font-size="20px" fill="#1e1e1e" text-anchor="middle" style="white-space: pre;" direction="ltr">Create</text></g><g transform="translate(111.90737915039062 811.7711013730736) rotate(0 71.70146179199219 40)"><text x="0" y="NaN" font-family="Segoe UI Emoji" font-size="16px" fill="#1e1e1e" text-anchor="start" style="white-space: pre;" direction="ltr">- Unstructured</text><text x="0" y="NaN" font-family="Segoe UI Emoji" font-size="16px" fill="#1e1e1e" text-anchor="start" style="white-space: pre;" direction="ltr">- Chaotic</text><text x="0" y="NaN" font-family="Segoe UI Emoji" font-size="16px" fill="#1e1e1e" text-anchor="start" style="white-space: pre;" direction="ltr">- Disconnected</text><text x="0" y="NaN" font-family="Segoe UI Emoji" font-size="16px" fill="#1e1e1e" text-anchor="start" style="white-space: pre;" direction="ltr">- Rapid</text></g><g stroke-linecap="round" transform="translate(585.8397216796875 731.5220169004174) rotate(0 45.239410400390625 29.231475830078125)"><path d="M55.93 0.29 C64.15 1.3, 73.76 6.79, 79.57 11.11 C85.39 15.44, 90.28 20.78, 90.82 26.24 C91.37 31.69, 87.64 38.82, 82.86 43.85 C78.08 48.89, 70.05 54.02, 62.13 56.44 C54.2 58.87, 43.97 59.67, 35.3 58.4 C26.63 57.12, 16.12 53.42, 10.1 48.78 C4.08 44.14, -0.24 36.31, -0.84 30.57 C-1.45 24.83, 1.7 18.95, 6.49 14.33 C11.28 9.71, 19.24 4.89, 27.91 2.84 C36.58 0.79, 53.16 2.16, 58.49 2.03 C63.82 1.91, 60 1.8, 59.89 2.1 M31.5 -0.16 C39.3 -1.84, 49.85 -0.09, 58.36 2.05 C66.87 4.19, 76.97 8.18, 82.56 12.69 C88.14 17.19, 92.03 23.57, 91.89 29.07 C91.75 34.57, 87.4 41.1, 81.72 45.69 C76.05 50.28, 66.34 54.57, 57.83 56.61 C49.32 58.65, 39.03 59.66, 30.66 57.91 C22.29 56.15, 12.79 50.74, 7.59 46.07 C2.39 41.4, -0.92 35.77, -0.54 29.88 C-0.17 23.99, 4.34 15.54, 9.86 10.73 C15.39 5.93, 28.77 2.67, 32.59 1.04 C36.41 -0.59, 32.83 0.3, 32.79 0.94" stroke="#1e1e1e" stroke-width="2" fill="none"></path></g><g transform="translate(614.5700415660143 748.0837179469565) rotate(0 16.519996643066406 12.5)"><text x="16.519996643066406" y="NaN" font-family="Segoe UI Emoji" font-size="20px" fill="#1e1e1e" text-anchor="middle" style="white-space: pre;" direction="ltr">You</text></g><g stroke-linecap="round"><g transform="translate(584.872258462881 762.9658173756612) rotate(0 -81.82695259569826 2.5491068560050962)"><path d="M0.27 -0.24 C-27.21 0.49, -137.15 3.77, -164.33 4.75 M-1.04 -1.42 C-28.19 -0.54, -134.96 5.27, -161.98 6.1" stroke="#1e1e1e" stroke-width="2" fill="none"></path></g><g transform="translate(584.872258462881 762.9658173756612) rotate(0 -81.82695259569826 2.5491068560050962)"><path d="M-134.67 -6.52 C-144.48 0.08, -152.64 0.84, -163.52 4.42 M-133.47 -5.9 C-141.54 -2.75, -151.02 1.17, -161.42 5.77" stroke="#1e1e1e" stroke-width="2" fill="none"></path></g><g transform="translate(584.872258462881 762.9658173756612) rotate(0 -81.82695259569826 2.5491068560050962)"><path d="M-133.77 13.98 C-143.95 13.43, -152.43 7.05, -163.52 4.42 M-132.57 14.6 C-140.92 11.82, -150.66 9.82, -161.42 5.77" stroke="#1e1e1e" stroke-width="2" fill="none"></path></g></g><g transform="translate(470.6769246317323 755.514936938978) rotate(0 32.36797332763672 10)"><text x="32.36797332763672" y="NaN" font-family="Segoe UI Emoji" font-size="16px" fill="#1e1e1e" text-anchor="middle" style="white-space: pre;" direction="ltr">Consume</text></g><g transform="translate(461.9542071808974 809.615772109391) rotate(0 71.70146179199219 50)"><text x="0" y="NaN" font-family="Segoe UI Emoji" font-size="16px" fill="#1e1e1e" text-anchor="start" style="white-space: pre;" direction="ltr">- Grouped</text><text x="0" y="NaN" font-family="Segoe UI Emoji" font-size="16px" fill="#1e1e1e" text-anchor="start" style="white-space: pre;" direction="ltr">- Tagged</text><text x="0" y="NaN" font-family="Segoe UI Emoji" font-size="16px" fill="#1e1e1e" text-anchor="start" style="white-space: pre;" direction="ltr">- Structured</text><text x="0" y="NaN" font-family="Segoe UI Emoji" font-size="16px" fill="#1e1e1e" text-anchor="start" style="white-space: pre;" direction="ltr">- Well paced</text><text x="0" y="NaN" font-family="Segoe UI Emoji" font-size="16px" fill="#1e1e1e" text-anchor="start" style="white-space: pre;" direction="ltr">- Searchable</text></g><g stroke-linecap="round" transform="translate(344.2156724563329 719.111188786447) rotate(0 35.5921630859375 48.06390380859375)"><path d="M-1.54 -1.69 C26.1 0.9, 54.55 2.25, 70.15 1.47 M0.56 -0.33 C15.24 0.07, 29.79 -0.71, 70.87 0.48 M69.46 -0.45 C68.65 24.71, 71.27 53.74, 71.61 98.01 M70.64 -0.36 C71.32 25.96, 70.88 50.57, 70.82 96.82 M70.82 97.04 C44.48 95.38, 21.27 95.52, 1.69 97.72 M71.53 96.65 C56.25 95.89, 38.87 96.72, 0.27 96.65 M-0.86 96.59 C-0.02 60.39, -0.84 26.84, 1.97 -1.87 M-0.58 96.66 C-1.2 65.39, -0.26 34.87, 0.33 0.1" stroke="#2f9e44" stroke-width="2" fill="none"></path></g><g transform="translate(351.1578492751806 754.6750925950407) rotate(0 28.649986267089844 12.5)"><text x="28.649986267089844" y="NaN" font-family="Segoe UI Emoji" font-size="20px" fill="#2f9e44" text-anchor="middle" style="white-space: pre;" direction="ltr">Notes</text></g></svg>