<svg version="1.1" xmlns="http://www.w3.org/2000/svg" viewBox="0 0 607.4110239430564 358.2682249856546" width="607.4110239430564" height="358.2682249856546">
  <!-- svg-source:excalidraw -->
  
  <defs>
    <style>
      @font-face {
        font-family: "Virgil";
        src: url("https://excalidraw.com/Virgil.woff2");
      }
      @font-face {
        font-family: "Cascadia";
        src: url("https://excalidraw.com/Cascadia.woff2");
      }
    </style>
  </defs>
  <rect x="0" y="0" width="607.4110239430564" height="358.2682249856546" fill="#ffffff"></rect><g stroke-linecap="round" transform="translate(12.11935511795781 47.72319555404056) rotate(0 60.69017028808594 18.040481567382812)"><path d="M1.8 0.33 C45.93 0.85, 93.16 2.11, 120.33 0.66 M0.58 0.88 C44.95 2.02, 91.73 1.72, 120.88 -0.35 M121.26 1.1 C121.25 12.92, 122.49 27.5, 122.29 37.89 M121.39 -0.11 C121.61 12.23, 120.74 23.84, 122.02 35.13 M122.58 36.21 C75.28 35.96, 27 35.12, 1.11 35.15 M121.02 35.67 C82.51 37.62, 45.44 37.89, 0.71 36.67 M0.26 35.61 C1.68 25.51, 0.78 17.47, -1.96 -1.35 M0.86 36.6 C-0.35 25.86, 0.78 13.77, -0.05 -0.58" stroke="#1e1e1e" stroke-width="2" fill="none"></path></g><g transform="translate(37.72954646317265 53.26367712142337) rotate(0 35.079978942871094 12.5)"><text x="35.079978942871094" y="NaN" font-family="Segoe UI Emoji" font-size="20px" fill="#1e1e1e" text-anchor="middle" style="white-space: pre;" direction="ltr">Memory</text></g><g transform="translate(98.32641486528001 10) rotate(0 48.549964904785156 12.5)"><text x="0" y="NaN" font-family="Segoe UI Emoji" font-size="20px" fill="#1e1e1e" text-anchor="start" style="white-space: pre;" direction="ltr">Computing</text></g><g stroke-linecap="round" transform="translate(142.12323698220422 47.08134985091556) rotate(0 60.69017028808594 18.040481567382812)"><path d="M-1.05 0.66 C41.52 -2.37, 78.18 0.04, 123.13 -1.63 M-0.5 -0.35 C48.71 -0.78, 96.69 -0.83, 121.93 -0.07 M122.29 1.81 C122.12 9.16, 122.77 18.4, 121.16 36.55 M122.02 -0.95 C122.06 12.57, 120.8 25.33, 121.45 36.74 M122.5 35.15 C83.44 36.28, 46.54 35.04, -0.82 35.06 M122.09 36.67 C78.47 36.08, 36.76 37.17, -0.24 36.75 M-1.96 34.73 C-0.15 27.22, 0.89 18.64, 1.05 -0.45 M-0.05 35.5 C-0.75 24.4, 0.15 11.87, 0.44 -0.98" stroke="#1e1e1e" stroke-width="2" fill="none"></path></g><g transform="translate(175.11342558083703 52.62183141829837) rotate(0 27.699981689453125 12.5)"><text x="27.699981689453125" y="NaN" font-family="Segoe UI Emoji" font-size="20px" fill="#1e1e1e" text-anchor="middle" style="white-space: pre;" direction="ltr">VRAM</text></g><g stroke-linecap="round" transform="translate(10.452338544704219 96.02639691262101) rotate(0 60.69017028808594 18.040481567382812)"><path d="M-1.78 1.16 C42.16 -0.87, 82.71 1.17, 122.65 -1 M0.93 -0.06 C32.73 -0.06, 63.9 0.56, 121.3 0.45 M122.57 0.03 C121.25 14.55, 122.33 26.89, 121.86 37.37 M121.03 0.6 C121.77 8.07, 121.86 15.04, 121.11 36.64 M123.07 35.36 C89.79 35.38, 60.85 37.96, 1.58 37.5 M122.07 36.21 C77.55 35.58, 33.85 35.13, 0.57 35.1 M0.97 37.8 C1.06 27.25, 0.95 21.13, -1.85 -0.1 M0.47 36.89 C0.59 26.38, -0.43 17.79, 0.55 0.93" stroke="#1e1e1e" stroke-width="2" fill="none"></path></g><g transform="translate(41.56252988991906 101.56687848000382) rotate(0 29.579978942871094 12.5)"><text x="29.579978942871094" y="NaN" font-family="Segoe UI Emoji" font-size="20px" fill="#1e1e1e" text-anchor="middle" style="white-space: pre;" direction="ltr">DRAM</text></g><g stroke-linecap="round" transform="translate(140.21845182595422 92.67722686147573) rotate(0 60.69017028808594 18.040481567382812)"><path d="M1.89 0.41 C44.75 -0.01, 86.25 2.65, 121.38 1.86 M-0.45 0.56 C35.62 0.53, 72.3 0.35, 121.37 0.59 M122.23 -1.27 C121.82 12.16, 119.44 23.56, 121.78 35.37 M121.53 0.24 C121.14 13.55, 120.94 26.15, 121.64 36.92 M122.41 37.64 C90.9 36.88, 58.45 34.94, -1.92 37.45 M121.04 36.3 C83.96 35.91, 44.72 36.86, 0.36 36.56 M0.93 37.89 C-2.04 22.06, -1.35 7.38, 1.65 0.95 M-0.59 35.24 C0.39 23.26, -0.86 8.57, 0.43 -0.14" stroke="#1e1e1e" stroke-width="2" fill="none"></path></g><g transform="translate(180.338637678005 98.21770842885854) rotate(0 20.569984436035156 12.5)"><text x="20.569984436035156" y="NaN" font-family="Segoe UI Emoji" font-size="20px" fill="#1e1e1e" text-anchor="middle" style="white-space: pre;" direction="ltr">CPU</text></g><g transform="translate(405.63997497000867 16.650720914854674) rotate(0 60.15995788574219 12.5)"><text x="0" y="NaN" font-family="Segoe UI Emoji" font-size="20px" fill="#1e1e1e" text-anchor="start" style="white-space: pre;" direction="ltr">Productivity</text></g><g stroke-linecap="round" transform="translate(143.70402767649756 141.56728091734533) rotate(0 60.69017028808594 18.040481567382812)"><path d="M-0.13 -0.91 C48.8 -0.82, 96.28 1.14, 121.92 -0.03 M0.24 0.43 C42.99 0.38, 87.9 -0.81, 122.29 0.2 M122.71 0.3 C122.08 9.01, 122.71 18.17, 121.7 36.61 M120.87 0.51 C122.03 14.66, 121.96 28.33, 121.12 35.12 M122.72 35.39 C77.08 36.94, 29.96 34.44, -0.07 36.8 M121.16 36.55 C80.01 35.79, 36.77 36.13, -0.43 36.91 M-1.96 34.91 C-1.98 24.65, 1.56 9.6, -0.03 0.85 M0.05 35.22 C0.69 26.2, 1.19 15.61, 0.97 0.27" stroke="#1e1e1e" stroke-width="2" fill="none"></path></g><g transform="translate(182.31421139231787 147.10776248472814) rotate(0 22.079986572265625 12.5)"><text x="22.079986572265625" y="NaN" font-family="Segoe UI Emoji" font-size="20px" fill="#1e1e1e" text-anchor="middle" style="white-space: pre;" direction="ltr">GPU</text></g><g stroke-linecap="round" transform="translate(10 142.61301689445054) rotate(0 60.69017028808594 30)"><path d="M0.91 1.81 C31.45 0.06, 63.01 0.12, 121.16 0.47 M0.64 -0.95 C42.5 -0.09, 82.84 0.31, 121.45 0.66 M122.5 -0.93 C121.85 19.44, 123.21 37.11, 120.56 58.98 M122.09 0.59 C121.59 20.12, 122.53 42.3, 121.14 60.67 M119.42 58.65 C89.07 61.42, 57.88 62.42, 1.05 59.55 M121.33 59.42 C78.87 59.7, 37.69 59.69, 0.44 59.02 M1.86 58.59 C0.48 46.38, 0.22 29.31, -0.24 0.1 M0.87 60.15 C0.75 47.42, -0.41 34.57, -0.67 -0.93" stroke="#1e1e1e" stroke-width="2" fill="none"></path></g><g transform="translate(32.90020751953125 147.61301689445054) rotate(0 37.78996276855469 25)"><text x="37.78996276855469" y="NaN" font-family="Segoe UI Emoji" font-size="20px" fill="#1e1e1e" text-anchor="middle" style="white-space: pre;" direction="ltr">DNS</text><text x="37.78996276855469" y="NaN" font-family="Segoe UI Emoji" font-size="20px" fill="#1e1e1e" text-anchor="middle" style="white-space: pre;" direction="ltr">Reading</text></g><g stroke-linecap="round" transform="translate(341.7648745140879 50.225506154433106) rotate(0 60.69017028808594 30)"><path d="M1.19 0.03 C47.15 0.49, 95.6 -1.25, 121.86 1.29 M-0.35 0.6 C24.97 0.42, 49.96 -0.01, 121.11 0.56 M123.07 -0.72 C120.66 14.19, 122.5 31.99, 122.96 61.42 M122.07 0.13 C120.99 22.22, 120.88 43.31, 121.95 59.02 M122.35 61.72 C94.23 59.99, 65.92 62.25, -1.85 59.9 M121.85 60.81 C92.48 60.02, 62.1 60.16, 0.55 60.93 M-0.29 58.25 C-0.24 46.32, -1.71 33.19, 0.86 1.74 M-0.18 60.27 C-1.25 40.18, -1.31 23.17, 0.32 -0.48" stroke="#1e1e1e" stroke-width="2" fill="none"></path></g><g transform="translate(370.5450716576426 55.225506154433106) rotate(0 31.90997314453125 25)"><text x="31.90997314453125" y="NaN" font-family="Segoe UI Emoji" font-size="20px" fill="#1e1e1e" text-anchor="middle" style="white-space: pre;" direction="ltr">Note</text><text x="31.90997314453125" y="NaN" font-family="Segoe UI Emoji" font-size="20px" fill="#1e1e1e" text-anchor="middle" style="white-space: pre;" direction="ltr">Taking</text></g><g stroke-linecap="round" transform="translate(473.30295157632526 53.316411686309664) rotate(0 60.69017028808594 30)"><path d="M0.92 1.18 C37.37 1.04, 78.2 -0.09, 120.5 0.11 M0.09 0.6 C48.95 1.61, 95.31 1.65, 122.06 -0.22 M120.62 0.94 C122.62 19.42, 119.44 41, 122 61.63 M121.55 -0.85 C121.65 19.73, 121.83 40.73, 120.77 60.29 M120.33 58.98 C77.83 57.45, 36.3 60.21, -1.38 60.05 M120.67 60.92 C78.92 61.85, 36.9 60.09, 0.38 59.56 M0.57 61.04 C-1.81 42.74, -0.41 23.02, -0.9 -1.43 M0.95 59.29 C-0.04 48.75, -0.32 35.83, 0.06 -0.9" stroke="#1e1e1e" stroke-width="2" fill="none"></path></g><g transform="translate(506.64313101968463 58.316411686309664) rotate(0 27.349990844726562 25)"><text x="27.349990844726562" y="NaN" font-family="Segoe UI Emoji" font-size="20px" fill="#1e1e1e" text-anchor="middle" style="white-space: pre;" direction="ltr">Admin</text><text x="27.349990844726562" y="NaN" font-family="Segoe UI Emoji" font-size="20px" fill="#1e1e1e" text-anchor="middle" style="white-space: pre;" direction="ltr">Tools</text></g><g stroke-linecap="round" transform="translate(336.77173903928394 130.30458527453345) rotate(0 60.69017028808594 30)"><path d="M0.08 -0.91 C42.7 -0.03, 89.08 0.35, 120.01 0.17 M-0.83 0.81 C44.43 -1.16, 87.78 -1.04, 121.29 -0.38 M119.5 1.55 C122.39 22.46, 122.44 42.22, 122.58 60.33 M121.66 0.69 C120.84 13.22, 122.02 25.43, 120.71 59.48 M123.09 61.02 C89.76 58.99, 61.87 59.2, 1.59 58.58 M121.61 59.13 C74.24 60.63, 26.52 61.68, -0.82 60.28 M-0.05 61.25 C-0.46 37.46, -1.52 17.67, 0.61 1.9 M-0.35 60.1 C0.1 45.37, 0.18 32.79, -0.13 -0.77" stroke="#1e1e1e" stroke-width="2" fill="none"></path></g><g transform="translate(364.2619428967058 135.30458527453345) rotate(0 33.19996643066406 25)"><text x="33.19996643066406" y="NaN" font-family="Segoe UI Emoji" font-size="20px" fill="#1e1e1e" text-anchor="middle" style="white-space: pre;" direction="ltr">Blog</text><text x="33.19996643066406" y="NaN" font-family="Segoe UI Emoji" font-size="20px" fill="#1e1e1e" text-anchor="middle" style="white-space: pre;" direction="ltr">Writing</text></g><g stroke-linecap="round" transform="translate(476.03068336688455 130.4728412698397) rotate(0 60.69017028808594 42.5)"><path d="M1.92 0.48 C29.51 0.11, 62.96 1.69, 122.94 -1.67 M0.29 -0.1 C46.2 -0.11, 93.05 0.92, 121.23 -0.94 M122.05 0.56 C122.84 32.41, 119.95 64.36, 120.8 85.56 M121.96 -0.43 C120.2 30.81, 120.36 62.58, 120.51 85.85 M122.36 85.26 C80.39 83.61, 38.05 84.82, 1.76 85.46 M121.57 85.6 C94.7 84.75, 70.18 83.74, 0.93 84.97 M-1.95 84.88 C0.99 56.08, -1.04 23.2, 1.77 -0.71 M0.13 85.26 C-0.17 57.87, 0.15 32.29, 0.92 0.04" stroke="#1e1e1e" stroke-width="2" fill="none"></path></g><g transform="translate(504.81088051043923 135.4728412698397) rotate(0 31.90997314453125 37.5)"><text x="31.90997314453125" y="NaN" font-family="Segoe UI Emoji" font-size="20px" fill="#1e1e1e" text-anchor="middle" style="white-space: pre;" direction="ltr">Note</text><text x="31.90997314453125" y="NaN" font-family="Segoe UI Emoji" font-size="20px" fill="#1e1e1e" text-anchor="middle" style="white-space: pre;" direction="ltr">Taking</text><text x="31.90997314453125" y="NaN" font-family="Segoe UI Emoji" font-size="20px" fill="#1e1e1e" text-anchor="middle" style="white-space: pre;" direction="ltr">Tools</text></g><g stroke-linecap="round" transform="translate(142.05154087290344 186.84535437390582) rotate(0 60.69017028808594 42.49999999999997)"><path d="M-0.67 -0.4 C34.15 2.4, 64.24 1.75, 122.29 1.04 M0.6 0.49 C45.69 0.3, 91.94 1.25, 122.36 0.25 M121.34 1.79 C120.45 32.76, 122.03 63.66, 122.23 83.74 M121.75 -0.09 C120.72 32.11, 120.98 65.57, 122.19 84.13 M122.54 85.56 C78.84 85.47, 35.38 86.88, -1.95 86.86 M121.67 85.82 C95.87 85.16, 71.32 85.43, -0.05 85.67 M-1.85 83.45 C2.47 56.55, -1.24 27.47, 1.62 1.16 M-0.58 85.01 C-0.49 54.89, -0.33 25.55, 0.39 -0.79" stroke="#1e1e1e" stroke-width="2" fill="none"></path></g><g transform="translate(165.3917432044464 191.84535437390582) rotate(0 37.34996795654297 37.49999999999997)"><text x="37.34996795654297" y="NaN" font-family="Segoe UI Emoji" font-size="20px" fill="#1e1e1e" text-anchor="middle" style="white-space: pre;" direction="ltr">Load</text><text x="37.34996795654297" y="NaN" font-family="Segoe UI Emoji" font-size="20px" fill="#1e1e1e" text-anchor="middle" style="white-space: pre;" direction="ltr">Testing</text><text x="37.34996795654297" y="NaN" font-family="Segoe UI Emoji" font-size="20px" fill="#1e1e1e" text-anchor="middle" style="white-space: pre;" direction="ltr">Demo</text></g><g stroke-linecap="round" transform="translate(337.0454320500828 202.71915298058713) rotate(0 60.69017028808594 42.5)"><path d="M-1.17 1.85 C28.23 1.14, 53.65 0.97, 119.64 -0.18 M-0.49 -0.04 C41.04 -0.01, 83.56 1.18, 121.16 -0.47 M122.11 0.66 C121.27 28.53, 121.9 57.16, 119.79 85.3 M120.61 0.17 C121.62 26.82, 120.52 54.8, 120.55 85.85 M119.45 84.59 C93.08 88.1, 65.29 86.84, 0.25 83.96 M121.85 85.61 C84.58 84.41, 47.85 83.95, -0.41 84.84 M1.75 83.28 C1.25 54.84, -0.39 21.97, 0.05 0.14 M0.58 84.39 C-0.39 60.64, 0.09 37.04, -0.44 -0.08" stroke="#1e1e1e" stroke-width="2" fill="none"></path></g><g transform="translate(356.86563773855937 220.21915298058713) rotate(0 40.869964599609375 25)"><text x="40.869964599609375" y="NaN" font-family="Segoe UI Emoji" font-size="20px" fill="#1e1e1e" text-anchor="middle" style="white-space: pre;" direction="ltr">Personal</text><text x="40.869964599609375" y="NaN" font-family="Segoe UI Emoji" font-size="20px" fill="#1e1e1e" text-anchor="middle" style="white-space: pre;" direction="ltr">Blog</text></g><g stroke-linecap="round" transform="translate(12.730171665816556 210.92102020819226) rotate(0 60.69017028808594 42.5)"><path d="M1.03 0.98 C31.39 -1.89, 64.79 -1.17, 119.83 -0.35 M-0.74 0.17 C42.67 0.86, 86.38 1.48, 121.44 0.51 M119.43 0.04 C120.92 32.35, 120.78 60.51, 122.76 85.09 M122.2 -0.98 C119.92 26.19, 121.22 51.02, 121.91 85.12 M121.09 83.73 C73.51 86.22, 29.44 85.26, -1 83.84 M121.21 85.64 C77.24 84.26, 34.87 84.78, 0.71 84.52 M-0.04 85.35 C0.72 58.4, -0.09 32.91, 0.7 -1.33 M-0.45 84.14 C-0.81 56.39, -1.74 27.43, -0.21 -0.08" stroke="#1e1e1e" stroke-width="2" fill="none"></path></g><g transform="translate(24.870377049117337 228.42102020819226) rotate(0 48.549964904785156 25)"><text x="48.549964904785156" y="NaN" font-family="Segoe UI Emoji" font-size="20px" fill="#1e1e1e" text-anchor="middle" style="white-space: pre;" direction="ltr">Computing</text><text x="48.549964904785156" y="NaN" font-family="Segoe UI Emoji" font-size="20px" fill="#1e1e1e" text-anchor="middle" style="white-space: pre;" direction="ltr">Meeting</text></g><g stroke-linecap="round" transform="translate(144.43856267950855 288.2682249856546) rotate(0 60.69017028808594 30)"><path d="M1.53 -0.11 C28.44 0, 56.18 0.05, 120.03 1.01 M-0.23 0.46 C24.68 1.45, 49.99 0.17, 122.02 0.21 M120.84 -0.05 C120.51 22.43, 122.49 42.67, 120.44 58.8 M120.58 -0.39 C122.89 17.92, 121.13 34.35, 121.76 60.86 M121.98 60.55 C90.04 61.7, 61.66 62.5, 0.39 58.09 M121.12 60.21 C84.54 59.86, 47.94 59.27, -0.94 59.87 M-1.13 61.68 C-0.12 44.47, 1.6 28.91, -0.33 1.85 M0.8 59.63 C1.52 45.39, 0.88 31.43, 0.41 0.8" stroke="#1e1e1e" stroke-width="2" fill="none"></path></g><g transform="translate(164.36876897833667 293.2682249856546) rotate(0 40.75996398925781 25)"><text x="40.75996398925781" y="NaN" font-family="Segoe UI Emoji" font-size="20px" fill="#1e1e1e" text-anchor="middle" style="white-space: pre;" direction="ltr">GPU</text><text x="40.75996398925781" y="NaN" font-family="Segoe UI Emoji" font-size="20px" fill="#1e1e1e" text-anchor="middle" style="white-space: pre;" direction="ltr">Insights</text></g></svg>