<svg version="1.1" xmlns="http://www.w3.org/2000/svg" viewBox="0 0 321.4215269008506 495.438156336312" width="321.4215269008506" height="495.438156336312">
  <!-- svg-source:excalidraw -->
  
  <defs>
    <style>
      @font-face {
        font-family: "Virgil";
        src: url("https://excalidraw.com/Virgil.woff2");
      }
      @font-face {
        font-family: "Cascadia";
        src: url("https://excalidraw.com/Cascadia.woff2");
      }
    </style>
  </defs>
  <rect x="0" y="0" width="321.4215269008506" height="495.438156336312" fill="#ffffff"></rect><g stroke-linecap="round" transform="translate(106.27696467335579 245.84220959484514) rotate(0 55.398382285612 52.12946585908264)"><path d="M52.2 0.63 C60.94 -0.71, 72.62 1.22, 80.9 5.17 C89.19 9.13, 97.1 16.79, 101.92 24.36 C106.74 31.93, 109.48 41.99, 109.84 50.59 C110.19 59.2, 108.28 68.39, 104.05 76 C99.82 83.6, 92.12 91.52, 84.46 96.24 C76.8 100.96, 67.05 104.03, 58.1 104.32 C49.15 104.61, 39.08 102, 30.76 97.98 C22.45 93.96, 13.14 87.41, 8.18 80.19 C3.22 72.97, 1.3 63.28, 0.99 54.68 C0.69 46.08, 2.13 36.28, 6.35 28.58 C10.57 20.88, 17.92 13.17, 26.32 8.49 C34.72 3.81, 51.2 1.87, 56.75 0.49 C62.3 -0.89, 59.64 -0.76, 59.61 0.19 M36.81 1.57 C44.85 -1.59, 58.29 -1.2, 67.47 0.59 C76.65 2.38, 84.99 6.41, 91.92 12.3 C98.84 18.19, 106.1 27.28, 109.02 35.94 C111.94 44.6, 111.34 55.79, 109.44 64.25 C107.55 72.72, 103.57 80.42, 97.66 86.73 C91.74 93.04, 83.16 99.29, 73.97 102.12 C64.77 104.96, 51.76 105.57, 42.49 103.75 C33.21 101.92, 25.16 96.98, 18.3 91.16 C11.44 85.35, 4.15 77.22, 1.33 68.85 C-1.49 60.48, -0.55 49.55, 1.4 40.93 C3.34 32.3, 6.71 23.37, 13.01 17.11 C19.3 10.85, 34.68 5.53, 39.16 3.39 C43.64 1.25, 39.6 3.43, 39.89 4.27" stroke="#1e1e1e" stroke-width="2" fill="none"></path></g><g transform="translate(129.8207912302929 280.6105766453379) rotate(0 31.681983947753906 17.5)"><text x="31.681983947753906" y="NaN" font-family="Segoe UI Emoji" font-size="28px" fill="#1e1e1e" text-anchor="middle" style="white-space: pre;" direction="ltr">Idea</text></g><g stroke-linecap="round" transform="translate(10 15.298044459701941) rotate(0 61.09651851753904 24.56198163301974)"><path d="M-0.14 0.95 L122.93 1.78 L121.55 48.01 L-0.76 49.13" stroke="none" stroke-width="0" fill="#a5d8ff"></path><path d="M0.17 -0.85 C45.66 2.42, 91.96 1.48, 121.48 0.8 M0.28 -0.85 C40.72 0.22, 81.21 -0.59, 123.08 -0.31 M121.42 0.27 C122.23 11.7, 123.06 24.07, 123.75 50.78 M121.27 -0.22 C121.84 19.21, 122.47 36.13, 121.93 48.6 M123.08 48.33 C93.36 49.28, 68.36 49.74, -1.25 50.9 M122.85 49.88 C80.89 50.19, 40.24 50.52, 0.82 49.53 M-1.03 51.05 C-1.22 38.12, 1.38 25.18, -0.23 1 M0.94 48.89 C-1.07 38.55, -0.7 27.45, -0.82 -0.94" stroke="#1971c2" stroke-width="2" fill="none"></path></g><g transform="translate(25.974532128378883 22.360026092721682) rotate(0 45.121986389160156 17.5)"><text x="45.121986389160156" y="NaN" font-family="Segoe UI Emoji" font-size="28px" fill="#1971c2" text-anchor="middle" style="white-space: pre;" direction="ltr">Source</text></g><g stroke-linecap="round" transform="translate(189.22848986577242 10) rotate(0 61.096518517539096 24.56198163301974)"><path d="M-1.66 -1.51 L120.39 0.92 L120.2 50.3 L1.24 48.29" stroke="none" stroke-width="0" fill="#a5d8ff"></path><path d="M-0.86 0.66 C38.67 -1.03, 77.32 -1.22, 120.28 -0.99 M-0.6 0.62 C41.26 -0.69, 82.4 -1.11, 122.09 0.81 M124.08 0.11 C124.39 17.16, 124.16 35.05, 123.45 50.55 M122.33 -0.3 C121.09 10.61, 121.39 22.33, 121.22 49.7 M121.18 50.54 C76.56 48.76, 34.19 48.43, 0.33 47.68 M122.07 48.48 C73.64 49.71, 25.04 49.48, 0.45 49.68 M-1.58 49.13 C-1.28 29.93, -2.11 12.17, -1.38 -0.59 M0.4 49.73 C0.43 35.34, 0.07 19.84, 0.93 0.83" stroke="#1971c2" stroke-width="2" fill="none"></path></g><g transform="translate(205.2030219941513 17.06198163301974) rotate(0 45.121986389160156 17.5)"><text x="45.121986389160156" y="NaN" font-family="Segoe UI Emoji" font-size="28px" fill="#1971c2" text-anchor="middle" style="white-space: pre;" direction="ltr">Source</text></g><g stroke-linecap="round" transform="translate(100.28113128009988 136.6299339434779) rotate(0 61.09651851753904 24.56198163301974)"><path d="M-0.13 1.24 L123.35 0.71 L121.24 47.43 L-1.36 50.86" stroke="none" stroke-width="0" fill="#b2f2bb"></path><path d="M1.28 1.31 C37.64 1.77, 75.06 1.07, 120.72 -1.5 M0.24 -0.5 C29.83 0.76, 58.99 1.67, 121.62 0.89 M122.95 1.38 C121.53 12.75, 124.15 25.39, 122.64 47.83 M121.57 0.63 C122.92 9.99, 122.3 21.76, 122.87 48.6 M123.17 48.69 C93.88 51.96, 64.12 50.27, -1.99 48.85 M121.86 48.95 C95.25 49.7, 68.12 49.29, 0.71 49.44 M0.04 49.97 C-0.22 33.13, -0.3 17.41, -0.45 -0.75 M-0.4 49.16 C-0.21 31.93, -0.6 13.5, 0.57 0.87" stroke="#2f9e44" stroke-width="2" fill="none"></path></g><g transform="translate(111.91567469998267 143.69191557649765) rotate(0 49.46197509765625 17.5)"><text x="49.46197509765625" y="NaN" font-family="Segoe UI Emoji" font-size="28px" fill="#2f9e44" text-anchor="middle" style="white-space: pre;" direction="ltr">Insight</text></g><g stroke-linecap="round" transform="translate(100.91889996034809 436.3141930702725) rotate(0 61.09651851753904 24.56198163301974)"><path d="M1.42 1.42 L121.85 -1.47 L121.24 47.75 L-0.98 48.33" stroke="none" stroke-width="0" fill="#ffec99"></path><path d="M1.33 1.47 C47.9 0.99, 92.91 -0.16, 121.65 -1.41 M0.28 -0.91 C49.12 0.9, 97.04 1.48, 122.34 0.45 M120.59 1.75 C121.76 14.16, 123.9 26.66, 122.37 47.45 M122.14 -0.88 C121.78 13.98, 122.47 27.64, 121.48 49.02 M123.33 48.29 C76.73 47.42, 28.65 48.37, -1.22 49.12 M121.75 50.02 C79.51 48.69, 36.69 49.23, 0.19 49.5 M-0.55 48.69 C-0.04 28.58, 0.91 13.46, 0.39 -1.73 M-0.98 49 C0.55 36.06, 0.22 25.14, -0.01 -0.41" stroke="#f08c00" stroke-width="2" fill="none"></path></g><g transform="translate(107.07943672739884 443.37617470329224) rotate(0 54.93598175048828 17.5)"><text x="54.93598175048828" y="NaN" font-family="Segoe UI Emoji" font-size="28px" fill="#f08c00" text-anchor="middle" style="white-space: pre;" direction="ltr">Content</text></g><g stroke-linecap="round"><g transform="translate(70.9965185175389 69.42200772574142) rotate(0 45.14056564005 31.103963108868356)"><path d="M0.48 -0.67 C0.68 4.34, -14.11 24.9, 1 30.15 C16.12 35.39, 76.39 25.46, 91.16 30.81 C105.92 36.16, 89.75 56.9, 89.59 62.24 M-0.73 1.59 C-0.58 6.72, -14.68 26.12, 0.58 31.18 C15.85 36.24, 76.04 26.61, 90.85 31.97 C105.67 37.34, 89.83 58.09, 89.47 63.36" stroke="#1e1e1e" stroke-width="2" fill="none"></path></g><g transform="translate(70.9965185175389 69.42200772574142) rotate(0 45.14056564005 31.103963108868356)"><path d="M89.12 49.12 C88.61 53.35, 89.33 55.71, 89.52 63.27 M90.51 48.4 C90.59 54.11, 90.21 59.43, 89.82 63.69" stroke="#1e1e1e" stroke-width="2" fill="none"></path></g><g transform="translate(70.9965185175389 69.42200772574142) rotate(0 45.14056564005 31.103963108868356)"><path d="M98.99 53.09 C95.69 56.24, 93.62 57.47, 89.52 63.27 M100.38 52.37 C96.92 56.72, 93.03 60.63, 89.82 63.69" stroke="#1e1e1e" stroke-width="2" fill="none"></path></g></g><g stroke-linecap="round"><g transform="translate(250.2250083833111 64.12396326603948) rotate(0 -44.473679292836096 33.75298533871933)"><path d="M0.4 -0.99 C0.56 4.69, 15.11 28, 0.08 33.93 C-14.94 39.87, -74.84 29.15, -89.74 34.62 C-104.64 40.09, -89.31 61.23, -89.31 66.76 M-0.85 1.11 C-0.76 7.01, 13.58 30.29, -0.82 35.56 C-15.22 40.83, -72.53 27.41, -87.27 32.73 C-102 38.05, -89.14 61.53, -89.25 67.48" stroke="#1e1e1e" stroke-width="2" fill="none"></path></g><g transform="translate(250.2250083833111 64.12396326603948) rotate(0 -44.473679292836096 33.75298533871933)"><path d="M-100.12 53.63 C-96.36 55.51, -93.26 59.27, -90.3 66.36 M-98.74 53.52 C-95.81 58.87, -91.84 63.08, -89.73 66.68" stroke="#1e1e1e" stroke-width="2" fill="none"></path></g><g transform="translate(250.2250083833111 64.12396326603948) rotate(0 -44.473679292836096 33.75298533871933)"><path d="M-88.93 50.81 C-87.69 53.36, -87.11 57.75, -90.3 66.36 M-87.55 50.69 C-88.31 57, -88.01 62.14, -89.73 66.68" stroke="#1e1e1e" stroke-width="2" fill="none"></path></g></g><g stroke-linecap="round"><g transform="translate(161.2776497976389 190.7538972095174) rotate(0 0.14884858066443485 25.044195344294735)"><path d="M-0.94 1.05 C-0.94 9.32, 0.33 40.74, 0.72 49.01 M0.76 0.55 C0.59 9, -0.08 41.97, -0.01 49.98" stroke="#1e1e1e" stroke-width="2" fill="none"></path></g><g transform="translate(161.2776497976389 190.7538972095174) rotate(0 0.14884858066443485 25.044195344294735)"><path d="M-6.64 27.07 C-7.34 36.6, -1.66 45.21, 0.53 50 M-8.52 26.25 C-4.96 34.37, -2.5 40.38, 0.02 50.36" stroke="#1e1e1e" stroke-width="2" fill="none"></path></g><g transform="translate(161.2776497976389 190.7538972095174) rotate(0 0.14884858066443485 25.044195344294735)"><path d="M10.49 27.21 C3.7 36.56, 3.28 45.11, 0.53 50 M8.61 26.39 C7 34.52, 4.29 40.49, 0.02 50.36" stroke="#1e1e1e" stroke-width="2" fill="none"></path></g></g><g stroke-linecap="round"><g transform="translate(161.57534695896777 355.10106300974894) rotate(0 0.17003575945966531 38.10656503026178)"><path d="M-0.25 0.04 C-0.3 12.58, 0.51 63.35, 0.8 76.1 M1.82 -0.98 C1.56 11.67, 0.17 64.41, 0.1 77.58" stroke="#1e1e1e" stroke-width="2" fill="none"></path></g><g transform="translate(161.57534695896777 355.10106300974894) rotate(0 0.17003575945966531 38.10656503026178)"><path d="M-9.61 49.99 C-5.84 62.29, -1.29 70.27, -0.36 77.97 M-10.12 49.49 C-7.73 56.84, -3.98 64.57, 0.48 78.01" stroke="#1e1e1e" stroke-width="2" fill="none"></path></g><g transform="translate(161.57534695896777 355.10106300974894) rotate(0 0.17003575945966531 38.10656503026178)"><path d="M10.91 50.34 C6.67 62.46, 3.22 70.31, -0.36 77.97 M10.4 49.84 C7.37 57.04, 5.7 64.68, 0.48 78.01" stroke="#1e1e1e" stroke-width="2" fill="none"></path></g></g></svg>