<svg version="1.1" xmlns="http://www.w3.org/2000/svg" viewBox="0 0 1210.6960390163963 634.1000559349465" width="1210.6960390163963" height="634.1000559349465">
  <!-- svg-source:excalidraw -->
  
  <defs>
    <style>
      @font-face {
        font-family: "Virgil";
        src: url("https://excalidraw.com/Virgil.woff2");
      }
      @font-face {
        font-family: "Cascadia";
        src: url("https://excalidraw.com/Cascadia.woff2");
      }
    </style>
  </defs>
  <rect x="0" y="0" width="1210.6960390163963" height="634.1000559349465" fill="#ffffff"></rect><g stroke-linecap="round" transform="translate(449.7717664622147 354.96898454962616) rotate(0 86.86981201171875 37.620635986328125)"><path d="M0.56 -1.22 L174.02 0.2 L172.27 75.78 L-0.6 73.82" stroke="none" stroke-width="0" fill="#ffd8a8"></path><path d="M1.81 0.42 C50.59 1.38, 98.22 1.25, 172.26 -1.98 M0.78 0.33 C57.91 1.88, 115.17 0.96, 174.65 0.66 M174.7 0.22 C172.84 18.91, 172.7 36.83, 174.91 74.27 M174.21 -0.38 C174.77 17.82, 174.67 36.64, 172.88 76.2 M172.82 76.53 C126.37 74.73, 75.51 74.67, 1.53 76.5 M173.88 74.49 C125.98 74.23, 78.8 73.84, 0.69 74.25 M-0.88 73.85 C-1.27 49.21, 0.02 21.69, 1.61 -1.33 M0.67 74.32 C0.23 55.09, 0.91 33.65, 0.74 0.88" stroke="#1e1e1e" stroke-width="2" fill="none"></path></g><g transform="translate(460.3316495798905 380.0896205359543) rotate(0 76.30992889404297 12.5)"><text x="76.30992889404297" y="NaN" font-family="Segoe UI Emoji" font-size="20px" fill="#1e1e1e" text-anchor="middle" style="white-space: pre;" direction="ltr">Reduce Friction</text></g><g stroke-linecap="round" transform="translate(237.25371476782652 512.5896825589966) rotate(0 86.86981201171875 37.71286547528911)"><path d="M-1.47 0.53 L173.14 -1.42 L173.01 76.68 L0.96 74.89" stroke="none" stroke-width="0" fill="#ffc9c9"></path><path d="M-1.24 1.67 C54.27 -3.54, 112.14 -1.65, 172.71 1.57 M-0.12 0.07 C58.79 -1.04, 115.22 -1.49, 173.27 0.48 M172.54 -0.15 C174.52 22.49, 172.21 47.83, 174.4 76.37 M174.33 0.03 C173.4 20.72, 174.1 39.29, 173.5 74.97 M174.06 75.27 C111.94 76.61, 46.58 73.45, -1.23 75.7 M174.05 75.09 C135.41 74.53, 96.15 75.54, 0.29 74.99 M0.03 73.68 C2.08 56.72, -0.07 39.91, -1.15 1.35 M0.61 74.91 C0.79 60.6, 0.33 43.41, 0.14 0.1" stroke="#1e1e1e" stroke-width="2" fill="none"></path></g><g transform="translate(271.23355027808043 525.3025480342858) rotate(0 52.889976501464844 25)"><text x="52.889976501464844" y="NaN" font-family="Segoe UI Emoji" font-size="20px" fill="#1e1e1e" text-anchor="middle" style="white-space: pre;" direction="ltr">No complex</text><text x="52.889976501464844" y="NaN" font-family="Segoe UI Emoji" font-size="20px" fill="#1e1e1e" text-anchor="middle" style="white-space: pre;" direction="ltr">systems</text></g><g stroke-linecap="round" transform="translate(450.0442546060955 548.6743249843682) rotate(0 86.86981201171875 37.71286547528911)"><path d="M-0.73 1.25 L174.69 -0.54 L173.58 75.44 L1.97 76.87" stroke="none" stroke-width="0" fill="#ffc9c9"></path><path d="M0.64 -0.09 C65.58 3.28, 133.87 2.24, 175.7 -0.23 M-0.54 0.21 C52.87 -0.68, 106.8 -1.68, 173.95 -0.6 M172.61 0.89 C174.85 23.01, 173.42 45.51, 172.76 76.61 M173.58 -0.24 C172.85 22.4, 173.74 46.66, 173.69 75.59 M173.22 73.53 C121.71 76.79, 70.62 76.25, 0.1 76.04 M174.18 75.45 C127.72 73.27, 80.42 73.09, -0.06 75.44 M-0.54 74.65 C-1.75 60.74, -2.44 43.24, 0.78 1.23 M0.28 74.82 C-0.42 56.77, -1.3 38.18, -0.3 -0.71" stroke="#1e1e1e" stroke-width="2" fill="none"></path></g><g transform="translate(463.0141108683025 561.3871904596574) rotate(0 73.89995574951172 25)"><text x="73.89995574951172" y="NaN" font-family="Segoe UI Emoji" font-size="20px" fill="#1e1e1e" text-anchor="middle" style="white-space: pre;" direction="ltr">No expectation</text><text x="73.89995574951172" y="NaN" font-family="Segoe UI Emoji" font-size="20px" fill="#1e1e1e" text-anchor="middle" style="white-space: pre;" direction="ltr">of orderlyness</text></g><g stroke-linecap="round" transform="translate(640.1580184622006 510.4186415819943) rotate(0 86.86981201171875 37.71286547528911)"><path d="M-0.16 0.01 L175.71 1.45 L171.97 77.37 L-1.58 74.63" stroke="none" stroke-width="0" fill="#ffc9c9"></path><path d="M0.66 0.53 C53.32 -1.59, 102.84 0.47, 175.07 -1.09 M0.11 -0.53 C56.04 -1.43, 111.59 -0.24, 173.25 -0.57 M172.98 1.38 C173.01 27.18, 174.05 50.27, 175.66 75.1 M174.38 0.95 C173.51 21.01, 173.48 42.46, 174.37 75.17 M172.23 75.16 C138.22 76.28, 101.83 77.04, -1.97 76.31 M173.04 74.8 C121.14 74.68, 67.8 75.47, -0.67 75.16 M-1.84 75.31 C1.22 56.94, -0.59 37.49, 1.76 0.56 M-0.73 75.69 C-0.4 56.69, -0.47 40, 0.48 -0.27" stroke="#1e1e1e" stroke-width="2" fill="none"></path></g><g transform="translate(682.9778579397397 535.6315070572834) rotate(0 44.04997253417969 12.5)"><text x="44.04997253417969" y="NaN" font-family="Segoe UI Emoji" font-size="20px" fill="#1e1e1e" text-anchor="middle" style="white-space: pre;" direction="ltr">Navigable</text></g><g stroke-linecap="round" transform="translate(836.3492080938375 499.758370604676) rotate(0 86.86981201171875 37.620635986328125)"><path d="M-1.77 1.95 L172.16 -0.8 L175.13 73.51 L1.21 74.7" stroke="none" stroke-width="0" fill="#ffc9c9"></path><path d="M0.14 1.83 C58.02 -0.88, 113.82 -0.74, 174.7 0.22 M-0.07 0.59 C42.46 0.48, 86.35 1.38, 174.21 -0.38 M173.8 -1.71 C175.29 27.44, 172.9 55.05, 172.82 76.53 M173.66 0.76 C174.33 29.49, 172.76 58.88, 173.88 74.49 M173.07 76.62 C121.95 76.66, 74.16 76.37, -0.88 73.85 M172.87 76.04 C131.82 75, 90.86 74.7, 0.67 74.32 M-1.03 76.73 C1.46 53.68, -1.51 31.28, 0.2 -1.47 M-0.37 75.87 C0.7 50.39, 0.14 26.08, 0.99 0.72" stroke="#1e1e1e" stroke-width="2" fill="none"></path></g><g transform="translate(878.7190506231344 512.3790065910041) rotate(0 44.499969482421875 25)"><text x="44.499969482421875" y="NaN" font-family="Segoe UI Emoji" font-size="20px" fill="#1e1e1e" text-anchor="middle" style="white-space: pre;" direction="ltr">Emergent</text><text x="44.499969482421875" y="NaN" font-family="Segoe UI Emoji" font-size="20px" fill="#1e1e1e" text-anchor="middle" style="white-space: pre;" direction="ltr">Content</text></g><g stroke-linecap="round" transform="translate(914.820461442427 357.59077550105167) rotate(0 86.86981201171876 37.620635986328125)"><path d="M1.39 -1.73 L174.94 -0.54 L174.94 73.47 L0.18 76.27" stroke="none" stroke-width="0" fill="#ffd8a8"></path><path d="M0.43 -0.94 C68.94 1.17, 134.91 1.36, 172.54 -0.15 M0.45 0.33 C62.8 0.61, 125.34 0.5, 174.33 0.03 M173.27 -0.49 C173.55 17.41, 176.37 32.16, 174.06 75.09 M172.79 -0.61 C174.35 27.56, 174.08 56.68, 174.05 74.91 M173.79 75.83 C108.79 74.62, 44.35 75.88, 0.03 73.49 M173.35 74.67 C108.35 73.85, 41.55 75.16, 0.61 74.73 M-1.22 75.52 C-0.47 45.6, -0.13 18.29, -1.42 -0.73 M-0.08 75.25 C0.63 48.68, -1.24 21.65, -0.79 -0.4" stroke="#1e1e1e" stroke-width="2" fill="none"></path></g><g transform="translate(946.7003213667434 382.7114114873798) rotate(0 54.989952087402344 12.5)"><text x="54.989952087402344" y="NaN" font-family="Segoe UI Emoji" font-size="20px" fill="#1e1e1e" text-anchor="middle" style="white-space: pre;" direction="ltr">New writing</text></g><g stroke-linecap="round" transform="translate(709.2310225612849 191.00780429488032) rotate(0 86.86981201171875 37.620635986328125)"><path d="M1.2 -1.77 L173.92 1.03 L172.21 76.41 L0.11 73.99" stroke="none" stroke-width="0" fill="#b2f2bb"></path><path d="M-1.06 0.42 C42.76 -0.34, 89.1 -1.17, 172.61 0.89 M0.69 -0.49 C58.48 0.69, 114.92 1.62, 173.58 -0.24 M175.65 -0.09 C173.72 20.59, 174.92 42.75, 173.22 73.34 M173.61 0.05 C174.15 17.63, 174.53 34.93, 174.18 75.26 M172.49 75.11 C116.55 72.28, 60.89 72.7, -0.54 74.47 M173.68 75.63 C132.21 73.13, 90.2 74.52, 0.28 74.63 M0.53 74.64 C-1.49 50.89, 1.18 28.96, -0.54 -0.16 M-0.88 76.22 C-1.53 52.23, -0.04 29.15, 0.6 -0.27" stroke="#1e1e1e" stroke-width="2" fill="none"></path></g><g transform="translate(720.0108763820857 203.62844028120844) rotate(0 76.08995819091797 25)"><text x="76.08995819091797" y="NaN" font-family="Segoe UI Emoji" font-size="20px" fill="#1e1e1e" text-anchor="middle" style="white-space: pre;" direction="ltr">My Note Taking</text><text x="76.08995819091797" y="NaN" font-family="Segoe UI Emoji" font-size="20px" fill="#1e1e1e" text-anchor="middle" style="white-space: pre;" direction="ltr">System</text></g><g stroke-linecap="round" transform="translate(1026.9564149929588 497.5671529083654) rotate(0 86.86981201171876 37.620635986328125)"><path d="M-1.53 1.17 L173.85 -1.25 L172.68 75.72 L0.73 74.8" stroke="none" stroke-width="0" fill="#ffc9c9"></path><path d="M1.17 -0.97 C54.63 1.02, 112.19 1.08, 172.98 1.38 M-0.86 0.96 C43.45 -0.29, 86.99 -0.51, 174.38 0.95 M175.27 1.26 C173.34 20.34, 172.63 44.75, 172.23 74.98 M174.43 -0.99 C174.42 22.98, 174.27 45.48, 173.04 74.62 M175.34 73.91 C122.19 72.95, 70.57 75.07, -1.84 75.12 M174.48 76.12 C115.1 73.74, 56.04 74.45, -0.73 75.51 M1.25 76.2 C0 54.75, 0.54 36.57, 1.45 -1.77 M0.7 74.37 C1.2 45.07, 1.2 14.56, 0.09 0.51" stroke="#1e1e1e" stroke-width="2" fill="none"></path></g><g transform="translate(1039.6062868191307 510.18778889469354) rotate(0 74.21994018554688 25)"><text x="74.21994018554688" y="NaN" font-family="Segoe UI Emoji" font-size="20px" fill="#1e1e1e" text-anchor="middle" style="white-space: pre;" direction="ltr">Identify</text><text x="74.21994018554688" y="NaN" font-family="Segoe UI Emoji" font-size="20px" fill="#1e1e1e" text-anchor="middle" style="white-space: pre;" direction="ltr">knowledge gaps</text></g><g stroke-linecap="round"><g transform="translate(324.02352677954514 507.5774247267534) rotate(0 106.25902584719415 -36.1835841022355)"><path d="M0.54 0.4 C0.73 -5.59, -34.9 -30.44, 0.57 -36.63 C36.04 -42.83, 177.9 -30.82, 213.35 -36.76 C248.79 -42.71, 213.54 -66.59, 213.23 -72.33 M-0.64 -0.44 C-0.51 -6.21, -35.69 -29.45, -0.08 -35.34 C35.53 -41.22, 177.36 -29.78, 213.02 -35.76 C248.67 -41.73, 213.83 -64.85, 213.85 -71.21" stroke="#1e1e1e" stroke-width="2" fill="none"></path></g><g transform="translate(324.02352677954514 507.5774247267534) rotate(0 106.25902584719415 -36.1835841022355)"><path d="M229.28 -59.99 C224.33 -62.14, 220.4 -64.92, 213.9 -72.76 M228.46 -61.26 C223.41 -64.12, 216.92 -68.94, 213.78 -70.52" stroke="#1e1e1e" stroke-width="2" fill="none"></path></g><g transform="translate(324.02352677954514 507.5774247267534) rotate(0 106.25902584719415 -36.1835841022355)"><path d="M219.15 -52.88 C216.78 -56.86, 215.4 -61.43, 213.9 -72.76 M218.33 -54.15 C217.3 -59.8, 214.82 -67.43, 213.78 -70.52" stroke="#1e1e1e" stroke-width="2" fill="none"></path></g></g><g stroke-linecap="round"><g transform="translate(536.8140666178142 543.662067152125) rotate(0 -0.13624407194038213 -54.225905314921306)"><path d="M0.57 -0.46 C0.57 -18.7, 0.58 -91.05, 0.56 -109.04 M-0.59 -1.74 C-0.72 -19.86, -0.06 -90.25, 0.04 -107.81" stroke="#1e1e1e" stroke-width="2" fill="none"></path></g><g transform="translate(536.8140666178142 543.662067152125) rotate(0 -0.13624407194038213 -54.225905314921306)"><path d="M9.33 -78.16 C5.55 -88.05, 3.13 -100.69, 1.96 -108.14 M10.73 -78.59 C7.34 -87.24, 4.53 -94.45, 0.67 -108.07" stroke="#1e1e1e" stroke-width="2" fill="none"></path></g><g transform="translate(536.8140666178142 543.662067152125) rotate(0 -0.13624407194038213 -54.225905314921306)"><path d="M-11.19 -78.32 C-7.89 -88.25, -3.25 -100.84, 1.96 -108.14 M-9.79 -78.74 C-7.51 -87.26, -4.65 -94.43, 0.67 -108.07" stroke="#1e1e1e" stroke-width="2" fill="none"></path></g></g><g stroke-linecap="round"><g transform="translate(737.3619748484303 505.40638374975094) rotate(0 -100.41019818724845 -35.09806361373427)"><path d="M0.83 -0.59 C0.85 -6.35, 34.49 -29.5, 0.71 -35.06 C-33.07 -40.61, -168.23 -28.04, -201.85 -33.94 C-235.47 -39.85, -201.14 -64.35, -201.02 -70.48 M-0.2 1.72 C-0.32 -3.8, 33.35 -27.27, 0.14 -33.5 C-33.08 -39.73, -165.99 -29.68, -199.49 -35.68 C-233 -41.68, -200.94 -63.7, -200.87 -69.52" stroke="#1e1e1e" stroke-width="2" fill="none"></path></g><g transform="translate(737.3619748484303 505.40638374975094) rotate(0 -100.41019818724845 -35.09806361373427)"><path d="M-206.2 -51.51 C-203.67 -59.98, -200.49 -64.66, -201.29 -69.95 M-205.38 -52.41 C-204.38 -56.24, -202.63 -61.45, -201.71 -70.06" stroke="#1e1e1e" stroke-width="2" fill="none"></path></g><g transform="translate(737.3619748484303 505.40638374975094) rotate(0 -100.41019818724845 -35.09806361373427)"><path d="M-216.06 -58.35 C-210.13 -64.52, -203.53 -66.82, -201.29 -69.95 M-215.24 -59.25 C-211.69 -61.43, -207.43 -64.91, -201.71 -70.06" stroke="#1e1e1e" stroke-width="2" fill="none"></path></g></g><g stroke-linecap="round"><g transform="translate(923.1190201055563 494.758370604676) rotate(0 39.23562667429471 -28.46316156548403)"><path d="M0.71 0.04 C0.4 -4.42, -13.96 -22.52, -1.03 -27.31 C11.9 -32.11, 65.07 -23.72, 78.27 -28.75 C91.48 -33.77, 78.02 -52.97, 78.18 -57.48 M-0.38 -0.99 C-0.4 -5.7, -11.82 -24.4, 1.14 -28.83 C14.11 -33.26, 64.55 -22.94, 77.41 -27.58 C90.26 -32.22, 78.14 -51.51, 78.27 -56.66" stroke="#1e1e1e" stroke-width="2" fill="none"></path></g><g transform="translate(923.1190201055563 494.758370604676) rotate(0 39.23562667429471 -28.46316156548403)"><path d="M86.66 -46.35 C84.96 -49.57, 80.18 -53.94, 77.62 -55.74 M86.56 -44.59 C83.77 -49.86, 79.35 -54.67, 78.37 -57.2" stroke="#1e1e1e" stroke-width="2" fill="none"></path></g><g transform="translate(923.1190201055563 494.758370604676) rotate(0 39.23562667429471 -28.46316156548403)"><path d="M77.3 -43.68 C79.06 -47.94, 77.74 -53.29, 77.62 -55.74 M77.2 -41.92 C78.11 -48.26, 77.39 -54.13, 78.37 -57.2" stroke="#1e1e1e" stroke-width="2" fill="none"></path></g></g><g stroke-linecap="round"><g transform="translate(1113.7262270046776 492.5671529083654) rotate(0 -56.06797677526592 -27.36755271732875)"><path d="M-1.03 1.15 C-1.18 -3.46, 18.37 -22.81, -0.2 -27.65 C-18.76 -32.5, -93.9 -23.59, -112.43 -27.92 C-130.96 -32.24, -111.4 -49.15, -111.36 -53.59 M0.63 0.71 C0.24 -3.73, 17.75 -21.66, -1.25 -26.26 C-20.24 -30.86, -95.1 -22.01, -113.35 -26.89 C-131.59 -31.77, -110.65 -51.02, -110.71 -55.55" stroke="#1e1e1e" stroke-width="2" fill="none"></path></g><g transform="translate(1113.7262270046776 492.5671529083654) rotate(0 -56.06797677526592 -27.36755271732875)"><path d="M-111.49 -42.25 C-112.38 -47.2, -111.93 -50.84, -109.4 -55.61 M-112.37 -42.2 C-112.78 -46.73, -111.37 -51.1, -110.8 -55.51" stroke="#1e1e1e" stroke-width="2" fill="none"></path></g><g transform="translate(1113.7262270046776 492.5671529083654) rotate(0 -56.06797677526592 -27.36755271732875)"><path d="M-119.69 -46.76 C-117.63 -50.01, -114.24 -52.04, -109.4 -55.61 M-120.57 -46.71 C-118.39 -49.88, -114.4 -52.82, -110.8 -55.51" stroke="#1e1e1e" stroke-width="2" fill="none"></path></g></g><g stroke-linecap="round"><g transform="translate(536.5415784739334 349.96898454962616) rotate(0 129.72962804953514 -39.35995414104491)"><path d="M-0.2 -0.28 C-0.07 -7.13, -43.7 -33.59, -0.29 -39.91 C43.11 -46.23, 216.95 -31.78, 260.23 -38.22 C303.52 -44.65, 259.55 -71.93, 259.41 -78.53 M-1.76 -1.48 C-1.73 -7.66, -45 -32.25, -1.39 -38.66 C42.21 -45.07, 216.37 -33.51, 259.87 -39.96 C303.38 -46.4, 259.96 -71.16, 259.62 -77.32" stroke="#1e1e1e" stroke-width="2" fill="none"></path></g><g transform="translate(536.5415784739334 349.96898454962616) rotate(0 129.72962804953514 -39.35995414104491)"><path d="M276.43 -68.37 C272.2 -68.67, 271.28 -72.05, 259.94 -77.47 M275.96 -68.49 C270.47 -72.23, 263.71 -74.98, 259.93 -77.65" stroke="#1e1e1e" stroke-width="2" fill="none"></path></g><g transform="translate(536.5415784739334 349.96898454962616) rotate(0 129.72962804953514 -39.35995414104491)"><path d="M266.33 -59.47 C264.18 -61.66, 265.42 -66.95, 259.94 -77.47 M265.86 -59.6 C264.11 -66.65, 261.15 -72.76, 259.93 -77.65" stroke="#1e1e1e" stroke-width="2" fill="none"></path></g></g><g stroke-linecap="round"><g transform="translate(1001.5902734541457 352.59077550105167) rotate(0 -102.79471944057101 -40.670849616757664)"><path d="M-0.29 -0.55 C-0.13 -7.09, 35 -32.87, 0.77 -39.53 C-33.45 -46.18, -171.23 -33.66, -205.64 -40.48 C-240.05 -47.3, -205.82 -73.56, -205.68 -80.43 M1.76 1.78 C1.84 -5.04, 34.93 -34.24, 0.23 -41.05 C-34.47 -47.85, -172.15 -32.15, -206.44 -39.06 C-240.72 -45.97, -205.57 -75.44, -205.48 -82.5" stroke="#1e1e1e" stroke-width="2" fill="none"></path></g><g transform="translate(1001.5902734541457 352.59077550105167) rotate(0 -102.79471944057101 -40.670849616757664)"><path d="M-210.28 -61.25 C-206.31 -68.28, -206.79 -74, -203.96 -81.24 M-209.23 -63.29 C-208.24 -67.94, -206.74 -73.79, -204.79 -83.49" stroke="#1e1e1e" stroke-width="2" fill="none"></path></g><g transform="translate(1001.5902734541457 352.59077550105167) rotate(0 -102.79471944057101 -40.670849616757664)"><path d="M-222.2 -68.42 C-214.87 -73.39, -211.97 -77.08, -203.96 -81.24 M-221.15 -70.46 C-216.96 -73.06, -212.19 -76.96, -204.79 -83.49" stroke="#1e1e1e" stroke-width="2" fill="none"></path></g></g><g stroke-linecap="round" transform="translate(668.0017109865215 191.28550090458225) rotate(0 8.211838847685726 8.211838847685726)"><path d="M8.98 -1.39 L17.18 10.3 L8.29 14.63 L0.36 8.45" stroke="none" stroke-width="0" fill="#ffec99" fill-rule="evenodd"></path><path d="M10.11 -0.05 C11.19 2.35, 13.94 5.65, 16.12 7.89 M8.92 0.03 C10.96 2.01, 12.96 3.78, 16.68 9.01 M15.77 8.93 C13.96 10.48, 12.34 13.14, 8.72 16.02 M16.39 9.21 C15 10.46, 13.26 12.99, 9.15 16.1 M9.31 16.07 C5.34 13.6, 4.07 12.25, -0.31 8.9 M8.48 16.99 C5.76 14.02, 3.92 11.52, 0.35 8.84 M0.65 8.03 C4.07 5.82, 5.77 1.84, 9.3 0.47 M0.22 8.5 C2.83 6.53, 5.45 3.51, 8.74 0.44" stroke="#1e1e1e" stroke-width="2" fill="none"></path></g><g stroke-linecap="round" transform="translate(689.9217292946531 158.76116999465262) rotate(0 12.627635229916962 12.627635229917018)"><path d="M13.76 1.3 L24.54 11.2 L13.36 24.71 L1.95 13.42" stroke="none" stroke-width="0" fill="#ffec99" fill-rule="evenodd"></path><path d="M13.29 -0.14 C18.95 5.87, 21.59 7.78, 24.16 13.25 M13.28 -0.3 C16.35 2.03, 18.88 5.85, 25.52 12.61 M25.29 11.48 C23.75 14.66, 19.07 17.97, 12 26.42 M25.79 12.56 C23.34 16.36, 20.39 17.62, 13.12 25.34 M11.73 24.6 C11.14 23.29, 6.59 19.51, 0.01 14.76 M12.29 24.9 C8.89 20.05, 3.97 16.02, 0.54 12.21 M1.08 13.1 C2.8 8.11, 8.4 5.75, 12.59 1.21 M0.56 13.02 C4.33 8.74, 6.85 6.47, 12.99 -0.64" stroke="#1e1e1e" stroke-width="2" fill="none"></path></g><g transform="translate(18.463498944716775 366.41582001173094) rotate(0 38.13597869873047 17.5)"><text x="76.27195739746094" y="NaN" font-family="Segoe UI Emoji" font-size="28px" fill="#f08c00" text-anchor="end" style="white-space: pre;" direction="ltr">Goals</text></g><g transform="translate(11.818865356760625 526.421425952956) rotate(0 88.96996307373047 17.5)"><text x="177.93992614746094" y="NaN" font-family="Segoe UI Emoji" font-size="28px" fill="#e03131" text-anchor="end" style="white-space: pre;" direction="ltr">Requirements</text></g><g stroke-linecap="round"><g transform="translate(796.0008345730037 186.00780429488032) rotate(0 -126.99638025990612 -43.76156235071346)"><path d="M0.64 -0.79 C0.8 -8.14, 43.3 -35.7, 0.69 -43.03 C-41.92 -50.35, -212.74 -37.42, -255.02 -44.76 C-297.29 -52.1, -253.06 -79.86, -252.97 -87.08 M-0.48 1.41 C-0.4 -5.77, 42.14 -37.2, 0.1 -44.76 C-41.93 -52.33, -210.61 -37.13, -252.66 -43.96 C-294.71 -50.79, -252.21 -78.4, -252.18 -85.74" stroke="#1e1e1e" stroke-width="2" fill="none"></path></g><g transform="translate(796.0008345730037 186.00780429488032) rotate(0 -126.99638025990612 -43.76156235071346)"><path d="M-259.65 -63.59 C-255.57 -72.37, -256.73 -74.85, -251.44 -86.5 M-258.15 -65.46 C-257.08 -70.13, -255.26 -74.67, -251.67 -85" stroke="#1e1e1e" stroke-width="2" fill="none"></path></g><g transform="translate(796.0008345730037 186.00780429488032) rotate(0 -126.99638025990612 -43.76156235071346)"><path d="M-271.71 -72.45 C-264.17 -78.81, -261.94 -78.8, -251.44 -86.5 M-270.21 -74.33 C-266.02 -76.62, -261.14 -78.91, -251.67 -85" stroke="#1e1e1e" stroke-width="2" fill="none"></path></g></g><g stroke-linecap="round"><g transform="translate(796.0008345730037 186.00780429488032) rotate(0 0.21885843619014622 -46.03506025464833)"><path d="M-1 0.05 C-0.85 -15.39, 0.27 -77.71, 0.58 -93.12 M0.68 -0.96 C0.71 -16.26, -0.23 -77.08, -0.29 -92.13" stroke="#1e1e1e" stroke-width="2" fill="none"></path></g><g transform="translate(796.0008345730037 186.00780429488032) rotate(0 0.21885843619014622 -46.03506025464833)"><path d="M10.35 -63.81 C5.72 -71.11, 4.04 -78.65, 0 -90.66 M9.42 -64.61 C7.73 -71.95, 3.64 -80.67, -0.22 -91.62" stroke="#1e1e1e" stroke-width="2" fill="none"></path></g><g transform="translate(796.0008345730037 186.00780429488032) rotate(0 0.21885843619014622 -46.03506025464833)"><path d="M-10.17 -63.6 C-9.17 -70.79, -5.24 -78.39, 0 -90.66 M-11.1 -64.4 C-6.56 -71.88, -4.4 -80.66, -0.22 -91.62" stroke="#1e1e1e" stroke-width="2" fill="none"></path></g></g><g stroke-linecap="round"><g transform="translate(796.0008345730037 186.00780429488032) rotate(0 115.44368105325151 -47.88326616111203)"><path d="M-0.81 -0.92 C-0.91 -9.15, -39.76 -40.5, -1.17 -48.29 C37.43 -56.07, 191.95 -39.63, 230.77 -47.63 C269.59 -55.63, 231.57 -88.07, 231.76 -96.28 M0.97 1.21 C1.26 -6.34, -37.23 -39.07, 0.94 -46.96 C39.1 -54.86, 191.36 -38.1, 229.95 -46.18 C268.53 -54.26, 232.29 -86.96, 232.46 -95.45" stroke="#1e1e1e" stroke-width="2" fill="none"></path></g><g transform="translate(796.0008345730037 186.00780429488032) rotate(0 115.44368105325151 -47.88326616111203)"><path d="M248.56 -81.2 C244.77 -83.69, 241.38 -86.18, 231.6 -93.73 M249.96 -78.86 C246.58 -83.02, 243.04 -84.88, 232.8 -95.15" stroke="#1e1e1e" stroke-width="2" fill="none"></path></g><g transform="translate(796.0008345730037 186.00780429488032) rotate(0 115.44368105325151 -47.88326616111203)"><path d="M234.02 -73.65 C233.87 -77.97, 234.18 -82.38, 231.6 -93.73 M235.42 -71.32 C235.07 -77.1, 234.51 -80.5, 232.8 -95.15" stroke="#1e1e1e" stroke-width="2" fill="none"></path></g></g><g stroke-linecap="round" transform="translate(455.2382620414727 18.243407620797143) rotate(0 86.86981201171875 37.620635986328125)"><path d="M-0.75 -1.52 L172.96 1.19 L173.95 76.6 L1.52 75.79" stroke="none" stroke-width="0" fill="#b2f2bb"></path><path d="M-0.47 1.2 C66.46 1.45, 134.92 -1.92, 174.37 -0.15 M0.01 0.26 C55 1.05, 108.2 0.86, 174.09 0.45 M175.5 -0.44 C173.44 26.55, 174.29 52.3, 175.72 75.26 M173.67 -0.24 C173.5 29.58, 174.63 56.99, 173.95 74.7 M175.59 75.16 C120.32 75.36, 69.14 75.17, -0.04 76.57 M174.42 75.56 C124.45 76.23, 76 75.64, 0.81 76.01 M0.26 75.99 C0.16 45.98, 2.41 20.87, 1.37 0.84 M-0.96 75.41 C-0.99 52.62, -0.36 30.23, 0.44 -0.82" stroke="#1e1e1e" stroke-width="2" fill="none"></path></g><g transform="translate(480.9981268486016 43.36404360712527) rotate(0 61.109947204589844 12.5)"><text x="61.109947204589844" y="NaN" font-family="Segoe UI Emoji" font-size="20px" fill="#1e1e1e" text-anchor="middle" style="white-space: pre;" direction="ltr">Organization</text></g><g stroke-linecap="round" transform="translate(709.6687394336652 13.696411812927636) rotate(0 86.86981201171875 37.620635986328125)"><path d="M-0.17 -1.07 L172.35 1.84 L175.69 75.97 L-0.97 74.02" stroke="none" stroke-width="0" fill="#b2f2bb"></path><path d="M1.04 -0.04 C34.4 -0.69, 72.2 -0.19, 175.64 -1.48 M-0.2 0.37 C57.95 0.29, 114.52 0.51, 173.44 0.8 M174.25 -0.94 C174.73 29.69, 173.03 55.67, 174.23 75.63 M173.93 -0.46 C173.48 26, 174.79 52.84, 174.38 75.75 M174.58 75.1 C113.3 73.86, 53.13 76.14, -1.87 75.17 M174.36 76.2 C120.58 72.74, 66.32 73.08, 0.48 75.85 M1.67 75.34 C-1.3 49.16, -0.68 25.27, 0.55 -1.11 M0.88 75.09 C-1.4 52.79, 0.04 31, -0.19 0.03" stroke="#1e1e1e" stroke-width="2" fill="none"></path></g><g transform="translate(755.9685822681379 38.81704779925576) rotate(0 40.569969177246094 12.5)"><text x="40.569969177246094" y="NaN" font-family="Segoe UI Emoji" font-size="20px" fill="#1e1e1e" text-anchor="middle" style="white-space: pre;" direction="ltr">Creation</text></g><g stroke-linecap="round" transform="translate(940.118384667788 10) rotate(0 86.86981201171876 37.620635986328125)"><path d="M-0.93 -0.2 L174.77 0.22 L175.18 73.72 L-1.19 75.07" stroke="none" stroke-width="0" fill="#b2f2bb"></path><path d="M-1.95 0.21 C34.97 -2.42, 69.47 -1.79, 173.93 -1.16 M-0.15 0.16 C41.37 -0.64, 81.77 -1.56, 172.76 -0.16 M174.6 0.18 C172.2 22.91, 172.03 48.17, 175.51 74.84 M173.42 0.63 C173 18.54, 174.43 37.39, 173.61 74.85 M172.92 76.95 C118.87 76.79, 61.23 74.13, 0.96 75.65 M172.96 75.97 C131.69 75.18, 88.05 75.37, 0.97 76.06 M-1.17 76.32 C0.58 52.25, 0.45 32.2, -0.22 0.3 M-0.38 74.51 C-0.47 52.45, 1.04 27.89, -0.98 -0.27" stroke="#1e1e1e" stroke-width="2" fill="none"></path></g><g transform="translate(975.3682473386864 35.120635986328125) rotate(0 51.61994934082031 12.5)"><text x="51.61994934082031" y="NaN" font-family="Segoe UI Emoji" font-size="20px" fill="#1e1e1e" text-anchor="middle" style="white-space: pre;" direction="ltr">Processing</text></g><g transform="translate(10 36.63623134691261) rotate(0 48.27198791503906 17.5)"><text x="96.54397583007812" y="NaN" font-family="Segoe UI Emoji" font-size="28px" fill="#2f9e44" text-anchor="end" style="white-space: pre;" direction="ltr">System</text></g></svg>