<svg version="1.1" xmlns="http://www.w3.org/2000/svg" viewBox="0 0 456.0911181746758 474.3702974742098" width="456.0911181746758" height="474.3702974742098">
  <!-- svg-source:excalidraw -->
  
  <defs>
    <style>
      @font-face {
        font-family: "Virgil";
        src: url("https://excalidraw.com/Virgil.woff2");
      }
      @font-face {
        font-family: "Cascadia";
        src: url("https://excalidraw.com/Cascadia.woff2");
      }
    </style>
  </defs>
  <g stroke-linecap="round" transform="translate(177.77614729406957 168.58865728367823) rotate(0 55.398382285612 52.12946585908264)"><path d="M66 1.3 C74.9 2.35, 84.93 7.97, 92.06 13.69 C99.2 19.4, 105.81 27.37, 108.79 35.58 C111.76 43.79, 111.81 54.33, 109.92 62.96 C108.02 71.59, 103.62 80.9, 97.42 87.36 C91.22 93.82, 81.49 98.94, 72.72 101.74 C63.95 104.53, 53.66 105.97, 44.81 104.12 C35.95 102.27, 26.58 96.39, 19.61 90.65 C12.65 84.9, 6.28 77.63, 3.03 69.64 C-0.22 61.64, -1.55 51.46, 0.11 42.67 C1.76 33.88, 6.69 23.49, 12.96 16.9 C19.23 10.3, 27.95 5.4, 37.73 3.08 C47.51 0.75, 65.26 2.79, 71.65 2.95 C78.05 3.1, 76.53 3.24, 76.12 4.03 M48.42 -0.09 C57.22 -1.89, 69.79 -0.04, 78.26 3.5 C86.73 7.04, 94.09 14.08, 99.24 21.16 C104.4 28.25, 108.11 37.42, 109.2 46.03 C110.3 54.64, 109.48 64.62, 105.83 72.83 C102.18 81.05, 94.8 90.16, 87.3 95.31 C79.81 100.46, 70.01 102.95, 60.87 103.71 C51.72 104.48, 40.82 103.59, 32.45 99.91 C24.07 96.23, 15.78 88.49, 10.62 81.66 C5.46 74.82, 2.59 67.48, 1.49 58.89 C0.39 50.29, 0.24 38.39, 4.02 30.08 C7.8 21.78, 16.31 13.96, 24.16 9.05 C32.01 4.14, 46.59 2.05, 51.12 0.62 C55.66 -0.82, 51.66 -0.31, 51.39 0.43" stroke="#1e1e1e" stroke-width="2" fill="none"></path></g><g transform="translate(201.3199738510067 203.357024334171) rotate(0 31.681983947753906 17.5)"><text x="31.681983947753906" y="NaN" font-family="Segoe UI Emoji" font-size="28px" fill="#1e1e1e" text-anchor="middle" style="white-space: pre;" direction="ltr">Idea</text></g><g stroke-linecap="round"><g transform="translate(100.95179061020053 151.55958761128295) rotate(0 40.467394465707855 20.91601626016279)"><path d="M1.1 0.32 C14.41 7.43, 66.61 35.26, 80.07 42.02" stroke="#1e1e1e" stroke-width="2.5" fill="none" stroke-dasharray="8 10"></path></g><g transform="translate(100.95179061020053 151.55958761128295) rotate(0 40.467394465707855 20.91601626016279)"><path d="M50.85 36.67 C60.04 40.56, 67.61 41.68, 79.83 40.96" stroke="#1e1e1e" stroke-width="2.5" fill="none"></path></g><g transform="translate(100.95179061020053 151.55958761128295) rotate(0 40.467394465707855 20.91601626016279)"><path d="M60.32 18.46 C66.42 28.2, 70.99 35.1, 79.83 40.96" stroke="#1e1e1e" stroke-width="2.5" fill="none"></path></g></g><g stroke-linecap="round"><g transform="translate(385.14130643106853 113.30053749011381) rotate(0 -54.99198586384614 29.37889221848343)"><path d="M0.46 1.06 C-18.01 10.9, -92.79 50.12, -111.01 59.77" stroke="#1e1e1e" stroke-width="2.5" fill="none" stroke-dasharray="8 10"></path></g><g transform="translate(385.14130643106853 113.30053749011381) rotate(0 -54.99198586384614 29.37889221848343)"><path d="M-89.09 35.85 C-94.72 45.77, -101.72 50.22, -110.19 58.15" stroke="#1e1e1e" stroke-width="2.5" fill="none"></path></g><g transform="translate(385.14130643106853 113.30053749011381) rotate(0 -54.99198586384614 29.37889221848343)"><path d="M-79.52 54 C-87.97 58.83, -97.67 58.14, -110.19 58.15" stroke="#1e1e1e" stroke-width="2.5" fill="none"></path></g></g><g stroke-linecap="round"><g transform="translate(201.32048404216175 51.8888379510629) rotate(0 16.787831477393865 57.86228955295098)"><path d="M-0.34 -0.84 C5.06 18.48, 26.73 96.85, 32.58 116.31" stroke="#1e1e1e" stroke-width="2.5" fill="none" stroke-dasharray="8 10"></path></g><g transform="translate(201.32048404216175 51.8888379510629) rotate(0 16.787831477393865 57.86228955295098)"><path d="M13.55 90.37 C21.53 101.69, 26.37 107.25, 33.61 114.39" stroke="#1e1e1e" stroke-width="2.5" fill="none"></path></g><g transform="translate(201.32048404216175 51.8888379510629) rotate(0 16.787831477393865 57.86228955295098)"><path d="M33.27 84.72 C35.09 97.76, 33.74 105.09, 33.61 114.39" stroke="#1e1e1e" stroke-width="2.5" fill="none"></path></g></g><g stroke-linecap="round"><g transform="translate(411.86455082365194 262.9282189215089) rotate(0 -60.02056501329565 -12.308713013892543)"><path d="M0.44 0.04 C-19.9 -4.12, -100.92 -21.36, -121.11 -25.32" stroke="#1e1e1e" stroke-width="2.5" fill="none" stroke-dasharray="8 10"></path></g><g transform="translate(411.86455082365194 262.9282189215089) rotate(0 -60.02056501329565 -12.308713013892543)"><path d="M-91.36 -31.47 C-103.85 -28.98, -112.43 -24.76, -122.52 -25.02" stroke="#1e1e1e" stroke-width="2.5" fill="none"></path></g><g transform="translate(411.86455082365194 262.9282189215089) rotate(0 -60.02056501329565 -12.308713013892543)"><path d="M-95.49 -11.37 C-106.36 -16.51, -113.38 -19.91, -122.52 -25.02" stroke="#1e1e1e" stroke-width="2.5" fill="none"></path></g></g><g transform="translate(68.61118888688907 140.1298556018719) rotate(0 6.523994445800781 17.5)"><text x="13.047988891601562" y="NaN" font-family="Segoe UI Emoji" font-size="28px" fill="#1e1e1e" text-anchor="end" style="white-space: pre;" direction="ltr">?</text></g><g transform="translate(188.41280841778507 10) rotate(0 6.523994445800781 17.5)"><text x="13.047988891601562" y="NaN" font-family="Segoe UI Emoji" font-size="28px" fill="#1e1e1e" text-anchor="end" style="white-space: pre;" direction="ltr">?</text></g><g transform="translate(403.47844659679095 90.12705241442063) rotate(0 6.523994445800781 17.5)"><text x="13.047988891601562" y="NaN" font-family="Segoe UI Emoji" font-size="28px" fill="#1e1e1e" text-anchor="end" style="white-space: pre;" direction="ltr">?</text></g><g transform="translate(433.0431292830742 250.94275840321734) rotate(0 6.523994445800781 17.5)"><text x="13.047988891601562" y="NaN" font-family="Segoe UI Emoji" font-size="28px" fill="#1e1e1e" text-anchor="end" style="white-space: pre;" direction="ltr">?</text></g><g stroke-linecap="round" transform="translate(129.27954272230244 415.2463342081703) rotate(0 61.09651851753904 24.56198163301974)"><path d="M0.35 1.22 L122.6 1.73 L120.77 48.84 L0.68 49.34" stroke="none" stroke-width="0" fill="#ffec99"></path><path d="M0.53 0.85 C26.32 1.73, 48.78 2.31, 120.32 -1.67 M0.7 0.95 C24.74 1.41, 50.33 1.3, 121.86 0.84 M123.52 0.3 C122.79 14.43, 122.54 33.12, 121.68 50.92 M122.21 -0.51 C120.95 17.62, 122.77 34.41, 121.51 48.79 M124.17 50.14 C79.98 50.18, 34.69 51.13, 0.16 50.87 M122.88 48.68 C86.5 48.37, 49.48 47.77, -0.73 48.94 M0.15 48.36 C0.68 33.71, -0.68 19.99, 0.93 1.38 M0.24 49.52 C-1.11 36.24, -0.37 25.53, -0.62 0.71" stroke="#f08c00" stroke-width="2" fill="none"></path></g><g transform="translate(135.4400794893532 422.30831584119005) rotate(0 54.93598175048828 17.5)"><text x="54.93598175048828" y="NaN" font-family="Segoe UI Emoji" font-size="28px" fill="#f08c00" text-anchor="middle" style="white-space: pre;" direction="ltr">Content</text></g><g stroke-linecap="round" transform="translate(54.66351436023649 298.18488829930584) rotate(0 61.09651851753904 24.56198163301974)"><path d="M-0.46 -1.16 L121.68 -0.13 L123.63 48.81 L1.08 50.6" stroke="none" stroke-width="0" fill="#a5d8ff"></path><path d="M1.83 0.38 C42.22 -1.47, 87.59 1.49, 121.01 -1.6 M0.4 -0.57 C38.96 -1.54, 77.3 -1.27, 122.35 -0.21 M121.06 0.76 C121.82 20.8, 121.94 40.96, 120.73 48.82 M121.77 0.35 C122.63 17.82, 122.33 34.42, 121.95 50 M123.57 47.84 C86.66 51.48, 49.05 51.74, 0.39 50.96 M122.99 49.12 C83.62 49.19, 43.46 49.81, -0.61 50 M0.69 48.97 C-1.47 36.21, 0.32 21.98, -1.98 1.02 M0.42 49.19 C-1.01 36.67, -0.74 23.96, 0.91 0.04" stroke="#1971c2" stroke-width="2" fill="none"></path></g><g transform="translate(70.63804648861537 305.2468699323256) rotate(0 45.121986389160156 17.5)"><text x="45.121986389160156" y="NaN" font-family="Segoe UI Emoji" font-size="28px" fill="#1971c2" text-anchor="middle" style="white-space: pre;" direction="ltr">Source</text></g><g stroke-linecap="round" transform="translate(271.4660997236926 325.69118381805424) rotate(0 61.09651851753904 24.56198163301974)"><path d="M-0.25 -0.18 L123.66 -1.24 L123.97 48.72 L-1.14 50.35" stroke="none" stroke-width="0" fill="#a5d8ff"></path><path d="M1.04 1.25 C45.68 -2.18, 90.83 -0.68, 123.73 -1.58 M0.07 0.27 C30.12 -0.32, 61.93 -0.39, 122.11 0.24 M120.38 -0.77 C122.86 10.19, 120.97 19.87, 121.76 47.94 M121.84 -0.7 C122.59 12.69, 121.99 23.98, 122.9 49.6 M120.49 48.31 C93.42 48.59, 65.83 50.62, 0.79 49.25 M122.13 48.74 C88.04 50, 56.57 49.92, 0.29 49.62 M1.14 48.63 C0.97 38.97, -1.71 27.27, -0.18 -1.16 M-0.04 48.78 C-0.39 35.32, -0.06 22.25, 0.91 -0.49" stroke="#1971c2" stroke-width="2" fill="none"></path></g><g transform="translate(287.4406318520715 332.753165451074) rotate(0 45.121986389160156 17.5)"><text x="45.121986389160156" y="NaN" font-family="Segoe UI Emoji" font-size="28px" fill="#1971c2" text-anchor="middle" style="white-space: pre;" direction="ltr">Source</text></g><g stroke-linecap="round" transform="translate(10 34.76185685805967) rotate(0 61.09651851753904 24.56198163301974)"><path d="M-1.12 -1.17 L123.93 -0.32 L121.71 49.64 L1.7 48.29" stroke="none" stroke-width="0" fill="#a5d8ff"></path><path d="M1.15 -0.8 C26.75 -1.04, 55.25 0.33, 123.91 1.01 M-0.52 0.39 C45.3 2.12, 90.82 1.24, 121.6 0.95 M123.8 -0.47 C121.27 17.32, 121.73 30.07, 123.12 49.87 M123.18 -0.04 C122.76 19.36, 122.7 38.38, 121.36 49.04 M122.17 50.38 C84.66 50.28, 43.58 49.66, 0.98 50.16 M121.36 49.83 C90.44 49.39, 59.11 48.48, -0.03 48.4 M1.16 48.19 C-1.32 31.03, 0.34 16.64, -1.99 0.31 M-0.12 49.11 C-0.05 37.78, -0.88 26.99, -0.27 -0.64" stroke="#1971c2" stroke-width="2" fill="none"></path></g><g transform="translate(25.974532128378883 41.823838491079414) rotate(0 45.121986389160156 17.5)"><text x="45.121986389160156" y="NaN" font-family="Segoe UI Emoji" font-size="28px" fill="#1971c2" text-anchor="middle" style="white-space: pre;" direction="ltr">Source</text></g><g stroke-linecap="round" transform="translate(245.96815541778477 52.13324782719451) rotate(0 61.09651851753904 24.56198163301974)"><path d="M-1.95 -0.62 L121.13 0.38 L120.78 49.27 L-0.76 48.86" stroke="none" stroke-width="0" fill="#b2f2bb"></path><path d="M1.52 -1.51 C40.78 1.35, 85.95 0.57, 122.78 -1.38 M0.4 -0.08 C27.75 0.75, 54.85 0.28, 123.19 -0.68 M124.01 -1.54 C120.96 16.06, 123.59 33.23, 121.09 47.22 M121.96 -0.44 C122.11 17.97, 122.78 35.15, 122.73 48.86 M120.54 50.98 C88.71 48.28, 51.83 47, 0.14 49.54 M121.89 48.41 C83.17 47.86, 46.34 48.24, -0.85 48.45 M1.78 50.76 C-1.66 29.08, 1.44 11.28, -1.81 -1.75 M-0.82 48.46 C0.17 38.12, 0.81 27.2, -0.14 -0.68" stroke="#2f9e44" stroke-width="2" fill="none"></path></g><g transform="translate(257.60269883766756 59.19522946021425) rotate(0 49.46197509765625 17.5)"><text x="49.46197509765625" y="NaN" font-family="Segoe UI Emoji" font-size="28px" fill="#2f9e44" text-anchor="middle" style="white-space: pre;" direction="ltr">Insight</text></g><g stroke-linecap="round"><g transform="translate(228.29218897097104 272.57106736616515) rotate(0 -12.630149810657883 66.81100837925464)"><path d="M1.26 0.86 C-3.2 23.26, -23.49 111.49, -27.5 133.89 M-1.5 -1.14 C-5.03 21.82, -18.69 115.71, -22.31 137.67" stroke="#1e1e1e" stroke-width="2" fill="none"></path></g><g transform="translate(228.29218897097104 272.57106736616515) rotate(0 -12.630149810657883 66.81100837925464)"><path d="M-26.95 105.05 C-26.3 119.84, -22.77 127.69, -18.47 136.96 M-28.8 107.43 C-28.76 117.27, -24.1 125.25, -22.52 137.99" stroke="#1e1e1e" stroke-width="2" fill="none"></path></g><g transform="translate(228.29218897097104 272.57106736616515) rotate(0 -12.630149810657883 66.81100837925464)"><path d="M-6.66 108.16 C-11.56 122.28, -13.59 129.28, -18.47 136.96 M-8.52 110.54 C-14.94 119.79, -16.81 126.77, -22.52 137.99" stroke="#1e1e1e" stroke-width="2" fill="none"></path></g></g><g stroke-linecap="round"><g transform="translate(259.293287412749 445.8752481429983) rotate(0 33.608203237706505 -30.556100873911873)"><path d="M1.42 -1.86 C12.23 -12.46, 56.04 -51, 66.82 -61.32 M-1.25 3.31 C8.97 -7.04, 53.55 -46.9, 64.36 -57.81" stroke="#1e1e1e" stroke-width="2" fill="none"></path></g><g transform="translate(259.293287412749 445.8752481429983) rotate(0 33.608203237706505 -30.556100873911873)"><path d="M48.25 -31.57 C55.14 -42.69, 56.6 -47.15, 68.25 -55.15 M50.27 -30.42 C53.24 -37.44, 58.42 -46.25, 64.2 -57.95" stroke="#1e1e1e" stroke-width="2" fill="none"></path></g><g transform="translate(259.293287412749 445.8752481429983) rotate(0 33.608203237706505 -30.556100873911873)"><path d="M34.17 -46.49 C46.51 -52.23, 53.17 -51.17, 68.25 -55.15 M36.18 -45.35 C43 -48.01, 52.04 -52.74, 64.2 -57.95" stroke="#1e1e1e" stroke-width="2" fill="none"></path></g></g><g stroke-linecap="round"><g transform="translate(347.81856441238864 321.13930498133163) rotate(0 -36.56797363203364 -29.41047380049224)"><path d="M2.45 1.84 C-8.97 -7.96, -58.3 -50.58, -70.87 -60.66 M0.33 0.36 C-11.05 -8.94, -59.37 -48.72, -71.89 -58.04" stroke="#1e1e1e" stroke-width="2" fill="none"></path></g><g transform="translate(347.81856441238864 321.13930498133163) rotate(0 -36.56797363203364 -29.41047380049224)"><path d="M-40.77 -45.4 C-52.08 -50.01, -55.44 -52.62, -74.03 -58.44 M-41.48 -49.19 C-51.27 -49.55, -55.41 -54.13, -70.98 -59.22" stroke="#1e1e1e" stroke-width="2" fill="none"></path></g><g transform="translate(347.81856441238864 321.13930498133163) rotate(0 -36.56797363203364 -29.41047380049224)"><path d="M-53.48 -29.29 C-61.81 -37.61, -62.42 -43.71, -74.03 -58.44 M-54.19 -33.08 C-60.84 -37.22, -61.96 -45.63, -70.98 -59.22" stroke="#1e1e1e" stroke-width="2" fill="none"></path></g></g><g stroke-linecap="round"><g transform="translate(259.36208315030314 173.66340576336688) rotate(0 19.189267362171506 -34.48396105498625)"><path d="M-0.71 0.47 C5.71 -10.61, 31.28 -56.2, 37.38 -67.84 M4.11 -1.74 C10.16 -13.56, 28.39 -61.46, 34.6 -72.24" stroke="#1e1e1e" stroke-width="2" fill="none"></path></g><g transform="translate(259.36208315030314 173.66340576336688) rotate(0 19.189267362171506 -34.48396105498625)"><path d="M32.8 -43.77 C34.66 -53.67, 33.15 -56.76, 31.23 -74.1 M33.66 -40.56 C33.86 -53.93, 35.57 -66.17, 35.78 -70.6" stroke="#1e1e1e" stroke-width="2" fill="none"></path></g><g transform="translate(259.36208315030314 173.66340576336688) rotate(0 19.189267362171506 -34.48396105498625)"><path d="M14.16 -52.36 C20.78 -59.93, 24.11 -60.8, 31.23 -74.1 M15.03 -49.15 C22.43 -59.48, 31.44 -68.35, 35.78 -70.6" stroke="#1e1e1e" stroke-width="2" fill="none"></path></g></g><g stroke-linecap="round"><g transform="translate(242.745267380965 80.20302034985093) rotate(0 -53.29430688226681 -6.750320401455269)"><path d="M0.7 0.31 C-16.23 -1.77, -86.31 -9.58, -103.88 -11.56 M-2.36 -1.98 C-19.21 -4.94, -87.46 -13.17, -104.65 -15.52" stroke="#1e1e1e" stroke-width="2" fill="none"></path></g><g transform="translate(242.745267380965 80.20302034985093) rotate(0 -53.29430688226681 -6.750320401455269)"><path d="M-74.94 -18.24 C-78.91 -17.85, -85.27 -18.97, -101.94 -11.64 M-77.11 -21.86 C-85.03 -19.83, -95.98 -18.18, -104.14 -15.41" stroke="#1e1e1e" stroke-width="2" fill="none"></path></g><g transform="translate(242.745267380965 80.20302034985093) rotate(0 -53.29430688226681 -6.750320401455269)"><path d="M-77.55 2.11 C-81.1 -1.92, -86.89 -7.46, -101.94 -11.64 M-79.72 -1.51 C-87.03 -6.05, -97.13 -11.04, -104.14 -15.41" stroke="#1e1e1e" stroke-width="2" fill="none"></path></g></g><g stroke-linecap="round"><g transform="translate(104.1713177245405 86.93264413009865) rotate(0 9.81105025984742 103.1987236596508)"><path d="M-2.26 -2.14 C0.77 32.83, 15.07 174.12, 18.95 208.76 M1.71 2.86 C4.24 37.19, 13.3 170.77, 16.35 205.03" stroke="#1e1e1e" stroke-width="2" fill="none"></path></g><g transform="translate(104.1713177245405 86.93264413009865) rotate(0 9.81105025984742 103.1987236596508)"><path d="M0.89 176.76 C11.18 188.88, 10.84 193.9, 20.2 206.74 M2.72 179.16 C7.32 188.64, 11.89 194.64, 16.93 204.83" stroke="#1e1e1e" stroke-width="2" fill="none"></path></g><g transform="translate(104.1713177245405 86.93264413009865) rotate(0 9.81105025984742 103.1987236596508)"><path d="M21.35 175.18 C24.94 187.48, 17.91 193.02, 20.2 206.74 M23.18 177.59 C21.07 187.32, 18.91 193.84, 16.93 204.83" stroke="#1e1e1e" stroke-width="2" fill="none"></path></g></g><g stroke-linecap="round"><g transform="translate(125.38706369052736 349.6567628410851) rotate(0 21.467268411057276 29.892073962232303)"><path d="M2.29 -0.59 C9.87 9.22, 36.4 49.26, 43.14 59.71 M0.09 -3.38 C7.53 6.82, 34.23 53.09, 41.02 63.3" stroke="#1e1e1e" stroke-width="2" fill="none"></path></g><g transform="translate(125.38706369052736 349.6567628410851) rotate(0 21.467268411057276 29.892073962232303)"><path d="M16.68 44.95 C22.62 48, 31.14 56.17, 40.86 64.93 M15.87 44.67 C25.11 52.66, 32.98 57.18, 39.05 65.3" stroke="#1e1e1e" stroke-width="2" fill="none"></path></g><g transform="translate(125.38706369052736 349.6567628410851) rotate(0 21.467268411057276 29.892073962232303)"><path d="M34.16 34.2 C36.38 39.88, 41.12 50.37, 40.86 64.93 M33.36 33.93 C36.28 45.41, 37.99 53.71, 39.05 65.3" stroke="#1e1e1e" stroke-width="2" fill="none"></path></g></g></svg>