<svg version="1.1" xmlns="http://www.w3.org/2000/svg" viewBox="0 0 2423.561846235444 2933.7251585328377" width="2423.561846235444" height="2933.7251585328377">
  <!-- svg-source:excalidraw -->
  
  <defs>
    <style>
      @font-face {
        font-family: "Virgil";
        src: url("https://excalidraw.com/Virgil.woff2");
      }
      @font-face {
        font-family: "Cascadia";
        src: url("https://excalidraw.com/Cascadia.woff2");
      }
    </style>
  </defs>
  <g stroke-linecap="round" transform="translate(1099.202374052562 1789.9806142880027) rotate(0 60.69017028808594 18.040481567382812)"><path d="M1.8 0.33 C45.93 0.85, 93.16 2.11, 120.33 0.66 M0.58 0.88 C44.95 2.02, 91.73 1.72, 120.88 -0.35 M121.26 1.1 C121.25 12.92, 122.49 27.5, 122.29 37.89 M121.39 -0.11 C121.61 12.23, 120.74 23.84, 122.02 35.13 M122.58 36.21 C75.28 35.96, 27 35.12, 1.11 35.15 M121.02 35.67 C82.51 37.62, 45.44 37.89, 0.71 36.67 M0.26 35.61 C1.68 25.51, 0.78 17.47, -1.96 -1.35 M0.86 36.6 C-0.35 25.86, 0.78 13.77, -0.05 -0.58" stroke="#1e1e1e" stroke-width="2" fill="none"></path></g><g transform="translate(1124.8125653977768 1795.5210958553855) rotate(0 35.079978942871094 12.5)"><text x="35.079978942871094" y="NaN" font-family="Segoe UI Emoji" font-size="20px" fill="#1e1e1e" text-anchor="middle" style="white-space: pre;" direction="ltr">Memory</text></g><g transform="translate(1185.409433799884 1752.2574187339621) rotate(0 48.549964904785156 12.5)"><text x="0" y="NaN" font-family="Segoe UI Emoji" font-size="20px" fill="#1e1e1e" text-anchor="start" style="white-space: pre;" direction="ltr">Computing</text></g><g stroke-linecap="round" transform="translate(1229.2062559168082 1789.3387685848777) rotate(0 60.69017028808594 18.040481567382812)"><path d="M-1.05 0.66 C41.52 -2.37, 78.18 0.04, 123.13 -1.63 M-0.5 -0.35 C48.71 -0.78, 96.69 -0.83, 121.93 -0.07 M122.29 1.81 C122.12 9.16, 122.77 18.4, 121.16 36.55 M122.02 -0.95 C122.06 12.57, 120.8 25.33, 121.45 36.74 M122.5 35.15 C83.44 36.28, 46.54 35.04, -0.82 35.06 M122.09 36.67 C78.47 36.08, 36.76 37.17, -0.24 36.75 M-1.96 34.73 C-0.15 27.22, 0.89 18.64, 1.05 -0.45 M-0.05 35.5 C-0.75 24.4, 0.15 11.87, 0.44 -0.98" stroke="#1e1e1e" stroke-width="2" fill="none"></path></g><g transform="translate(1262.196444515441 1794.8792501522605) rotate(0 27.699981689453125 12.5)"><text x="27.699981689453125" y="NaN" font-family="Segoe UI Emoji" font-size="20px" fill="#1e1e1e" text-anchor="middle" style="white-space: pre;" direction="ltr">VRAM</text></g><g stroke-linecap="round" transform="translate(1097.5353574793082 1838.2838156465832) rotate(0 60.69017028808594 18.040481567382812)"><path d="M-1.78 1.16 C42.16 -0.87, 82.71 1.17, 122.65 -1 M0.93 -0.06 C32.73 -0.06, 63.9 0.56, 121.3 0.45 M122.57 0.03 C121.25 14.55, 122.33 26.89, 121.86 37.37 M121.03 0.6 C121.77 8.07, 121.86 15.04, 121.11 36.64 M123.07 35.36 C89.79 35.38, 60.85 37.96, 1.58 37.5 M122.07 36.21 C77.55 35.58, 33.85 35.13, 0.57 35.1 M0.97 37.8 C1.06 27.25, 0.95 21.13, -1.85 -0.1 M0.47 36.89 C0.59 26.38, -0.43 17.79, 0.55 0.93" stroke="#1e1e1e" stroke-width="2" fill="none"></path></g><g transform="translate(1128.645548824523 1843.824297213966) rotate(0 29.579978942871094 12.5)"><text x="29.579978942871094" y="NaN" font-family="Segoe UI Emoji" font-size="20px" fill="#1e1e1e" text-anchor="middle" style="white-space: pre;" direction="ltr">DRAM</text></g><g stroke-linecap="round" transform="translate(1227.3014707605582 1834.9346455954378) rotate(0 60.69017028808594 18.040481567382812)"><path d="M1.89 0.41 C44.75 -0.01, 86.25 2.65, 121.38 1.86 M-0.45 0.56 C35.62 0.53, 72.3 0.35, 121.37 0.59 M122.23 -1.27 C121.82 12.16, 119.44 23.56, 121.78 35.37 M121.53 0.24 C121.14 13.55, 120.94 26.15, 121.64 36.92 M122.41 37.64 C90.9 36.88, 58.45 34.94, -1.92 37.45 M121.04 36.3 C83.96 35.91, 44.72 36.86, 0.36 36.56 M0.93 37.89 C-2.04 22.06, -1.35 7.38, 1.65 0.95 M-0.59 35.24 C0.39 23.26, -0.86 8.57, 0.43 -0.14" stroke="#1e1e1e" stroke-width="2" fill="none"></path></g><g transform="translate(1267.421656612609 1840.4751271628206) rotate(0 20.569984436035156 12.5)"><text x="20.569984436035156" y="NaN" font-family="Segoe UI Emoji" font-size="20px" fill="#1e1e1e" text-anchor="middle" style="white-space: pre;" direction="ltr">CPU</text></g><g transform="translate(1492.7229939046126 1758.9081396488168) rotate(0 60.15995788574219 12.5)"><text x="0" y="NaN" font-family="Segoe UI Emoji" font-size="20px" fill="#1e1e1e" text-anchor="start" style="white-space: pre;" direction="ltr">Productivity</text></g><g stroke-linecap="round" transform="translate(1230.7870466111017 1883.8246996513076) rotate(0 60.69017028808594 18.040481567382812)"><path d="M-0.13 -0.91 C48.8 -0.82, 96.28 1.14, 121.92 -0.03 M0.24 0.43 C42.99 0.38, 87.9 -0.81, 122.29 0.2 M122.71 0.3 C122.08 9.01, 122.71 18.17, 121.7 36.61 M120.87 0.51 C122.03 14.66, 121.96 28.33, 121.12 35.12 M122.72 35.39 C77.08 36.94, 29.96 34.44, -0.07 36.8 M121.16 36.55 C80.01 35.79, 36.77 36.13, -0.43 36.91 M-1.96 34.91 C-1.98 24.65, 1.56 9.6, -0.03 0.85 M0.05 35.22 C0.69 26.2, 1.19 15.61, 0.97 0.27" stroke="#1e1e1e" stroke-width="2" fill="none"></path></g><g transform="translate(1269.397230326922 1889.3651812186904) rotate(0 22.079986572265625 12.5)"><text x="22.079986572265625" y="NaN" font-family="Segoe UI Emoji" font-size="20px" fill="#1e1e1e" text-anchor="middle" style="white-space: pre;" direction="ltr">GPU</text></g><g stroke-linecap="round" transform="translate(1097.083018934604 1884.8704356284127) rotate(0 60.69017028808594 30)"><path d="M0.91 1.81 C31.45 0.06, 63.01 0.12, 121.16 0.47 M0.64 -0.95 C42.5 -0.09, 82.84 0.31, 121.45 0.66 M122.5 -0.93 C121.85 19.44, 123.21 37.11, 120.56 58.98 M122.09 0.59 C121.59 20.12, 122.53 42.3, 121.14 60.67 M119.42 58.65 C89.07 61.42, 57.88 62.42, 1.05 59.55 M121.33 59.42 C78.87 59.7, 37.69 59.69, 0.44 59.02 M1.86 58.59 C0.48 46.38, 0.22 29.31, -0.24 0.1 M0.87 60.15 C0.75 47.42, -0.41 34.57, -0.67 -0.93" stroke="#1e1e1e" stroke-width="2" fill="none"></path></g><g transform="translate(1119.9832264541353 1889.8704356284127) rotate(0 37.78996276855469 25)"><text x="37.78996276855469" y="NaN" font-family="Segoe UI Emoji" font-size="20px" fill="#1e1e1e" text-anchor="middle" style="white-space: pre;" direction="ltr">DNS</text><text x="37.78996276855469" y="NaN" font-family="Segoe UI Emoji" font-size="20px" fill="#1e1e1e" text-anchor="middle" style="white-space: pre;" direction="ltr">Reading</text></g><g stroke-linecap="round" transform="translate(1428.847893448692 1792.4829248883952) rotate(0 60.69017028808594 30)"><path d="M1.19 0.03 C47.15 0.49, 95.6 -1.25, 121.86 1.29 M-0.35 0.6 C24.97 0.42, 49.96 -0.01, 121.11 0.56 M123.07 -0.72 C120.66 14.19, 122.5 31.99, 122.96 61.42 M122.07 0.13 C120.99 22.22, 120.88 43.31, 121.95 59.02 M122.35 61.72 C94.23 59.99, 65.92 62.25, -1.85 59.9 M121.85 60.81 C92.48 60.02, 62.1 60.16, 0.55 60.93 M-0.29 58.25 C-0.24 46.32, -1.71 33.19, 0.86 1.74 M-0.18 60.27 C-1.25 40.18, -1.31 23.17, 0.32 -0.48" stroke="#1e1e1e" stroke-width="2" fill="none"></path></g><g transform="translate(1457.6280905922467 1797.4829248883952) rotate(0 31.90997314453125 25)"><text x="31.90997314453125" y="NaN" font-family="Segoe UI Emoji" font-size="20px" fill="#1e1e1e" text-anchor="middle" style="white-space: pre;" direction="ltr">Note</text><text x="31.90997314453125" y="NaN" font-family="Segoe UI Emoji" font-size="20px" fill="#1e1e1e" text-anchor="middle" style="white-space: pre;" direction="ltr">Taking</text></g><g transform="translate(1168.5746703826323 1182.2498205645863) rotate(0 23.009979248046875 12.5)"><text x="0" y="NaN" font-family="Segoe UI Emoji" font-size="20px" fill="#1e1e1e" text-anchor="start" style="white-space: pre;" direction="ltr">Work</text></g><g stroke-linecap="round" transform="translate(1205.6607508557754 1220.0294946158524) rotate(0 60.69017028808594 18.040481567382812)"><path d="M-1.55 -1.44 C27.72 -1.24, 55.75 -0.6, 121.38 -1.4 M-0.24 0.56 C32.37 -1.32, 65.12 -1.02, 121.69 -0.9 M122.07 -1.58 C122.08 9.21, 121.7 18.41, 120.22 34.26 M120.96 0.21 C120.76 9.79, 122.21 21.16, 122.32 35.56 M122.07 37.78 C88.71 37.35, 54.43 37.47, 0.72 37.41 M121.91 35.96 C95.83 34.7, 72.92 34.76, -0.09 36.17 M-1.95 35.53 C-1.42 21.26, 1.08 10.18, -0.18 -1.41 M-0.69 35.37 C-0.19 29.02, -1.01 19.9, 0.44 0.54" stroke="#1e1e1e" stroke-width="2" fill="none"></path></g><g transform="translate(1238.6509394544082 1225.5699761832352) rotate(0 27.699981689453125 12.5)"><text x="27.699981689453125" y="NaN" font-family="Segoe UI Emoji" font-size="20px" fill="#1e1e1e" text-anchor="middle" style="white-space: pre;" direction="ltr">VRAM</text></g><g stroke-linecap="round" transform="translate(1073.9898524182754 1224.9097485871282) rotate(0 60.69017028808594 18.040481567382812)"><path d="M-1.73 1.65 C27.29 0.12, 55.15 -2.78, 122.67 1.31 M-0.96 0.61 C35.04 -0.11, 69.93 0.83, 121.37 -0.13 M121.45 1.21 C123.07 13.98, 122.64 30.25, 120.31 35 M120.41 -0.35 C121.26 10.37, 121.37 22.49, 120.43 35.73 M122.47 34.45 C75.74 35.14, 26.12 34.4, -1.04 36 M121.83 35.22 C95.45 37.76, 71.12 37.78, 0.6 36.05 M-1.22 35.23 C-1.07 27.27, 0.08 14.14, 0.82 -0.69 M-0.82 35.54 C0.76 24.97, 0.29 13.32, -0.79 -0.44" stroke="#1e1e1e" stroke-width="2" fill="none"></path></g><g transform="translate(1105.1000437634902 1230.450230154511) rotate(0 29.579978942871094 12.5)"><text x="29.579978942871094" y="NaN" font-family="Segoe UI Emoji" font-size="20px" fill="#1e1e1e" text-anchor="middle" style="white-space: pre;" direction="ltr">DRAM</text></g><g stroke-linecap="round" transform="translate(1203.7559656995254 1265.7592004263993) rotate(0 60.69017028808594 18.040481567382812)"><path d="M0.86 -0.4 C39.14 -2.3, 77.39 -0.55, 121.46 0.75 M-0.87 -0.47 C32.52 -0.45, 66.31 0.05, 120.71 0.4 M121.38 -1.1 C122.84 11.81, 119.86 23.43, 120.61 37.09 M121.18 0.24 C122.21 13.53, 121.77 26.43, 122.34 36 M120.21 34.08 C95.34 37.2, 69.07 35.06, 1.5 35.25 M121.75 35.79 C81.23 35.31, 42.26 36.88, -0.98 36.1 M1.89 37.99 C-1.85 22.92, -0.59 11.37, 0.03 0.58 M-0.98 36.55 C0.63 22.88, -0.47 8.41, 0.05 0.92" stroke="#1e1e1e" stroke-width="2" fill="none"></path></g><g transform="translate(1243.8761515515762 1271.299681993782) rotate(0 20.569984436035156 12.5)"><text x="20.569984436035156" y="NaN" font-family="Segoe UI Emoji" font-size="20px" fill="#1e1e1e" text-anchor="middle" style="white-space: pre;" direction="ltr">CPU</text></g><g transform="translate(1463.3455415800677 1177.808984362961) rotate(0 40.869964599609375 12.5)"><text x="0" y="NaN" font-family="Segoe UI Emoji" font-size="20px" fill="#1e1e1e" text-anchor="start" style="white-space: pre;" direction="ltr">Personal</text></g><g stroke-linecap="round" transform="translate(1404.6915556469542 1230.551274969196) rotate(0 60.69017028808594 18.040481567382812)"><path d="M-1.19 -0.17 C48.41 2.14, 96.61 1.21, 121.58 0.88 M0.14 -0.39 C30.71 -0.16, 61.92 -0.12, 121.56 -0.75 M123.18 -1.57 C123.29 13.72, 122.71 26.1, 120.39 34.4 M121.68 0.55 C120.48 10.87, 120.93 21.57, 121.93 36.69 M121.96 36.98 C95.44 38.39, 74.59 37.13, 1.19 37.99 M120.86 36.1 C89.86 34.71, 59.97 34.78, -0.1 36.32 M-0.28 36.34 C0.37 21.89, 0.16 6.71, 1.27 -1.22 M-0.44 35.68 C-0.54 22.44, -0.2 10.52, -0.05 -0.69" stroke="#1e1e1e" stroke-width="2" fill="none"></path></g><g transform="translate(1443.3017393627745 1236.0917565365787) rotate(0 22.079986572265625 12.5)"><text x="22.079986572265625" y="NaN" font-family="Segoe UI Emoji" font-size="20px" fill="#1e1e1e" text-anchor="middle" style="white-space: pre;" direction="ltr">GPU</text></g><g stroke-linecap="round" transform="translate(1406.3521311714203 1278.6859839437761) rotate(0 60.69017028808594 30)"><path d="M0.07 1.62 C35.74 -0.02, 72.12 -1.17, 119.42 -0.77 M-0.98 0.59 C44.5 -0.41, 90.39 -0.13, 122.2 0.74 M121.67 0.7 C122.6 18.26, 120.53 35.67, 121.46 61.29 M121.98 -0.61 C121.67 17.14, 121.23 35.31, 121.72 59.68 M120.16 59.1 C81.7 62, 40.46 61.32, 1.78 61.84 M120.42 59.16 C86.17 61.2, 51.55 61.78, 0.79 60.4 M0.54 60.38 C-0.99 47.36, 1.01 35.13, -1.31 -1.23 M0.82 60.68 C-1.2 36.36, -1.12 14.97, 0 0.35" stroke="#1e1e1e" stroke-width="2" fill="none"></path></g><g transform="translate(1435.132328314975 1283.6859839437761) rotate(0 31.90997314453125 25)"><text x="31.90997314453125" y="NaN" font-family="Segoe UI Emoji" font-size="20px" fill="#1e1e1e" text-anchor="middle" style="white-space: pre;" direction="ltr">Note</text><text x="31.90997314453125" y="NaN" font-family="Segoe UI Emoji" font-size="20px" fill="#1e1e1e" text-anchor="middle" style="white-space: pre;" direction="ltr">Taking</text></g><g stroke-linecap="round" transform="translate(1205.4266473201792 1312.4656696522488) rotate(0 60.69017028808594 30)"><path d="M1.62 1.78 C31.17 1.87, 61.46 2.03, 119.91 -1.35 M0.45 0.54 C43.92 0.08, 89.78 -0.67, 122.27 -0.59 M122.7 -0.64 C119.13 14.31, 122.97 26.94, 121.89 61.18 M120.72 -0.94 C122.13 14.46, 122.76 27.61, 121.35 60.35 M121.73 61.36 C92.85 62.94, 60.33 62.35, -0.25 59.72 M121.05 60.64 C92.76 60.95, 65.52 61.44, -0.21 59.45 M1.77 58.28 C-1.28 39.96, 0.15 19.14, -0.1 1.12 M0.4 59.09 C0.98 40.11, 0.54 18.97, -0.35 0.18" stroke="#1e1e1e" stroke-width="2" fill="none"></path></g><g transform="translate(1238.7668267635386 1317.4656696522488) rotate(0 27.349990844726562 25)"><text x="27.349990844726562" y="NaN" font-family="Segoe UI Emoji" font-size="20px" fill="#1e1e1e" text-anchor="middle" style="white-space: pre;" direction="ltr">Admin</text><text x="27.349990844726562" y="NaN" font-family="Segoe UI Emoji" font-size="20px" fill="#1e1e1e" text-anchor="middle" style="white-space: pre;" direction="ltr">Tools</text></g><g stroke-linecap="round" transform="translate(1070.8019107520613 1274.6770080455713) rotate(0 60.69017028808594 30)"><path d="M0.26 0.02 C25.65 -1.91, 54.04 -1.15, 122.7 -1.33 M-0.07 -0.02 C32.81 -0.75, 65.57 -1.7, 121.2 0.76 M119.71 -1.41 C119.9 14.31, 121.68 28.31, 120.84 60.03 M121.13 0.94 C121.77 20.38, 120.87 39.67, 122.11 60.8 M119.57 59.25 C84.11 57.33, 46.73 57.43, -0.39 61.87 M121.5 60.8 C74.31 60.59, 27.63 59.62, 0.67 60.59 M-1.24 59.18 C1.59 38.74, -1.59 17.82, 0.91 0.08 M0.62 60.91 C0.73 38.98, 1.22 17.58, 0.77 0.99" stroke="#1e1e1e" stroke-width="2" fill="none"></path></g><g transform="translate(1098.2921146094832 1279.6770080455713) rotate(0 33.19996643066406 25)"><text x="33.19996643066406" y="NaN" font-family="Segoe UI Emoji" font-size="20px" fill="#1e1e1e" text-anchor="middle" style="white-space: pre;" direction="ltr">Blog</text><text x="33.19996643066406" y="NaN" font-family="Segoe UI Emoji" font-size="20px" fill="#1e1e1e" text-anchor="middle" style="white-space: pre;" direction="ltr">Writing</text></g><g stroke-linecap="round" transform="translate(1537.5812854476815 1223.4739922859433) rotate(0 60.69017028808594 42.5)"><path d="M-1.92 -1.74 C27.9 2.28, 51.57 -0.59, 120.46 1.02 M0.17 -0.32 C45.38 0.27, 91.3 1.17, 121.44 -0.65 M121.95 -0.02 C120.37 18.91, 121.56 36.86, 120.62 85.45 M120.97 0.51 C122.19 20.39, 121.95 40.89, 120.91 84.26 M120.04 83.58 C87.64 85.87, 55.98 83.47, 1.1 83.15 M121.53 85.44 C90.29 84.47, 60.19 84.76, 0.76 84.51 M-0.13 85.74 C-0.78 60.71, -1.86 35.79, 0.43 0.62 M0.67 85.78 C0.25 53.23, -0.33 20.93, -0.7 0.15" stroke="#1e1e1e" stroke-width="2" fill="none"></path></g><g transform="translate(1566.3614825912362 1228.4739922859433) rotate(0 31.90997314453125 37.5)"><text x="31.90997314453125" y="NaN" font-family="Segoe UI Emoji" font-size="20px" fill="#1e1e1e" text-anchor="middle" style="white-space: pre;" direction="ltr">Note</text><text x="31.90997314453125" y="NaN" font-family="Segoe UI Emoji" font-size="20px" fill="#1e1e1e" text-anchor="middle" style="white-space: pre;" direction="ltr">Taking</text><text x="31.90997314453125" y="NaN" font-family="Segoe UI Emoji" font-size="20px" fill="#1e1e1e" text-anchor="middle" style="white-space: pre;" direction="ltr">Tools</text></g><g stroke-linecap="round" transform="translate(1560.3859705109294 1795.5738304202719) rotate(0 60.69017028808594 30)"><path d="M0.92 1.18 C37.37 1.04, 78.2 -0.09, 120.5 0.11 M0.09 0.6 C48.95 1.61, 95.31 1.65, 122.06 -0.22 M120.62 0.94 C122.62 19.42, 119.44 41, 122 61.63 M121.55 -0.85 C121.65 19.73, 121.83 40.73, 120.77 60.29 M120.33 58.98 C77.83 57.45, 36.3 60.21, -1.38 60.05 M120.67 60.92 C78.92 61.85, 36.9 60.09, 0.38 59.56 M0.57 61.04 C-1.81 42.74, -0.41 23.02, -0.9 -1.43 M0.95 59.29 C-0.04 48.75, -0.32 35.83, 0.06 -0.9" stroke="#1e1e1e" stroke-width="2" fill="none"></path></g><g transform="translate(1593.7261499542888 1800.5738304202719) rotate(0 27.349990844726562 25)"><text x="27.349990844726562" y="NaN" font-family="Segoe UI Emoji" font-size="20px" fill="#1e1e1e" text-anchor="middle" style="white-space: pre;" direction="ltr">Admin</text><text x="27.349990844726562" y="NaN" font-family="Segoe UI Emoji" font-size="20px" fill="#1e1e1e" text-anchor="middle" style="white-space: pre;" direction="ltr">Tools</text></g><g stroke-linecap="round" transform="translate(1423.854757973888 1872.5620040084957) rotate(0 60.69017028808594 30)"><path d="M0.08 -0.91 C42.7 -0.03, 89.08 0.35, 120.01 0.17 M-0.83 0.81 C44.43 -1.16, 87.78 -1.04, 121.29 -0.38 M119.5 1.55 C122.39 22.46, 122.44 42.22, 122.58 60.33 M121.66 0.69 C120.84 13.22, 122.02 25.43, 120.71 59.48 M123.09 61.02 C89.76 58.99, 61.87 59.2, 1.59 58.58 M121.61 59.13 C74.24 60.63, 26.52 61.68, -0.82 60.28 M-0.05 61.25 C-0.46 37.46, -1.52 17.67, 0.61 1.9 M-0.35 60.1 C0.1 45.37, 0.18 32.79, -0.13 -0.77" stroke="#1e1e1e" stroke-width="2" fill="none"></path></g><g transform="translate(1451.3449618313098 1877.5620040084957) rotate(0 33.19996643066406 25)"><text x="33.19996643066406" y="NaN" font-family="Segoe UI Emoji" font-size="20px" fill="#1e1e1e" text-anchor="middle" style="white-space: pre;" direction="ltr">Blog</text><text x="33.19996643066406" y="NaN" font-family="Segoe UI Emoji" font-size="20px" fill="#1e1e1e" text-anchor="middle" style="white-space: pre;" direction="ltr">Writing</text></g><g stroke-linecap="round" transform="translate(1563.1137023014885 1872.730260003802) rotate(0 60.69017028808594 42.5)"><path d="M1.92 0.48 C29.51 0.11, 62.96 1.69, 122.94 -1.67 M0.29 -0.1 C46.2 -0.11, 93.05 0.92, 121.23 -0.94 M122.05 0.56 C122.84 32.41, 119.95 64.36, 120.8 85.56 M121.96 -0.43 C120.2 30.81, 120.36 62.58, 120.51 85.85 M122.36 85.26 C80.39 83.61, 38.05 84.82, 1.76 85.46 M121.57 85.6 C94.7 84.75, 70.18 83.74, 0.93 84.97 M-1.95 84.88 C0.99 56.08, -1.04 23.2, 1.77 -0.71 M0.13 85.26 C-0.17 57.87, 0.15 32.29, 0.92 0.04" stroke="#1e1e1e" stroke-width="2" fill="none"></path></g><g transform="translate(1591.8938994450432 1877.730260003802) rotate(0 31.90997314453125 37.5)"><text x="31.90997314453125" y="NaN" font-family="Segoe UI Emoji" font-size="20px" fill="#1e1e1e" text-anchor="middle" style="white-space: pre;" direction="ltr">Note</text><text x="31.90997314453125" y="NaN" font-family="Segoe UI Emoji" font-size="20px" fill="#1e1e1e" text-anchor="middle" style="white-space: pre;" direction="ltr">Taking</text><text x="31.90997314453125" y="NaN" font-family="Segoe UI Emoji" font-size="20px" fill="#1e1e1e" text-anchor="middle" style="white-space: pre;" direction="ltr">Tools</text></g><g stroke-linecap="round" transform="translate(1226.1784522574928 2578.2634824832753) rotate(0 60.74090782520274 18.055563574877397)"><path d="M1.1 -0.18 C40.92 -1.46, 82.58 0.56, 120.99 1.17 M0.13 -0.51 C37.89 0.49, 76.95 1.3, 122.03 0.95 M120.56 1.2 C122.09 10.73, 123 18.6, 122.38 35.79 M122.32 -0.06 C121 14.02, 122.04 29.64, 120.63 35.9 M120.91 37.31 C85.29 35.32, 51.62 35.72, 1.63 36.78 M122.17 35.7 C81.48 35.62, 42.95 36.41, -0.66 35.67 M-0.78 35.21 C0.92 21.56, 1.02 9.95, 1.51 -0.36 M-0.46 35.49 C0.78 28.56, 0.49 19.88, -0.66 -0.05" stroke="#1e1e1e" stroke-width="2" fill="none"></path></g><g transform="translate(1259.2055234127736 2583.808595943893) rotate(0 27.713836669921875 12.510450114259811)"><text x="27.713836669921875" y="NaN" font-family="Segoe UI Emoji" font-size="20.016720182815753px" fill="#1e1e1e" text-anchor="middle" style="white-space: pre;" direction="ltr">VRAM</text></g><g stroke-linecap="round" transform="translate(1824.162621039888 2650.533523083467) rotate(0 60.69017028808594 18.040481567382812)"><path d="M-0.01 0.79 C34.85 1.92, 70.98 -0.41, 120.8 0.25 M0.37 0.95 C30.78 0.78, 60.19 -0.23, 122.31 -0.46 M122.93 -1.04 C122.39 12.68, 123.44 27.68, 119.65 37.77 M121.63 0.94 C120.24 10.4, 120.98 21.92, 120.61 35.8 M121.67 36.63 C79.31 36.83, 34.43 35.81, -0.04 37.45 M121.22 36.41 C89.31 35.08, 59.09 36.51, 0.31 35.69 M1.38 35.46 C1.28 26.51, -1.64 17.23, -1.39 -0.92 M0.41 36.43 C-0.92 27.46, -0.67 18.06, 0.63 0.32" stroke="#1e1e1e" stroke-width="2" fill="none"></path></g><g transform="translate(1855.272812385103 2656.07400465085) rotate(0 29.579978942871094 12.5)"><text x="29.579978942871094" y="NaN" font-family="Segoe UI Emoji" font-size="20px" fill="#1e1e1e" text-anchor="middle" style="white-space: pre;" direction="ltr">DRAM</text></g><g stroke-linecap="round" transform="translate(1221.7602463230103 2629.4838651639693) rotate(0 60.74090782520274 18.055563574877397)"><path d="M0.3 -1.15 C40.68 -0.46, 81.5 -1.52, 121.75 0.74 M-0.28 -0.07 C48.91 -1.61, 96.55 -0.83, 121.94 0.77 M123.43 1.68 C119.92 10.64, 121.52 16.32, 120.81 36.61 M121.37 0.7 C120.4 13.94, 121.77 27.88, 121.55 36.25 M121.93 35.75 C81.67 37.88, 41.13 34.89, -0.93 35.79 M122.02 37.11 C81.39 35.19, 40.25 36.22, -0.89 36.8 M-1.41 35.67 C-1.66 25.49, -1.52 18.1, 1.47 0.82 M-0.42 35.22 C0.86 24.34, -0.5 11.95, -0.47 -0.31" stroke="#1e1e1e" stroke-width="2" fill="none"></path></g><g transform="translate(1261.9208700295605 2635.028978624587) rotate(0 20.580284118652344 12.510450114259811)"><text x="20.580284118652344" y="NaN" font-family="Segoe UI Emoji" font-size="20.016720182815753px" fill="#1e1e1e" text-anchor="middle" style="white-space: pre;" direction="ltr">CPU</text></g><g stroke-linecap="round" transform="translate(1601.9071264141603 2596.0854140471274) rotate(0 60.740907825202726 18.055563574877397)"><path d="M1.9 1.09 C33.44 -1.01, 62.95 1.42, 120.56 1.2 M-0.52 0.45 C40.14 0.03, 81.45 -1.8, 122.32 -0.06 M123.36 -1.71 C120.93 7.76, 122.77 14.42, 120.91 37.31 M121.76 0.82 C121.84 9.03, 121.33 17.59, 122.17 35.7 M122.13 34.8 C94.06 36.99, 70.39 36.53, -0.78 35.21 M121.17 36.87 C77.05 36.25, 32.76 36.26, -0.46 35.49 M0.7 34.78 C-0.37 21.92, -2.04 10.65, 0.64 -1.48 M0.66 37.02 C-0.8 25.59, 0.22 13.36, 0.16 -0.83" stroke="#1e1e1e" stroke-width="2" fill="none"></path></g><g transform="translate(1640.557000303816 2601.6305275077452) rotate(0 22.091033935546875 12.510450114259811)"><text x="22.091033935546875" y="NaN" font-family="Segoe UI Emoji" font-size="20.016720182815753px" fill="#1e1e1e" text-anchor="middle" style="white-space: pre;" direction="ltr">GPU</text></g><g stroke-linecap="round" transform="translate(1088.4285653252364 2581.0240813922637) rotate(0 60.69017028808594 30)"><path d="M0.64 0.91 C49.29 -1.77, 96.38 -1.05, 123.33 1.68 M-0.79 -0.33 C26.19 1.01, 51.02 -0.14, 121.27 0.7 M120.26 0.15 C121.5 13.91, 122.84 27.38, 121.83 59.64 M120.57 -0.47 C121.63 18.2, 121.14 35.3, 121.92 61 M122.67 58.21 C82.64 58.83, 42.64 59.09, -1.41 59.56 M122.08 60.74 C93.78 59.59, 64.71 59.19, -0.42 59.11 M0.04 59.05 C-0.8 39.57, 1.62 14.55, 0.77 0.1 M0.71 59.27 C-0.13 46.91, 0.88 34.94, -0.46 0.52" stroke="#1e1e1e" stroke-width="2" fill="none"></path></g><g transform="translate(1117.208762468791 2586.0240813922637) rotate(0 31.90997314453125 25)"><text x="31.90997314453125" y="NaN" font-family="Segoe UI Emoji" font-size="20px" fill="#1e1e1e" text-anchor="middle" style="white-space: pre;" direction="ltr">Note</text><text x="31.90997314453125" y="NaN" font-family="Segoe UI Emoji" font-size="20px" fill="#1e1e1e" text-anchor="middle" style="white-space: pre;" direction="ltr">Taking</text></g><g stroke-linecap="round" transform="translate(1088.252882487135 2734.2180095713547) rotate(0 60.69017028808594 30)"><path d="M0.9 -0.32 C43.9 2.31, 82.18 2.32, 121.26 -1.58 M-0.86 -0.21 C32.25 -0.44, 63.95 -1.42, 121.98 -0.56 M123.01 0.66 C121.92 18.08, 121.42 38.24, 120.56 58.37 M120.72 -0.44 C121.82 16.2, 121.59 30.02, 120.93 60.64 M122.89 59.64 C94.39 59.18, 68.83 58.71, -1.25 61.4 M120.72 59.95 C75.62 59.53, 31.31 60.74, -0.74 60.02 M1.81 58.06 C0.95 44.95, -1.68 30.01, -1.65 1.43 M0.97 59.74 C-0.44 46.92, 0.19 33, 0 0.98" stroke="#1e1e1e" stroke-width="2" fill="none"></path></g><g transform="translate(1121.5930619304943 2739.2180095713547) rotate(0 27.349990844726562 25)"><text x="27.349990844726562" y="NaN" font-family="Segoe UI Emoji" font-size="20px" fill="#1e1e1e" text-anchor="middle" style="white-space: pre;" direction="ltr">Admin</text><text x="27.349990844726562" y="NaN" font-family="Segoe UI Emoji" font-size="20px" fill="#1e1e1e" text-anchor="middle" style="white-space: pre;" direction="ltr">Tools</text></g><g stroke-linecap="round" transform="translate(1089.2615620496601 2659.496119586638) rotate(0 60.74090782520274 30.025080274223683)"><path d="M-1.73 1.69 C34.39 -2.6, 68.35 -0.52, 123.36 -1.71 M-0.77 -0.28 C34.45 -1.42, 67.76 -0.71, 121.76 0.82 M121.44 1.37 C120.79 18.38, 120.69 39.7, 122.13 58.74 M121.79 -0.39 C121.35 16.03, 120.91 31.46, 121.17 60.81 M120.1 59.13 C85.98 61.18, 54.46 60.6, 0.7 58.72 M122.11 60.37 C84.93 58.99, 49.38 58.66, 0.66 60.96 M-1.87 60.36 C-1.88 49.3, -1.7 35.62, -1.38 1.94 M0.17 60.24 C0.27 44.57, 0.98 26.94, 0.48 -0.65" stroke="#1e1e1e" stroke-width="2" fill="none"></path></g><g transform="translate(1116.7858866229099 2664.500299632342) rotate(0 33.216583251953125 25.020900228519736)"><text x="33.216583251953125" y="NaN" font-family="Segoe UI Emoji" font-size="20.016720182815753px" fill="#1e1e1e" text-anchor="middle" style="white-space: pre;" direction="ltr">Blog</text><text x="33.216583251953125" y="NaN" font-family="Segoe UI Emoji" font-size="20.016720182815753px" fill="#1e1e1e" text-anchor="middle" style="white-space: pre;" direction="ltr">Writing</text></g><g stroke-linecap="round" transform="translate(1222.5253331755807 2682.418978874407) rotate(0 60.69017028808594 42.5)"><path d="M-0.67 0.5 C48.52 -0.75, 92.86 0.73, 122.79 -1.55 M0.07 0.14 C33.24 1.5, 66.26 0.91, 121.2 -0.02 M120.45 -0.32 C121.68 30, 120.15 63.7, 123.38 85.61 M120.49 0.69 C120.69 22.93, 120.82 43.65, 121.16 84.31 M122.85 85.82 C91.22 84.52, 59.56 85.01, -1.78 86.25 M120.91 84.69 C81.75 85.93, 39.83 85.41, 0.05 84.07 M-1.47 84.93 C-0.68 60.11, 0.18 30.41, 1.03 0.34 M0.7 84.79 C0.49 57.22, -0.03 29.93, 0.18 0.76" stroke="#1e1e1e" stroke-width="2" fill="none"></path></g><g transform="translate(1251.3055303191354 2687.418978874407) rotate(0 31.90997314453125 37.5)"><text x="31.90997314453125" y="NaN" font-family="Segoe UI Emoji" font-size="20px" fill="#1e1e1e" text-anchor="middle" style="white-space: pre;" direction="ltr">Note</text><text x="31.90997314453125" y="NaN" font-family="Segoe UI Emoji" font-size="20px" fill="#1e1e1e" text-anchor="middle" style="white-space: pre;" direction="ltr">Taking</text><text x="31.90997314453125" y="NaN" font-family="Segoe UI Emoji" font-size="20px" fill="#1e1e1e" text-anchor="middle" style="white-space: pre;" direction="ltr">Tools</text></g><g stroke-linecap="round" transform="translate(1229.1345598075075 1929.102773107868) rotate(0 60.69017028808594 42.49999999999997)"><path d="M-0.67 -0.4 C34.15 2.4, 64.24 1.75, 122.29 1.04 M0.6 0.49 C45.69 0.3, 91.94 1.25, 122.36 0.25 M121.34 1.79 C120.45 32.76, 122.03 63.66, 122.23 83.74 M121.75 -0.09 C120.72 32.11, 120.98 65.57, 122.19 84.13 M122.54 85.56 C78.84 85.47, 35.38 86.88, -1.95 86.86 M121.67 85.82 C95.87 85.16, 71.32 85.43, -0.05 85.67 M-1.85 83.45 C2.47 56.55, -1.24 27.47, 1.62 1.16 M-0.58 85.01 C-0.49 54.89, -0.33 25.55, 0.39 -0.79" stroke="#1e1e1e" stroke-width="2" fill="none"></path></g><g transform="translate(1252.4747621390504 1934.102773107868) rotate(0 37.34996795654297 37.49999999999997)"><text x="37.34996795654297" y="NaN" font-family="Segoe UI Emoji" font-size="20px" fill="#1e1e1e" text-anchor="middle" style="white-space: pre;" direction="ltr">Load</text><text x="37.34996795654297" y="NaN" font-family="Segoe UI Emoji" font-size="20px" fill="#1e1e1e" text-anchor="middle" style="white-space: pre;" direction="ltr">Testing</text><text x="37.34996795654297" y="NaN" font-family="Segoe UI Emoji" font-size="20px" fill="#1e1e1e" text-anchor="middle" style="white-space: pre;" direction="ltr">Demo</text></g><g stroke-linecap="round" transform="translate(1206.1551183024003 1378.9477095418579) rotate(0 60.69017028808594 42.5)"><path d="M1.77 -0.06 C43.83 -0.82, 89.85 -1.52, 119.49 -0.89 M0.7 -0.18 C29.69 -0.5, 61.1 -0.79, 122.1 -0.09 M122.28 -0.62 C120.49 33.22, 121.78 68.72, 119.44 86.41 M120.78 0.06 C121.67 32.02, 122.32 62.57, 122.34 85.31 M122.98 83.98 C95.48 82.64, 69.72 84.19, 0.25 85.82 M121.78 84.59 C77.51 85.63, 32.01 86.38, -0.48 84.78 M1.16 85.82 C-1.49 56.34, 0.78 24.47, 1.47 -0.01 M0.83 84.83 C-1.09 63.68, -1.01 43.93, 0.63 0.1" stroke="#1e1e1e" stroke-width="2" fill="none"></path></g><g transform="translate(1229.4953206339433 1383.9477095418579) rotate(0 37.34996795654297 37.5)"><text x="37.34996795654297" y="NaN" font-family="Segoe UI Emoji" font-size="20px" fill="#1e1e1e" text-anchor="middle" style="white-space: pre;" direction="ltr">Load</text><text x="37.34996795654297" y="NaN" font-family="Segoe UI Emoji" font-size="20px" fill="#1e1e1e" text-anchor="middle" style="white-space: pre;" direction="ltr">Testing</text><text x="37.34996795654297" y="NaN" font-family="Segoe UI Emoji" font-size="20px" fill="#1e1e1e" text-anchor="middle" style="white-space: pre;" direction="ltr">Demo</text></g><g stroke-linecap="round" transform="translate(764.1551523023153 2597.103400645191) rotate(0 60.69017028808594 42.5)"><path d="M1.18 -1.89 C46.36 0.61, 90.5 2.49, 119.4 -0.89 M0.3 0.36 C44.88 -0.05, 90.55 -0.53, 121.87 0.71 M121.35 -1.62 C122.13 15.62, 120.81 35.85, 120.87 84.1 M121.66 0.81 C121.83 30.02, 120.82 60.03, 121.27 85.52 M120.41 84.77 C89.12 85.46, 58.86 87.12, -1.69 86.01 M122.05 84.54 C78.25 83.57, 34.5 83.33, 0.89 84.08 M0.44 86.83 C-0.67 63.25, 1.8 41.82, -1.48 -1.53 M0.58 85.86 C-0.82 57.61, 0.1 30.61, 0.47 0.32" stroke="#1e1e1e" stroke-width="2" fill="none"></path></g><g transform="translate(787.4953546338583 2602.103400645191) rotate(0 37.34996795654297 37.5)"><text x="37.34996795654297" y="NaN" font-family="Segoe UI Emoji" font-size="20px" fill="#1e1e1e" text-anchor="middle" style="white-space: pre;" direction="ltr">Load</text><text x="37.34996795654297" y="NaN" font-family="Segoe UI Emoji" font-size="20px" fill="#1e1e1e" text-anchor="middle" style="white-space: pre;" direction="ltr">Testing</text><text x="37.34996795654297" y="NaN" font-family="Segoe UI Emoji" font-size="20px" fill="#1e1e1e" text-anchor="middle" style="white-space: pre;" direction="ltr">Demo</text></g><g stroke-linecap="round" transform="translate(1408.8118766257849 1351.5466534064003) rotate(0 60.69017028808594 42.5)"><path d="M1.06 1.69 C45 0.86, 91.34 -1.89, 121.37 -1.36 M-0.92 -0.17 C45.68 -0.17, 91.87 0.32, 121.91 -0.8 M122.03 1.24 C120.06 21.76, 122.36 41.55, 119.5 83.06 M120.49 0.84 C121.1 20.99, 120.41 42.79, 121 85.31 M121.56 84.51 C88.06 85.61, 51.7 83.87, 0.04 83.16 M121.74 84.44 C78.16 85.97, 34.12 84.4, 0.91 85.23 M0.42 84.79 C-1.21 64.49, 0.94 47.08, -1.13 -0.06 M-0.46 84.64 C-0.33 51.86, 0.1 18.65, 0.75 -0.18" stroke="#1e1e1e" stroke-width="2" fill="none"></path></g><g transform="translate(1428.6320823142614 1369.0466534064003) rotate(0 40.869964599609375 25)"><text x="40.869964599609375" y="NaN" font-family="Segoe UI Emoji" font-size="20px" fill="#1e1e1e" text-anchor="middle" style="white-space: pre;" direction="ltr">Personal</text><text x="40.869964599609375" y="NaN" font-family="Segoe UI Emoji" font-size="20px" fill="#1e1e1e" text-anchor="middle" style="white-space: pre;" direction="ltr">Blog</text></g><g stroke-linecap="round" transform="translate(1424.1284509846869 1944.9765717145492) rotate(0 60.69017028808594 42.5)"><path d="M-1.17 1.85 C28.23 1.14, 53.65 0.97, 119.64 -0.18 M-0.49 -0.04 C41.04 -0.01, 83.56 1.18, 121.16 -0.47 M122.11 0.66 C121.27 28.53, 121.9 57.16, 119.79 85.3 M120.61 0.17 C121.62 26.82, 120.52 54.8, 120.55 85.85 M119.45 84.59 C93.08 88.1, 65.29 86.84, 0.25 83.96 M121.85 85.61 C84.58 84.41, 47.85 83.95, -0.41 84.84 M1.75 83.28 C1.25 54.84, -0.39 21.97, 0.05 0.14 M0.58 84.39 C-0.39 60.64, 0.09 37.04, -0.44 -0.08" stroke="#1e1e1e" stroke-width="2" fill="none"></path></g><g transform="translate(1443.9486566731634 1962.4765717145492) rotate(0 40.869964599609375 25)"><text x="40.869964599609375" y="NaN" font-family="Segoe UI Emoji" font-size="20px" fill="#1e1e1e" text-anchor="middle" style="white-space: pre;" direction="ltr">Personal</text><text x="40.869964599609375" y="NaN" font-family="Segoe UI Emoji" font-size="20px" fill="#1e1e1e" text-anchor="middle" style="white-space: pre;" direction="ltr">Blog</text></g><g stroke-linecap="round" transform="translate(760.9511491803067 2695.2486061407853) rotate(0 60.69017028808594 42.5)"><path d="M-0.83 0.6 C45.14 0.74, 86.87 2.17, 122.54 -0.24 M-0.68 0.33 C24.05 -0.19, 49.37 1.48, 121.35 -0.73 M119.48 -0.34 C121.62 17.9, 119.77 37.2, 122.06 84.27 M121.37 -0.85 C121.96 19.19, 122.22 37.32, 121.12 85.6 M122.59 85.88 C82.89 84.21, 41.52 85.33, 0.21 85.57 M121.46 85.04 C82.43 85.57, 42.49 86.28, -0.59 84.43 M0.36 83.37 C1.74 60.54, 0.97 32.8, -1.4 1.74 M0.01 84.61 C0.01 56.82, -0.03 27.81, -0.42 -0.79" stroke="#1e1e1e" stroke-width="2" fill="none"></path></g><g transform="translate(780.7713548687833 2712.7486061407853) rotate(0 40.869964599609375 25)"><text x="40.869964599609375" y="NaN" font-family="Segoe UI Emoji" font-size="20px" fill="#1e1e1e" text-anchor="middle" style="white-space: pre;" direction="ltr">Personal</text><text x="40.869964599609375" y="NaN" font-family="Segoe UI Emoji" font-size="20px" fill="#1e1e1e" text-anchor="middle" style="white-space: pre;" direction="ltr">Blog</text></g><g stroke-linecap="round" transform="translate(1065.4530292579416 1339.384988742659) rotate(0 60.69017028808594 42.5)"><path d="M1.61 -1.82 C37.38 -0.02, 77.56 -1.85, 119.62 0.62 M0.75 -0.53 C33.86 0.53, 66.33 -0.13, 122.14 -0.32 M120.16 1.4 C119.33 17.28, 121.83 34.85, 123.19 85.85 M121.84 0.04 C122.34 28.38, 122.73 55.34, 121.96 85 M120.71 85.49 C77.1 83.55, 32.41 85.11, 1.68 85.52 M122.36 84.41 C83.14 85.76, 44.89 84.74, -0.09 84.78 M1.11 85.83 C1.06 58.22, -0.08 35.77, 1.93 -1.16 M-0.55 85.04 C-1.03 58.6, -0.51 32.21, -0.36 -0.8" stroke="#1e1e1e" stroke-width="2" fill="none"></path></g><g transform="translate(1077.5932346412424 1356.884988742659) rotate(0 48.549964904785156 25)"><text x="48.549964904785156" y="NaN" font-family="Segoe UI Emoji" font-size="20px" fill="#1e1e1e" text-anchor="middle" style="white-space: pre;" direction="ltr">Computing</text><text x="48.549964904785156" y="NaN" font-family="Segoe UI Emoji" font-size="20px" fill="#1e1e1e" text-anchor="middle" style="white-space: pre;" direction="ltr">Meeting</text></g><g stroke-linecap="round" transform="translate(1099.8131906004205 1953.1784389421546) rotate(0 60.69017028808594 42.5)"><path d="M1.03 0.98 C31.39 -1.89, 64.79 -1.17, 119.83 -0.35 M-0.74 0.17 C42.67 0.86, 86.38 1.48, 121.44 0.51 M119.43 0.04 C120.92 32.35, 120.78 60.51, 122.76 85.09 M122.2 -0.98 C119.92 26.19, 121.22 51.02, 121.91 85.12 M121.09 83.73 C73.51 86.22, 29.44 85.26, -1 83.84 M121.21 85.64 C77.24 84.26, 34.87 84.78, 0.71 84.52 M-0.04 85.35 C0.72 58.4, -0.09 32.91, 0.7 -1.33 M-0.45 84.14 C-0.81 56.39, -1.74 27.43, -0.21 -0.08" stroke="#1e1e1e" stroke-width="2" fill="none"></path></g><g transform="translate(1111.9533959837213 1970.6784389421546) rotate(0 48.549964904785156 25)"><text x="48.549964904785156" y="NaN" font-family="Segoe UI Emoji" font-size="20px" fill="#1e1e1e" text-anchor="middle" style="white-space: pre;" direction="ltr">Computing</text><text x="48.549964904785156" y="NaN" font-family="Segoe UI Emoji" font-size="20px" fill="#1e1e1e" text-anchor="middle" style="white-space: pre;" direction="ltr">Meeting</text></g><g stroke-linecap="round" transform="translate(462.41459294809977 2647.312689848769) rotate(0 60.69017028808594 42.5)"><path d="M0.36 -0.04 C33.39 0.85, 69.26 -0.67, 120.58 -0.14 M-0.86 0.63 C38.27 1.12, 79.11 1.02, 120.6 -0.19 M121.38 -0.46 C121.51 21.15, 122.7 42.55, 122.83 86.4 M122.11 0.53 C120.5 27.4, 120.38 54.97, 120.96 85.76 M122.97 86.86 C88.96 85.08, 59.8 86.17, 0.19 85.52 M121.77 85.53 C77.47 85.13, 34.39 85.29, -0.27 85 M1.93 84.24 C-1.4 56.7, 1.32 25.2, 1.19 0.61 M-0.87 84.29 C0.21 58.04, -0.04 31.92, -0.97 -0.67" stroke="#1e1e1e" stroke-width="2" fill="none"></path></g><g transform="translate(474.55479833140055 2664.812689848769) rotate(0 48.549964904785156 25)"><text x="48.549964904785156" y="NaN" font-family="Segoe UI Emoji" font-size="20px" fill="#1e1e1e" text-anchor="middle" style="white-space: pre;" direction="ltr">Computing</text><text x="48.549964904785156" y="NaN" font-family="Segoe UI Emoji" font-size="20px" fill="#1e1e1e" text-anchor="middle" style="white-space: pre;" direction="ltr">Meeting</text></g><g stroke-linecap="round"><g transform="translate(688.8443000296716 2502.530647944976) rotate(0 0 208.9231508746787)"><path d="M0.47 -0.47 C0.52 69.16, 0.33 348.91, 0.26 418.55" stroke="#1e1e1e" stroke-width="2.5" fill="none" stroke-dasharray="8 10"></path></g></g><g transform="translate(566.7150722796737 2507.3862030178084) rotate(0 52.69996643066406 12.499999999999943)"><text x="105.39993286132812" y="NaN" font-family="Segoe UI Emoji" font-size="20px" fill="#1e1e1e" text-anchor="end" style="white-space: pre;" direction="ltr">Raw Notes</text></g><g stroke-linecap="round"><g transform="translate(995.1377964083741 2505.87885678348) rotate(0 0 208.92315087467875)"><path d="M0.1 -0.69 C-0.18 69.12, -0.4 349.26, -0.47 418.96" stroke="#1e1e1e" stroke-width="2.5" fill="none" stroke-dasharray="8 10"></path></g></g><g transform="translate(902.1435211474874 2510.965728073856) rotate(0 41.34996795654297 12.5)"><text x="82.69993591308594" y="NaN" font-family="Segoe UI Emoji" font-size="20px" fill="#1e1e1e" text-anchor="end" style="white-space: pre;" direction="ltr">Projects</text></g><g stroke-linecap="round"><g transform="translate(1453.6704348755552 2499.564418873198) rotate(0 0 208.92315087467875)"><path d="M1.08 0.54 C1.09 70.15, 0.6 348.49, 0.61 417.93" stroke="#1e1e1e" stroke-width="2.5" fill="none" stroke-dasharray="8 10"></path></g></g><g transform="translate(1182.6645398875035 2504.2677327690453) rotate(0 130.25990295410156 12.5)"><text x="260.5198059082031" y="NaN" font-family="Segoe UI Emoji" font-size="20px" fill="#1e1e1e" text-anchor="end" style="white-space: pre;" direction="ltr">On Going Ideas/Knowledge</text></g><g stroke-linecap="round" transform="translate(1542.9061316406348 1322.6089460053854) rotate(0 60.69017028808594 30)"><path d="M-0.2 1.26 C45.88 0.16, 88.21 0.51, 120.71 0.28 M-0.76 -0.96 C33.79 -0.79, 68.85 -0.7, 121.01 0.7 M120.24 -1.28 C120.03 21.68, 121.63 40.33, 123 61.17 M121.63 -1 C119.97 22.57, 120.02 44.99, 121.31 59.56 M120.39 59.31 C73.94 59.23, 23.49 61.64, 1.87 59.74 M120.7 59.22 C78.06 58.66, 33.16 58.3, -0.59 59.98 M-0.96 60.68 C0.17 41.47, -0.98 27.91, 0.2 1.22 M0.32 60.1 C0.91 44.93, 0.41 29, -0.05 0.42" stroke="#1e1e1e" stroke-width="2" fill="none"></path></g><g transform="translate(1565.806339160166 1327.6089460053854) rotate(0 37.78996276855469 25)"><text x="37.78996276855469" y="NaN" font-family="Segoe UI Emoji" font-size="20px" fill="#1e1e1e" text-anchor="middle" style="white-space: pre;" direction="ltr">DNS</text><text x="37.78996276855469" y="NaN" font-family="Segoe UI Emoji" font-size="20px" fill="#1e1e1e" text-anchor="middle" style="white-space: pre;" direction="ltr">Reading</text></g><g stroke-linecap="round"><g transform="translate(1787.8891591353768 2499.53490431199) rotate(0 0 208.92315087467875)"><path d="M-0.56 -1.14 C-0.57 68.66, 0.49 348.25, 0.72 417.88" stroke="#1e1e1e" stroke-width="2.5" fill="none" stroke-dasharray="8 10"></path></g></g><g transform="translate(1537.0427492571002 2504.4131101839857) rotate(0 120.08990478515625 12.499999999999943)"><text x="240.1798095703125" y="NaN" font-family="Segoe UI Emoji" font-size="20px" fill="#1e1e1e" text-anchor="end" style="white-space: pre;" direction="ltr">Resources/Source Notes</text></g><g stroke-linecap="round"><g transform="translate(2028.4504019252977 2497.4998925647337) rotate(0 0 208.9231508746788)"><path d="M-0.58 -0.73 C-0.58 69.15, 0.7 348.7, 0.7 418.48" stroke="#1e1e1e" stroke-width="2.5" fill="none" stroke-dasharray="8 10"></path></g></g><g transform="translate(1865.5644105016986 2502.2032064605805) rotate(0 76.199951171875 12.499999999999943)"><text x="152.39990234375" y="NaN" font-family="Segoe UI Emoji" font-size="20px" fill="#1e1e1e" text-anchor="end" style="white-space: pre;" direction="ltr">No Longer Used</text></g><g stroke-linecap="round" transform="translate(1539.1493801057181 1396.504997350179) rotate(0 60.69017028808594 30)"><path d="M-0.96 -1.51 C41.83 1.6, 87.53 -0.98, 121.15 0.56 M-0.31 0.53 C38.91 0.1, 76.68 -0.73, 121.83 -0.12 M120.94 0.36 C121.08 22.93, 120.03 47.22, 123.25 61.18 M122.31 0.91 C122.08 18.2, 121.2 37.61, 120.57 59.09 M121.83 61.57 C98.41 59.79, 71.58 59.66, -0.85 59.64 M120.72 59.54 C75.75 61.86, 30.3 61.95, -0.18 60.27 M-1.32 60.7 C0.88 36.58, -1.67 15.85, -0.06 1.22 M0.72 59.58 C0.83 44.94, 0.3 30.8, 0.32 0.89" stroke="#1e1e1e" stroke-width="2" fill="none"></path></g><g transform="translate(1559.0795864045463 1401.504997350179) rotate(0 40.75996398925781 25)"><text x="40.75996398925781" y="NaN" font-family="Segoe UI Emoji" font-size="20px" fill="#1e1e1e" text-anchor="middle" style="white-space: pre;" direction="ltr">GPU</text><text x="40.75996398925781" y="NaN" font-family="Segoe UI Emoji" font-size="20px" fill="#1e1e1e" text-anchor="middle" style="white-space: pre;" direction="ltr">Insights</text></g><g stroke-linecap="round" transform="translate(1231.5215816141126 2030.5256437196167) rotate(0 60.69017028808594 30)"><path d="M1.53 -0.11 C28.44 0, 56.18 0.05, 120.03 1.01 M-0.23 0.46 C24.68 1.45, 49.99 0.17, 122.02 0.21 M120.84 -0.05 C120.51 22.43, 122.49 42.67, 120.44 58.8 M120.58 -0.39 C122.89 17.92, 121.13 34.35, 121.76 60.86 M121.98 60.55 C90.04 61.7, 61.66 62.5, 0.39 58.09 M121.12 60.21 C84.54 59.86, 47.94 59.27, -0.94 59.87 M-1.13 61.68 C-0.12 44.47, 1.6 28.91, -0.33 1.85 M0.8 59.63 C1.52 45.39, 0.88 31.43, 0.41 0.8" stroke="#1e1e1e" stroke-width="2" fill="none"></path></g><g transform="translate(1251.4517879129407 2035.5256437196167) rotate(0 40.75996398925781 25)"><text x="40.75996398925781" y="NaN" font-family="Segoe UI Emoji" font-size="20px" fill="#1e1e1e" text-anchor="middle" style="white-space: pre;" direction="ltr">GPU</text><text x="40.75996398925781" y="NaN" font-family="Segoe UI Emoji" font-size="20px" fill="#1e1e1e" text-anchor="middle" style="white-space: pre;" direction="ltr">Insights</text></g><g stroke-linecap="round" transform="translate(1215.1979237789108 2793.7039992343716) rotate(0 60.69017028808594 30)"><path d="M0.82 -0.35 C41.38 2.06, 85.93 -0.94, 119.39 -0.72 M-0.32 0.07 C26.34 0.95, 51.48 1.7, 121.39 -0.11 M121.35 -1.74 C120.47 21.16, 123.86 42.91, 119.96 61.02 M121.56 0.79 C121.36 19.83, 121.52 40.38, 122.31 60.47 M122.29 60.58 C72.37 61.86, 28.58 59.82, -0.26 58.71 M120.46 59.21 C93.38 59.88, 64.76 59.91, 0.61 59.96 M1.2 60.32 C1.98 44.6, -0.07 29.44, -0.09 -0.7 M0.51 60.27 C0.66 39.9, 0.66 20.16, 0.61 0.37" stroke="#1e1e1e" stroke-width="2" fill="none"></path></g><g transform="translate(1235.128130077739 2798.7039992343716) rotate(0 40.75996398925781 25)"><text x="40.75996398925781" y="NaN" font-family="Segoe UI Emoji" font-size="20px" fill="#1e1e1e" text-anchor="middle" style="white-space: pre;" direction="ltr">GPU</text><text x="40.75996398925781" y="NaN" font-family="Segoe UI Emoji" font-size="20px" fill="#1e1e1e" text-anchor="middle" style="white-space: pre;" direction="ltr">Insights</text></g><g stroke-linecap="round" transform="translate(1598.9790456386477 2642.709543089649) rotate(0 60.69017028808594 30)"><path d="M1.44 -1.64 C30.74 0.75, 57.92 1.23, 119.57 -0.43 M-0.96 -0.71 C39.42 0.61, 78.11 1.43, 121.92 0.59 M119.87 1.11 C123.1 15.1, 123.36 32.47, 121.13 59.73 M121.23 -0.12 C120.34 16.64, 120.72 32.86, 121.77 59.49 M122.09 60.59 C80.28 60.9, 37.33 60.97, 0.79 59.03 M121.15 59.76 C86.05 59.19, 50.3 59.65, -0.5 60.82 M0.31 61.82 C-0.41 41.63, 1.17 17.92, 0.95 -1.99 M0.94 60.17 C-0.73 38.53, 0.05 17.74, -0.09 0.93" stroke="#1e1e1e" stroke-width="2" fill="none"></path></g><g transform="translate(1621.879253158179 2647.709543089649) rotate(0 37.78996276855469 25)"><text x="37.78996276855469" y="NaN" font-family="Segoe UI Emoji" font-size="20px" fill="#1e1e1e" text-anchor="middle" style="white-space: pre;" direction="ltr">DNS</text><text x="37.78996276855469" y="NaN" font-family="Segoe UI Emoji" font-size="20px" fill="#1e1e1e" text-anchor="middle" style="white-space: pre;" direction="ltr">Reading</text></g><g stroke-linecap="round" transform="translate(449.7717664622147 481.7306067854702) rotate(0 86.86981201171875 37.620635986328125)"><path d="M0.56 -1.22 L174.02 0.2 L172.27 75.78 L-0.6 73.82" stroke="none" stroke-width="0" fill="#ffd8a8"></path><path d="M1.81 0.42 C50.59 1.38, 98.22 1.25, 172.26 -1.98 M0.78 0.33 C57.91 1.88, 115.17 0.96, 174.65 0.66 M174.7 0.22 C172.84 18.91, 172.7 36.83, 174.91 74.27 M174.21 -0.38 C174.77 17.82, 174.67 36.64, 172.88 76.2 M172.82 76.53 C126.37 74.73, 75.51 74.67, 1.53 76.5 M173.88 74.49 C125.98 74.23, 78.8 73.84, 0.69 74.25 M-0.88 73.85 C-1.27 49.21, 0.02 21.69, 1.61 -1.33 M0.67 74.32 C0.23 55.09, 0.91 33.65, 0.74 0.88" stroke="#1e1e1e" stroke-width="2" fill="none"></path></g><g transform="translate(460.3316495798905 506.8512427717983) rotate(0 76.30992889404297 12.5)"><text x="76.30992889404297" y="NaN" font-family="Segoe UI Emoji" font-size="20px" fill="#1e1e1e" text-anchor="middle" style="white-space: pre;" direction="ltr">Reduce Friction</text></g><g stroke-linecap="round" transform="translate(237.25371476782652 639.3513047948406) rotate(0 86.86981201171875 37.71286547528911)"><path d="M-1.47 0.53 L173.14 -1.42 L173.01 76.68 L0.96 74.89" stroke="none" stroke-width="0" fill="#ffc9c9"></path><path d="M-1.24 1.67 C54.27 -3.54, 112.14 -1.65, 172.71 1.57 M-0.12 0.07 C58.79 -1.04, 115.22 -1.49, 173.27 0.48 M172.54 -0.15 C174.52 22.49, 172.21 47.83, 174.4 76.37 M174.33 0.03 C173.4 20.72, 174.1 39.29, 173.5 74.97 M174.06 75.27 C111.94 76.61, 46.58 73.45, -1.23 75.7 M174.05 75.09 C135.41 74.53, 96.15 75.54, 0.29 74.99 M0.03 73.68 C2.08 56.72, -0.07 39.91, -1.15 1.35 M0.61 74.91 C0.79 60.6, 0.33 43.41, 0.14 0.1" stroke="#1e1e1e" stroke-width="2" fill="none"></path></g><g transform="translate(271.23355027808043 652.0641702701298) rotate(0 52.889976501464844 25)"><text x="52.889976501464844" y="NaN" font-family="Segoe UI Emoji" font-size="20px" fill="#1e1e1e" text-anchor="middle" style="white-space: pre;" direction="ltr">No complex</text><text x="52.889976501464844" y="NaN" font-family="Segoe UI Emoji" font-size="20px" fill="#1e1e1e" text-anchor="middle" style="white-space: pre;" direction="ltr">systems</text></g><g stroke-linecap="round" transform="translate(450.0442546060955 675.4359472202123) rotate(0 86.86981201171875 37.71286547528911)"><path d="M-0.73 1.25 L174.69 -0.54 L173.58 75.44 L1.97 76.87" stroke="none" stroke-width="0" fill="#ffc9c9"></path><path d="M0.64 -0.09 C65.58 3.28, 133.87 2.24, 175.7 -0.23 M-0.54 0.21 C52.87 -0.68, 106.8 -1.68, 173.95 -0.6 M172.61 0.89 C174.85 23.01, 173.42 45.51, 172.76 76.61 M173.58 -0.24 C172.85 22.4, 173.74 46.66, 173.69 75.59 M173.22 73.53 C121.71 76.79, 70.62 76.25, 0.1 76.04 M174.18 75.45 C127.72 73.27, 80.42 73.09, -0.06 75.44 M-0.54 74.65 C-1.75 60.74, -2.44 43.24, 0.78 1.23 M0.28 74.82 C-0.42 56.77, -1.3 38.18, -0.3 -0.71" stroke="#1e1e1e" stroke-width="2" fill="none"></path></g><g transform="translate(463.0141108683025 688.1488126955014) rotate(0 73.89995574951172 25)"><text x="73.89995574951172" y="NaN" font-family="Segoe UI Emoji" font-size="20px" fill="#1e1e1e" text-anchor="middle" style="white-space: pre;" direction="ltr">No expectation</text><text x="73.89995574951172" y="NaN" font-family="Segoe UI Emoji" font-size="20px" fill="#1e1e1e" text-anchor="middle" style="white-space: pre;" direction="ltr">of orderlyness</text></g><g stroke-linecap="round" transform="translate(640.1580184622006 637.1802638178383) rotate(0 86.86981201171875 37.71286547528911)"><path d="M-0.16 0.01 L175.71 1.45 L171.97 77.37 L-1.58 74.63" stroke="none" stroke-width="0" fill="#ffc9c9"></path><path d="M0.66 0.53 C53.32 -1.59, 102.84 0.47, 175.07 -1.09 M0.11 -0.53 C56.04 -1.43, 111.59 -0.24, 173.25 -0.57 M172.98 1.38 C173.01 27.18, 174.05 50.27, 175.66 75.1 M174.38 0.95 C173.51 21.01, 173.48 42.46, 174.37 75.17 M172.23 75.16 C138.22 76.28, 101.83 77.04, -1.97 76.31 M173.04 74.8 C121.14 74.68, 67.8 75.47, -0.67 75.16 M-1.84 75.31 C1.22 56.94, -0.59 37.49, 1.76 0.56 M-0.73 75.69 C-0.4 56.69, -0.47 40, 0.48 -0.27" stroke="#1e1e1e" stroke-width="2" fill="none"></path></g><g transform="translate(682.9778579397397 662.3931292931275) rotate(0 44.04997253417969 12.5)"><text x="44.04997253417969" y="NaN" font-family="Segoe UI Emoji" font-size="20px" fill="#1e1e1e" text-anchor="middle" style="white-space: pre;" direction="ltr">Navigable</text></g><g stroke-linecap="round" transform="translate(836.3492080938375 626.51999284052) rotate(0 86.86981201171875 37.620635986328125)"><path d="M-1.77 1.95 L172.16 -0.8 L175.13 73.51 L1.21 74.7" stroke="none" stroke-width="0" fill="#ffc9c9"></path><path d="M0.14 1.83 C58.02 -0.88, 113.82 -0.74, 174.7 0.22 M-0.07 0.59 C42.46 0.48, 86.35 1.38, 174.21 -0.38 M173.8 -1.71 C175.29 27.44, 172.9 55.05, 172.82 76.53 M173.66 0.76 C174.33 29.49, 172.76 58.88, 173.88 74.49 M173.07 76.62 C121.95 76.66, 74.16 76.37, -0.88 73.85 M172.87 76.04 C131.82 75, 90.86 74.7, 0.67 74.32 M-1.03 76.73 C1.46 53.68, -1.51 31.28, 0.2 -1.47 M-0.37 75.87 C0.7 50.39, 0.14 26.08, 0.99 0.72" stroke="#1e1e1e" stroke-width="2" fill="none"></path></g><g transform="translate(878.7190506231344 639.1406288268481) rotate(0 44.499969482421875 25)"><text x="44.499969482421875" y="NaN" font-family="Segoe UI Emoji" font-size="20px" fill="#1e1e1e" text-anchor="middle" style="white-space: pre;" direction="ltr">Emergent</text><text x="44.499969482421875" y="NaN" font-family="Segoe UI Emoji" font-size="20px" fill="#1e1e1e" text-anchor="middle" style="white-space: pre;" direction="ltr">Content</text></g><g stroke-linecap="round" transform="translate(914.820461442427 484.3523977368957) rotate(0 86.86981201171876 37.620635986328125)"><path d="M1.39 -1.73 L174.94 -0.54 L174.94 73.47 L0.18 76.27" stroke="none" stroke-width="0" fill="#ffd8a8"></path><path d="M0.43 -0.94 C68.94 1.17, 134.91 1.36, 172.54 -0.15 M0.45 0.33 C62.8 0.61, 125.34 0.5, 174.33 0.03 M173.27 -0.49 C173.55 17.41, 176.37 32.16, 174.06 75.09 M172.79 -0.61 C174.35 27.56, 174.08 56.68, 174.05 74.91 M173.79 75.83 C108.79 74.62, 44.35 75.88, 0.03 73.49 M173.35 74.67 C108.35 73.85, 41.55 75.16, 0.61 74.73 M-1.22 75.52 C-0.47 45.6, -0.13 18.29, -1.42 -0.73 M-0.08 75.25 C0.63 48.68, -1.24 21.65, -0.79 -0.4" stroke="#1e1e1e" stroke-width="2" fill="none"></path></g><g transform="translate(946.7003213667434 509.4730337232238) rotate(0 54.989952087402344 12.5)"><text x="54.989952087402344" y="NaN" font-family="Segoe UI Emoji" font-size="20px" fill="#1e1e1e" text-anchor="middle" style="white-space: pre;" direction="ltr">New writing</text></g><g stroke-linecap="round" transform="translate(709.2310225612849 317.76942653072433) rotate(0 86.86981201171875 37.620635986328125)"><path d="M1.2 -1.77 L173.92 1.03 L172.21 76.41 L0.11 73.99" stroke="none" stroke-width="0" fill="#b2f2bb"></path><path d="M-1.06 0.42 C42.76 -0.34, 89.1 -1.17, 172.61 0.89 M0.69 -0.49 C58.48 0.69, 114.92 1.62, 173.58 -0.24 M175.65 -0.09 C173.72 20.59, 174.92 42.75, 173.22 73.34 M173.61 0.05 C174.15 17.63, 174.53 34.93, 174.18 75.26 M172.49 75.11 C116.55 72.28, 60.89 72.7, -0.54 74.47 M173.68 75.63 C132.21 73.13, 90.2 74.52, 0.28 74.63 M0.53 74.64 C-1.49 50.89, 1.18 28.96, -0.54 -0.16 M-0.88 76.22 C-1.53 52.23, -0.04 29.15, 0.6 -0.27" stroke="#1e1e1e" stroke-width="2" fill="none"></path></g><g transform="translate(720.0108763820857 330.39006251705246) rotate(0 76.08995819091797 25)"><text x="76.08995819091797" y="NaN" font-family="Segoe UI Emoji" font-size="20px" fill="#1e1e1e" text-anchor="middle" style="white-space: pre;" direction="ltr">My Note Taking</text><text x="76.08995819091797" y="NaN" font-family="Segoe UI Emoji" font-size="20px" fill="#1e1e1e" text-anchor="middle" style="white-space: pre;" direction="ltr">System</text></g><g stroke-linecap="round" transform="translate(1026.9564149929588 624.3287751442094) rotate(0 86.86981201171876 37.620635986328125)"><path d="M-1.53 1.17 L173.85 -1.25 L172.68 75.72 L0.73 74.8" stroke="none" stroke-width="0" fill="#ffc9c9"></path><path d="M1.17 -0.97 C54.63 1.02, 112.19 1.08, 172.98 1.38 M-0.86 0.96 C43.45 -0.29, 86.99 -0.51, 174.38 0.95 M175.27 1.26 C173.34 20.34, 172.63 44.75, 172.23 74.98 M174.43 -0.99 C174.42 22.98, 174.27 45.48, 173.04 74.62 M175.34 73.91 C122.19 72.95, 70.57 75.07, -1.84 75.12 M174.48 76.12 C115.1 73.74, 56.04 74.45, -0.73 75.51 M1.25 76.2 C0 54.75, 0.54 36.57, 1.45 -1.77 M0.7 74.37 C1.2 45.07, 1.2 14.56, 0.09 0.51" stroke="#1e1e1e" stroke-width="2" fill="none"></path></g><g transform="translate(1039.6062868191307 636.9494111305376) rotate(0 74.21994018554688 25)"><text x="74.21994018554688" y="NaN" font-family="Segoe UI Emoji" font-size="20px" fill="#1e1e1e" text-anchor="middle" style="white-space: pre;" direction="ltr">Identify</text><text x="74.21994018554688" y="NaN" font-family="Segoe UI Emoji" font-size="20px" fill="#1e1e1e" text-anchor="middle" style="white-space: pre;" direction="ltr">knowledge gaps</text></g><g stroke-linecap="round"><g transform="translate(324.02352677954514 634.3390469625974) rotate(0 106.25902584719415 -36.1835841022355)"><path d="M0.54 0.4 C0.73 -5.59, -34.9 -30.44, 0.57 -36.63 C36.04 -42.83, 177.9 -30.82, 213.35 -36.76 C248.79 -42.71, 213.54 -66.59, 213.23 -72.33 M-0.64 -0.44 C-0.51 -6.21, -35.69 -29.45, -0.08 -35.34 C35.53 -41.22, 177.36 -29.78, 213.02 -35.76 C248.67 -41.73, 213.83 -64.85, 213.85 -71.21" stroke="#1e1e1e" stroke-width="2" fill="none"></path></g><g transform="translate(324.02352677954514 634.3390469625974) rotate(0 106.25902584719415 -36.1835841022355)"><path d="M229.28 -59.99 C224.33 -62.14, 220.4 -64.92, 213.9 -72.76 M228.46 -61.26 C223.41 -64.12, 216.92 -68.94, 213.78 -70.52" stroke="#1e1e1e" stroke-width="2" fill="none"></path></g><g transform="translate(324.02352677954514 634.3390469625974) rotate(0 106.25902584719415 -36.1835841022355)"><path d="M219.15 -52.88 C216.78 -56.86, 215.4 -61.43, 213.9 -72.76 M218.33 -54.15 C217.3 -59.8, 214.82 -67.43, 213.78 -70.52" stroke="#1e1e1e" stroke-width="2" fill="none"></path></g></g><g stroke-linecap="round"><g transform="translate(536.8140666178142 670.423689387969) rotate(0 -0.13624407194038213 -54.225905314921306)"><path d="M0.57 -0.46 C0.57 -18.7, 0.58 -91.05, 0.56 -109.04 M-0.59 -1.74 C-0.72 -19.86, -0.06 -90.25, 0.04 -107.81" stroke="#1e1e1e" stroke-width="2" fill="none"></path></g><g transform="translate(536.8140666178142 670.423689387969) rotate(0 -0.13624407194038213 -54.225905314921306)"><path d="M9.33 -78.16 C5.55 -88.05, 3.13 -100.69, 1.96 -108.14 M10.73 -78.59 C7.34 -87.24, 4.53 -94.45, 0.67 -108.07" stroke="#1e1e1e" stroke-width="2" fill="none"></path></g><g transform="translate(536.8140666178142 670.423689387969) rotate(0 -0.13624407194038213 -54.225905314921306)"><path d="M-11.19 -78.32 C-7.89 -88.25, -3.25 -100.84, 1.96 -108.14 M-9.79 -78.74 C-7.51 -87.26, -4.65 -94.43, 0.67 -108.07" stroke="#1e1e1e" stroke-width="2" fill="none"></path></g></g><g stroke-linecap="round"><g transform="translate(737.3619748484303 632.168005985595) rotate(0 -100.41019818724845 -35.09806361373427)"><path d="M0.83 -0.59 C0.85 -6.35, 34.49 -29.5, 0.71 -35.06 C-33.07 -40.61, -168.23 -28.04, -201.85 -33.94 C-235.47 -39.85, -201.14 -64.35, -201.02 -70.48 M-0.2 1.72 C-0.32 -3.8, 33.35 -27.27, 0.14 -33.5 C-33.08 -39.73, -165.99 -29.68, -199.49 -35.68 C-233 -41.68, -200.94 -63.7, -200.87 -69.52" stroke="#1e1e1e" stroke-width="2" fill="none"></path></g><g transform="translate(737.3619748484303 632.168005985595) rotate(0 -100.41019818724845 -35.09806361373427)"><path d="M-206.2 -51.51 C-203.67 -59.98, -200.49 -64.66, -201.29 -69.95 M-205.38 -52.41 C-204.38 -56.24, -202.63 -61.45, -201.71 -70.06" stroke="#1e1e1e" stroke-width="2" fill="none"></path></g><g transform="translate(737.3619748484303 632.168005985595) rotate(0 -100.41019818724845 -35.09806361373427)"><path d="M-216.06 -58.35 C-210.13 -64.52, -203.53 -66.82, -201.29 -69.95 M-215.24 -59.25 C-211.69 -61.43, -207.43 -64.91, -201.71 -70.06" stroke="#1e1e1e" stroke-width="2" fill="none"></path></g></g><g stroke-linecap="round"><g transform="translate(923.1190201055563 621.51999284052) rotate(0 39.23562667429471 -28.46316156548403)"><path d="M0.71 0.04 C0.4 -4.42, -13.96 -22.52, -1.03 -27.31 C11.9 -32.11, 65.07 -23.72, 78.27 -28.75 C91.48 -33.77, 78.02 -52.97, 78.18 -57.48 M-0.38 -0.99 C-0.4 -5.7, -11.82 -24.4, 1.14 -28.83 C14.11 -33.26, 64.55 -22.94, 77.41 -27.58 C90.26 -32.22, 78.14 -51.51, 78.27 -56.66" stroke="#1e1e1e" stroke-width="2" fill="none"></path></g><g transform="translate(923.1190201055563 621.51999284052) rotate(0 39.23562667429471 -28.46316156548403)"><path d="M86.66 -46.35 C84.96 -49.57, 80.18 -53.94, 77.62 -55.74 M86.56 -44.59 C83.77 -49.86, 79.35 -54.67, 78.37 -57.2" stroke="#1e1e1e" stroke-width="2" fill="none"></path></g><g transform="translate(923.1190201055563 621.51999284052) rotate(0 39.23562667429471 -28.46316156548403)"><path d="M77.3 -43.68 C79.06 -47.94, 77.74 -53.29, 77.62 -55.74 M77.2 -41.92 C78.11 -48.26, 77.39 -54.13, 78.37 -57.2" stroke="#1e1e1e" stroke-width="2" fill="none"></path></g></g><g stroke-linecap="round"><g transform="translate(1113.7262270046776 619.3287751442094) rotate(0 -56.06797677526592 -27.36755271732875)"><path d="M-1.03 1.15 C-1.18 -3.46, 18.37 -22.81, -0.2 -27.65 C-18.76 -32.5, -93.9 -23.59, -112.43 -27.92 C-130.96 -32.24, -111.4 -49.15, -111.36 -53.59 M0.63 0.71 C0.24 -3.73, 17.75 -21.66, -1.25 -26.26 C-20.24 -30.86, -95.1 -22.01, -113.35 -26.89 C-131.59 -31.77, -110.65 -51.02, -110.71 -55.55" stroke="#1e1e1e" stroke-width="2" fill="none"></path></g><g transform="translate(1113.7262270046776 619.3287751442094) rotate(0 -56.06797677526592 -27.36755271732875)"><path d="M-111.49 -42.25 C-112.38 -47.2, -111.93 -50.84, -109.4 -55.61 M-112.37 -42.2 C-112.78 -46.73, -111.37 -51.1, -110.8 -55.51" stroke="#1e1e1e" stroke-width="2" fill="none"></path></g><g transform="translate(1113.7262270046776 619.3287751442094) rotate(0 -56.06797677526592 -27.36755271732875)"><path d="M-119.69 -46.76 C-117.63 -50.01, -114.24 -52.04, -109.4 -55.61 M-120.57 -46.71 C-118.39 -49.88, -114.4 -52.82, -110.8 -55.51" stroke="#1e1e1e" stroke-width="2" fill="none"></path></g></g><g stroke-linecap="round"><g transform="translate(536.5415784739334 476.7306067854702) rotate(0 129.72962804953514 -39.35995414104491)"><path d="M-0.2 -0.28 C-0.07 -7.13, -43.7 -33.59, -0.29 -39.91 C43.11 -46.23, 216.95 -31.78, 260.23 -38.22 C303.52 -44.65, 259.55 -71.93, 259.41 -78.53 M-1.76 -1.48 C-1.73 -7.66, -45 -32.25, -1.39 -38.66 C42.21 -45.07, 216.37 -33.51, 259.87 -39.96 C303.38 -46.4, 259.96 -71.16, 259.62 -77.32" stroke="#1e1e1e" stroke-width="2" fill="none"></path></g><g transform="translate(536.5415784739334 476.7306067854702) rotate(0 129.72962804953514 -39.35995414104491)"><path d="M276.43 -68.37 C272.2 -68.67, 271.28 -72.05, 259.94 -77.47 M275.96 -68.49 C270.47 -72.23, 263.71 -74.98, 259.93 -77.65" stroke="#1e1e1e" stroke-width="2" fill="none"></path></g><g transform="translate(536.5415784739334 476.7306067854702) rotate(0 129.72962804953514 -39.35995414104491)"><path d="M266.33 -59.47 C264.18 -61.66, 265.42 -66.95, 259.94 -77.47 M265.86 -59.6 C264.11 -66.65, 261.15 -72.76, 259.93 -77.65" stroke="#1e1e1e" stroke-width="2" fill="none"></path></g></g><g stroke-linecap="round"><g transform="translate(1001.5902734541457 479.3523977368957) rotate(0 -102.79471944057101 -40.670849616757664)"><path d="M-0.29 -0.55 C-0.13 -7.09, 35 -32.87, 0.77 -39.53 C-33.45 -46.18, -171.23 -33.66, -205.64 -40.48 C-240.05 -47.3, -205.82 -73.56, -205.68 -80.43 M1.76 1.78 C1.84 -5.04, 34.93 -34.24, 0.23 -41.05 C-34.47 -47.85, -172.15 -32.15, -206.44 -39.06 C-240.72 -45.97, -205.57 -75.44, -205.48 -82.5" stroke="#1e1e1e" stroke-width="2" fill="none"></path></g><g transform="translate(1001.5902734541457 479.3523977368957) rotate(0 -102.79471944057101 -40.670849616757664)"><path d="M-210.28 -61.25 C-206.31 -68.28, -206.79 -74, -203.96 -81.24 M-209.23 -63.29 C-208.24 -67.94, -206.74 -73.79, -204.79 -83.49" stroke="#1e1e1e" stroke-width="2" fill="none"></path></g><g transform="translate(1001.5902734541457 479.3523977368957) rotate(0 -102.79471944057101 -40.670849616757664)"><path d="M-222.2 -68.42 C-214.87 -73.39, -211.97 -77.08, -203.96 -81.24 M-221.15 -70.46 C-216.96 -73.06, -212.19 -76.96, -204.79 -83.49" stroke="#1e1e1e" stroke-width="2" fill="none"></path></g></g><g stroke-linecap="round" transform="translate(668.0017109865215 318.04712314042627) rotate(0 8.211838847685726 8.211838847685726)"><path d="M8.98 -1.39 L17.18 10.3 L8.29 14.63 L0.36 8.45" stroke="none" stroke-width="0" fill="#ffec99" fill-rule="evenodd"></path><path d="M10.11 -0.05 C11.19 2.35, 13.94 5.65, 16.12 7.89 M8.92 0.03 C10.96 2.01, 12.96 3.78, 16.68 9.01 M15.77 8.93 C13.96 10.48, 12.34 13.14, 8.72 16.02 M16.39 9.21 C15 10.46, 13.26 12.99, 9.15 16.1 M9.31 16.07 C5.34 13.6, 4.07 12.25, -0.31 8.9 M8.48 16.99 C5.76 14.02, 3.92 11.52, 0.35 8.84 M0.65 8.03 C4.07 5.82, 5.77 1.84, 9.3 0.47 M0.22 8.5 C2.83 6.53, 5.45 3.51, 8.74 0.44" stroke="#1e1e1e" stroke-width="2" fill="none"></path></g><g stroke-linecap="round" transform="translate(689.9217292946531 285.52279223049663) rotate(0 12.627635229916962 12.627635229917018)"><path d="M13.76 1.3 L24.54 11.2 L13.36 24.71 L1.95 13.42" stroke="none" stroke-width="0" fill="#ffec99" fill-rule="evenodd"></path><path d="M13.29 -0.14 C18.95 5.87, 21.59 7.78, 24.16 13.25 M13.28 -0.3 C16.35 2.03, 18.88 5.85, 25.52 12.61 M25.29 11.48 C23.75 14.66, 19.07 17.97, 12 26.42 M25.79 12.56 C23.34 16.36, 20.39 17.62, 13.12 25.34 M11.73 24.6 C11.14 23.29, 6.59 19.51, 0.01 14.76 M12.29 24.9 C8.89 20.05, 3.97 16.02, 0.54 12.21 M1.08 13.1 C2.8 8.11, 8.4 5.75, 12.59 1.21 M0.56 13.02 C4.33 8.74, 6.85 6.47, 12.99 -0.64" stroke="#1e1e1e" stroke-width="2" fill="none"></path></g><g transform="translate(18.463498944716775 493.17744224757496) rotate(0 38.13597869873047 17.5)"><text x="76.27195739746094" y="NaN" font-family="Segoe UI Emoji" font-size="28px" fill="#f08c00" text-anchor="end" style="white-space: pre;" direction="ltr">Goals</text></g><g transform="translate(11.818865356760625 653.1830481888001) rotate(0 88.96996307373047 17.5)"><text x="177.93992614746094" y="NaN" font-family="Segoe UI Emoji" font-size="28px" fill="#e03131" text-anchor="end" style="white-space: pre;" direction="ltr">Requirements</text></g><g stroke-linecap="round"><g transform="translate(796.0008345730037 312.76942653072433) rotate(0 -126.99638025990612 -43.76156235071346)"><path d="M0.64 -0.79 C0.8 -8.14, 43.3 -35.7, 0.69 -43.03 C-41.92 -50.35, -212.74 -37.42, -255.02 -44.76 C-297.29 -52.1, -253.06 -79.86, -252.97 -87.08 M-0.48 1.41 C-0.4 -5.77, 42.14 -37.2, 0.1 -44.76 C-41.93 -52.33, -210.61 -37.13, -252.66 -43.96 C-294.71 -50.79, -252.21 -78.4, -252.18 -85.74" stroke="#1e1e1e" stroke-width="2" fill="none"></path></g><g transform="translate(796.0008345730037 312.76942653072433) rotate(0 -126.99638025990612 -43.76156235071346)"><path d="M-259.65 -63.59 C-255.57 -72.37, -256.73 -74.85, -251.44 -86.5 M-258.15 -65.46 C-257.08 -70.13, -255.26 -74.67, -251.67 -85" stroke="#1e1e1e" stroke-width="2" fill="none"></path></g><g transform="translate(796.0008345730037 312.76942653072433) rotate(0 -126.99638025990612 -43.76156235071346)"><path d="M-271.71 -72.45 C-264.17 -78.81, -261.94 -78.8, -251.44 -86.5 M-270.21 -74.33 C-266.02 -76.62, -261.14 -78.91, -251.67 -85" stroke="#1e1e1e" stroke-width="2" fill="none"></path></g></g><g stroke-linecap="round"><g transform="translate(796.0008345730037 312.76942653072433) rotate(0 0.21885843619014622 -46.03506025464833)"><path d="M-1 0.05 C-0.85 -15.39, 0.27 -77.71, 0.58 -93.12 M0.68 -0.96 C0.71 -16.26, -0.23 -77.08, -0.29 -92.13" stroke="#1e1e1e" stroke-width="2" fill="none"></path></g><g transform="translate(796.0008345730037 312.76942653072433) rotate(0 0.21885843619014622 -46.03506025464833)"><path d="M10.35 -63.81 C5.72 -71.11, 4.04 -78.65, 0 -90.66 M9.42 -64.61 C7.73 -71.95, 3.64 -80.67, -0.22 -91.62" stroke="#1e1e1e" stroke-width="2" fill="none"></path></g><g transform="translate(796.0008345730037 312.76942653072433) rotate(0 0.21885843619014622 -46.03506025464833)"><path d="M-10.17 -63.6 C-9.17 -70.79, -5.24 -78.39, 0 -90.66 M-11.1 -64.4 C-6.56 -71.88, -4.4 -80.66, -0.22 -91.62" stroke="#1e1e1e" stroke-width="2" fill="none"></path></g></g><g stroke-linecap="round"><g transform="translate(796.0008345730037 312.76942653072433) rotate(0 115.44368105325151 -47.88326616111203)"><path d="M-0.81 -0.92 C-0.91 -9.15, -39.76 -40.5, -1.17 -48.29 C37.43 -56.07, 191.95 -39.63, 230.77 -47.63 C269.59 -55.63, 231.57 -88.07, 231.76 -96.28 M0.97 1.21 C1.26 -6.34, -37.23 -39.07, 0.94 -46.96 C39.1 -54.86, 191.36 -38.1, 229.95 -46.18 C268.53 -54.26, 232.29 -86.96, 232.46 -95.45" stroke="#1e1e1e" stroke-width="2" fill="none"></path></g><g transform="translate(796.0008345730037 312.76942653072433) rotate(0 115.44368105325151 -47.88326616111203)"><path d="M248.56 -81.2 C244.77 -83.69, 241.38 -86.18, 231.6 -93.73 M249.96 -78.86 C246.58 -83.02, 243.04 -84.88, 232.8 -95.15" stroke="#1e1e1e" stroke-width="2" fill="none"></path></g><g transform="translate(796.0008345730037 312.76942653072433) rotate(0 115.44368105325151 -47.88326616111203)"><path d="M234.02 -73.65 C233.87 -77.97, 234.18 -82.38, 231.6 -93.73 M235.42 -71.32 C235.07 -77.1, 234.51 -80.5, 232.8 -95.15" stroke="#1e1e1e" stroke-width="2" fill="none"></path></g></g><g stroke-linecap="round" transform="translate(455.2382620414727 145.00502985664116) rotate(0 86.86981201171875 37.620635986328125)"><path d="M-0.75 -1.52 L172.96 1.19 L173.95 76.6 L1.52 75.79" stroke="none" stroke-width="0" fill="#b2f2bb"></path><path d="M-0.47 1.2 C66.46 1.45, 134.92 -1.92, 174.37 -0.15 M0.01 0.26 C55 1.05, 108.2 0.86, 174.09 0.45 M175.5 -0.44 C173.44 26.55, 174.29 52.3, 175.72 75.26 M173.67 -0.24 C173.5 29.58, 174.63 56.99, 173.95 74.7 M175.59 75.16 C120.32 75.36, 69.14 75.17, -0.04 76.57 M174.42 75.56 C124.45 76.23, 76 75.64, 0.81 76.01 M0.26 75.99 C0.16 45.98, 2.41 20.87, 1.37 0.84 M-0.96 75.41 C-0.99 52.62, -0.36 30.23, 0.44 -0.82" stroke="#1e1e1e" stroke-width="2" fill="none"></path></g><g transform="translate(480.9981268486016 170.12566584296928) rotate(0 61.109947204589844 12.5)"><text x="61.109947204589844" y="NaN" font-family="Segoe UI Emoji" font-size="20px" fill="#1e1e1e" text-anchor="middle" style="white-space: pre;" direction="ltr">Organization</text></g><g stroke-linecap="round" transform="translate(709.6687394336652 140.45803404877165) rotate(0 86.86981201171875 37.620635986328125)"><path d="M-0.17 -1.07 L172.35 1.84 L175.69 75.97 L-0.97 74.02" stroke="none" stroke-width="0" fill="#b2f2bb"></path><path d="M1.04 -0.04 C34.4 -0.69, 72.2 -0.19, 175.64 -1.48 M-0.2 0.37 C57.95 0.29, 114.52 0.51, 173.44 0.8 M174.25 -0.94 C174.73 29.69, 173.03 55.67, 174.23 75.63 M173.93 -0.46 C173.48 26, 174.79 52.84, 174.38 75.75 M174.58 75.1 C113.3 73.86, 53.13 76.14, -1.87 75.17 M174.36 76.2 C120.58 72.74, 66.32 73.08, 0.48 75.85 M1.67 75.34 C-1.3 49.16, -0.68 25.27, 0.55 -1.11 M0.88 75.09 C-1.4 52.79, 0.04 31, -0.19 0.03" stroke="#1e1e1e" stroke-width="2" fill="none"></path></g><g transform="translate(755.9685822681379 165.57867003509978) rotate(0 40.569969177246094 12.5)"><text x="40.569969177246094" y="NaN" font-family="Segoe UI Emoji" font-size="20px" fill="#1e1e1e" text-anchor="middle" style="white-space: pre;" direction="ltr">Creation</text></g><g stroke-linecap="round" transform="translate(940.118384667788 136.76162223584402) rotate(0 86.86981201171876 37.620635986328125)"><path d="M-0.93 -0.2 L174.77 0.22 L175.18 73.72 L-1.19 75.07" stroke="none" stroke-width="0" fill="#b2f2bb"></path><path d="M-1.95 0.21 C34.97 -2.42, 69.47 -1.79, 173.93 -1.16 M-0.15 0.16 C41.37 -0.64, 81.77 -1.56, 172.76 -0.16 M174.6 0.18 C172.2 22.91, 172.03 48.17, 175.51 74.84 M173.42 0.63 C173 18.54, 174.43 37.39, 173.61 74.85 M172.92 76.95 C118.87 76.79, 61.23 74.13, 0.96 75.65 M172.96 75.97 C131.69 75.18, 88.05 75.37, 0.97 76.06 M-1.17 76.32 C0.58 52.25, 0.45 32.2, -0.22 0.3 M-0.38 74.51 C-0.47 52.45, 1.04 27.89, -0.98 -0.27" stroke="#1e1e1e" stroke-width="2" fill="none"></path></g><g transform="translate(975.3682473386864 161.88225822217214) rotate(0 51.61994934082031 12.5)"><text x="51.61994934082031" y="NaN" font-family="Segoe UI Emoji" font-size="20px" fill="#1e1e1e" text-anchor="middle" style="white-space: pre;" direction="ltr">Processing</text></g><g transform="translate(10 163.39785358275662) rotate(0 48.27198791503906 17.5)"><text x="96.54397583007812" y="NaN" font-family="Segoe UI Emoji" font-size="28px" fill="#2f9e44" text-anchor="end" style="white-space: pre;" direction="ltr">System</text></g><g stroke-linecap="round" transform="translate(1592.3921774868095 168.58865728367823) rotate(0 55.398382285612 52.12946585908264)"><path d="M66 1.3 C74.9 2.35, 84.93 7.97, 92.06 13.69 C99.2 19.4, 105.81 27.37, 108.79 35.58 C111.76 43.79, 111.81 54.33, 109.92 62.96 C108.02 71.59, 103.62 80.9, 97.42 87.36 C91.22 93.82, 81.49 98.94, 72.72 101.74 C63.95 104.53, 53.66 105.97, 44.81 104.12 C35.95 102.27, 26.58 96.39, 19.61 90.65 C12.65 84.9, 6.28 77.63, 3.03 69.64 C-0.22 61.64, -1.55 51.46, 0.11 42.67 C1.76 33.88, 6.69 23.49, 12.96 16.9 C19.23 10.3, 27.95 5.4, 37.73 3.08 C47.51 0.75, 65.26 2.79, 71.65 2.95 C78.05 3.1, 76.53 3.24, 76.12 4.03 M48.42 -0.09 C57.22 -1.89, 69.79 -0.04, 78.26 3.5 C86.73 7.04, 94.09 14.08, 99.24 21.16 C104.4 28.25, 108.11 37.42, 109.2 46.03 C110.3 54.64, 109.48 64.62, 105.83 72.83 C102.18 81.05, 94.8 90.16, 87.3 95.31 C79.81 100.46, 70.01 102.95, 60.87 103.71 C51.72 104.48, 40.82 103.59, 32.45 99.91 C24.07 96.23, 15.78 88.49, 10.62 81.66 C5.46 74.82, 2.59 67.48, 1.49 58.89 C0.39 50.29, 0.24 38.39, 4.02 30.08 C7.8 21.78, 16.31 13.96, 24.16 9.05 C32.01 4.14, 46.59 2.05, 51.12 0.62 C55.66 -0.82, 51.66 -0.31, 51.39 0.43" stroke="#1e1e1e" stroke-width="2" fill="none"></path></g><g transform="translate(1615.9360040437466 203.357024334171) rotate(0 31.681983947753906 17.5)"><text x="31.681983947753906" y="NaN" font-family="Segoe UI Emoji" font-size="28px" fill="#1e1e1e" text-anchor="middle" style="white-space: pre;" direction="ltr">Idea</text></g><g stroke-linecap="round"><g transform="translate(1515.5678208029403 151.55958761128295) rotate(0 40.467394465707855 20.91601626016279)"><path d="M1.1 0.32 C14.41 7.43, 66.61 35.26, 80.07 42.02" stroke="#1e1e1e" stroke-width="2.5" fill="none" stroke-dasharray="8 10"></path></g><g transform="translate(1515.5678208029403 151.55958761128295) rotate(0 40.467394465707855 20.91601626016279)"><path d="M50.85 36.67 C60.04 40.56, 67.61 41.68, 79.83 40.96" stroke="#1e1e1e" stroke-width="2.5" fill="none"></path></g><g transform="translate(1515.5678208029403 151.55958761128295) rotate(0 40.467394465707855 20.91601626016279)"><path d="M60.32 18.46 C66.42 28.2, 70.99 35.1, 79.83 40.96" stroke="#1e1e1e" stroke-width="2.5" fill="none"></path></g></g><g stroke-linecap="round"><g transform="translate(1799.7573366238084 113.30053749011381) rotate(0 -54.99198586384614 29.37889221848343)"><path d="M0.46 1.06 C-18.01 10.9, -92.79 50.12, -111.01 59.77" stroke="#1e1e1e" stroke-width="2.5" fill="none" stroke-dasharray="8 10"></path></g><g transform="translate(1799.7573366238084 113.30053749011381) rotate(0 -54.99198586384614 29.37889221848343)"><path d="M-89.09 35.85 C-94.72 45.77, -101.72 50.22, -110.19 58.15" stroke="#1e1e1e" stroke-width="2.5" fill="none"></path></g><g transform="translate(1799.7573366238084 113.30053749011381) rotate(0 -54.99198586384614 29.37889221848343)"><path d="M-79.52 54 C-87.97 58.83, -97.67 58.14, -110.19 58.15" stroke="#1e1e1e" stroke-width="2.5" fill="none"></path></g></g><g stroke-linecap="round"><g transform="translate(1615.9365142349016 51.8888379510629) rotate(0 16.787831477393865 57.86228955295098)"><path d="M-0.34 -0.84 C5.06 18.48, 26.73 96.85, 32.58 116.31" stroke="#1e1e1e" stroke-width="2.5" fill="none" stroke-dasharray="8 10"></path></g><g transform="translate(1615.9365142349016 51.8888379510629) rotate(0 16.787831477393865 57.86228955295098)"><path d="M13.55 90.37 C21.53 101.69, 26.37 107.25, 33.61 114.39" stroke="#1e1e1e" stroke-width="2.5" fill="none"></path></g><g transform="translate(1615.9365142349016 51.8888379510629) rotate(0 16.787831477393865 57.86228955295098)"><path d="M33.27 84.72 C35.09 97.76, 33.74 105.09, 33.61 114.39" stroke="#1e1e1e" stroke-width="2.5" fill="none"></path></g></g><g stroke-linecap="round"><g transform="translate(1826.4805810163919 262.9282189215089) rotate(0 -60.02056501329565 -12.308713013892543)"><path d="M0.44 0.04 C-19.9 -4.12, -100.92 -21.36, -121.11 -25.32" stroke="#1e1e1e" stroke-width="2.5" fill="none" stroke-dasharray="8 10"></path></g><g transform="translate(1826.4805810163919 262.9282189215089) rotate(0 -60.02056501329565 -12.308713013892543)"><path d="M-91.36 -31.47 C-103.85 -28.98, -112.43 -24.76, -122.52 -25.02" stroke="#1e1e1e" stroke-width="2.5" fill="none"></path></g><g transform="translate(1826.4805810163919 262.9282189215089) rotate(0 -60.02056501329565 -12.308713013892543)"><path d="M-95.49 -11.37 C-106.36 -16.51, -113.38 -19.91, -122.52 -25.02" stroke="#1e1e1e" stroke-width="2.5" fill="none"></path></g></g><g transform="translate(1483.2272190796289 140.1298556018719) rotate(0 6.523994445800781 17.5)"><text x="13.047988891601562" y="NaN" font-family="Segoe UI Emoji" font-size="28px" fill="#1e1e1e" text-anchor="end" style="white-space: pre;" direction="ltr">?</text></g><g transform="translate(1603.0288386105249 10) rotate(0 6.523994445800781 17.5)"><text x="13.047988891601562" y="NaN" font-family="Segoe UI Emoji" font-size="28px" fill="#1e1e1e" text-anchor="end" style="white-space: pre;" direction="ltr">?</text></g><g transform="translate(1818.0944767895307 90.12705241442063) rotate(0 6.523994445800781 17.5)"><text x="13.047988891601562" y="NaN" font-family="Segoe UI Emoji" font-size="28px" fill="#1e1e1e" text-anchor="end" style="white-space: pre;" direction="ltr">?</text></g><g transform="translate(1847.6591594758142 250.94275840321734) rotate(0 6.523994445800781 17.5)"><text x="13.047988891601562" y="NaN" font-family="Segoe UI Emoji" font-size="28px" fill="#1e1e1e" text-anchor="end" style="white-space: pre;" direction="ltr">?</text></g><g stroke-linecap="round" transform="translate(2208.417284007949 286.124029113666) rotate(0 55.398382285612 52.12946585908264)"><path d="M52.2 0.63 C60.94 -0.71, 72.62 1.22, 80.9 5.17 C89.19 9.13, 97.1 16.79, 101.92 24.36 C106.74 31.93, 109.48 41.99, 109.84 50.59 C110.19 59.2, 108.28 68.39, 104.05 76 C99.82 83.6, 92.12 91.52, 84.46 96.24 C76.8 100.96, 67.05 104.03, 58.1 104.32 C49.15 104.61, 39.08 102, 30.76 97.98 C22.45 93.96, 13.14 87.41, 8.18 80.19 C3.22 72.97, 1.3 63.28, 0.99 54.68 C0.69 46.08, 2.13 36.28, 6.35 28.58 C10.57 20.88, 17.92 13.17, 26.32 8.49 C34.72 3.81, 51.2 1.87, 56.75 0.49 C62.3 -0.89, 59.64 -0.76, 59.61 0.19 M36.81 1.57 C44.85 -1.59, 58.29 -1.2, 67.47 0.59 C76.65 2.38, 84.99 6.41, 91.92 12.3 C98.84 18.19, 106.1 27.28, 109.02 35.94 C111.94 44.6, 111.34 55.79, 109.44 64.25 C107.55 72.72, 103.57 80.42, 97.66 86.73 C91.74 93.04, 83.16 99.29, 73.97 102.12 C64.77 104.96, 51.76 105.57, 42.49 103.75 C33.21 101.92, 25.16 96.98, 18.3 91.16 C11.44 85.35, 4.15 77.22, 1.33 68.85 C-1.49 60.48, -0.55 49.55, 1.4 40.93 C3.34 32.3, 6.71 23.37, 13.01 17.11 C19.3 10.85, 34.68 5.53, 39.16 3.39 C43.64 1.25, 39.6 3.43, 39.89 4.27" stroke="#1e1e1e" stroke-width="2" fill="none"></path></g><g transform="translate(2231.9611105648864 320.89239616415875) rotate(0 31.681983947753906 17.5)"><text x="31.681983947753906" y="NaN" font-family="Segoe UI Emoji" font-size="28px" fill="#1e1e1e" text-anchor="middle" style="white-space: pre;" direction="ltr">Idea</text></g><g stroke-linecap="round" transform="translate(2112.1403193345936 55.57986397852278) rotate(0 61.09651851753904 24.56198163301974)"><path d="M-0.14 0.95 L122.93 1.78 L121.55 48.01 L-0.76 49.13" stroke="none" stroke-width="0" fill="#a5d8ff"></path><path d="M0.17 -0.85 C45.66 2.42, 91.96 1.48, 121.48 0.8 M0.28 -0.85 C40.72 0.22, 81.21 -0.59, 123.08 -0.31 M121.42 0.27 C122.23 11.7, 123.06 24.07, 123.75 50.78 M121.27 -0.22 C121.84 19.21, 122.47 36.13, 121.93 48.6 M123.08 48.33 C93.36 49.28, 68.36 49.74, -1.25 50.9 M122.85 49.88 C80.89 50.19, 40.24 50.52, 0.82 49.53 M-1.03 51.05 C-1.22 38.12, 1.38 25.18, -0.23 1 M0.94 48.89 C-1.07 38.55, -0.7 27.45, -0.82 -0.94" stroke="#1971c2" stroke-width="2" fill="none"></path></g><g transform="translate(2128.114851462972 62.64184561154252) rotate(0 45.121986389160156 17.5)"><text x="45.121986389160156" y="NaN" font-family="Segoe UI Emoji" font-size="28px" fill="#1971c2" text-anchor="middle" style="white-space: pre;" direction="ltr">Source</text></g><g stroke-linecap="round" transform="translate(2291.368809200366 50.28181951882084) rotate(0 61.096518517539096 24.56198163301974)"><path d="M-1.66 -1.51 L120.39 0.92 L120.2 50.3 L1.24 48.29" stroke="none" stroke-width="0" fill="#a5d8ff"></path><path d="M-0.86 0.66 C38.67 -1.03, 77.32 -1.22, 120.28 -0.99 M-0.6 0.62 C41.26 -0.69, 82.4 -1.11, 122.09 0.81 M124.08 0.11 C124.39 17.16, 124.16 35.05, 123.45 50.55 M122.33 -0.3 C121.09 10.61, 121.39 22.33, 121.22 49.7 M121.18 50.54 C76.56 48.76, 34.19 48.43, 0.33 47.68 M122.07 48.48 C73.64 49.71, 25.04 49.48, 0.45 49.68 M-1.58 49.13 C-1.28 29.93, -2.11 12.17, -1.38 -0.59 M0.4 49.73 C0.43 35.34, 0.07 19.84, 0.93 0.83" stroke="#1971c2" stroke-width="2" fill="none"></path></g><g transform="translate(2307.343341328745 57.34380115184058) rotate(0 45.121986389160156 17.5)"><text x="45.121986389160156" y="NaN" font-family="Segoe UI Emoji" font-size="28px" fill="#1971c2" text-anchor="middle" style="white-space: pre;" direction="ltr">Source</text></g><g stroke-linecap="round" transform="translate(2202.4214506146936 176.91175346229875) rotate(0 61.09651851753904 24.56198163301974)"><path d="M-0.13 1.24 L123.35 0.71 L121.24 47.43 L-1.36 50.86" stroke="none" stroke-width="0" fill="#b2f2bb"></path><path d="M1.28 1.31 C37.64 1.77, 75.06 1.07, 120.72 -1.5 M0.24 -0.5 C29.83 0.76, 58.99 1.67, 121.62 0.89 M122.95 1.38 C121.53 12.75, 124.15 25.39, 122.64 47.83 M121.57 0.63 C122.92 9.99, 122.3 21.76, 122.87 48.6 M123.17 48.69 C93.88 51.96, 64.12 50.27, -1.99 48.85 M121.86 48.95 C95.25 49.7, 68.12 49.29, 0.71 49.44 M0.04 49.97 C-0.22 33.13, -0.3 17.41, -0.45 -0.75 M-0.4 49.16 C-0.21 31.93, -0.6 13.5, 0.57 0.87" stroke="#2f9e44" stroke-width="2" fill="none"></path></g><g transform="translate(2214.055994034576 183.9737350953185) rotate(0 49.46197509765625 17.5)"><text x="49.46197509765625" y="NaN" font-family="Segoe UI Emoji" font-size="28px" fill="#2f9e44" text-anchor="middle" style="white-space: pre;" direction="ltr">Insight</text></g><g stroke-linecap="round" transform="translate(2203.0592192949416 476.59601258909333) rotate(0 61.09651851753904 24.56198163301974)"><path d="M1.42 1.42 L121.85 -1.47 L121.24 47.75 L-0.98 48.33" stroke="none" stroke-width="0" fill="#ffec99"></path><path d="M1.33 1.47 C47.9 0.99, 92.91 -0.16, 121.65 -1.41 M0.28 -0.91 C49.12 0.9, 97.04 1.48, 122.34 0.45 M120.59 1.75 C121.76 14.16, 123.9 26.66, 122.37 47.45 M122.14 -0.88 C121.78 13.98, 122.47 27.64, 121.48 49.02 M123.33 48.29 C76.73 47.42, 28.65 48.37, -1.22 49.12 M121.75 50.02 C79.51 48.69, 36.69 49.23, 0.19 49.5 M-0.55 48.69 C-0.04 28.58, 0.91 13.46, 0.39 -1.73 M-0.98 49 C0.55 36.06, 0.22 25.14, -0.01 -0.41" stroke="#f08c00" stroke-width="2" fill="none"></path></g><g transform="translate(2209.2197560619925 483.6579942221131) rotate(0 54.93598175048828 17.5)"><text x="54.93598175048828" y="NaN" font-family="Segoe UI Emoji" font-size="28px" fill="#f08c00" text-anchor="middle" style="white-space: pre;" direction="ltr">Content</text></g><g stroke-linecap="round" transform="translate(1543.8955729150423 415.2463342081703) rotate(0 61.09651851753904 24.56198163301974)"><path d="M0.35 1.22 L122.6 1.73 L120.77 48.84 L0.68 49.34" stroke="none" stroke-width="0" fill="#ffec99"></path><path d="M0.53 0.85 C26.32 1.73, 48.78 2.31, 120.32 -1.67 M0.7 0.95 C24.74 1.41, 50.33 1.3, 121.86 0.84 M123.52 0.3 C122.79 14.43, 122.54 33.12, 121.68 50.92 M122.21 -0.51 C120.95 17.62, 122.77 34.41, 121.51 48.79 M124.17 50.14 C79.98 50.18, 34.69 51.13, 0.16 50.87 M122.88 48.68 C86.5 48.37, 49.48 47.77, -0.73 48.94 M0.15 48.36 C0.68 33.71, -0.68 19.99, 0.93 1.38 M0.24 49.52 C-1.11 36.24, -0.37 25.53, -0.62 0.71" stroke="#f08c00" stroke-width="2" fill="none"></path></g><g transform="translate(1550.0561096820932 422.30831584119005) rotate(0 54.93598175048828 17.5)"><text x="54.93598175048828" y="NaN" font-family="Segoe UI Emoji" font-size="28px" fill="#f08c00" text-anchor="middle" style="white-space: pre;" direction="ltr">Content</text></g><g stroke-linecap="round" transform="translate(1469.2795445529764 298.18488829930584) rotate(0 61.09651851753904 24.56198163301974)"><path d="M-0.46 -1.16 L121.68 -0.13 L123.63 48.81 L1.08 50.6" stroke="none" stroke-width="0" fill="#a5d8ff"></path><path d="M1.83 0.38 C42.22 -1.47, 87.59 1.49, 121.01 -1.6 M0.4 -0.57 C38.96 -1.54, 77.3 -1.27, 122.35 -0.21 M121.06 0.76 C121.82 20.8, 121.94 40.96, 120.73 48.82 M121.77 0.35 C122.63 17.82, 122.33 34.42, 121.95 50 M123.57 47.84 C86.66 51.48, 49.05 51.74, 0.39 50.96 M122.99 49.12 C83.62 49.19, 43.46 49.81, -0.61 50 M0.69 48.97 C-1.47 36.21, 0.32 21.98, -1.98 1.02 M0.42 49.19 C-1.01 36.67, -0.74 23.96, 0.91 0.04" stroke="#1971c2" stroke-width="2" fill="none"></path></g><g transform="translate(1485.2540766813554 305.2468699323256) rotate(0 45.121986389160156 17.5)"><text x="45.121986389160156" y="NaN" font-family="Segoe UI Emoji" font-size="28px" fill="#1971c2" text-anchor="middle" style="white-space: pre;" direction="ltr">Source</text></g><g stroke-linecap="round" transform="translate(1686.0821299164325 325.69118381805424) rotate(0 61.09651851753904 24.56198163301974)"><path d="M-0.25 -0.18 L123.66 -1.24 L123.97 48.72 L-1.14 50.35" stroke="none" stroke-width="0" fill="#a5d8ff"></path><path d="M1.04 1.25 C45.68 -2.18, 90.83 -0.68, 123.73 -1.58 M0.07 0.27 C30.12 -0.32, 61.93 -0.39, 122.11 0.24 M120.38 -0.77 C122.86 10.19, 120.97 19.87, 121.76 47.94 M121.84 -0.7 C122.59 12.69, 121.99 23.98, 122.9 49.6 M120.49 48.31 C93.42 48.59, 65.83 50.62, 0.79 49.25 M122.13 48.74 C88.04 50, 56.57 49.92, 0.29 49.62 M1.14 48.63 C0.97 38.97, -1.71 27.27, -0.18 -1.16 M-0.04 48.78 C-0.39 35.32, -0.06 22.25, 0.91 -0.49" stroke="#1971c2" stroke-width="2" fill="none"></path></g><g transform="translate(1702.0566620448114 332.753165451074) rotate(0 45.121986389160156 17.5)"><text x="45.121986389160156" y="NaN" font-family="Segoe UI Emoji" font-size="28px" fill="#1971c2" text-anchor="middle" style="white-space: pre;" direction="ltr">Source</text></g><g stroke-linecap="round" transform="translate(1424.6160301927398 34.76185685805967) rotate(0 61.09651851753904 24.56198163301974)"><path d="M-1.12 -1.17 L123.93 -0.32 L121.71 49.64 L1.7 48.29" stroke="none" stroke-width="0" fill="#a5d8ff"></path><path d="M1.15 -0.8 C26.75 -1.04, 55.25 0.33, 123.91 1.01 M-0.52 0.39 C45.3 2.12, 90.82 1.24, 121.6 0.95 M123.8 -0.47 C121.27 17.32, 121.73 30.07, 123.12 49.87 M123.18 -0.04 C122.76 19.36, 122.7 38.38, 121.36 49.04 M122.17 50.38 C84.66 50.28, 43.58 49.66, 0.98 50.16 M121.36 49.83 C90.44 49.39, 59.11 48.48, -0.03 48.4 M1.16 48.19 C-1.32 31.03, 0.34 16.64, -1.99 0.31 M-0.12 49.11 C-0.05 37.78, -0.88 26.99, -0.27 -0.64" stroke="#1971c2" stroke-width="2" fill="none"></path></g><g transform="translate(1440.5905623211188 41.823838491079414) rotate(0 45.121986389160156 17.5)"><text x="45.121986389160156" y="NaN" font-family="Segoe UI Emoji" font-size="28px" fill="#1971c2" text-anchor="middle" style="white-space: pre;" direction="ltr">Source</text></g><g stroke-linecap="round" transform="translate(1660.5841856105246 52.13324782719451) rotate(0 61.09651851753904 24.56198163301974)"><path d="M-1.95 -0.62 L121.13 0.38 L120.78 49.27 L-0.76 48.86" stroke="none" stroke-width="0" fill="#b2f2bb"></path><path d="M1.52 -1.51 C40.78 1.35, 85.95 0.57, 122.78 -1.38 M0.4 -0.08 C27.75 0.75, 54.85 0.28, 123.19 -0.68 M124.01 -1.54 C120.96 16.06, 123.59 33.23, 121.09 47.22 M121.96 -0.44 C122.11 17.97, 122.78 35.15, 122.73 48.86 M120.54 50.98 C88.71 48.28, 51.83 47, 0.14 49.54 M121.89 48.41 C83.17 47.86, 46.34 48.24, -0.85 48.45 M1.78 50.76 C-1.66 29.08, 1.44 11.28, -1.81 -1.75 M-0.82 48.46 C0.17 38.12, 0.81 27.2, -0.14 -0.68" stroke="#2f9e44" stroke-width="2" fill="none"></path></g><g transform="translate(1672.2187290304075 59.19522946021425) rotate(0 49.46197509765625 17.5)"><text x="49.46197509765625" y="NaN" font-family="Segoe UI Emoji" font-size="28px" fill="#2f9e44" text-anchor="middle" style="white-space: pre;" direction="ltr">Insight</text></g><g stroke-linecap="round"><g transform="translate(2173.1368378521324 109.70382724456226) rotate(0 45.14056564005 31.103963108868356)"><path d="M0.48 -0.67 C0.68 4.34, -14.11 24.9, 1 30.15 C16.12 35.39, 76.39 25.46, 91.16 30.81 C105.92 36.16, 89.75 56.9, 89.59 62.24 M-0.73 1.59 C-0.58 6.72, -14.68 26.12, 0.58 31.18 C15.85 36.24, 76.04 26.61, 90.85 31.97 C105.67 37.34, 89.83 58.09, 89.47 63.36" stroke="#1e1e1e" stroke-width="2" fill="none"></path></g><g transform="translate(2173.1368378521324 109.70382724456226) rotate(0 45.14056564005 31.103963108868356)"><path d="M89.12 49.12 C88.61 53.35, 89.33 55.71, 89.52 63.27 M90.51 48.4 C90.59 54.11, 90.21 59.43, 89.82 63.69" stroke="#1e1e1e" stroke-width="2" fill="none"></path></g><g transform="translate(2173.1368378521324 109.70382724456226) rotate(0 45.14056564005 31.103963108868356)"><path d="M98.99 53.09 C95.69 56.24, 93.62 57.47, 89.52 63.27 M100.38 52.37 C96.92 56.72, 93.03 60.63, 89.82 63.69" stroke="#1e1e1e" stroke-width="2" fill="none"></path></g></g><g stroke-linecap="round"><g transform="translate(2352.3653277179046 104.40578278486032) rotate(0 -44.473679292836096 33.75298533871933)"><path d="M0.4 -0.99 C0.56 4.69, 15.11 28, 0.08 33.93 C-14.94 39.87, -74.84 29.15, -89.74 34.62 C-104.64 40.09, -89.31 61.23, -89.31 66.76 M-0.85 1.11 C-0.76 7.01, 13.58 30.29, -0.82 35.56 C-15.22 40.83, -72.53 27.41, -87.27 32.73 C-102 38.05, -89.14 61.53, -89.25 67.48" stroke="#1e1e1e" stroke-width="2" fill="none"></path></g><g transform="translate(2352.3653277179046 104.40578278486032) rotate(0 -44.473679292836096 33.75298533871933)"><path d="M-100.12 53.63 C-96.36 55.51, -93.26 59.27, -90.3 66.36 M-98.74 53.52 C-95.81 58.87, -91.84 63.08, -89.73 66.68" stroke="#1e1e1e" stroke-width="2" fill="none"></path></g><g transform="translate(2352.3653277179046 104.40578278486032) rotate(0 -44.473679292836096 33.75298533871933)"><path d="M-88.93 50.81 C-87.69 53.36, -87.11 57.75, -90.3 66.36 M-87.55 50.69 C-88.31 57, -88.01 62.14, -89.73 66.68" stroke="#1e1e1e" stroke-width="2" fill="none"></path></g></g><g stroke-linecap="round"><g transform="translate(2263.4179691322324 231.03571672833823) rotate(0 0.14884858066443485 25.044195344294735)"><path d="M-0.94 1.05 C-0.94 9.32, 0.33 40.74, 0.72 49.01 M0.76 0.55 C0.59 9, -0.08 41.97, -0.01 49.98" stroke="#1e1e1e" stroke-width="2" fill="none"></path></g><g transform="translate(2263.4179691322324 231.03571672833823) rotate(0 0.14884858066443485 25.044195344294735)"><path d="M-6.64 27.07 C-7.34 36.6, -1.66 45.21, 0.53 50 M-8.52 26.25 C-4.96 34.37, -2.5 40.38, 0.02 50.36" stroke="#1e1e1e" stroke-width="2" fill="none"></path></g><g transform="translate(2263.4179691322324 231.03571672833823) rotate(0 0.14884858066443485 25.044195344294735)"><path d="M10.49 27.21 C3.7 36.56, 3.28 45.11, 0.53 50 M8.61 26.39 C7 34.52, 4.29 40.49, 0.02 50.36" stroke="#1e1e1e" stroke-width="2" fill="none"></path></g></g><g stroke-linecap="round"><g transform="translate(2263.7156662935613 395.3828825285698) rotate(0 0.17003575945966531 38.10656503026178)"><path d="M-0.25 0.04 C-0.3 12.58, 0.51 63.35, 0.8 76.1 M1.82 -0.98 C1.56 11.67, 0.17 64.41, 0.1 77.58" stroke="#1e1e1e" stroke-width="2" fill="none"></path></g><g transform="translate(2263.7156662935613 395.3828825285698) rotate(0 0.17003575945966531 38.10656503026178)"><path d="M-9.61 49.99 C-5.84 62.29, -1.29 70.27, -0.36 77.97 M-10.12 49.49 C-7.73 56.84, -3.98 64.57, 0.48 78.01" stroke="#1e1e1e" stroke-width="2" fill="none"></path></g><g transform="translate(2263.7156662935613 395.3828825285698) rotate(0 0.17003575945966531 38.10656503026178)"><path d="M10.91 50.34 C6.67 62.46, 3.22 70.31, -0.36 77.97 M10.4 49.84 C7.37 57.04, 5.7 64.68, 0.48 78.01" stroke="#1e1e1e" stroke-width="2" fill="none"></path></g></g><g stroke-linecap="round"><g transform="translate(1642.908219163711 272.57106736616515) rotate(0 -12.630149810657883 66.81100837925464)"><path d="M1.26 0.86 C-3.2 23.26, -23.49 111.49, -27.5 133.89 M-1.5 -1.14 C-5.03 21.82, -18.69 115.71, -22.31 137.67" stroke="#1e1e1e" stroke-width="2" fill="none"></path></g><g transform="translate(1642.908219163711 272.57106736616515) rotate(0 -12.630149810657883 66.81100837925464)"><path d="M-26.95 105.05 C-26.3 119.84, -22.77 127.69, -18.47 136.96 M-28.8 107.43 C-28.76 117.27, -24.1 125.25, -22.52 137.99" stroke="#1e1e1e" stroke-width="2" fill="none"></path></g><g transform="translate(1642.908219163711 272.57106736616515) rotate(0 -12.630149810657883 66.81100837925464)"><path d="M-6.66 108.16 C-11.56 122.28, -13.59 129.28, -18.47 136.96 M-8.52 110.54 C-14.94 119.79, -16.81 126.77, -22.52 137.99" stroke="#1e1e1e" stroke-width="2" fill="none"></path></g></g><g stroke-linecap="round"><g transform="translate(1673.909317605489 445.8752481429983) rotate(0 33.608203237706505 -30.556100873911873)"><path d="M1.42 -1.86 C12.23 -12.46, 56.04 -51, 66.82 -61.32 M-1.25 3.31 C8.97 -7.04, 53.55 -46.9, 64.36 -57.81" stroke="#1e1e1e" stroke-width="2" fill="none"></path></g><g transform="translate(1673.909317605489 445.8752481429983) rotate(0 33.608203237706505 -30.556100873911873)"><path d="M48.25 -31.57 C55.14 -42.69, 56.6 -47.15, 68.25 -55.15 M50.27 -30.42 C53.24 -37.44, 58.42 -46.25, 64.2 -57.95" stroke="#1e1e1e" stroke-width="2" fill="none"></path></g><g transform="translate(1673.909317605489 445.8752481429983) rotate(0 33.608203237706505 -30.556100873911873)"><path d="M34.17 -46.49 C46.51 -52.23, 53.17 -51.17, 68.25 -55.15 M36.18 -45.35 C43 -48.01, 52.04 -52.74, 64.2 -57.95" stroke="#1e1e1e" stroke-width="2" fill="none"></path></g></g><g stroke-linecap="round"><g transform="translate(1762.4345946051285 321.13930498133163) rotate(0 -36.56797363203364 -29.41047380049224)"><path d="M2.45 1.84 C-8.97 -7.96, -58.3 -50.58, -70.87 -60.66 M0.33 0.36 C-11.05 -8.94, -59.37 -48.72, -71.89 -58.04" stroke="#1e1e1e" stroke-width="2" fill="none"></path></g><g transform="translate(1762.4345946051285 321.13930498133163) rotate(0 -36.56797363203364 -29.41047380049224)"><path d="M-40.77 -45.4 C-52.08 -50.01, -55.44 -52.62, -74.03 -58.44 M-41.48 -49.19 C-51.27 -49.55, -55.41 -54.13, -70.98 -59.22" stroke="#1e1e1e" stroke-width="2" fill="none"></path></g><g transform="translate(1762.4345946051285 321.13930498133163) rotate(0 -36.56797363203364 -29.41047380049224)"><path d="M-53.48 -29.29 C-61.81 -37.61, -62.42 -43.71, -74.03 -58.44 M-54.19 -33.08 C-60.84 -37.22, -61.96 -45.63, -70.98 -59.22" stroke="#1e1e1e" stroke-width="2" fill="none"></path></g></g><g stroke-linecap="round"><g transform="translate(1673.978113343043 173.66340576336688) rotate(0 19.189267362171506 -34.48396105498625)"><path d="M-0.71 0.47 C5.71 -10.61, 31.28 -56.2, 37.38 -67.84 M4.11 -1.74 C10.16 -13.56, 28.39 -61.46, 34.6 -72.24" stroke="#1e1e1e" stroke-width="2" fill="none"></path></g><g transform="translate(1673.978113343043 173.66340576336688) rotate(0 19.189267362171506 -34.48396105498625)"><path d="M32.8 -43.77 C34.66 -53.67, 33.15 -56.76, 31.23 -74.1 M33.66 -40.56 C33.86 -53.93, 35.57 -66.17, 35.78 -70.6" stroke="#1e1e1e" stroke-width="2" fill="none"></path></g><g transform="translate(1673.978113343043 173.66340576336688) rotate(0 19.189267362171506 -34.48396105498625)"><path d="M14.16 -52.36 C20.78 -59.93, 24.11 -60.8, 31.23 -74.1 M15.03 -49.15 C22.43 -59.48, 31.44 -68.35, 35.78 -70.6" stroke="#1e1e1e" stroke-width="2" fill="none"></path></g></g><g stroke-linecap="round"><g transform="translate(1657.3612975737049 80.20302034985093) rotate(0 -53.29430688226681 -6.750320401455269)"><path d="M0.7 0.31 C-16.23 -1.77, -86.31 -9.58, -103.88 -11.56 M-2.36 -1.98 C-19.21 -4.94, -87.46 -13.17, -104.65 -15.52" stroke="#1e1e1e" stroke-width="2" fill="none"></path></g><g transform="translate(1657.3612975737049 80.20302034985093) rotate(0 -53.29430688226681 -6.750320401455269)"><path d="M-74.94 -18.24 C-78.91 -17.85, -85.27 -18.97, -101.94 -11.64 M-77.11 -21.86 C-85.03 -19.83, -95.98 -18.18, -104.14 -15.41" stroke="#1e1e1e" stroke-width="2" fill="none"></path></g><g transform="translate(1657.3612975737049 80.20302034985093) rotate(0 -53.29430688226681 -6.750320401455269)"><path d="M-77.55 2.11 C-81.1 -1.92, -86.89 -7.46, -101.94 -11.64 M-79.72 -1.51 C-87.03 -6.05, -97.13 -11.04, -104.14 -15.41" stroke="#1e1e1e" stroke-width="2" fill="none"></path></g></g><g stroke-linecap="round"><g transform="translate(1518.7873479172804 86.93264413009865) rotate(0 9.81105025984742 103.1987236596508)"><path d="M-2.26 -2.14 C0.77 32.83, 15.07 174.12, 18.95 208.76 M1.71 2.86 C4.24 37.19, 13.3 170.77, 16.35 205.03" stroke="#1e1e1e" stroke-width="2" fill="none"></path></g><g transform="translate(1518.7873479172804 86.93264413009865) rotate(0 9.81105025984742 103.1987236596508)"><path d="M0.89 176.76 C11.18 188.88, 10.84 193.9, 20.2 206.74 M2.72 179.16 C7.32 188.64, 11.89 194.64, 16.93 204.83" stroke="#1e1e1e" stroke-width="2" fill="none"></path></g><g transform="translate(1518.7873479172804 86.93264413009865) rotate(0 9.81105025984742 103.1987236596508)"><path d="M21.35 175.18 C24.94 187.48, 17.91 193.02, 20.2 206.74 M23.18 177.59 C21.07 187.32, 18.91 193.84, 16.93 204.83" stroke="#1e1e1e" stroke-width="2" fill="none"></path></g></g><g stroke-linecap="round"><g transform="translate(1540.0030938832672 349.6567628410851) rotate(0 21.467268411057276 29.892073962232303)"><path d="M2.29 -0.59 C9.87 9.22, 36.4 49.26, 43.14 59.71 M0.09 -3.38 C7.53 6.82, 34.23 53.09, 41.02 63.3" stroke="#1e1e1e" stroke-width="2" fill="none"></path></g><g transform="translate(1540.0030938832672 349.6567628410851) rotate(0 21.467268411057276 29.892073962232303)"><path d="M16.68 44.95 C22.62 48, 31.14 56.17, 40.86 64.93 M15.87 44.67 C25.11 52.66, 32.98 57.18, 39.05 65.3" stroke="#1e1e1e" stroke-width="2" fill="none"></path></g><g transform="translate(1540.0030938832672 349.6567628410851) rotate(0 21.467268411057276 29.892073962232303)"><path d="M34.16 34.2 C36.38 39.88, 41.12 50.37, 40.86 64.93 M33.36 33.93 C36.28 45.41, 37.99 53.71, 39.05 65.3" stroke="#1e1e1e" stroke-width="2" fill="none"></path></g></g></svg>