<svg version="1.1" xmlns="http://www.w3.org/2000/svg" viewBox="0 0 618.8334429588651 306.1387251788972" width="618.8334429588651" height="306.1387251788972">
  <!-- svg-source:excalidraw -->
  
  <defs>
    <style>
      @font-face {
        font-family: "Virgil";
        src: url("https://excalidraw.com/Virgil.woff2");
      }
      @font-face {
        font-family: "Cascadia";
        src: url("https://excalidraw.com/Cascadia.woff2");
      }
    </style>
  </defs>
  <rect x="0" y="0" width="618.8334429588651" height="306.1387251788972" fill="#ffffff"></rect><g transform="translate(113.12164112469077 14.44083620162553) rotate(0 23.009979248046875 12.5)"><text x="0" y="NaN" font-family="Segoe UI Emoji" font-size="20px" fill="#1e1e1e" text-anchor="start" style="white-space: pre;" direction="ltr">Work</text></g><g stroke-linecap="round" transform="translate(150.20772159783365 52.220510252891586) rotate(0 60.69017028808594 18.040481567382812)"><path d="M-1.55 -1.44 C27.72 -1.24, 55.75 -0.6, 121.38 -1.4 M-0.24 0.56 C32.37 -1.32, 65.12 -1.02, 121.69 -0.9 M122.07 -1.58 C122.08 9.21, 121.7 18.41, 120.22 34.26 M120.96 0.21 C120.76 9.79, 122.21 21.16, 122.32 35.56 M122.07 37.78 C88.71 37.35, 54.43 37.47, 0.72 37.41 M121.91 35.96 C95.83 34.7, 72.92 34.76, -0.09 36.17 M-1.95 35.53 C-1.42 21.26, 1.08 10.18, -0.18 -1.41 M-0.69 35.37 C-0.19 29.02, -1.01 19.9, 0.44 0.54" stroke="#1e1e1e" stroke-width="2" fill="none"></path></g><g transform="translate(183.19791019646647 57.7609918202744) rotate(0 27.699981689453125 12.5)"><text x="27.699981689453125" y="NaN" font-family="Segoe UI Emoji" font-size="20px" fill="#1e1e1e" text-anchor="middle" style="white-space: pre;" direction="ltr">VRAM</text></g><g stroke-linecap="round" transform="translate(18.536823160333654 57.100764224167335) rotate(0 60.69017028808594 18.040481567382812)"><path d="M-1.73 1.65 C27.29 0.12, 55.15 -2.78, 122.67 1.31 M-0.96 0.61 C35.04 -0.11, 69.93 0.83, 121.37 -0.13 M121.45 1.21 C123.07 13.98, 122.64 30.25, 120.31 35 M120.41 -0.35 C121.26 10.37, 121.37 22.49, 120.43 35.73 M122.47 34.45 C75.74 35.14, 26.12 34.4, -1.04 36 M121.83 35.22 C95.45 37.76, 71.12 37.78, 0.6 36.05 M-1.22 35.23 C-1.07 27.27, 0.08 14.14, 0.82 -0.69 M-0.82 35.54 C0.76 24.97, 0.29 13.32, -0.79 -0.44" stroke="#1e1e1e" stroke-width="2" fill="none"></path></g><g transform="translate(49.6470145055485 62.64124579155015) rotate(0 29.579978942871094 12.5)"><text x="29.579978942871094" y="NaN" font-family="Segoe UI Emoji" font-size="20px" fill="#1e1e1e" text-anchor="middle" style="white-space: pre;" direction="ltr">DRAM</text></g><g stroke-linecap="round" transform="translate(148.30293644158365 97.95021606343846) rotate(0 60.69017028808594 18.040481567382812)"><path d="M0.86 -0.4 C39.14 -2.3, 77.39 -0.55, 121.46 0.75 M-0.87 -0.47 C32.52 -0.45, 66.31 0.05, 120.71 0.4 M121.38 -1.1 C122.84 11.81, 119.86 23.43, 120.61 37.09 M121.18 0.24 C122.21 13.53, 121.77 26.43, 122.34 36 M120.21 34.08 C95.34 37.2, 69.07 35.06, 1.5 35.25 M121.75 35.79 C81.23 35.31, 42.26 36.88, -0.98 36.1 M1.89 37.99 C-1.85 22.92, -0.59 11.37, 0.03 0.58 M-0.98 36.55 C0.63 22.88, -0.47 8.41, 0.05 0.92" stroke="#1e1e1e" stroke-width="2" fill="none"></path></g><g transform="translate(188.42312229363444 103.49069763082127) rotate(0 20.569984436035156 12.5)"><text x="20.569984436035156" y="NaN" font-family="Segoe UI Emoji" font-size="20px" fill="#1e1e1e" text-anchor="middle" style="white-space: pre;" direction="ltr">CPU</text></g><g transform="translate(407.8925123221259 10) rotate(0 40.869964599609375 12.5)"><text x="0" y="NaN" font-family="Segoe UI Emoji" font-size="20px" fill="#1e1e1e" text-anchor="start" style="white-space: pre;" direction="ltr">Personal</text></g><g stroke-linecap="round" transform="translate(349.23852638901246 62.74229060623509) rotate(0 60.69017028808594 18.040481567382812)"><path d="M-1.19 -0.17 C48.41 2.14, 96.61 1.21, 121.58 0.88 M0.14 -0.39 C30.71 -0.16, 61.92 -0.12, 121.56 -0.75 M123.18 -1.57 C123.29 13.72, 122.71 26.1, 120.39 34.4 M121.68 0.55 C120.48 10.87, 120.93 21.57, 121.93 36.69 M121.96 36.98 C95.44 38.39, 74.59 37.13, 1.19 37.99 M120.86 36.1 C89.86 34.71, 59.97 34.78, -0.1 36.32 M-0.28 36.34 C0.37 21.89, 0.16 6.71, 1.27 -1.22 M-0.44 35.68 C-0.54 22.44, -0.2 10.52, -0.05 -0.69" stroke="#1e1e1e" stroke-width="2" fill="none"></path></g><g transform="translate(387.8487101048328 68.2827721736179) rotate(0 22.079986572265625 12.5)"><text x="22.079986572265625" y="NaN" font-family="Segoe UI Emoji" font-size="20px" fill="#1e1e1e" text-anchor="middle" style="white-space: pre;" direction="ltr">GPU</text></g><g stroke-linecap="round" transform="translate(350.8991019134786 110.87699958081544) rotate(0 60.69017028808594 30)"><path d="M0.07 1.62 C35.74 -0.02, 72.12 -1.17, 119.42 -0.77 M-0.98 0.59 C44.5 -0.41, 90.39 -0.13, 122.2 0.74 M121.67 0.7 C122.6 18.26, 120.53 35.67, 121.46 61.29 M121.98 -0.61 C121.67 17.14, 121.23 35.31, 121.72 59.68 M120.16 59.1 C81.7 62, 40.46 61.32, 1.78 61.84 M120.42 59.16 C86.17 61.2, 51.55 61.78, 0.79 60.4 M0.54 60.38 C-0.99 47.36, 1.01 35.13, -1.31 -1.23 M0.82 60.68 C-1.2 36.36, -1.12 14.97, 0 0.35" stroke="#1e1e1e" stroke-width="2" fill="none"></path></g><g transform="translate(379.6792990570333 115.87699958081544) rotate(0 31.90997314453125 25)"><text x="31.90997314453125" y="NaN" font-family="Segoe UI Emoji" font-size="20px" fill="#1e1e1e" text-anchor="middle" style="white-space: pre;" direction="ltr">Note</text><text x="31.90997314453125" y="NaN" font-family="Segoe UI Emoji" font-size="20px" fill="#1e1e1e" text-anchor="middle" style="white-space: pre;" direction="ltr">Taking</text></g><g stroke-linecap="round" transform="translate(149.9736180622375 144.65668528928808) rotate(0 60.69017028808594 30)"><path d="M1.62 1.78 C31.17 1.87, 61.46 2.03, 119.91 -1.35 M0.45 0.54 C43.92 0.08, 89.78 -0.67, 122.27 -0.59 M122.7 -0.64 C119.13 14.31, 122.97 26.94, 121.89 61.18 M120.72 -0.94 C122.13 14.46, 122.76 27.61, 121.35 60.35 M121.73 61.36 C92.85 62.94, 60.33 62.35, -0.25 59.72 M121.05 60.64 C92.76 60.95, 65.52 61.44, -0.21 59.45 M1.77 58.28 C-1.28 39.96, 0.15 19.14, -0.1 1.12 M0.4 59.09 C0.98 40.11, 0.54 18.97, -0.35 0.18" stroke="#1e1e1e" stroke-width="2" fill="none"></path></g><g transform="translate(183.31379750559688 149.65668528928808) rotate(0 27.349990844726562 25)"><text x="27.349990844726562" y="NaN" font-family="Segoe UI Emoji" font-size="20px" fill="#1e1e1e" text-anchor="middle" style="white-space: pre;" direction="ltr">Admin</text><text x="27.349990844726562" y="NaN" font-family="Segoe UI Emoji" font-size="20px" fill="#1e1e1e" text-anchor="middle" style="white-space: pre;" direction="ltr">Tools</text></g><g stroke-linecap="round" transform="translate(15.34888149411978 106.86802368261044) rotate(0 60.69017028808594 30)"><path d="M0.26 0.02 C25.65 -1.91, 54.04 -1.15, 122.7 -1.33 M-0.07 -0.02 C32.81 -0.75, 65.57 -1.7, 121.2 0.76 M119.71 -1.41 C119.9 14.31, 121.68 28.31, 120.84 60.03 M121.13 0.94 C121.77 20.38, 120.87 39.67, 122.11 60.8 M119.57 59.25 C84.11 57.33, 46.73 57.43, -0.39 61.87 M121.5 60.8 C74.31 60.59, 27.63 59.62, 0.67 60.59 M-1.24 59.18 C1.59 38.74, -1.59 17.82, 0.91 0.08 M0.62 60.91 C0.73 38.98, 1.22 17.58, 0.77 0.99" stroke="#1e1e1e" stroke-width="2" fill="none"></path></g><g transform="translate(42.839085351541655 111.86802368261044) rotate(0 33.19996643066406 25)"><text x="33.19996643066406" y="NaN" font-family="Segoe UI Emoji" font-size="20px" fill="#1e1e1e" text-anchor="middle" style="white-space: pre;" direction="ltr">Blog</text><text x="33.19996643066406" y="NaN" font-family="Segoe UI Emoji" font-size="20px" fill="#1e1e1e" text-anchor="middle" style="white-space: pre;" direction="ltr">Writing</text></g><g stroke-linecap="round" transform="translate(482.12825618973983 55.66500792298251) rotate(0 60.69017028808594 42.5)"><path d="M-1.92 -1.74 C27.9 2.28, 51.57 -0.59, 120.46 1.02 M0.17 -0.32 C45.38 0.27, 91.3 1.17, 121.44 -0.65 M121.95 -0.02 C120.37 18.91, 121.56 36.86, 120.62 85.45 M120.97 0.51 C122.19 20.39, 121.95 40.89, 120.91 84.26 M120.04 83.58 C87.64 85.87, 55.98 83.47, 1.1 83.15 M121.53 85.44 C90.29 84.47, 60.19 84.76, 0.76 84.51 M-0.13 85.74 C-0.78 60.71, -1.86 35.79, 0.43 0.62 M0.67 85.78 C0.25 53.23, -0.33 20.93, -0.7 0.15" stroke="#1e1e1e" stroke-width="2" fill="none"></path></g><g transform="translate(510.9084533332945 60.66500792298251) rotate(0 31.90997314453125 37.5)"><text x="31.90997314453125" y="NaN" font-family="Segoe UI Emoji" font-size="20px" fill="#1e1e1e" text-anchor="middle" style="white-space: pre;" direction="ltr">Note</text><text x="31.90997314453125" y="NaN" font-family="Segoe UI Emoji" font-size="20px" fill="#1e1e1e" text-anchor="middle" style="white-space: pre;" direction="ltr">Taking</text><text x="31.90997314453125" y="NaN" font-family="Segoe UI Emoji" font-size="20px" fill="#1e1e1e" text-anchor="middle" style="white-space: pre;" direction="ltr">Tools</text></g><g stroke-linecap="round" transform="translate(150.70208904445877 211.13872517889718) rotate(0 60.69017028808594 42.5)"><path d="M1.77 -0.06 C43.83 -0.82, 89.85 -1.52, 119.49 -0.89 M0.7 -0.18 C29.69 -0.5, 61.1 -0.79, 122.1 -0.09 M122.28 -0.62 C120.49 33.22, 121.78 68.72, 119.44 86.41 M120.78 0.06 C121.67 32.02, 122.32 62.57, 122.34 85.31 M122.98 83.98 C95.48 82.64, 69.72 84.19, 0.25 85.82 M121.78 84.59 C77.51 85.63, 32.01 86.38, -0.48 84.78 M1.16 85.82 C-1.49 56.34, 0.78 24.47, 1.47 -0.01 M0.83 84.83 C-1.09 63.68, -1.01 43.93, 0.63 0.1" stroke="#1e1e1e" stroke-width="2" fill="none"></path></g><g transform="translate(174.04229137600174 216.13872517889718) rotate(0 37.34996795654297 37.5)"><text x="37.34996795654297" y="NaN" font-family="Segoe UI Emoji" font-size="20px" fill="#1e1e1e" text-anchor="middle" style="white-space: pre;" direction="ltr">Load</text><text x="37.34996795654297" y="NaN" font-family="Segoe UI Emoji" font-size="20px" fill="#1e1e1e" text-anchor="middle" style="white-space: pre;" direction="ltr">Testing</text><text x="37.34996795654297" y="NaN" font-family="Segoe UI Emoji" font-size="20px" fill="#1e1e1e" text-anchor="middle" style="white-space: pre;" direction="ltr">Demo</text></g><g stroke-linecap="round" transform="translate(353.35884736784317 183.7376690434395) rotate(0 60.69017028808594 42.5)"><path d="M1.06 1.69 C45 0.86, 91.34 -1.89, 121.37 -1.36 M-0.92 -0.17 C45.68 -0.17, 91.87 0.32, 121.91 -0.8 M122.03 1.24 C120.06 21.76, 122.36 41.55, 119.5 83.06 M120.49 0.84 C121.1 20.99, 120.41 42.79, 121 85.31 M121.56 84.51 C88.06 85.61, 51.7 83.87, 0.04 83.16 M121.74 84.44 C78.16 85.97, 34.12 84.4, 0.91 85.23 M0.42 84.79 C-1.21 64.49, 0.94 47.08, -1.13 -0.06 M-0.46 84.64 C-0.33 51.86, 0.1 18.65, 0.75 -0.18" stroke="#1e1e1e" stroke-width="2" fill="none"></path></g><g transform="translate(373.17905305631973 201.2376690434395) rotate(0 40.869964599609375 25)"><text x="40.869964599609375" y="NaN" font-family="Segoe UI Emoji" font-size="20px" fill="#1e1e1e" text-anchor="middle" style="white-space: pre;" direction="ltr">Personal</text><text x="40.869964599609375" y="NaN" font-family="Segoe UI Emoji" font-size="20px" fill="#1e1e1e" text-anchor="middle" style="white-space: pre;" direction="ltr">Blog</text></g><g stroke-linecap="round" transform="translate(10 171.57600437969836) rotate(0 60.69017028808594 42.5)"><path d="M1.61 -1.82 C37.38 -0.02, 77.56 -1.85, 119.62 0.62 M0.75 -0.53 C33.86 0.53, 66.33 -0.13, 122.14 -0.32 M120.16 1.4 C119.33 17.28, 121.83 34.85, 123.19 85.85 M121.84 0.04 C122.34 28.38, 122.73 55.34, 121.96 85 M120.71 85.49 C77.1 83.55, 32.41 85.11, 1.68 85.52 M122.36 84.41 C83.14 85.76, 44.89 84.74, -0.09 84.78 M1.11 85.83 C1.06 58.22, -0.08 35.77, 1.93 -1.16 M-0.55 85.04 C-1.03 58.6, -0.51 32.21, -0.36 -0.8" stroke="#1e1e1e" stroke-width="2" fill="none"></path></g><g transform="translate(22.14020538330078 189.07600437969836) rotate(0 48.549964904785156 25)"><text x="48.549964904785156" y="NaN" font-family="Segoe UI Emoji" font-size="20px" fill="#1e1e1e" text-anchor="middle" style="white-space: pre;" direction="ltr">Computing</text><text x="48.549964904785156" y="NaN" font-family="Segoe UI Emoji" font-size="20px" fill="#1e1e1e" text-anchor="middle" style="white-space: pre;" direction="ltr">Meeting</text></g><g stroke-linecap="round" transform="translate(487.45310238269326 154.7999616424246) rotate(0 60.69017028808594 30)"><path d="M-0.2 1.26 C45.88 0.16, 88.21 0.51, 120.71 0.28 M-0.76 -0.96 C33.79 -0.79, 68.85 -0.7, 121.01 0.7 M120.24 -1.28 C120.03 21.68, 121.63 40.33, 123 61.17 M121.63 -1 C119.97 22.57, 120.02 44.99, 121.31 59.56 M120.39 59.31 C73.94 59.23, 23.49 61.64, 1.87 59.74 M120.7 59.22 C78.06 58.66, 33.16 58.3, -0.59 59.98 M-0.96 60.68 C0.17 41.47, -0.98 27.91, 0.2 1.22 M0.32 60.1 C0.91 44.93, 0.41 29, -0.05 0.42" stroke="#1e1e1e" stroke-width="2" fill="none"></path></g><g transform="translate(510.3533099022245 159.7999616424246) rotate(0 37.78996276855469 25)"><text x="37.78996276855469" y="NaN" font-family="Segoe UI Emoji" font-size="20px" fill="#1e1e1e" text-anchor="middle" style="white-space: pre;" direction="ltr">DNS</text><text x="37.78996276855469" y="NaN" font-family="Segoe UI Emoji" font-size="20px" fill="#1e1e1e" text-anchor="middle" style="white-space: pre;" direction="ltr">Reading</text></g><g stroke-linecap="round" transform="translate(483.69635084777656 228.69601298721818) rotate(0 60.69017028808594 30)"><path d="M-0.96 -1.51 C41.83 1.6, 87.53 -0.98, 121.15 0.56 M-0.31 0.53 C38.91 0.1, 76.68 -0.73, 121.83 -0.12 M120.94 0.36 C121.08 22.93, 120.03 47.22, 123.25 61.18 M122.31 0.91 C122.08 18.2, 121.2 37.61, 120.57 59.09 M121.83 61.57 C98.41 59.79, 71.58 59.66, -0.85 59.64 M120.72 59.54 C75.75 61.86, 30.3 61.95, -0.18 60.27 M-1.32 60.7 C0.88 36.58, -1.67 15.85, -0.06 1.22 M0.72 59.58 C0.83 44.94, 0.3 30.8, 0.32 0.89" stroke="#1e1e1e" stroke-width="2" fill="none"></path></g><g transform="translate(503.6265571466047 233.69601298721818) rotate(0 40.75996398925781 25)"><text x="40.75996398925781" y="NaN" font-family="Segoe UI Emoji" font-size="20px" fill="#1e1e1e" text-anchor="middle" style="white-space: pre;" direction="ltr">GPU</text><text x="40.75996398925781" y="NaN" font-family="Segoe UI Emoji" font-size="20px" fill="#1e1e1e" text-anchor="middle" style="white-space: pre;" direction="ltr">Insights</text></g></svg>