<svg version="1.1" xmlns="http://www.w3.org/2000/svg" viewBox="0 0 1586.0358089771978 446.2252659681038" width="1586.0358089771978" height="446.2252659681038">
  <!-- svg-source:excalidraw -->
  
  <defs>
    <style>
      @font-face {
        font-family: "Virgil";
        src: url("https://excalidraw.com/Virgil.woff2");
      }
      @font-face {
        font-family: "Cascadia";
        src: url("https://excalidraw.com/Cascadia.woff2");
      }
    </style>
  </defs>
  <g stroke-linecap="round" transform="translate(773.763859309393 90.76358991854147) rotate(0 60.74090782520274 18.055563574877397)"><path d="M1.1 -0.18 C40.92 -1.46, 82.58 0.56, 120.99 1.17 M0.13 -0.51 C37.89 0.49, 76.95 1.3, 122.03 0.95 M120.56 1.2 C122.09 10.73, 123 18.6, 122.38 35.79 M122.32 -0.06 C121 14.02, 122.04 29.64, 120.63 35.9 M120.91 37.31 C85.29 35.32, 51.62 35.72, 1.63 36.78 M122.17 35.7 C81.48 35.62, 42.95 36.41, -0.66 35.67 M-0.78 35.21 C0.92 21.56, 1.02 9.95, 1.51 -0.36 M-0.46 35.49 C0.78 28.56, 0.49 19.88, -0.66 -0.05" stroke="#1e1e1e" stroke-width="2" fill="none"></path></g><g transform="translate(806.7909304646738 96.30870337915906) rotate(0 27.713836669921875 12.510450114259811)"><text x="27.713836669921875" y="NaN" font-family="Segoe UI Emoji" font-size="20.016720182815753px" fill="#1e1e1e" text-anchor="middle" style="white-space: pre;" direction="ltr">VRAM</text></g><g stroke-linecap="round" transform="translate(1371.7480280917885 163.03363051873305) rotate(0 60.69017028808594 18.040481567382812)"><path d="M-0.01 0.79 C34.85 1.92, 70.98 -0.41, 120.8 0.25 M0.37 0.95 C30.78 0.78, 60.19 -0.23, 122.31 -0.46 M122.93 -1.04 C122.39 12.68, 123.44 27.68, 119.65 37.77 M121.63 0.94 C120.24 10.4, 120.98 21.92, 120.61 35.8 M121.67 36.63 C79.31 36.83, 34.43 35.81, -0.04 37.45 M121.22 36.41 C89.31 35.08, 59.09 36.51, 0.31 35.69 M1.38 35.46 C1.28 26.51, -1.64 17.23, -1.39 -0.92 M0.41 36.43 C-0.92 27.46, -0.67 18.06, 0.63 0.32" stroke="#1e1e1e" stroke-width="2" fill="none"></path></g><g transform="translate(1402.8582194370033 168.57411208611586) rotate(0 29.579978942871094 12.5)"><text x="29.579978942871094" y="NaN" font-family="Segoe UI Emoji" font-size="20px" fill="#1e1e1e" text-anchor="middle" style="white-space: pre;" direction="ltr">DRAM</text></g><g stroke-linecap="round" transform="translate(769.3456533749104 141.9839725992357) rotate(0 60.74090782520274 18.055563574877397)"><path d="M0.3 -1.15 C40.68 -0.46, 81.5 -1.52, 121.75 0.74 M-0.28 -0.07 C48.91 -1.61, 96.55 -0.83, 121.94 0.77 M123.43 1.68 C119.92 10.64, 121.52 16.32, 120.81 36.61 M121.37 0.7 C120.4 13.94, 121.77 27.88, 121.55 36.25 M121.93 35.75 C81.67 37.88, 41.13 34.89, -0.93 35.79 M122.02 37.11 C81.39 35.19, 40.25 36.22, -0.89 36.8 M-1.41 35.67 C-1.66 25.49, -1.52 18.1, 1.47 0.82 M-0.42 35.22 C0.86 24.34, -0.5 11.95, -0.47 -0.31" stroke="#1e1e1e" stroke-width="2" fill="none"></path></g><g transform="translate(809.5062770814609 147.52908605985328) rotate(0 20.580284118652344 12.510450114259811)"><text x="20.580284118652344" y="NaN" font-family="Segoe UI Emoji" font-size="20.016720182815753px" fill="#1e1e1e" text-anchor="middle" style="white-space: pre;" direction="ltr">CPU</text></g><g stroke-linecap="round" transform="translate(1149.4925334660606 108.5855214823938) rotate(0 60.740907825202726 18.055563574877397)"><path d="M1.9 1.09 C33.44 -1.01, 62.95 1.42, 120.56 1.2 M-0.52 0.45 C40.14 0.03, 81.45 -1.8, 122.32 -0.06 M123.36 -1.71 C120.93 7.76, 122.77 14.42, 120.91 37.31 M121.76 0.82 C121.84 9.03, 121.33 17.59, 122.17 35.7 M122.13 34.8 C94.06 36.99, 70.39 36.53, -0.78 35.21 M121.17 36.87 C77.05 36.25, 32.76 36.26, -0.46 35.49 M0.7 34.78 C-0.37 21.92, -2.04 10.65, 0.64 -1.48 M0.66 37.02 C-0.8 25.59, 0.22 13.36, 0.16 -0.83" stroke="#1e1e1e" stroke-width="2" fill="none"></path></g><g transform="translate(1188.1424073557164 114.13063494301139) rotate(0 22.091033935546875 12.510450114259811)"><text x="22.091033935546875" y="NaN" font-family="Segoe UI Emoji" font-size="20.016720182815753px" fill="#1e1e1e" text-anchor="middle" style="white-space: pre;" direction="ltr">GPU</text></g><g stroke-linecap="round" transform="translate(636.0139723771365 93.52418882753011) rotate(0 60.69017028808594 30)"><path d="M0.64 0.91 C49.29 -1.77, 96.38 -1.05, 123.33 1.68 M-0.79 -0.33 C26.19 1.01, 51.02 -0.14, 121.27 0.7 M120.26 0.15 C121.5 13.91, 122.84 27.38, 121.83 59.64 M120.57 -0.47 C121.63 18.2, 121.14 35.3, 121.92 61 M122.67 58.21 C82.64 58.83, 42.64 59.09, -1.41 59.56 M122.08 60.74 C93.78 59.59, 64.71 59.19, -0.42 59.11 M0.04 59.05 C-0.8 39.57, 1.62 14.55, 0.77 0.1 M0.71 59.27 C-0.13 46.91, 0.88 34.94, -0.46 0.52" stroke="#1e1e1e" stroke-width="2" fill="none"></path></g><g transform="translate(664.7941695206912 98.52418882753011) rotate(0 31.90997314453125 25)"><text x="31.90997314453125" y="NaN" font-family="Segoe UI Emoji" font-size="20px" fill="#1e1e1e" text-anchor="middle" style="white-space: pre;" direction="ltr">Note</text><text x="31.90997314453125" y="NaN" font-family="Segoe UI Emoji" font-size="20px" fill="#1e1e1e" text-anchor="middle" style="white-space: pre;" direction="ltr">Taking</text></g><g stroke-linecap="round" transform="translate(635.838289539035 246.71811700662113) rotate(0 60.69017028808594 30)"><path d="M0.9 -0.32 C43.9 2.31, 82.18 2.32, 121.26 -1.58 M-0.86 -0.21 C32.25 -0.44, 63.95 -1.42, 121.98 -0.56 M123.01 0.66 C121.92 18.08, 121.42 38.24, 120.56 58.37 M120.72 -0.44 C121.82 16.2, 121.59 30.02, 120.93 60.64 M122.89 59.64 C94.39 59.18, 68.83 58.71, -1.25 61.4 M120.72 59.95 C75.62 59.53, 31.31 60.74, -0.74 60.02 M1.81 58.06 C0.95 44.95, -1.68 30.01, -1.65 1.43 M0.97 59.74 C-0.44 46.92, 0.19 33, 0 0.98" stroke="#1e1e1e" stroke-width="2" fill="none"></path></g><g transform="translate(669.1784689823944 251.71811700662113) rotate(0 27.349990844726562 25)"><text x="27.349990844726562" y="NaN" font-family="Segoe UI Emoji" font-size="20px" fill="#1e1e1e" text-anchor="middle" style="white-space: pre;" direction="ltr">Admin</text><text x="27.349990844726562" y="NaN" font-family="Segoe UI Emoji" font-size="20px" fill="#1e1e1e" text-anchor="middle" style="white-space: pre;" direction="ltr">Tools</text></g><g stroke-linecap="round" transform="translate(636.8469691015604 171.99622702190447) rotate(0 60.74090782520274 30.025080274223683)"><path d="M-1.73 1.69 C34.39 -2.6, 68.35 -0.52, 123.36 -1.71 M-0.77 -0.28 C34.45 -1.42, 67.76 -0.71, 121.76 0.82 M121.44 1.37 C120.79 18.38, 120.69 39.7, 122.13 58.74 M121.79 -0.39 C121.35 16.03, 120.91 31.46, 121.17 60.81 M120.1 59.13 C85.98 61.18, 54.46 60.6, 0.7 58.72 M122.11 60.37 C84.93 58.99, 49.38 58.66, 0.66 60.96 M-1.87 60.36 C-1.88 49.3, -1.7 35.62, -1.38 1.94 M0.17 60.24 C0.27 44.57, 0.98 26.94, 0.48 -0.65" stroke="#1e1e1e" stroke-width="2" fill="none"></path></g><g transform="translate(664.37129367481 177.0004070676083) rotate(0 33.216583251953125 25.020900228519736)"><text x="33.216583251953125" y="NaN" font-family="Segoe UI Emoji" font-size="20.016720182815753px" fill="#1e1e1e" text-anchor="middle" style="white-space: pre;" direction="ltr">Blog</text><text x="33.216583251953125" y="NaN" font-family="Segoe UI Emoji" font-size="20.016720182815753px" fill="#1e1e1e" text-anchor="middle" style="white-space: pre;" direction="ltr">Writing</text></g><g stroke-linecap="round" transform="translate(770.1107402274811 194.91908630967293) rotate(0 60.69017028808594 42.5)"><path d="M-0.67 0.5 C48.52 -0.75, 92.86 0.73, 122.79 -1.55 M0.07 0.14 C33.24 1.5, 66.26 0.91, 121.2 -0.02 M120.45 -0.32 C121.68 30, 120.15 63.7, 123.38 85.61 M120.49 0.69 C120.69 22.93, 120.82 43.65, 121.16 84.31 M122.85 85.82 C91.22 84.52, 59.56 85.01, -1.78 86.25 M120.91 84.69 C81.75 85.93, 39.83 85.41, 0.05 84.07 M-1.47 84.93 C-0.68 60.11, 0.18 30.41, 1.03 0.34 M0.7 84.79 C0.49 57.22, -0.03 29.93, 0.18 0.76" stroke="#1e1e1e" stroke-width="2" fill="none"></path></g><g transform="translate(798.8909373710358 199.91908630967293) rotate(0 31.90997314453125 37.5)"><text x="31.90997314453125" y="NaN" font-family="Segoe UI Emoji" font-size="20px" fill="#1e1e1e" text-anchor="middle" style="white-space: pre;" direction="ltr">Note</text><text x="31.90997314453125" y="NaN" font-family="Segoe UI Emoji" font-size="20px" fill="#1e1e1e" text-anchor="middle" style="white-space: pre;" direction="ltr">Taking</text><text x="31.90997314453125" y="NaN" font-family="Segoe UI Emoji" font-size="20px" fill="#1e1e1e" text-anchor="middle" style="white-space: pre;" direction="ltr">Tools</text></g><g stroke-linecap="round" transform="translate(311.7405593542155 109.60350808045735) rotate(0 60.69017028808594 42.5)"><path d="M1.18 -1.89 C46.36 0.61, 90.5 2.49, 119.4 -0.89 M0.3 0.36 C44.88 -0.05, 90.55 -0.53, 121.87 0.71 M121.35 -1.62 C122.13 15.62, 120.81 35.85, 120.87 84.1 M121.66 0.81 C121.83 30.02, 120.82 60.03, 121.27 85.52 M120.41 84.77 C89.12 85.46, 58.86 87.12, -1.69 86.01 M122.05 84.54 C78.25 83.57, 34.5 83.33, 0.89 84.08 M0.44 86.83 C-0.67 63.25, 1.8 41.82, -1.48 -1.53 M0.58 85.86 C-0.82 57.61, 0.1 30.61, 0.47 0.32" stroke="#1e1e1e" stroke-width="2" fill="none"></path></g><g transform="translate(335.0807616857585 114.60350808045735) rotate(0 37.34996795654297 37.5)"><text x="37.34996795654297" y="NaN" font-family="Segoe UI Emoji" font-size="20px" fill="#1e1e1e" text-anchor="middle" style="white-space: pre;" direction="ltr">Load</text><text x="37.34996795654297" y="NaN" font-family="Segoe UI Emoji" font-size="20px" fill="#1e1e1e" text-anchor="middle" style="white-space: pre;" direction="ltr">Testing</text><text x="37.34996795654297" y="NaN" font-family="Segoe UI Emoji" font-size="20px" fill="#1e1e1e" text-anchor="middle" style="white-space: pre;" direction="ltr">Demo</text></g><g stroke-linecap="round" transform="translate(308.536556232207 207.74871357605127) rotate(0 60.69017028808594 42.5)"><path d="M-0.83 0.6 C45.14 0.74, 86.87 2.17, 122.54 -0.24 M-0.68 0.33 C24.05 -0.19, 49.37 1.48, 121.35 -0.73 M119.48 -0.34 C121.62 17.9, 119.77 37.2, 122.06 84.27 M121.37 -0.85 C121.96 19.19, 122.22 37.32, 121.12 85.6 M122.59 85.88 C82.89 84.21, 41.52 85.33, 0.21 85.57 M121.46 85.04 C82.43 85.57, 42.49 86.28, -0.59 84.43 M0.36 83.37 C1.74 60.54, 0.97 32.8, -1.4 1.74 M0.01 84.61 C0.01 56.82, -0.03 27.81, -0.42 -0.79" stroke="#1e1e1e" stroke-width="2" fill="none"></path></g><g transform="translate(328.35676192068354 225.24871357605127) rotate(0 40.869964599609375 25)"><text x="40.869964599609375" y="NaN" font-family="Segoe UI Emoji" font-size="20px" fill="#1e1e1e" text-anchor="middle" style="white-space: pre;" direction="ltr">Personal</text><text x="40.869964599609375" y="NaN" font-family="Segoe UI Emoji" font-size="20px" fill="#1e1e1e" text-anchor="middle" style="white-space: pre;" direction="ltr">Blog</text></g><g stroke-linecap="round" transform="translate(10 159.81279728403536) rotate(0 60.69017028808594 42.5)"><path d="M0.36 -0.04 C33.39 0.85, 69.26 -0.67, 120.58 -0.14 M-0.86 0.63 C38.27 1.12, 79.11 1.02, 120.6 -0.19 M121.38 -0.46 C121.51 21.15, 122.7 42.55, 122.83 86.4 M122.11 0.53 C120.5 27.4, 120.38 54.97, 120.96 85.76 M122.97 86.86 C88.96 85.08, 59.8 86.17, 0.19 85.52 M121.77 85.53 C77.47 85.13, 34.39 85.29, -0.27 85 M1.93 84.24 C-1.4 56.7, 1.32 25.2, 1.19 0.61 M-0.87 84.29 C0.21 58.04, -0.04 31.92, -0.97 -0.67" stroke="#1e1e1e" stroke-width="2" fill="none"></path></g><g transform="translate(22.14020538330078 177.31279728403536) rotate(0 48.549964904785156 25)"><text x="48.549964904785156" y="NaN" font-family="Segoe UI Emoji" font-size="20px" fill="#1e1e1e" text-anchor="middle" style="white-space: pre;" direction="ltr">Computing</text><text x="48.549964904785156" y="NaN" font-family="Segoe UI Emoji" font-size="20px" fill="#1e1e1e" text-anchor="middle" style="white-space: pre;" direction="ltr">Meeting</text></g><g stroke-linecap="round"><g transform="translate(236.4297070815718 15.030755380241999) rotate(0 0 208.9231508746787)"><path d="M0.47 -0.47 C0.52 69.16, 0.33 348.91, 0.26 418.55" stroke="#1e1e1e" stroke-width="2.5" fill="none" stroke-dasharray="8 10"></path></g></g><g transform="translate(114.30047933157391 19.886310453074657) rotate(0 52.69996643066406 12.499999999999943)"><text x="105.39993286132812" y="NaN" font-family="Segoe UI Emoji" font-size="20px" fill="#1e1e1e" text-anchor="end" style="white-space: pre;" direction="ltr">Raw Notes</text></g><g stroke-linecap="round"><g transform="translate(542.7232034602744 18.37896421874632) rotate(0 0 208.92315087467875)"><path d="M0.1 -0.69 C-0.18 69.12, -0.4 349.26, -0.47 418.96" stroke="#1e1e1e" stroke-width="2.5" fill="none" stroke-dasharray="8 10"></path></g></g><g transform="translate(449.7289281993876 23.465835509122257) rotate(0 41.34996795654297 12.5)"><text x="82.69993591308594" y="NaN" font-family="Segoe UI Emoji" font-size="20px" fill="#1e1e1e" text-anchor="end" style="white-space: pre;" direction="ltr">Projects</text></g><g stroke-linecap="round"><g transform="translate(1001.2558419274555 12.064526308464224) rotate(0 0 208.92315087467875)"><path d="M1.08 0.54 C1.09 70.15, 0.6 348.49, 0.61 417.93" stroke="#1e1e1e" stroke-width="2.5" fill="none" stroke-dasharray="8 10"></path></g></g><g transform="translate(730.2499469394036 16.767840204311256) rotate(0 130.25990295410156 12.5)"><text x="260.5198059082031" y="NaN" font-family="Segoe UI Emoji" font-size="20px" fill="#1e1e1e" text-anchor="end" style="white-space: pre;" direction="ltr">On Going Ideas/Knowledge</text></g><g stroke-linecap="round"><g transform="translate(1335.474566187277 12.035011747256135) rotate(0 0 208.92315087467875)"><path d="M-0.56 -1.14 C-0.57 68.66, 0.49 348.25, 0.72 417.88" stroke="#1e1e1e" stroke-width="2.5" fill="none" stroke-dasharray="8 10"></path></g></g><g transform="translate(1084.6281563090004 16.91321761925201) rotate(0 120.08990478515625 12.499999999999943)"><text x="240.1798095703125" y="NaN" font-family="Segoe UI Emoji" font-size="20px" fill="#1e1e1e" text-anchor="end" style="white-space: pre;" direction="ltr">Resources/Source Notes</text></g><g stroke-linecap="round"><g transform="translate(1576.0358089771978 10) rotate(0 0 208.9231508746788)"><path d="M-0.58 -0.73 C-0.58 69.15, 0.7 348.7, 0.7 418.48" stroke="#1e1e1e" stroke-width="2.5" fill="none" stroke-dasharray="8 10"></path></g></g><g transform="translate(1413.149817553599 14.703313895846804) rotate(0 76.199951171875 12.499999999999943)"><text x="152.39990234375" y="NaN" font-family="Segoe UI Emoji" font-size="20px" fill="#1e1e1e" text-anchor="end" style="white-space: pre;" direction="ltr">No Longer Used</text></g><g stroke-linecap="round" transform="translate(762.783330830811 306.204106669638) rotate(0 60.69017028808594 30)"><path d="M0.82 -0.35 C41.38 2.06, 85.93 -0.94, 119.39 -0.72 M-0.32 0.07 C26.34 0.95, 51.48 1.7, 121.39 -0.11 M121.35 -1.74 C120.47 21.16, 123.86 42.91, 119.96 61.02 M121.56 0.79 C121.36 19.83, 121.52 40.38, 122.31 60.47 M122.29 60.58 C72.37 61.86, 28.58 59.82, -0.26 58.71 M120.46 59.21 C93.38 59.88, 64.76 59.91, 0.61 59.96 M1.2 60.32 C1.98 44.6, -0.07 29.44, -0.09 -0.7 M0.51 60.27 C0.66 39.9, 0.66 20.16, 0.61 0.37" stroke="#1e1e1e" stroke-width="2" fill="none"></path></g><g transform="translate(782.7135371296391 311.204106669638) rotate(0 40.75996398925781 25)"><text x="40.75996398925781" y="NaN" font-family="Segoe UI Emoji" font-size="20px" fill="#1e1e1e" text-anchor="middle" style="white-space: pre;" direction="ltr">GPU</text><text x="40.75996398925781" y="NaN" font-family="Segoe UI Emoji" font-size="20px" fill="#1e1e1e" text-anchor="middle" style="white-space: pre;" direction="ltr">Insights</text></g><g stroke-linecap="round" transform="translate(1146.564452690548 155.20965052491476) rotate(0 60.69017028808594 30)"><path d="M1.44 -1.64 C30.74 0.75, 57.92 1.23, 119.57 -0.43 M-0.96 -0.71 C39.42 0.61, 78.11 1.43, 121.92 0.59 M119.87 1.11 C123.1 15.1, 123.36 32.47, 121.13 59.73 M121.23 -0.12 C120.34 16.64, 120.72 32.86, 121.77 59.49 M122.09 60.59 C80.28 60.9, 37.33 60.97, 0.79 59.03 M121.15 59.76 C86.05 59.19, 50.3 59.65, -0.5 60.82 M0.31 61.82 C-0.41 41.63, 1.17 17.92, 0.95 -1.99 M0.94 60.17 C-0.73 38.53, 0.05 17.74, -0.09 0.93" stroke="#1e1e1e" stroke-width="2" fill="none"></path></g><g transform="translate(1169.4646602100793 160.20965052491476) rotate(0 37.78996276855469 25)"><text x="37.78996276855469" y="NaN" font-family="Segoe UI Emoji" font-size="20px" fill="#1e1e1e" text-anchor="middle" style="white-space: pre;" direction="ltr">DNS</text><text x="37.78996276855469" y="NaN" font-family="Segoe UI Emoji" font-size="20px" fill="#1e1e1e" text-anchor="middle" style="white-space: pre;" direction="ltr">Reading</text></g></svg>