<svg version="1.1" xmlns="http://www.w3.org/2000/svg" viewBox="0 0 468.52755179135033 288.8433693276212" width="468.52755179135033" height="288.8433693276212">
  <!-- svg-source:excalidraw -->
  
  <defs>
    <style>
      @font-face {
        font-family: "Virgil";
        src: url("https://excalidraw.com/Virgil.woff2");
      }
      @font-face {
        font-family: "Cascadia";
        src: url("https://excalidraw.com/Cascadia.woff2");
      }
    </style>
  </defs>
  <g stroke-linecap="round" transform="translate(35.71087319981609 148.03354368311983) rotate(0 30.59956035752748 30.599560357527473)"><path d="M19.43 2.21 C25.07 -0.37, 34.46 -0.4, 40.55 1.63 C46.63 3.65, 52.59 8.76, 55.93 14.37 C59.28 19.97, 61.32 28.6, 60.6 35.26 C59.88 41.91, 56.54 49.97, 51.6 54.29 C46.65 58.6, 37.63 60.99, 30.9 61.16 C24.18 61.32, 16.43 59.22, 11.25 55.25 C6.08 51.29, 1.06 43.88, -0.14 37.37 C-1.34 30.86, -0.26 22.32, 4.07 16.21 C8.4 10.09, 21 3.12, 25.84 0.68 C30.68 -1.75, 32.91 1.13, 33.09 1.59 M33.68 1.36 C40.31 1.68, 48.96 4.74, 53.76 9.19 C58.55 13.64, 62.15 21.66, 62.45 28.07 C62.76 34.47, 59.88 42.22, 55.58 47.62 C51.28 53.02, 43.31 58.8, 36.66 60.48 C30.01 62.16, 21.41 60.56, 15.67 57.7 C9.93 54.84, 4.66 49.29, 2.22 43.31 C-0.23 37.33, -1.07 28.38, 1 21.81 C3.07 15.25, 9.08 7.73, 14.63 3.91 C20.18 0.09, 31.3 -0.35, 34.3 -1.1 C37.3 -1.86, 32.54 -1.44, 32.64 -0.6" stroke="none" stroke-width="0" fill="#ffffff"></path><path d="M25.78 0.42 C31.91 -1.2, 40.38 0.4, 46.02 3.77 C51.67 7.14, 57.58 14.42, 59.65 20.64 C61.71 26.87, 60.89 34.93, 58.39 41.11 C55.89 47.3, 50.14 54.57, 44.63 57.75 C39.13 60.92, 31.61 61.37, 25.34 60.17 C19.07 58.97, 11.38 55.53, 7.04 50.55 C2.71 45.58, -0.65 37.11, -0.68 30.33 C-0.7 23.55, 0.98 14.93, 6.89 9.86 C12.81 4.8, 28.82 1.07, 34.79 -0.06 C40.77 -1.2, 42.99 2.64, 42.74 3.05 M37.58 -0.26 C44.12 0.5, 51.74 6.89, 55.46 12.01 C59.19 17.12, 60.04 23.73, 59.92 30.41 C59.8 37.1, 58.65 47.2, 54.74 52.13 C50.83 57.05, 43.3 59.21, 36.45 59.95 C29.59 60.7, 19.22 59.95, 13.61 56.6 C8.01 53.25, 4.56 46.02, 2.83 39.88 C1.1 33.74, 1.27 25.94, 3.24 19.77 C5.21 13.61, 8.91 6.21, 14.64 2.88 C20.38 -0.45, 33.81 -0.12, 37.66 -0.21 C41.51 -0.29, 38.1 1.7, 37.75 2.39" stroke="#1e1e1e" stroke-width="2" fill="none"></path></g><g stroke-linecap="round" transform="translate(10 168.1996759756688) rotate(0 28.24574802233306 27.15937309839717)"><path d="M23.94 0.38 C29.42 -0.9, 36.81 0.57, 41.93 3.56 C47.05 6.55, 52.42 12.66, 54.66 18.33 C56.9 23.99, 57.58 32.13, 55.39 37.55 C53.21 42.97, 47.01 47.99, 41.56 50.83 C36.11 53.67, 28.68 55.53, 22.68 54.56 C16.69 53.6, 9.33 49.62, 5.61 45.03 C1.89 40.44, 0.22 32.89, 0.35 27.02 C0.49 21.15, 2.02 14.15, 6.43 9.79 C10.85 5.44, 22.82 2.39, 26.83 0.88 C30.84 -0.64, 30.41 0.53, 30.5 0.7 M25.35 0.09 C31.24 -1.31, 39.47 0.71, 44.47 3.64 C49.47 6.58, 53.89 12.06, 55.34 17.69 C56.79 23.32, 55.71 31.93, 53.17 37.44 C50.63 42.94, 45.29 47.95, 40.1 50.72 C34.92 53.49, 27.75 55.23, 22.04 54.05 C16.33 52.86, 9.33 48.48, 5.84 43.63 C2.35 38.79, 0.82 30.97, 1.12 24.99 C1.42 19.01, 3.99 12.12, 7.66 7.77 C11.32 3.42, 20.09 -0.07, 23.09 -1.1 C26.09 -2.14, 25.57 1.05, 25.66 1.53" stroke="none" stroke-width="0" fill="#ffffff"></path><path d="M39.93 1.99 C45.31 4.02, 51.53 10.47, 53.99 15.78 C56.46 21.08, 56.45 28.15, 54.72 33.83 C52.98 39.51, 48.3 46.52, 43.56 49.84 C38.82 53.16, 32.12 54.21, 26.27 53.73 C20.41 53.26, 12.9 50.99, 8.43 46.98 C3.96 42.98, 0.07 35.72, -0.57 29.69 C-1.22 23.67, 0.92 15.69, 4.56 10.84 C8.21 6, 15.01 1.85, 21.29 0.62 C27.57 -0.62, 38.65 2.83, 42.24 3.43 C45.84 4.02, 43.05 3.9, 42.87 4.18 M38.48 1.99 C43.66 3.47, 48.1 7.17, 51.24 12.3 C54.39 17.43, 57.88 27.03, 57.33 32.78 C56.79 38.54, 52.95 43.25, 47.99 46.82 C43.04 50.39, 33.67 54.06, 27.61 54.21 C21.54 54.37, 15.96 51.34, 11.62 47.74 C7.29 44.14, 3.17 38.38, 1.61 32.6 C0.05 26.82, -0.67 18.33, 2.26 13.05 C5.2 7.78, 13.13 2.68, 19.21 0.95 C25.29 -0.78, 35.81 2.46, 38.74 2.7 C41.67 2.94, 37.17 1.93, 36.81 2.39" stroke="#1e1e1e" stroke-width="2" fill="none"></path></g><g stroke-linecap="round" transform="translate(38.63592782887474 155.9428895415196) rotate(0 36.75568492649751 33.496560154689845)"><path d="M32.61 1.05 C39.29 -0.25, 47.57 0.87, 53.74 3.98 C59.91 7.1, 66.55 13.69, 69.62 19.72 C72.69 25.76, 73.35 33.84, 72.16 40.21 C70.97 46.59, 67.63 53.49, 62.47 57.97 C57.32 62.45, 48.45 66.1, 41.22 67.07 C33.99 68.05, 25.33 66.99, 19.09 63.83 C12.85 60.66, 6.84 54.27, 3.79 48.08 C0.75 41.88, -0.41 33.13, 0.81 26.64 C2.03 20.15, 5.47 13.45, 11.1 9.15 C16.74 4.85, 30.51 2.11, 34.61 0.85 C38.7 -0.41, 35.8 1.1, 35.67 1.57 M23.2 1.48 C29.65 -0.98, 39.87 -0.17, 46.98 1.74 C54.08 3.65, 61.24 7.98, 65.84 12.94 C70.45 17.9, 74.35 25.1, 74.61 31.5 C74.86 37.9, 71.87 45.97, 67.39 51.34 C62.9 56.72, 54.35 61.26, 47.7 63.75 C41.04 66.24, 34.34 68.15, 27.47 66.28 C20.59 64.42, 11.22 58.05, 6.45 52.57 C1.68 47.09, -1.19 39.83, -1.16 33.39 C-1.12 26.95, 2.37 19.01, 6.64 13.94 C10.91 8.88, 21.56 4.99, 24.48 3.01 C27.4 1.04, 23.82 1.76, 24.16 2.11" stroke="none" stroke-width="0" fill="#ffffff"></path><path d="M37.46 0.09 C44.21 -0.23, 52.41 2.34, 58 6.33 C63.59 10.33, 68.67 17.81, 71 24.06 C73.34 30.31, 74.18 37.6, 72.03 43.85 C69.87 50.09, 64.16 57.63, 58.07 61.52 C51.99 65.41, 42.84 67.49, 35.52 67.17 C28.2 66.84, 19.74 63.58, 14.15 59.56 C8.56 55.55, 3.98 49.22, 1.98 43.06 C-0.03 36.9, -0.04 28.9, 2.11 22.59 C4.25 16.29, 7.85 9.05, 14.84 5.25 C21.84 1.44, 38.17 0.09, 44.07 -0.21 C49.97 -0.52, 50.51 2.63, 50.23 3.42 M43.76 1.69 C51.02 2.23, 59.36 4.51, 64.08 8.93 C68.79 13.35, 70.94 21.63, 72.05 28.19 C73.15 34.75, 73.65 42.36, 70.73 48.28 C67.81 54.21, 61.37 60.82, 54.52 63.73 C47.67 66.63, 36.76 66.96, 29.63 65.73 C22.5 64.5, 16.38 60.65, 11.72 56.34 C7.05 52.03, 3.01 46.17, 1.64 39.88 C0.26 33.6, 0.41 24.43, 3.47 18.62 C6.54 12.81, 13.72 7.99, 20.04 5.02 C26.37 2.05, 37.77 1.47, 41.43 0.82 C45.08 0.17, 41.84 0.56, 41.95 1.1" stroke="#1e1e1e" stroke-width="2" fill="none"></path></g><g stroke-linecap="round" transform="translate(77.71866417867409 158.58933673162028) rotate(0 32.9533726927219 30.96168533217277)"><path d="M34.2 0.01 C40.18 -0.11, 48.44 3.68, 53.41 7.62 C58.38 11.56, 62.26 17.86, 64.03 23.64 C65.81 29.42, 66.33 36.67, 64.07 42.28 C61.81 47.89, 55.99 53.89, 50.48 57.3 C44.97 60.71, 37.37 63.1, 31.02 62.74 C24.68 62.37, 17.34 59.21, 12.39 55.11 C7.44 51.01, 3.09 44.04, 1.34 38.15 C-0.41 32.26, -0.51 25.16, 1.9 19.76 C4.31 14.36, 9.85 8.83, 15.79 5.74 C21.74 2.65, 33.49 1.89, 37.56 1.2 C41.63 0.52, 40.38 1.41, 40.21 1.63 M34.48 0.36 C40.84 0.29, 48.42 3.13, 53.66 6.72 C58.9 10.3, 64.2 16.13, 65.94 21.84 C67.68 27.55, 66.82 35.33, 64.1 40.96 C61.37 46.6, 54.87 52.05, 49.58 55.66 C44.29 59.26, 38.79 62.91, 32.36 62.59 C25.94 62.27, 16.43 57.83, 11.02 53.72 C5.61 49.62, 1.35 43.73, -0.09 37.98 C-1.54 32.23, -0.19 24.57, 2.33 19.25 C4.84 13.93, 9.68 9.3, 14.98 6.04 C20.29 2.77, 30.72 0.54, 34.13 -0.33 C37.55 -1.21, 35.17 0.32, 35.46 0.77" stroke="none" stroke-width="0" fill="#ffffff"></path><path d="M23.07 0.83 C28.67 -1.1, 37.07 0.24, 43.35 2.3 C49.64 4.35, 56.99 8.11, 60.77 13.17 C64.55 18.23, 66.48 26.51, 66.05 32.68 C65.63 38.85, 62.33 45.66, 58.24 50.21 C54.14 54.76, 47.51 58.41, 41.47 60 C35.44 61.59, 27.97 61.72, 22.02 59.75 C16.07 57.78, 9.56 53.32, 5.76 48.2 C1.97 43.08, -1.01 35.2, -0.74 29.02 C-0.47 22.83, 2.63 15.74, 7.39 11.08 C12.15 6.43, 24.06 2.71, 27.83 1.09 C31.59 -0.54, 29.92 1.06, 29.96 1.32 M23.86 0.67 C29.17 -1.77, 35.76 -0.56, 41.91 1.35 C48.05 3.26, 56.54 7.18, 60.73 12.14 C64.91 17.1, 67.41 25.12, 67.02 31.12 C66.64 37.12, 62.19 43.42, 58.41 48.15 C54.62 52.89, 50.03 57.28, 44.33 59.53 C38.62 61.78, 30.58 63.3, 24.17 61.66 C17.76 60.02, 9.91 54.54, 5.87 49.69 C1.83 44.84, 0.08 38.61, -0.06 32.55 C-0.2 26.5, 1.35 18.49, 5.04 13.33 C8.73 8.17, 19.1 3.41, 22.08 1.6 C25.06 -0.21, 22.65 2.19, 22.91 2.48" stroke="#1e1e1e" stroke-width="2" fill="none"></path></g><g stroke-linecap="round" transform="translate(28.10624873226493 154.43892693914756) rotate(0 40.55799716027312 31.866997768786003)"><path d="M55.17 2.95 C62.34 4.85, 69.66 10.27, 74.03 15.45 C78.4 20.64, 81.82 27.88, 81.39 34.06 C80.95 40.24, 76.57 47.61, 71.41 52.53 C66.26 57.44, 58.08 62.07, 50.48 63.58 C42.89 65.09, 33.17 64.17, 25.85 61.59 C18.52 59.02, 10.9 53.44, 6.55 48.14 C2.21 42.84, -0.79 35.77, -0.21 29.8 C0.38 23.83, 4.98 16.98, 10.07 12.33 C15.15 7.68, 21.56 3.05, 30.3 1.89 C39.04 0.74, 56.21 4.21, 62.48 5.38 C68.76 6.54, 68.25 8.64, 67.95 8.89 M35.2 -0.05 C42.87 -1.5, 54.05 -0.22, 61.13 2.61 C68.21 5.45, 74.66 11.34, 77.68 16.97 C80.7 22.6, 80.6 29.93, 79.27 36.4 C77.94 42.87, 75.48 51.46, 69.72 55.78 C63.96 60.09, 52.99 61.76, 44.69 62.3 C36.39 62.84, 26.71 61.89, 19.92 59.02 C13.13 56.14, 7.19 50.38, 3.95 45.06 C0.72 39.74, -0.83 33.23, 0.51 27.1 C1.85 20.98, 6.07 12.75, 11.98 8.29 C17.9 3.83, 31.9 1.72, 36.01 0.36 C40.12 -1.01, 36.81 -0.41, 36.64 0.1" stroke="none" stroke-width="0" fill="#ffffff"></path><path d="M41.44 0.46 C49.22 0.27, 59.89 2.52, 66.29 6.44 C72.68 10.36, 77.87 17.84, 79.8 23.97 C81.73 30.1, 80.77 37.57, 77.87 43.2 C74.97 48.82, 68.85 54.34, 62.4 57.71 C55.95 61.07, 46.97 63.56, 39.15 63.4 C31.32 63.24, 21.86 60.72, 15.45 56.74 C9.05 52.77, 2.8 45.68, 0.72 39.54 C-1.36 33.4, -0.06 25.51, 2.96 19.91 C5.98 14.3, 11.64 9.06, 18.83 5.9 C26.03 2.75, 40.74 1.83, 46.13 0.99 C51.51 0.15, 51.26 0.29, 51.14 0.85 M56.18 2.7 C63.28 4.82, 72.7 10.09, 77.01 15.59 C81.31 21.09, 83.28 29.55, 81.99 35.69 C80.7 41.83, 74.62 48.02, 69.25 52.44 C63.89 56.87, 57.17 60.64, 49.81 62.25 C42.45 63.86, 32.61 64.48, 25.1 62.11 C17.6 59.74, 8.95 53.44, 4.8 48.05 C0.64 42.66, -0.59 35.99, 0.18 29.79 C0.94 23.59, 4.13 15.7, 9.4 10.85 C14.68 6, 23.81 1.98, 31.8 0.69 C39.79 -0.6, 53.16 2.87, 57.34 3.13 C61.53 3.38, 57.29 1.86, 56.92 2.23" stroke="transparent" stroke-width="2" fill="none"></path></g><g stroke-linecap="round" transform="translate(48.525521471883394 161.82040667153154) rotate(0 34.847191621634636 26.922524427282717)"><path d="M36.19 0 C43.13 -0.06, 52.92 3.9, 58.33 7.95 C63.75 12.01, 67.67 18.69, 68.68 24.33 C69.7 29.98, 68.44 37.03, 64.43 41.81 C60.42 46.6, 51.85 51.25, 44.62 53.04 C37.38 54.83, 27.8 54.86, 21.03 52.56 C14.25 50.26, 7.29 44.65, 3.97 39.23 C0.65 33.81, -0.5 25.69, 1.1 20.04 C2.71 14.38, 6.94 8.48, 13.58 5.32 C20.23 2.15, 36.03 1.57, 41 1.06 C45.97 0.56, 43.66 1.94, 43.39 2.29 M21.92 1.11 C28.62 -0.99, 39.63 0, 46.82 2.06 C54.01 4.12, 61.18 8.71, 65.07 13.48 C68.97 18.25, 71.47 25.17, 70.18 30.67 C68.89 36.18, 63.48 42.88, 57.32 46.51 C51.16 50.14, 40.53 52.21, 33.21 52.46 C25.9 52.71, 19.05 51.76, 13.42 48.02 C7.78 44.29, 1.03 36, -0.58 30.05 C-2.19 24.1, -0.25 17.16, 3.75 12.33 C7.76 7.5, 20.18 2.59, 23.45 1.07 C26.73 -0.46, 23.37 2.72, 23.42 3.16" stroke="none" stroke-width="0" fill="#ffffff"></path><path d="M28.94 -0.02 C36 -1.34, 45.82 1.16, 52.13 4.1 C58.43 7.04, 64.28 12.46, 66.79 17.63 C69.29 22.81, 69.47 29.78, 67.16 35.14 C64.85 40.5, 59.24 46.75, 52.93 49.79 C46.61 52.84, 36.83 54.45, 29.28 53.41 C21.73 52.38, 12.44 48.09, 7.62 43.58 C2.81 39.08, 0.24 31.91, 0.4 26.39 C0.56 20.86, 3.7 14.69, 8.59 10.43 C13.49 6.18, 25.77 2.62, 29.77 0.85 C33.78 -0.93, 32.59 -0.71, 32.65 -0.24 M48.13 2.27 C54.77 4.28, 63.87 9.49, 67.47 14.76 C71.07 20.04, 72.01 28.38, 69.74 33.91 C67.48 39.43, 59.96 44.75, 53.88 47.92 C47.8 51.1, 40.28 53.04, 33.26 52.96 C26.23 52.87, 17.34 51.23, 11.73 47.4 C6.13 43.57, 0.58 35.7, -0.38 29.99 C-1.34 24.28, 1.87 17.93, 5.97 13.16 C10.08 8.4, 17.14 3.21, 24.26 1.42 C31.37 -0.38, 44.54 2.1, 48.67 2.39 C52.79 2.69, 49.15 2.97, 49 3.18" stroke="transparent" stroke-width="2" fill="none"></path></g><g stroke-linecap="round" transform="translate(68.73769721931535 153.6490915046785) rotate(0 7.383097132388912 5.990059937598502)"><path d="M9.82 1.14 C11.2 1.64, 12.27 2.79, 13.12 3.83 C13.98 4.88, 15.23 6.22, 14.97 7.42 C14.7 8.62, 12.88 10.15, 11.55 11.06 C10.22 11.96, 8.46 12.92, 6.97 12.83 C5.49 12.75, 3.77 11.69, 2.66 10.56 C1.55 9.42, 0.6 7.34, 0.29 6.04 C-0.02 4.74, -0.12 3.58, 0.8 2.75 C1.73 1.92, 4.06 1.19, 5.84 1.05 C7.61 0.92, 10.35 1.75, 11.44 1.94 C12.54 2.13, 12.59 2.4, 12.42 2.19 M7.41 0.31 C9.13 0.32, 10.86 0.71, 12.26 1.33 C13.66 1.94, 15.53 2.88, 15.82 4 C16.11 5.11, 15.25 6.95, 14 8.01 C12.76 9.07, 9.72 9.65, 8.35 10.35 C6.99 11.05, 7.23 12.69, 5.8 12.21 C4.36 11.74, 0.88 8.9, -0.25 7.5 C-1.37 6.1, -1.51 4.93, -0.96 3.8 C-0.42 2.68, 1.61 1.19, 3.04 0.75 C4.47 0.31, 6.95 1.33, 7.62 1.16 C8.29 0.99, 6.93 -0.18, 7.05 -0.26" stroke="none" stroke-width="0" fill="#ffffff"></path><path d="M9.11 0.76 C10.41 1.06, 11.69 1.71, 12.54 2.5 C13.39 3.29, 14.1 4.29, 14.21 5.49 C14.32 6.7, 14.14 8.65, 13.2 9.71 C12.25 10.77, 10.27 11.78, 8.52 11.86 C6.76 11.94, 3.98 11.01, 2.68 10.2 C1.39 9.39, 1 7.99, 0.75 7.01 C0.51 6.03, 0.79 5.28, 1.22 4.33 C1.65 3.38, 1.97 2.14, 3.36 1.31 C4.75 0.48, 8.66 -0.63, 9.59 -0.65 C10.51 -0.67, 8.85 0.81, 8.91 1.19 M6.42 -0.18 C8.18 -0.54, 10.31 0.4, 11.34 0.83 C12.37 1.26, 11.9 1.45, 12.61 2.39 C13.31 3.34, 15.5 4.9, 15.57 6.49 C15.64 8.08, 14.57 10.96, 13.05 11.94 C11.54 12.91, 8.28 12.36, 6.49 12.34 C4.7 12.31, 3.58 12.65, 2.32 11.78 C1.06 10.92, -0.79 8.66, -1.06 7.16 C-1.33 5.66, -0.38 3.87, 0.68 2.78 C1.75 1.68, 4.55 1.18, 5.32 0.59 C6.08 0, 5.33 -0.75, 5.28 -0.77" stroke="transparent" stroke-width="2" fill="none"></path></g><g stroke-linecap="round" transform="translate(124.21976032873431 101.84676721573379) rotate(0 20.811389292619758 14.85081411509438)"><path d="M19.78 0.55 C23.94 0.24, 29.91 1.09, 33.52 2.92 C37.14 4.75, 40.43 8.47, 41.48 11.52 C42.52 14.57, 41.8 18.33, 39.77 21.22 C37.74 24.1, 33.37 27.47, 29.29 28.83 C25.22 30.18, 19.66 30.24, 15.3 29.35 C10.93 28.46, 5.49 26.08, 3.11 23.47 C0.73 20.86, 0.58 16.77, 1.03 13.66 C1.49 10.56, 1.85 7.05, 5.84 4.85 C9.84 2.66, 21.07 0.98, 24.99 0.49 C28.92 0, 29.66 1.78, 29.41 1.92 M17.78 -1.13 C21.64 -1.78, 27.19 1.49, 31.2 3.14 C35.21 4.78, 40.51 5.73, 41.83 8.75 C43.14 11.76, 41.1 18.1, 39.09 21.21 C37.08 24.32, 33.46 25.8, 29.76 27.41 C26.06 29.01, 21.21 31.52, 16.89 30.84 C12.57 30.15, 6.63 25.89, 3.84 23.29 C1.05 20.68, 0.14 18.32, 0.16 15.2 C0.18 12.09, 0.84 7.31, 3.93 4.59 C7.02 1.87, 16.59 -0.25, 18.71 -1.12 C20.83 -2, 16.74 -1.26, 16.67 -0.67" stroke="none" stroke-width="0" fill="#ffffff"></path><path d="M21.54 -0.31 C25.92 -0.08, 32.43 2.71, 35.74 4.95 C39.06 7.2, 40.96 10.04, 41.46 13.15 C41.95 16.26, 41.23 20.81, 38.72 23.62 C36.22 26.44, 30.96 29.22, 26.44 30.05 C21.92 30.88, 15.54 30.06, 11.59 28.59 C7.65 27.13, 4.53 24.07, 2.76 21.25 C0.99 18.42, 0.19 14.59, 0.98 11.64 C1.78 8.7, 3.87 5.37, 7.54 3.56 C11.22 1.74, 20 1.16, 23.02 0.76 C26.04 0.37, 25.53 1.09, 25.65 1.17 M25.41 -0.47 C29.93 -0.31, 34.68 2.92, 37.62 5.21 C40.56 7.5, 43.14 10.09, 43.06 13.27 C42.98 16.44, 40.34 21.45, 37.16 24.29 C33.97 27.13, 28.14 29.55, 23.95 30.31 C19.76 31.08, 16.04 30.4, 12.03 28.88 C8.01 27.36, 1.91 24.55, -0.13 21.2 C-2.17 17.86, -1.72 12.2, -0.23 8.8 C1.26 5.4, 4.8 2.32, 8.8 0.82 C12.8 -0.68, 21.12 -0.29, 23.75 -0.2 C26.39 -0.12, 24.86 1.14, 24.61 1.31" stroke="#1e1e1e" stroke-width="2" fill="none"></path></g><g stroke-linecap="round" transform="translate(106.73326755031997 111.63394973070655) rotate(0 19.210513193187474 13.181195960142944)"><path d="M16.38 0.06 C20.27 -0.62, 25.93 0.46, 29.51 1.86 C33.09 3.27, 36.49 5.77, 37.83 8.5 C39.17 11.22, 38.99 15.46, 37.54 18.22 C36.09 20.97, 32.83 23.62, 29.12 25.03 C25.42 26.45, 19.3 27.17, 15.3 26.69 C11.3 26.2, 7.81 24.27, 5.13 22.12 C2.44 19.98, -0.81 16.72, -0.82 13.82 C-0.83 10.92, 1.58 6.99, 5.06 4.75 C8.55 2.5, 17.17 1.12, 20.07 0.35 C22.97 -0.42, 22.58 -0.17, 22.47 0.15 M24.61 1.66 C28.58 2.3, 34.61 2.46, 36.69 4.83 C38.76 7.21, 38 12.98, 37.06 15.91 C36.12 18.84, 33.86 20.45, 31.04 22.42 C28.22 24.39, 24.18 27.67, 20.14 27.72 C16.09 27.77, 10.02 24.55, 6.78 22.71 C3.54 20.87, 1.63 19.34, 0.67 16.66 C-0.29 13.98, -1.03 9.43, 1.03 6.61 C3.08 3.79, 9.16 0.94, 12.99 -0.26 C16.82 -1.46, 21.97 -0.92, 24 -0.61 C26.04 -0.3, 25.3 1.2, 25.21 1.58" stroke="none" stroke-width="0" fill="#ffffff"></path><path d="M15.06 1.22 C18.89 0.44, 23.84 0.04, 27.56 1.23 C31.27 2.41, 35.71 5.56, 37.37 8.31 C39.02 11.06, 38.88 15.07, 37.51 17.73 C36.14 20.38, 32.44 22.85, 29.16 24.25 C25.89 25.65, 21.75 26.39, 17.86 26.13 C13.96 25.87, 8.93 24.58, 5.8 22.69 C2.67 20.8, -0.47 17.58, -0.93 14.81 C-1.39 12.05, -0.01 8.44, 3.05 6.08 C6.11 3.72, 14.71 1.71, 17.43 0.68 C20.16 -0.36, 19.41 -0.17, 19.38 -0.12 M25.61 0.6 C29.46 1.06, 34.44 2.13, 36.59 4.47 C38.75 6.81, 39.33 11.47, 38.52 14.65 C37.71 17.83, 34.52 21.43, 31.75 23.56 C28.97 25.68, 26.09 27.17, 21.86 27.39 C17.64 27.61, 10.17 26.93, 6.39 24.9 C2.61 22.86, 0.14 18.3, -0.82 15.17 C-1.78 12.03, -1.36 8.5, 0.62 6.09 C2.6 3.69, 6.98 1.53, 11.06 0.74 C15.14 -0.05, 23.12 1.48, 25.1 1.35 C27.08 1.22, 23.03 -0.28, 22.94 -0.05" stroke="#1e1e1e" stroke-width="2" fill="none"></path></g><g stroke-linecap="round" transform="translate(126.20915004140522 105.68539181499835) rotate(0 24.998296014211917 16.256808350842967)"><path d="M31.91 0.53 C36.96 1.14, 42.9 3.64, 45.97 6.55 C49.03 9.47, 50.76 14.42, 50.31 18.01 C49.86 21.6, 47.16 25.59, 43.26 28.1 C39.35 30.6, 32.19 32.67, 26.89 33.03 C21.59 33.38, 15.95 32.17, 11.47 30.21 C6.99 28.26, 1.47 24.75, 0.01 21.31 C-1.45 17.87, 0.24 12.82, 2.7 9.57 C5.16 6.33, 9.59 3.31, 14.75 1.85 C19.9 0.38, 29.98 0.54, 33.63 0.79 C37.28 1.04, 36.57 2.98, 36.64 3.35 M15.65 0.46 C19.92 -1.14, 25.3 0.7, 30.03 1.7 C34.76 2.7, 40.73 3.59, 44.01 6.46 C47.3 9.33, 50.11 15.55, 49.75 18.91 C49.4 22.27, 45.59 24.29, 41.89 26.62 C38.19 28.95, 32.9 32.5, 27.55 32.9 C22.21 33.29, 14.02 31.29, 9.81 29.02 C5.6 26.74, 3.66 22.71, 2.28 19.27 C0.89 15.82, -0.58 11.17, 1.51 8.35 C3.6 5.53, 12.78 3.45, 14.81 2.36 C16.85 1.26, 13.76 1.48, 13.75 1.76" stroke="none" stroke-width="0" fill="#ffffff"></path><path d="M20.73 0.14 C25.71 -0.68, 33.62 0.8, 38.22 2.73 C42.83 4.66, 46.79 8.49, 48.35 11.71 C49.92 14.93, 49.35 18.96, 47.63 22.05 C45.9 25.13, 42.46 28.46, 38.01 30.21 C33.56 31.97, 26.46 33.07, 20.92 32.59 C15.38 32.11, 8.38 29.97, 4.79 27.34 C1.2 24.7, -0.91 20.31, -0.6 16.81 C-0.29 13.3, 2.74 9.16, 6.62 6.31 C10.51 3.46, 19.79 0.77, 22.72 -0.3 C25.66 -1.37, 24.14 -0.59, 24.22 -0.11 M20.98 -0.97 C25.73 -1.9, 32.32 -0.09, 36.7 1.89 C41.09 3.86, 45.04 7.5, 47.29 10.88 C49.54 14.26, 51.92 18.82, 50.2 22.17 C48.49 25.53, 41.94 29.51, 36.98 31.02 C32.01 32.52, 25.69 32.04, 20.4 31.2 C15.12 30.36, 8.72 28.41, 5.26 25.98 C1.81 23.55, -0.41 19.73, -0.34 16.61 C-0.27 13.48, 2.63 10.06, 5.7 7.22 C8.76 4.38, 15.63 0.5, 18.04 -0.43 C20.46 -1.36, 19.89 1.1, 20.21 1.63" stroke="#1e1e1e" stroke-width="2" fill="none"></path></g><g stroke-linecap="round" transform="translate(152.79012150939593 106.96978593133184) rotate(0 22.41226539205205 15.026563394562956)"><path d="M21.73 -0.4 C26.28 -0.69, 32.49 1.27, 36.35 3.33 C40.21 5.4, 43.93 8.8, 44.89 11.99 C45.86 15.17, 44.3 19.52, 42.15 22.45 C40 25.37, 36.52 28.23, 32 29.54 C27.47 30.85, 19.67 31.3, 14.99 30.28 C10.31 29.26, 6.35 26.21, 3.92 23.42 C1.49 20.62, 0.01 16.81, 0.42 13.51 C0.82 10.2, 2.22 5.66, 6.33 3.6 C10.45 1.53, 21.16 1.5, 25.09 1.12 C29.02 0.75, 30.05 1.27, 29.91 1.34 M29.2 2.17 C33.1 3.21, 38.16 4.53, 40.67 7.37 C43.18 10.22, 45.1 16.21, 44.25 19.26 C43.4 22.31, 39.27 23.79, 35.59 25.66 C31.92 27.54, 27.02 30.5, 22.2 30.51 C17.38 30.52, 10.12 28.15, 6.69 25.74 C3.27 23.33, 2.35 19.33, 1.65 16.06 C0.94 12.79, 0.11 8.54, 2.45 6.13 C4.79 3.72, 11.13 2.47, 15.68 1.6 C20.22 0.72, 27.39 0.76, 29.72 0.88 C32.05 1, 29.7 1.96, 29.67 2.3" stroke="none" stroke-width="0" fill="#ffffff"></path><path d="M31.97 1.76 C36.24 2.97, 40.39 6.43, 42.29 9.26 C44.2 12.08, 44.37 15.74, 43.39 18.69 C42.4 21.64, 40.02 25, 36.36 26.94 C32.7 28.89, 26.49 30.42, 21.43 30.36 C16.37 30.31, 9.65 28.78, 6.01 26.62 C2.36 24.45, -0.19 20.58, -0.46 17.36 C-0.72 14.14, 1.6 10.15, 4.42 7.3 C7.24 4.45, 11.36 1.11, 16.45 0.23 C21.54 -0.66, 31.4 1.18, 34.97 1.99 C38.55 2.8, 38.21 4.67, 37.88 5.07 M23.2 0.07 C27.39 0.33, 32.69 2.35, 36.48 4.64 C40.26 6.94, 45.34 10.64, 45.93 13.86 C46.52 17.07, 42.99 21.57, 40.03 23.94 C37.07 26.31, 32.68 27.46, 28.15 28.1 C23.63 28.73, 17.17 28.77, 12.87 27.72 C8.57 26.68, 4.33 24.29, 2.35 21.81 C0.38 19.33, 0.24 16.09, 1.01 12.87 C1.77 9.64, 3.2 4.44, 6.96 2.45 C10.72 0.46, 20.91 1.15, 23.55 0.93 C26.2 0.7, 23.01 1, 22.83 1.1" stroke="#1e1e1e" stroke-width="2" fill="none"></path></g><g stroke-linecap="round" transform="translate(119.0476990844146 104.9554771109008) rotate(0 27.58432663637177 15.465936593234385)"><path d="M27.52 0.29 C33.15 0.16, 41.09 1.62, 45.58 3.76 C50.07 5.89, 53.28 9.77, 54.45 13.09 C55.62 16.4, 55.55 20.68, 52.58 23.63 C49.61 26.59, 42.25 29.69, 36.65 30.8 C31.04 31.92, 24.34 31.49, 18.93 30.32 C13.52 29.15, 7.42 26.72, 4.18 23.77 C0.95 20.83, -1.32 15.79, -0.49 12.63 C0.34 9.46, 3.67 6.81, 9.15 4.78 C14.63 2.76, 28.03 1.1, 32.4 0.47 C36.76 -0.15, 35.38 0.65, 35.33 1.01 M16.17 0.71 C21.44 -0.59, 30.53 1.24, 36.2 2.18 C41.87 3.13, 47.04 3.69, 50.18 6.37 C53.32 9.04, 55.92 14.88, 55.02 18.22 C54.13 21.57, 49.04 24.53, 44.81 26.42 C40.58 28.32, 35.51 29.6, 29.65 29.6 C23.79 29.59, 14.4 28.11, 9.65 26.39 C4.9 24.68, 2.29 22.38, 1.13 19.31 C-0.04 16.23, 0.02 10.83, 2.65 7.96 C5.28 5.09, 14.41 3.11, 16.91 2.1 C19.4 1.09, 17.22 1.62, 17.64 1.89" stroke="none" stroke-width="0" fill="#ffffff"></path><path d="M26.06 0.95 C31.41 0.54, 38.6 1.48, 43.44 3.3 C48.28 5.12, 53.59 8.62, 55.1 11.88 C56.61 15.14, 55.47 19.78, 52.5 22.87 C49.53 25.96, 42.91 29.08, 37.29 30.41 C31.68 31.75, 24.19 31.87, 18.83 30.87 C13.46 29.87, 8.13 27.37, 5.09 24.41 C2.06 21.46, -0.06 16.59, 0.62 13.14 C1.3 9.68, 3.99 5.69, 9.16 3.67 C14.33 1.64, 27.3 1.31, 31.64 0.99 C35.99 0.66, 35.36 1.44, 35.21 1.71 M14.69 2.45 C19.77 1.05, 29.97 0.68, 35.58 1.51 C41.2 2.34, 45.37 5.12, 48.39 7.43 C51.41 9.74, 54.1 12.44, 53.72 15.35 C53.34 18.27, 50.04 22.4, 46.11 24.91 C42.17 27.43, 35.69 29.75, 30.13 30.45 C24.56 31.16, 17.83 31.05, 12.74 29.13 C7.65 27.2, 1.21 22.09, -0.42 18.92 C-2.05 15.75, 0.31 12.87, 2.94 10.11 C5.56 7.35, 13.27 3.74, 15.32 2.36 C17.37 0.99, 14.89 1.71, 15.25 1.84" stroke="transparent" stroke-width="2" fill="none"></path></g><g stroke-linecap="round" transform="translate(132.93526573867996 108.53791365963389) rotate(0 23.700290530937416 13.066246740381928)"><path d="M19.4 0.6 C23.95 -0.07, 30.08 0.72, 34.61 2.1 C39.13 3.47, 44.74 6.19, 46.54 8.84 C48.34 11.49, 47.08 15.41, 45.42 18 C43.76 20.59, 40.72 22.99, 36.59 24.38 C32.47 25.77, 25.88 26.85, 20.66 26.35 C15.43 25.85, 8.76 23.37, 5.27 21.39 C1.77 19.42, -0.38 17.19, -0.32 14.51 C-0.26 11.84, 1.85 7.75, 5.6 5.32 C9.36 2.88, 18.45 0.57, 22.19 -0.09 C25.94 -0.75, 28.04 1.26, 28.08 1.36 M32.61 2.37 C37.25 3.13, 41.39 3.67, 43.79 6 C46.18 8.33, 48.11 13.55, 47 16.35 C45.88 19.15, 40.92 21.39, 37.1 22.8 C33.27 24.2, 29.06 25, 24.03 24.79 C19.01 24.58, 10.82 23.07, 6.94 21.53 C3.07 19.99, 1.44 18.14, 0.78 15.54 C0.12 12.94, 0.47 8.25, 3.01 5.93 C5.54 3.61, 11.03 2.37, 15.98 1.63 C20.93 0.9, 29.79 1.39, 32.72 1.53 C35.64 1.66, 33.6 2.27, 33.56 2.43" stroke="none" stroke-width="0" fill="#ffffff"></path><path d="M28.86 0.58 C33.74 0.91, 40.51 3.03, 43.65 5.34 C46.79 7.65, 48.38 11.52, 47.71 14.46 C47.03 17.39, 43.32 20.89, 39.59 22.93 C35.86 24.98, 30.1 26.46, 25.32 26.7 C20.54 26.95, 14.94 26.15, 10.93 24.39 C6.92 22.63, 2.66 19.01, 1.25 16.14 C-0.16 13.27, 0.33 9.51, 2.47 7.17 C4.62 4.83, 8.92 2.98, 14.11 2.12 C19.29 1.26, 29.66 1.74, 33.6 2.02 C37.54 2.3, 38.01 3.71, 37.76 3.81 M25.55 1.06 C30.26 0.98, 34.45 2.83, 37.82 4.3 C41.18 5.77, 44.94 7.51, 45.74 9.89 C46.55 12.26, 45.1 16.02, 42.64 18.55 C40.17 21.08, 35.46 23.79, 30.97 25.04 C26.48 26.3, 20.61 27.16, 15.69 26.08 C10.77 25, 3.88 20.98, 1.44 18.54 C-1.01 16.1, -0.2 13.93, 1.01 11.45 C2.22 8.97, 4.92 5.58, 8.7 3.67 C12.49 1.77, 21.02 0.53, 23.73 0 C26.45 -0.54, 24.94 0.16, 24.98 0.47" stroke="transparent" stroke-width="2" fill="none"></path></g><g stroke-linecap="round" transform="translate(146.68198147628618 104.57214809957628) rotate(0 5.0213959551079625 2.9071419860993473)"><path d="M5.53 0.6 C6.59 0.71, 9.02 1.12, 9.63 1.64 C10.25 2.16, 9.27 3.16, 9.22 3.71 C9.16 4.26, 9.78 4.54, 9.29 4.94 C8.81 5.33, 7.54 6.08, 6.29 6.1 C5.05 6.11, 2.87 5.24, 1.82 5.05 C0.78 4.86, 0.19 5.43, 0.02 4.97 C-0.14 4.51, 0.59 3.06, 0.84 2.29 C1.08 1.52, 0.42 0.55, 1.48 0.34 C2.55 0.14, 6.39 1.2, 7.21 1.07 C8.03 0.93, 6.41 -0.22, 6.4 -0.48 M3.49 -1.01 C4.55 -1.27, 7.04 0.52, 7.93 0.93 C8.81 1.34, 8.29 1.13, 8.8 1.43 C9.31 1.73, 11.38 2.24, 11.01 2.72 C10.63 3.2, 7.64 3.7, 6.55 4.33 C5.45 4.96, 5.5 6.48, 4.46 6.51 C3.41 6.54, 1.14 4.99, 0.3 4.53 C-0.54 4.08, -0.76 4.29, -0.59 3.77 C-0.42 3.26, 0.3 1.88, 1.3 1.45 C2.3 1.02, 4.77 1.39, 5.39 1.21 C6.01 1.03, 5.01 0.75, 5.01 0.35" stroke="none" stroke-width="0" fill="#ffffff"></path><path d="M7.91 0.15 C9.05 0.42, 9.86 1.38, 10.02 2.1 C10.18 2.81, 9.32 3.79, 8.85 4.44 C8.37 5.08, 7.79 5.65, 7.17 5.97 C6.55 6.29, 6.02 6.6, 5.12 6.36 C4.22 6.12, 2.56 5.13, 1.76 4.51 C0.96 3.88, 0.36 3.03, 0.33 2.62 C0.29 2.2, 1.05 2.33, 1.56 2.03 C2.08 1.72, 2.37 0.88, 3.44 0.79 C4.5 0.7, 7.28 1.45, 7.95 1.48 C8.63 1.51, 7.53 1.17, 7.48 0.97 M4.97 1.19 C5.51 0.95, 7.22 0, 7.84 0.13 C8.46 0.26, 8.63 1.21, 8.67 1.96 C8.71 2.71, 8.56 3.85, 8.1 4.63 C7.63 5.41, 7.13 6.68, 5.87 6.64 C4.61 6.6, 1.39 4.77, 0.52 4.42 C-0.34 4.06, 0.72 4.83, 0.69 4.5 C0.67 4.16, 0.08 3.1, 0.39 2.39 C0.7 1.68, 1.43 0.58, 2.57 0.23 C3.72 -0.11, 6.64 0.24, 7.26 0.33 C7.88 0.41, 6.45 0.61, 6.29 0.74" stroke="transparent" stroke-width="2" fill="none"></path></g><g stroke-linecap="round" transform="translate(171.48485479581308 10.057381862766562) rotate(3.5599954230829183 43.317948238044536 30.911285550677405)"><path d="M57.86 1.95 C65.85 3.35, 74.46 8.74, 79.12 13.6 C83.77 18.46, 86.07 24.96, 85.8 31.12 C85.53 37.28, 82.39 45.63, 77.5 50.57 C72.61 55.52, 64.66 59.21, 56.45 60.79 C48.23 62.36, 36.2 61.9, 28.21 60.02 C20.21 58.14, 13.32 54.6, 8.49 49.51 C3.67 44.42, -0.92 35.83, -0.74 29.46 C-0.56 23.1, 4.37 16.06, 9.58 11.35 C14.8 6.64, 20.73 2.33, 30.53 1.21 C40.34 0.1, 61.09 3.01, 68.43 4.64 C75.76 6.28, 75.04 10.62, 74.53 11.03 M33.43 -0.47 C41.06 -1.74, 53.61 0.78, 61.38 3.4 C69.15 6.02, 75.98 9.97, 80.05 15.25 C84.13 20.53, 86.57 28.94, 85.82 35.07 C85.07 41.2, 80.95 47.51, 75.55 52.05 C70.15 56.59, 61.62 61.08, 53.43 62.32 C45.24 63.55, 34.18 62.36, 26.4 59.47 C18.62 56.58, 11.28 50.23, 6.75 44.98 C2.23 39.72, -1.32 33.56, -0.73 27.91 C-0.14 22.26, 4.35 15.68, 10.29 11.08 C16.23 6.47, 30.78 2.05, 34.91 0.29 C39.04 -1.47, 34.97 -0.01, 35.08 0.51" stroke="none" stroke-width="0" fill="#ffffff"></path><path d="M47.09 0.43 C54.91 0.61, 64.17 4.11, 70.46 8.09 C76.75 12.07, 82.57 18.45, 84.84 24.32 C87.1 30.18, 87.12 37.87, 84.04 43.3 C80.96 48.73, 73.66 53.88, 66.36 56.87 C59.07 59.87, 48.69 61.54, 40.25 61.28 C31.82 61.01, 22.34 59.02, 15.76 55.28 C9.18 51.55, 2.83 44.72, 0.76 38.85 C-1.31 32.98, 0.18 25.74, 3.34 20.05 C6.51 14.36, 12.13 8.08, 19.76 4.7 C27.4 1.32, 43.81 0.2, 49.17 -0.24 C54.54 -0.68, 51.95 1.64, 51.96 2.07 M57.05 0.65 C64.98 2.39, 73.99 8, 79.01 13.39 C84.03 18.79, 87.7 27.03, 87.16 33.01 C86.62 38.99, 81.06 44.51, 75.79 49.27 C70.52 54.04, 63.51 59.7, 55.56 61.6 C47.61 63.5, 36.23 62.95, 28.1 60.68 C19.97 58.42, 11.34 53.17, 6.79 48.03 C2.25 42.89, 0.43 35.8, 0.83 29.84 C1.23 23.89, 4.07 16.96, 9.2 12.29 C14.32 7.62, 23.49 3.44, 31.58 1.81 C39.68 0.19, 53.27 2.27, 57.76 2.55 C62.24 2.82, 58.58 3.13, 58.51 3.46" stroke="#1e1e1e" stroke-width="2" fill="none"></path></g><g stroke-linecap="round" transform="translate(134.11503490170634 27.929397865992655) rotate(3.5599954230829183 39.98579837357958 27.43605226391486)"><path d="M57.57 3.06 C64.32 4.83, 70.75 9.17, 74.36 14.01 C77.98 18.85, 80.09 26.65, 79.28 32.1 C78.46 37.54, 74.99 42.97, 69.48 46.68 C63.98 50.39, 53.93 53.27, 46.25 54.34 C38.56 55.41, 30.42 55.55, 23.38 53.1 C16.34 50.65, 7.74 44.67, 4.03 39.63 C0.33 34.59, 0.01 28.08, 1.15 22.87 C2.28 17.66, 5.4 12.21, 10.84 8.37 C16.27 4.53, 25.8 0.63, 33.75 -0.18 C41.7 -1, 54.01 2.81, 58.54 3.49 C63.08 4.18, 61.24 3.37, 60.96 3.91 M23.4 3.43 C29.89 1.08, 39.11 -0.68, 46.62 0.35 C54.12 1.38, 62.94 5.59, 68.43 9.6 C73.92 13.61, 78.3 19.06, 79.58 24.42 C80.85 29.78, 79.71 37.07, 76.07 41.75 C72.43 46.43, 64.81 50.63, 57.72 52.49 C50.63 54.35, 41.48 53.94, 33.53 52.93 C25.57 51.91, 15.65 49.95, 9.99 46.42 C4.34 42.9, 0.33 37.17, -0.4 31.75 C-1.14 26.34, 1.62 18.89, 5.61 13.91 C9.6 8.93, 20.53 3.71, 23.54 1.86 C26.56 0.02, 23.61 2.53, 23.67 2.84" stroke="none" stroke-width="0" fill="#ffffff"></path><path d="M35.79 0.78 C43 0.05, 53.24 1.86, 60.21 4.64 C67.18 7.42, 74.41 12.66, 77.59 17.45 C80.77 22.25, 81.16 28.34, 79.29 33.4 C77.41 38.46, 72.26 44.1, 66.33 47.81 C60.41 51.52, 51.7 55.02, 43.77 55.64 C35.83 56.27, 25.49 54.35, 18.72 51.57 C11.95 48.79, 6.22 44, 3.13 38.94 C0.04 33.89, -1.64 26.7, 0.18 21.22 C1.99 15.75, 6.5 9.45, 14 6.09 C21.5 2.73, 38.73 1.96, 45.18 1.08 C51.63 0.21, 52.76 0.7, 52.71 0.85 M24.3 1.7 C31.29 -0.24, 42.44 0.41, 49.87 1.59 C57.3 2.77, 63.8 4.69, 68.89 8.79 C73.98 12.89, 79.57 20.57, 80.41 26.2 C81.25 31.82, 78.2 38.13, 73.94 42.56 C69.68 46.99, 61.91 50.81, 54.83 52.77 C47.75 54.74, 39.02 55.48, 31.46 54.32 C23.89 53.16, 14.67 49.83, 9.44 45.82 C4.21 41.81, 0.77 35.62, 0.07 30.27 C-0.62 24.92, 1.08 18.26, 5.26 13.73 C9.43 9.19, 21.74 4.95, 25.1 3.04 C28.47 1.14, 25.12 1.8, 25.44 2.28" stroke="#1e1e1e" stroke-width="2" fill="none"></path></g><g stroke-linecap="round" transform="translate(174.92302922479044 18.824493148173616) rotate(3.5599954230829183 52.03280172972216 33.837797792161666)"><path d="M41.79 1.03 C50.26 -0.82, 60.76 -0.17, 69.55 2.1 C78.35 4.36, 88.96 9.85, 94.56 14.63 C100.17 19.4, 102.57 24.98, 103.2 30.76 C103.84 36.54, 102.82 43.85, 98.37 49.3 C93.92 54.76, 84.75 60.56, 76.52 63.5 C68.29 66.44, 58.42 67.38, 49 66.95 C39.57 66.53, 27.55 64.63, 19.97 60.94 C12.39 57.25, 6.69 50.42, 3.5 44.83 C0.31 39.24, -1.02 33.32, 0.82 27.4 C2.65 21.48, 7.53 13.73, 14.52 9.31 C21.52 4.88, 37.44 2.32, 42.78 0.84 C48.12 -0.64, 46.3 0.01, 46.56 0.44 M70.48 3.16 C79.22 4.61, 88.09 9.06, 93.8 13.45 C99.52 17.83, 104.2 23.41, 104.75 29.46 C105.3 35.51, 101.75 43.98, 97.1 49.75 C92.46 55.52, 84.77 61.16, 76.88 64.07 C69 66.98, 58.92 67.82, 49.8 67.22 C40.69 66.61, 29.8 63.99, 22.18 60.42 C14.56 56.85, 7.68 51.59, 4.06 45.8 C0.43 40.02, -1.46 31.64, 0.43 25.7 C2.33 19.76, 8.83 14.44, 15.45 10.16 C22.06 5.88, 31.24 1.18, 40.13 0.03 C49.02 -1.13, 64.06 2.86, 68.79 3.23 C73.51 3.61, 68.4 1.91, 68.48 2.28" stroke="none" stroke-width="0" fill="#ffffff"></path><path d="M60.15 1.11 C69.33 1.59, 80.7 5.46, 87.79 9.4 C94.89 13.34, 100.37 19.02, 102.72 24.74 C105.07 30.47, 104.73 37.73, 101.89 43.74 C99.05 49.76, 93.03 56.76, 85.66 60.83 C78.29 64.9, 67.08 67.43, 57.69 68.16 C48.29 68.89, 37.78 67.98, 29.27 65.21 C20.77 62.44, 11.52 57, 6.65 51.54 C1.78 46.08, -0.43 38.43, 0.06 32.46 C0.55 26.49, 4.19 20.85, 9.57 15.73 C14.95 10.6, 22.53 4.23, 32.33 1.71 C42.14 -0.8, 61.61 0.44, 68.41 0.65 C75.2 0.86, 73.64 2.34, 73.12 2.99 M43.77 -0.53 C52.51 -1.74, 66.09 1.29, 74.8 4.16 C83.5 7.03, 91.2 11.67, 96 16.69 C100.8 21.71, 103.56 28.25, 103.6 34.25 C103.64 40.25, 101.36 47.5, 96.25 52.69 C91.13 57.87, 81.63 62.81, 72.91 65.35 C64.19 67.89, 53.28 68.87, 43.94 67.94 C34.59 67.01, 23.77 63.75, 16.84 59.75 C9.91 55.75, 4.71 49.95, 2.36 43.92 C0.01 37.89, -0.06 29.36, 2.76 23.59 C5.58 17.82, 12.05 13.39, 19.31 9.3 C26.56 5.21, 41.7 0.36, 46.27 -0.95 C50.85 -2.26, 46.75 0.62, 46.75 1.45" stroke="#1e1e1e" stroke-width="2" fill="none"></path></g><g stroke-linecap="round" transform="translate(230.14672216917452 24.598911739948562) rotate(3.5599954230829183 46.6500981025095 31.277099580862938)"><path d="M67.87 3.64 C75.23 5.9, 84.09 12.25, 88.19 17.06 C92.29 21.87, 92.99 27.18, 92.45 32.5 C91.91 37.82, 89.86 44.33, 84.95 48.98 C80.04 53.63, 70.82 58.36, 62.98 60.4 C55.15 62.45, 46.23 62.38, 37.93 61.25 C29.63 60.13, 19.26 57.61, 13.18 53.64 C7.1 49.66, 3.23 42.79, 1.43 37.43 C-0.36 32.06, -0.27 26.7, 2.42 21.44 C5.11 16.18, 10.94 9.35, 17.58 5.86 C24.22 2.37, 33.15 0.72, 42.26 0.48 C51.37 0.24, 66.96 3.46, 72.23 4.43 C77.51 5.4, 74.3 5.8, 73.91 6.31 M55.43 0.76 C63.39 0.83, 73.35 3.06, 79.26 6.87 C85.17 10.68, 89.05 17.78, 90.88 23.62 C92.7 29.45, 92.56 36.61, 90.2 41.88 C87.84 47.14, 83.01 51.91, 76.72 55.19 C70.43 58.48, 60.84 60.95, 52.44 61.58 C44.05 62.2, 34.09 61.57, 26.35 58.95 C18.6 56.34, 10.23 50.67, 5.97 45.86 C1.7 41.06, 0.39 35.66, 0.76 30.12 C1.13 24.58, 3.64 17.04, 8.18 12.63 C12.72 8.22, 20.33 5.74, 28 3.67 C35.66 1.59, 49.48 0.54, 54.17 0.16 C58.87 -0.22, 56.33 0.74, 56.19 1.37" stroke="none" stroke-width="0" fill="#ffffff"></path><path d="M63.13 2.41 C71.03 3.64, 79.01 7.54, 84.06 11.85 C89.12 16.15, 92.73 22.4, 93.46 28.22 C94.18 34.05, 92.49 41.63, 88.42 46.8 C84.35 51.97, 76.47 56.48, 69.05 59.26 C61.64 62.04, 52.4 63.89, 43.93 63.46 C35.46 63.03, 25.02 60.25, 18.23 56.68 C11.44 53.1, 5.96 47.17, 3.18 42.04 C0.4 36.91, -0.26 31.5, 1.53 25.89 C3.33 20.29, 8.08 12.77, 13.98 8.43 C19.87 4.09, 28.73 1.07, 36.9 -0.12 C45.07 -1.31, 58.49 0.79, 62.98 1.29 C67.48 1.79, 64.07 2.18, 63.87 2.88 M59.97 2.11 C68.06 3.43, 76.11 7.31, 81.5 11.39 C86.88 15.46, 90.88 21.08, 92.3 26.56 C93.73 32.03, 93.42 38.99, 90.04 44.23 C86.67 49.47, 79.23 54.84, 72.05 58 C64.88 61.17, 55.48 63.16, 47 63.22 C38.51 63.28, 28.17 61.31, 21.14 58.35 C14.1 55.39, 8.19 50.73, 4.81 45.46 C1.44 40.2, -0.31 32.3, 0.89 26.78 C2.08 21.25, 6.45 16.75, 11.99 12.3 C17.53 7.86, 26 1.88, 34.13 0.11 C42.26 -1.66, 56.53 1.34, 60.76 1.68 C64.99 2.02, 59.86 1.95, 59.51 2.16" stroke="#1e1e1e" stroke-width="2" fill="none"></path></g><g stroke-linecap="round" transform="translate(160.231730435775 16.719966864108073) rotate(3.5599954230829183 57.41550535693481 32.19163465632676)"><path d="M66.47 1.28 C76.33 1.51, 86.57 3.6, 94.38 7.1 C102.19 10.61, 110.36 16.62, 113.33 22.31 C116.31 28, 115.14 35.63, 112.22 41.23 C109.3 46.84, 103.73 52.13, 95.82 55.95 C87.91 59.77, 75.1 63.37, 64.75 64.17 C54.4 64.97, 43.09 63.04, 33.73 60.75 C24.37 58.46, 14.38 55.29, 8.61 50.44 C2.84 45.58, -0.86 37.5, -0.89 31.61 C-0.92 25.72, 2.57 19.97, 8.42 15.1 C14.27 10.23, 22.54 4.61, 34.22 2.4 C45.89 0.2, 69.13 1.22, 78.46 1.86 C87.8 2.5, 90.53 5.59, 90.25 6.26 M80.49 1.02 C89.61 2.71, 98.17 8.92, 103.76 14.07 C109.36 19.23, 113.45 26.24, 114.06 31.95 C114.67 37.66, 112.48 43.61, 107.41 48.33 C102.33 53.04, 92.94 57.65, 83.63 60.24 C74.32 62.83, 62.05 64.62, 51.55 63.87 C41.04 63.12, 28.59 59.37, 20.6 55.75 C12.61 52.13, 6.74 47.55, 3.6 42.13 C0.45 36.72, -0.62 28.64, 1.73 23.25 C4.09 17.86, 10.23 13.65, 17.74 9.8 C25.25 5.96, 36.22 1.33, 46.78 0.16 C57.34 -1.01, 75.82 2.22, 81.11 2.77 C86.39 3.33, 79.21 2.9, 78.47 3.51" stroke="none" stroke-width="0" fill="#ffffff"></path><path d="M75.56 1.19 C85.1 2.29, 95.61 6.67, 102.19 11.36 C108.76 16.06, 113.97 23.43, 115.02 29.39 C116.07 35.34, 113.15 41.89, 108.5 47.11 C103.85 52.33, 96.05 57.82, 87.11 60.72 C78.17 63.62, 65.21 64.92, 54.86 64.51 C44.52 64.1, 33.34 61.39, 25.05 58.24 C16.75 55.1, 9.03 51.04, 5.11 45.62 C1.19 40.2, -0.24 31.72, 1.55 25.7 C3.33 19.68, 9.08 13.76, 15.83 9.5 C22.58 5.25, 31.62 1.39, 42.04 0.17 C52.45 -1.06, 71.62 1.46, 78.33 2.16 C85.04 2.86, 82.44 3.98, 82.32 4.35 M41.77 1.99 C50.84 -0.09, 63.75 -0.19, 73.8 1.41 C83.85 3.02, 95.33 7.09, 102.06 11.61 C108.79 16.14, 112.99 22.73, 114.19 28.56 C115.4 34.39, 113.79 41.33, 109.29 46.59 C104.8 51.85, 95.93 56.98, 87.23 60.1 C78.54 63.23, 67.3 65.56, 57.14 65.33 C46.98 65.11, 34.82 61.88, 26.25 58.74 C17.69 55.61, 9.85 51.97, 5.76 46.51 C1.66 41.05, 0.01 31.85, 1.69 25.99 C3.37 20.12, 9.07 15.37, 15.83 11.3 C22.6 7.23, 37.78 3.35, 42.27 1.56 C46.75 -0.23, 42.65 0.2, 42.74 0.57" stroke="transparent" stroke-width="2" fill="none"></path></g><g stroke-linecap="round" transform="translate(188.94501707987502 25.46480045518112) rotate(3.5599954230829183 49.33106310254064 27.196790757554155)"><path d="M46.3 -0.79 C54.72 -1.69, 67.06 0.2, 74.84 2.77 C82.62 5.35, 88.89 10.25, 92.97 14.66 C97.06 19.06, 100.28 24.28, 99.35 29.19 C98.42 34.11, 92.98 40.31, 87.38 44.15 C81.77 47.98, 74.07 50.49, 65.7 52.22 C57.34 53.96, 46.04 55.66, 37.21 54.53 C28.37 53.4, 18.88 49.08, 12.69 45.44 C6.51 41.8, 1.54 37.5, 0.1 32.69 C-1.34 27.88, 0.64 21.26, 4.07 16.58 C7.51 11.9, 13.1 7.39, 20.7 4.62 C28.3 1.85, 44.59 0.53, 49.68 -0.04 C54.77 -0.61, 51.23 0.68, 51.26 1.2 M52.9 0.24 C61.1 0.66, 71.66 3.61, 78.95 6.53 C86.24 9.46, 93.45 13.44, 96.63 17.81 C99.81 22.17, 100.14 27.94, 98.04 32.72 C95.93 37.51, 90.64 43.21, 84.01 46.5 C77.37 49.79, 66.92 51.48, 58.23 52.46 C49.55 53.44, 40.07 54.1, 31.89 52.39 C23.7 50.67, 14.56 45.95, 9.14 42.2 C3.71 38.44, -0.11 34.66, -0.66 29.85 C-1.21 25.04, 1.05 17.77, 5.84 13.35 C10.63 8.94, 20.19 5.48, 28.07 3.34 C35.96 1.2, 48.99 0.82, 53.15 0.53 C57.31 0.24, 53 1.18, 53.03 1.59" stroke="none" stroke-width="0" fill="#ffffff"></path><path d="M63.46 0.64 C71.79 1.78, 81.41 6.32, 87.12 10.21 C92.82 14.1, 96.51 19.12, 97.71 23.99 C98.9 28.86, 98.05 35.04, 94.29 39.41 C90.54 43.77, 82.64 47.78, 75.17 50.19 C67.7 52.6, 58.11 53.74, 49.47 53.87 C40.82 54.01, 30.7 53.73, 23.32 51 C15.94 48.28, 8.89 42.3, 5.2 37.54 C1.51 32.79, 0.2 27.29, 1.2 22.46 C2.2 17.62, 5.65 12.13, 11.2 8.53 C16.75 4.94, 24.21 1.67, 34.49 0.87 C44.77 0.07, 64.97 2.86, 72.87 3.75 C80.77 4.64, 82.32 5.82, 81.87 6.22 M63.79 1.27 C72.2 2.21, 82.37 6.17, 88.1 10.04 C93.83 13.9, 97.22 19.52, 98.15 24.47 C99.08 29.41, 97.64 35.27, 93.7 39.7 C89.75 44.12, 81.97 48.4, 74.47 51.01 C66.97 53.61, 57.4 55.6, 48.69 55.34 C39.99 55.08, 29.54 52.12, 22.23 49.44 C14.93 46.76, 8.31 43.92, 4.88 39.26 C1.45 34.61, 0.13 26.48, 1.67 21.51 C3.21 16.54, 8.25 12.8, 14.1 9.43 C19.96 6.07, 28.37 2.88, 36.81 1.31 C45.25 -0.26, 60.35 0.04, 64.77 0.03 C69.18 0.03, 63.41 0.5, 63.32 1.29" stroke="transparent" stroke-width="2" fill="none"></path></g><g stroke-linecap="round" transform="translate(219.4035534309851 16.62951500838298) rotate(3.5599954230829183 10.45180439458838 6.051082140833145)"><path d="M8.86 0.42 C10.82 -0.09, 12.47 -0.1, 14.47 0.62 C16.47 1.33, 20.01 3.64, 20.87 4.72 C21.74 5.81, 20.33 6.17, 19.64 7.1 C18.96 8.03, 18.59 9.49, 16.78 10.29 C14.96 11.1, 10.96 12.07, 8.76 11.93 C6.56 11.8, 5.18 10.4, 3.6 9.47 C2.03 8.55, -0.5 7.68, -0.68 6.37 C-0.86 5.06, 1 2.54, 2.52 1.64 C4.04 0.74, 7.42 1.31, 8.43 0.98 C9.44 0.65, 8.6 -0.36, 8.57 -0.34 M12.52 1.23 C14.72 1.57, 17.38 2, 18.93 3.09 C20.48 4.18, 21.91 6.5, 21.83 7.74 C21.75 8.99, 20.03 10.11, 18.44 10.59 C16.85 11.06, 14.77 10.5, 12.28 10.6 C9.8 10.69, 5.65 11.51, 3.54 11.15 C1.43 10.79, -0.07 9.75, -0.37 8.41 C-0.68 7.07, 0.52 4.55, 1.7 3.11 C2.88 1.67, 4.74 0.32, 6.72 -0.22 C8.71 -0.75, 12.67 0.03, 13.63 -0.12 C14.58 -0.26, 12.47 -1.24, 12.46 -1.1" stroke="none" stroke-width="0" fill="#ffffff"></path><path d="M8.99 0.98 C10.93 0.86, 13.18 0.82, 15.05 1.46 C16.93 2.11, 19.52 3.71, 20.25 4.83 C20.98 5.94, 20.16 7.16, 19.43 8.14 C18.71 9.12, 17.57 9.91, 15.9 10.71 C14.23 11.51, 11.53 13.21, 9.43 12.93 C7.33 12.65, 4.74 10.32, 3.29 9.04 C1.84 7.76, 1.01 6.53, 0.71 5.25 C0.42 3.97, -0.01 2.28, 1.53 1.36 C3.06 0.45, 8.03 -0.13, 9.9 -0.24 C11.77 -0.36, 12.52 0.71, 12.75 0.68 M7.48 1.02 C9.32 0.46, 12.1 0.1, 14.29 0.53 C16.49 0.97, 19.65 2.37, 20.67 3.63 C21.69 4.9, 21.12 6.77, 20.43 8.11 C19.73 9.44, 18.39 10.87, 16.49 11.64 C14.59 12.4, 11.18 12.75, 9.03 12.7 C6.88 12.65, 5 12.39, 3.58 11.33 C2.16 10.27, 0.67 7.56, 0.52 6.33 C0.37 5.1, 1.32 5.17, 2.68 3.94 C4.03 2.72, 7.57 -0.49, 8.63 -1.01 C9.69 -1.53, 9.09 0.47, 9.03 0.83" stroke="transparent" stroke-width="2" fill="none"></path></g><g stroke-linecap="round" transform="translate(351.75859763220524 83.0691854394389) rotate(5.040001463722044 30.599560357527466 30.599560357527473)"><path d="M44.21 3.56 C49.9 6.28, 57.31 14.25, 59.76 20.22 C62.21 26.19, 60.95 33.46, 58.91 39.38 C56.86 45.3, 52.96 52.17, 47.47 55.74 C41.98 59.3, 32.42 61.67, 25.95 60.77 C19.49 59.87, 13.12 55.19, 8.68 50.34 C4.24 45.48, -0.38 38.19, -0.67 31.62 C-0.97 25.06, 2.78 15.97, 6.88 10.96 C10.99 5.94, 17.35 2.61, 23.96 1.55 C30.58 0.49, 42.48 3.57, 46.57 4.57 C50.67 5.57, 48.57 7.12, 48.53 7.55 M29.37 0.55 C35.84 -0.05, 45.04 3.64, 50.32 7.61 C55.61 11.59, 59.71 18.45, 61.08 24.41 C62.45 30.37, 61.86 37.62, 58.54 43.39 C55.23 49.17, 47.54 56.21, 41.2 59.06 C34.86 61.91, 26.46 62.6, 20.5 60.51 C14.54 58.41, 8.69 52.31, 5.44 46.5 C2.19 40.69, 0.16 32.13, 1.01 25.65 C1.86 19.17, 5.92 12.12, 10.56 7.61 C15.19 3.11, 25.56 -0.22, 28.83 -1.4 C32.1 -2.58, 30.08 -0.07, 30.18 0.54" stroke="none" stroke-width="0" fill="#ffffff"></path><path d="M23.32 1.49 C29.22 -0.27, 38.82 1.42, 44.58 4.31 C50.34 7.2, 55.32 13.03, 57.87 18.82 C60.43 24.61, 61.57 32.67, 59.89 39.07 C58.21 45.46, 53.21 53.7, 47.81 57.19 C42.42 60.67, 34.02 61.08, 27.53 59.97 C21.05 58.86, 13.61 55.3, 8.9 50.52 C4.19 45.73, -0.15 37.7, -0.75 31.27 C-1.34 24.83, 0.55 17.04, 5.33 11.9 C10.11 6.77, 23.28 2.51, 27.91 0.47 C32.55 -1.57, 33.16 -0.83, 33.16 -0.32 M39.39 1.43 C45.6 2.84, 53.67 8.78, 57.23 14.41 C60.8 20.04, 61.79 28.63, 60.78 35.21 C59.77 41.78, 56.1 49.44, 51.18 53.87 C46.26 58.3, 37.72 61.47, 31.25 61.79 C24.78 62.11, 17.37 59.95, 12.36 55.79 C7.35 51.64, 2.52 43.2, 1.18 36.85 C-0.16 30.51, 1.21 23.69, 4.34 17.73 C7.47 11.76, 13.8 3.71, 19.94 1.07 C26.09 -1.56, 37.85 1.7, 41.2 1.92 C44.54 2.14, 40.31 2.18, 40.02 2.38" stroke="#1e1e1e" stroke-width="2" fill="none"></path></g><g stroke-linecap="round" transform="translate(324.686838828658 100.70513173423974) rotate(5.040001463722044 28.245748022333053 27.15937309839717)"><path d="M33.07 1.23 C38.84 1.56, 44.57 4.24, 48.6 8.29 C52.63 12.33, 57 19.54, 57.27 25.48 C57.53 31.41, 53.9 39.28, 50.16 43.89 C46.43 48.5, 40.88 51.92, 34.88 53.13 C28.88 54.35, 19.58 53.94, 14.15 51.17 C8.72 48.4, 4.49 41.77, 2.3 36.5 C0.11 31.23, -0.7 25.02, 1.01 19.53 C2.71 14.04, 6.17 6.33, 12.53 3.55 C18.89 0.77, 33.48 2.34, 39.19 2.84 C44.91 3.33, 46.9 6.24, 46.82 6.52 M38.7 2.77 C44.34 4.26, 50.14 9.13, 53.19 13.7 C56.23 18.28, 58.24 24.51, 56.97 30.22 C55.71 35.94, 50.47 43.83, 45.59 47.98 C40.71 52.12, 33.46 55.14, 27.69 55.09 C21.92 55.04, 15.38 51.64, 10.97 47.67 C6.55 43.7, 2.32 36.96, 1.19 31.25 C0.06 25.54, 1.43 18.58, 4.2 13.42 C6.98 8.25, 12.1 2.27, 17.81 0.28 C23.52 -1.71, 35.2 1.32, 38.47 1.48 C41.74 1.64, 37.84 0.59, 37.44 1.24" stroke="none" stroke-width="0" fill="#ffffff"></path><path d="M40.09 3.44 C45.38 5.33, 50.28 10.66, 52.87 15.68 C55.45 20.69, 56.9 27.76, 55.61 33.52 C54.33 39.27, 49.99 46.93, 45.16 50.22 C40.34 53.5, 32.66 54.01, 26.65 53.23 C20.64 52.46, 13.65 49.63, 9.1 45.55 C4.55 41.48, 0.16 34.47, -0.66 28.79 C-1.49 23.11, 0.63 16.04, 4.16 11.46 C7.69 6.89, 13.78 2.65, 20.52 1.34 C27.25 0.03, 40.21 2.5, 44.57 3.63 C48.92 4.76, 46.9 7.6, 46.65 8.13 M36.41 1.14 C42.11 2.34, 47.95 7.34, 51.27 12.19 C54.59 17.04, 56.95 24.45, 56.33 30.25 C55.71 36.06, 51.75 42.87, 47.55 47.02 C43.34 51.18, 36.92 54.83, 31.08 55.17 C25.23 55.51, 17.34 52.35, 12.46 49.06 C7.58 45.77, 3.27 41.21, 1.8 35.44 C0.34 29.66, 1.02 19.8, 3.68 14.39 C6.33 8.99, 12.33 5.19, 17.71 3.01 C23.09 0.83, 32.92 1.77, 35.96 1.31 C39.01 0.84, 36.27 -0.07, 35.98 0.22" stroke="#1e1e1e" stroke-width="2" fill="none"></path></g><g stroke-linecap="round" transform="translate(353.69919018148056 91.73454240728373) rotate(5.040001463722044 36.755684926497516 33.496560154689845)"><path d="M21.9 2.65 C28.01 -0.2, 38.72 -1.29, 45.68 0.18 C52.63 1.64, 58.96 6.53, 63.63 11.44 C68.29 16.35, 72.93 22.97, 73.65 29.64 C74.38 36.31, 71.84 45.76, 67.98 51.45 C64.12 57.13, 57.15 61.22, 50.48 63.74 C43.82 66.26, 34.77 68, 27.98 66.58 C21.18 65.15, 14.36 60.24, 9.71 55.19 C5.06 50.14, 0.74 42.73, 0.09 36.27 C-0.56 29.81, 1.68 22.03, 5.79 16.42 C9.91 10.81, 21.11 4.94, 24.76 2.59 C28.42 0.24, 27.54 1.78, 27.72 2.3 M18.6 4.77 C24.68 1.33, 35.05 -0.72, 42.43 -0.1 C49.81 0.52, 57.72 3.94, 62.89 8.5 C68.05 13.05, 72.37 20.85, 73.43 27.21 C74.5 33.56, 72.36 40.67, 69.27 46.61 C66.18 52.56, 61.16 59.7, 54.9 62.9 C48.64 66.11, 39.08 66.49, 31.71 65.84 C24.33 65.18, 15.92 63.42, 10.62 58.97 C5.32 54.52, 0.82 45.77, -0.09 39.15 C-1.01 32.52, 2.02 25.02, 5.14 19.23 C8.26 13.44, 16.34 6.7, 18.65 4.41 C20.95 2.12, 18.56 5.07, 18.96 5.52" stroke="none" stroke-width="0" fill="#ffffff"></path><path d="M48.67 2.24 C55.26 3.75, 63.19 8.86, 67.42 14.45 C71.65 20.05, 74.26 29.34, 74.06 35.82 C73.87 42.29, 70.71 48.48, 66.26 53.32 C61.8 58.16, 54.52 63.06, 47.33 64.84 C40.15 66.62, 30.15 66.17, 23.14 64 C16.13 61.82, 9.17 57.03, 5.28 51.78 C1.38 46.52, -0.77 39.13, -0.23 32.45 C0.31 25.77, 4.09 16.82, 8.52 11.68 C12.94 6.54, 18.79 2.98, 26.34 1.6 C33.89 0.23, 48.73 2.78, 53.8 3.43 C58.86 4.09, 57.11 4.95, 56.73 5.55 M39.18 0.75 C45.96 0.73, 54.08 4.15, 59.69 8.41 C65.3 12.66, 70.89 20.06, 72.83 26.27 C74.77 32.48, 73.94 39.51, 71.33 45.66 C68.72 51.81, 63.17 59.83, 57.16 63.17 C51.15 66.5, 42.38 66.26, 35.28 65.68 C28.18 65.1, 20.18 63.63, 14.54 59.69 C8.9 55.75, 3.36 48.69, 1.46 42.04 C-0.43 35.39, 0.64 26.02, 3.16 19.78 C5.68 13.54, 10.32 7.77, 16.58 4.63 C22.84 1.49, 36.88 1.82, 40.72 0.95 C44.56 0.08, 39.93 -1.18, 39.62 -0.59" stroke="#1e1e1e" stroke-width="2" fill="none"></path></g><g stroke-linecap="round" transform="translate(392.6357167740387 97.47998658597851) rotate(5.040001463722044 32.9533726927219 30.96168533217277)"><path d="M19.68 2.39 C24.95 -0.43, 32.02 -0.47, 38.26 0.62 C44.51 1.72, 52.67 4.43, 57.16 8.96 C61.65 13.49, 64.55 21.78, 65.2 27.83 C65.84 33.87, 64.17 39.99, 61.03 45.24 C57.89 50.48, 51.96 56.67, 46.37 59.29 C40.77 61.91, 33.7 62.17, 27.47 60.93 C21.24 59.7, 13.39 56.21, 8.98 51.88 C4.56 47.55, 1.74 40.81, 0.97 34.97 C0.2 29.13, 0.58 22.35, 4.34 16.84 C8.11 11.32, 19.74 4.42, 23.56 1.9 C27.38 -0.62, 27.37 1.39, 27.25 1.71 M35.09 -0.38 C41.48 -0.81, 49.14 2.13, 54.16 5.91 C59.18 9.7, 63.7 16.6, 65.21 22.34 C66.72 28.08, 65.45 34.63, 63.23 40.35 C61.01 46.07, 57.2 53.22, 51.91 56.67 C46.61 60.12, 38.14 61.08, 31.44 61.05 C24.75 61.01, 16.89 60.16, 11.74 56.48 C6.59 52.8, 1.89 44.96, 0.53 38.95 C-0.83 32.94, 1.32 25.99, 3.57 20.42 C5.82 14.86, 9.03 8.82, 14.04 5.58 C19.04 2.33, 30.25 1.76, 33.62 0.96 C37 0.16, 34.02 0.45, 34.28 0.77" stroke="none" stroke-width="0" fill="#ffffff"></path><path d="M48.18 2.96 C54.08 5.38, 60.02 12.67, 63.01 18.02 C66.01 23.37, 67.2 29.37, 66.17 35.05 C65.13 40.73, 61.63 47.83, 56.78 52.11 C51.93 56.38, 43.71 59.67, 37.07 60.69 C30.42 61.7, 22.55 60.78, 16.91 58.19 C11.27 55.61, 5.87 50.73, 3.21 45.17 C0.56 39.62, -0.01 30.87, 1 24.88 C2.01 18.9, 4.68 13.38, 9.29 9.27 C13.9 5.17, 21.33 0.81, 28.67 0.25 C36 -0.31, 48.68 4.19, 53.29 5.91 C57.91 7.63, 56.75 10.14, 56.36 10.59 M38.41 1.15 C44.6 1.85, 52.73 6.4, 57.34 10.66 C61.96 14.91, 65.2 20.61, 66.1 26.68 C67 32.76, 65.73 41.94, 62.73 47.11 C59.72 52.28, 53.82 55.24, 48.07 57.71 C42.31 60.17, 34.66 62.73, 28.21 61.88 C21.76 61.02, 13.91 57.28, 9.34 52.58 C4.77 47.88, 1.78 39.85, 0.79 33.68 C-0.2 27.52, 0.15 20.59, 3.41 15.62 C6.66 10.64, 14.31 6.6, 20.32 3.86 C26.34 1.12, 36.4 -0.53, 39.48 -0.8 C42.55 -1.07, 38.72 1.7, 38.78 2.24" stroke="#1e1e1e" stroke-width="2" fill="none"></path></g><g stroke-linecap="round" transform="translate(343.4708057290816 89.65168784457492) rotate(5.040001463722044 40.557997160273125 31.866997768786003)"><path d="M37.62 0.16 C45.03 -0.61, 56.13 0.88, 62.85 4.4 C69.57 7.92, 75.28 15.41, 77.95 21.27 C80.62 27.12, 80.97 33.58, 78.88 39.53 C76.79 45.47, 71.33 53.01, 65.4 56.96 C59.47 60.9, 51.14 63, 43.32 63.21 C35.5 63.43, 25.15 61.56, 18.5 58.25 C11.85 54.94, 6.22 48.99, 3.42 43.34 C0.63 37.69, -0.35 30.32, 1.7 24.36 C3.75 18.39, 9.12 11.51, 15.73 7.54 C22.34 3.58, 36.83 1.83, 41.38 0.59 C45.93 -0.65, 43.05 -0.23, 43.03 0.12 M51.61 0.25 C59.01 1.36, 67.67 6.66, 72.47 11.39 C77.28 16.12, 79.96 22.36, 80.45 28.64 C80.94 34.91, 79.62 43.66, 75.41 49.01 C71.19 54.35, 62.8 58.23, 55.15 60.72 C47.5 63.21, 37.29 65.45, 29.51 63.95 C21.73 62.45, 13.13 56.71, 8.47 51.71 C3.81 46.71, 2.02 40.06, 1.56 33.95 C1.11 27.84, 1.82 20.19, 5.75 15.04 C9.67 9.9, 17.61 5.41, 25.12 3.1 C32.64 0.79, 46.42 1.45, 50.84 1.17 C55.26 0.89, 51.81 1.08, 51.63 1.42" stroke="none" stroke-width="0" fill="#ffffff"></path><path d="M43.93 0.98 C51.61 0.88, 61.19 2.73, 67.3 6.44 C73.41 10.14, 78.93 17.13, 80.61 23.2 C82.29 29.28, 80.62 36.98, 77.39 42.88 C74.16 48.79, 67.88 55.1, 61.23 58.63 C54.58 62.15, 45.2 64.59, 37.51 64.03 C29.82 63.48, 21.22 59.31, 15.08 55.3 C8.93 51.3, 2.59 45.89, 0.67 39.98 C-1.25 34.08, 0.4 25.77, 3.55 19.86 C6.7 13.96, 12.63 7.74, 19.56 4.55 C26.48 1.36, 40.56 1.34, 45.12 0.73 C49.68 0.13, 46.91 0.49, 46.9 0.92 M49.97 1.74 C57.63 2.48, 66.23 5.8, 71.54 10.56 C76.84 15.31, 80.99 24.21, 81.8 30.28 C82.62 36.34, 80.39 41.72, 76.4 46.94 C72.42 52.17, 65.3 58.92, 57.89 61.64 C50.47 64.37, 39.82 64.98, 31.93 63.31 C24.04 61.64, 15.96 56.46, 10.56 51.62 C5.16 46.78, 0.1 40.12, -0.46 34.26 C-1.02 28.39, 2.95 21.93, 7.2 16.43 C11.44 10.93, 17.98 3.67, 25.01 1.24 C32.04 -1.18, 45.11 2.05, 49.4 1.89 C53.69 1.73, 51.1 -0.24, 50.77 0.29" stroke="transparent" stroke-width="2" fill="none"></path></g><g stroke-linecap="round" transform="translate(363.61911576312815 98.31590196959607) rotate(5.040001463722044 34.847191621634636 26.922524427282717)"><path d="M20.76 2 C26.89 -0.63, 35.75 -0.47, 42.88 0.96 C50 2.4, 59.14 5.77, 63.52 10.6 C67.9 15.43, 69.95 24.16, 69.16 29.94 C68.38 35.73, 64.11 41.27, 58.82 45.3 C53.53 49.32, 44.61 53.55, 37.41 54.11 C30.22 54.66, 21.67 52.04, 15.63 48.64 C9.59 45.25, 3.16 39.21, 1.19 33.72 C-0.78 28.24, -0.13 21.04, 3.82 15.72 C7.77 10.41, 20.48 4.26, 24.91 1.84 C29.34 -0.57, 30.25 0.81, 30.39 1.23 M17.6 3.98 C23.92 1, 35.11 -0.75, 42.67 0.16 C50.22 1.07, 58.34 4.91, 62.93 9.45 C67.52 13.99, 70.64 21.76, 70.19 27.42 C69.74 33.08, 65.19 39.08, 60.25 43.42 C55.32 47.76, 47.9 52.54, 40.6 53.47 C33.29 54.4, 23.01 51.78, 16.41 48.97 C9.82 46.17, 3.47 42.02, 1.03 36.63 C-1.41 31.24, -1.34 22.16, 1.79 16.63 C4.93 11.11, 17.14 5.57, 19.83 3.48 C22.53 1.39, 18.07 3.59, 17.97 4.1" stroke="none" stroke-width="0" fill="#ffffff"></path><path d="M26.59 -0.09 C33.35 -2.14, 43.82 -0.84, 50.34 1.62 C56.85 4.08, 62.78 9.35, 65.67 14.69 C68.55 20.04, 69.49 27.91, 67.64 33.69 C65.78 39.47, 60.42 46.2, 54.53 49.37 C48.64 52.55, 39.79 53.25, 32.31 52.74 C24.82 52.23, 14.88 50.24, 9.62 46.3 C4.36 42.37, 1.2 34.99, 0.74 29.13 C0.28 23.27, 1.81 15.87, 6.86 11.13 C11.92 6.4, 26.13 2.47, 31.06 0.69 C35.99 -1.09, 36.32 0.11, 36.45 0.46 M42.99 1.62 C50.19 2.34, 58.48 5.67, 63.07 10.33 C67.65 14.98, 70.78 23.93, 70.51 29.54 C70.24 35.15, 66.41 39.88, 61.42 43.98 C56.43 48.07, 48.08 53.13, 40.57 54.12 C33.05 55.11, 22.74 53.33, 16.32 49.92 C9.91 46.51, 4.45 39.3, 2.07 33.65 C-0.3 27.99, -0.96 20.96, 2.09 15.99 C5.15 11.03, 13.58 6.63, 20.39 3.86 C27.21 1.08, 39.35 -0.41, 43 -0.67 C46.64 -0.93, 42.24 1.82, 42.27 2.29" stroke="transparent" stroke-width="2" fill="none"></path></g><g stroke-linecap="round" transform="translate(386.4161328867622 89.6200235323204) rotate(5.040001463722044 7.383097132388912 5.990059937598502)"><path d="M6.29 0.12 C7.68 -0.04, 10.8 -0.39, 12.11 0.51 C13.42 1.41, 13.98 4.26, 14.15 5.54 C14.31 6.82, 13.86 7.14, 13.08 8.2 C12.31 9.26, 10.73 11.37, 9.51 11.88 C8.29 12.39, 7.16 11.75, 5.76 11.25 C4.36 10.75, 1.96 9.87, 1.13 8.87 C0.29 7.87, 0.48 6.34, 0.74 5.24 C1 4.14, 1.42 3.08, 2.68 2.27 C3.95 1.46, 7.41 0.64, 8.35 0.38 C9.29 0.13, 8.61 0.81, 8.31 0.74 M8.43 -0.4 C10.18 -0.69, 11.96 -0.11, 13.09 0.77 C14.22 1.66, 15.23 3.72, 15.21 4.89 C15.2 6.05, 13.82 6.66, 13.01 7.78 C12.2 8.9, 11.77 11.12, 10.34 11.61 C8.92 12.09, 6.16 10.94, 4.46 10.68 C2.75 10.41, 0.94 11.08, 0.11 10.03 C-0.72 8.98, -1.22 5.79, -0.51 4.38 C0.2 2.96, 3.13 2.17, 4.38 1.51 C5.63 0.85, 6.57 0.49, 7 0.42 C7.43 0.34, 6.86 1, 6.96 1.06" stroke="none" stroke-width="0" fill="#ffffff"></path><path d="M11.31 -0.32 C12.45 0.16, 12.94 1.36, 13.33 2.64 C13.72 3.93, 13.97 5.93, 13.63 7.38 C13.29 8.82, 12.35 10.72, 11.27 11.32 C10.2 11.91, 8.81 11.08, 7.19 10.95 C5.57 10.82, 2.64 11.31, 1.54 10.54 C0.45 9.77, 0.57 7.72, 0.63 6.33 C0.7 4.94, 1.1 3.11, 1.92 2.18 C2.75 1.24, 3.93 0.91, 5.57 0.71 C7.2 0.51, 10.53 0.8, 11.73 0.97 C12.93 1.14, 12.79 1.69, 12.77 1.72 M9.36 -0.19 C10.92 0.05, 12.97 2.74, 14.04 3.59 C15.11 4.45, 15.73 3.8, 15.77 4.94 C15.8 6.09, 15.4 9.25, 14.23 10.47 C13.07 11.7, 10.49 12.39, 8.78 12.29 C7.08 12.18, 5.51 10.66, 4.01 9.84 C2.5 9.02, 0.07 8.22, -0.26 7.36 C-0.59 6.49, 1.24 5.97, 2.01 4.64 C2.77 3.31, 3.21 -0.05, 4.33 -0.62 C5.46 -1.19, 7.76 1.27, 8.76 1.22 C9.75 1.18, 10.48 -0.99, 10.28 -0.88" stroke="transparent" stroke-width="2" fill="none"></path></g><g stroke-linecap="round" transform="translate(131.68886414271844 231.38439794800075) rotate(0 15.250778386136801 15.250778386136801)"><path d="M10.86 0.05 C13.8 -0.95, 17.73 0.77, 20.56 2.03 C23.39 3.29, 26.37 4.82, 27.84 7.62 C29.31 10.41, 29.83 15.63, 29.38 18.83 C28.93 22.03, 27.6 24.93, 25.14 26.81 C22.68 28.69, 17.86 30.14, 14.62 30.09 C11.38 30.05, 8.07 28.55, 5.72 26.53 C3.36 24.51, 0.93 21.16, 0.5 18 C0.07 14.83, 0.86 10.42, 3.12 7.53 C5.39 4.64, 11.9 1.93, 14.09 0.64 C16.29 -0.64, 16.3 -0.26, 16.3 -0.19 M19.86 -0.29 C22.87 0.32, 26.55 3.57, 28.21 6.13 C29.88 8.7, 30.08 11.8, 29.85 15.09 C29.61 18.38, 29.03 23.48, 26.82 25.89 C24.6 28.31, 20.04 29.06, 16.54 29.59 C13.04 30.11, 8.61 30.82, 5.83 29.05 C3.05 27.27, 0.35 22.26, -0.14 18.94 C-0.63 15.62, 1.53 11.98, 2.9 9.14 C4.26 6.29, 5.46 3.16, 8.05 1.87 C10.63 0.59, 16.57 1.59, 18.4 1.43 C20.23 1.27, 18.79 0.87, 19.01 0.92" stroke="none" stroke-width="0" fill="#ffffff"></path><path d="M7.18 0.96 C9.55 -0.58, 14.13 -0.8, 17.42 0.06 C20.71 0.92, 24.65 3.69, 26.92 6.12 C29.19 8.55, 31.18 11.38, 31.05 14.64 C30.92 17.91, 28.29 23.12, 26.13 25.72 C23.98 28.32, 21.18 29.86, 18.13 30.23 C15.08 30.61, 10.71 29.55, 7.82 27.95 C4.93 26.35, 1.89 23.69, 0.79 20.63 C-0.32 17.57, -0.76 12.96, 1.19 9.57 C3.15 6.18, 9.89 1.89, 12.53 0.28 C15.17 -1.32, 16.98 -0.36, 17.04 -0.05 M20.86 2.07 C23.96 2.69, 27.41 3.33, 29.21 5.97 C31.02 8.61, 32.27 14.4, 31.69 17.91 C31.12 21.41, 28.35 25.09, 25.77 26.98 C23.2 28.87, 19.68 29.29, 16.25 29.25 C12.82 29.21, 7.61 28.4, 5.2 26.74 C2.79 25.07, 2.3 22.59, 1.81 19.25 C1.31 15.92, 0.97 9.56, 2.24 6.72 C3.51 3.87, 6.24 3.37, 9.44 2.19 C12.64 1.01, 19.88 -0.37, 21.42 -0.36 C22.96 -0.36, 19.22 1.86, 18.68 2.23" stroke="#1e1e1e" stroke-width="2" fill="none"></path></g><g stroke-linecap="round" transform="translate(118.87460064667437 241.4351702762877) rotate(0 14.077641587203196 13.536193833849232)"><path d="M14.4 0.93 C17.07 0.94, 20.66 1.26, 22.8 3.15 C24.95 5.04, 26.67 9.4, 27.27 12.28 C27.87 15.17, 27.92 18.15, 26.39 20.45 C24.86 22.75, 20.96 25.17, 18.1 26.09 C15.25 27, 11.95 26.91, 9.25 25.95 C6.55 24.99, 3.23 22.83, 1.88 20.31 C0.53 17.8, 0.5 13.69, 1.16 10.86 C1.81 8.02, 3.55 5.21, 5.8 3.3 C8.05 1.4, 12.87 0, 14.64 -0.55 C16.42 -1.11, 16.24 -0.45, 16.47 -0.04 M12.69 -0.19 C15.29 -0.84, 18.4 -0.92, 20.99 0.67 C23.58 2.25, 27.22 6.46, 28.22 9.32 C29.22 12.17, 28.38 14.9, 27 17.81 C25.61 20.72, 22.67 25.34, 19.9 26.78 C17.14 28.22, 12.98 27.22, 10.41 26.44 C7.83 25.66, 6.29 24.26, 4.44 22.09 C2.59 19.92, -0.43 16.2, -0.69 13.42 C-0.94 10.63, 0.79 7.56, 2.93 5.36 C5.07 3.17, 10.43 1.12, 12.14 0.25 C13.85 -0.62, 13.16 0.1, 13.18 0.14" stroke="none" stroke-width="0" fill="#ffffff"></path><path d="M6.97 1.16 C9.55 -0.01, 13.97 0.2, 17.14 0.76 C20.31 1.31, 24.23 2.18, 25.97 4.52 C27.71 6.85, 27.76 11.73, 27.58 14.77 C27.4 17.82, 26.78 20.8, 24.88 22.78 C22.97 24.77, 19.26 26.25, 16.16 26.68 C13.06 27.1, 8.85 26.91, 6.27 25.33 C3.7 23.76, 1.49 20.12, 0.7 17.24 C-0.08 14.37, 0.02 10.89, 1.55 8.07 C3.09 5.25, 8.22 1.54, 9.9 0.33 C11.57 -0.87, 11.5 0.51, 11.61 0.85 M13.61 -1.16 C16.52 -1.76, 20.9 0.91, 23.29 2.8 C25.68 4.69, 27.26 7.67, 27.96 10.17 C28.65 12.67, 28.84 15.29, 27.45 17.8 C26.07 20.3, 22.17 23.57, 19.62 25.2 C17.07 26.82, 14.91 28.39, 12.16 27.55 C9.41 26.71, 5.17 22.47, 3.13 20.16 C1.08 17.85, -0.48 16.55, -0.1 13.69 C0.27 10.84, 3.45 5.09, 5.36 3.01 C7.27 0.94, 10.39 1.76, 11.38 1.25 C12.36 0.75, 11.09 -0.27, 11.3 -0.01" stroke="#1e1e1e" stroke-width="2" fill="none"></path></g><g stroke-linecap="round" transform="translate(133.14670730758405 235.32640493948662) rotate(0 18.3189823218093 16.69463906174738)"><path d="M11.27 0.48 C14.64 -0.95, 19.99 0.18, 23.91 1.43 C27.82 2.67, 32.69 4.99, 34.75 7.96 C36.81 10.94, 36.94 15.7, 36.26 19.3 C35.59 22.89, 33.64 27.05, 30.69 29.51 C27.74 31.96, 22.47 33.98, 18.56 34.03 C14.66 34.08, 10.27 32.12, 7.25 29.8 C4.23 27.47, 1.4 23.78, 0.44 20.08 C-0.51 16.38, -0.97 11.02, 1.52 7.62 C4.02 4.23, 12.48 0.86, 15.41 -0.27 C18.34 -1.4, 19.1 0.39, 19.09 0.83 M12.92 -0.84 C16.5 -1.9, 23.1 -0.15, 26.75 1.45 C30.39 3.05, 33.36 5.28, 34.79 8.74 C36.21 12.21, 36.4 18.69, 35.3 22.23 C34.2 25.78, 31.03 28.12, 28.19 30.02 C25.35 31.91, 22.18 33.78, 18.27 33.6 C14.36 33.42, 7.86 31.36, 4.71 28.95 C1.55 26.54, -0.41 22.74, -0.66 19.13 C-0.9 15.52, 0.72 10.41, 3.24 7.28 C5.76 4.15, 12.77 1.55, 14.49 0.33 C16.2 -0.89, 13.37 -0.47, 13.52 -0.04" stroke="none" stroke-width="0" fill="#ffffff"></path><path d="M10.16 2 C13.66 0.22, 19.7 -1.36, 23.45 -0.47 C27.2 0.43, 30.39 4.31, 32.68 7.37 C34.97 10.43, 37.32 14.44, 37.2 17.9 C37.07 21.35, 34.77 25.42, 31.92 28.08 C29.07 30.74, 24.05 33.46, 20.08 33.84 C16.11 34.22, 11.26 32.48, 8.09 30.36 C4.91 28.24, 2.04 24.63, 1.04 21.13 C0.04 17.63, 0.33 12.62, 2.09 9.36 C3.86 6.1, 9.84 2.88, 11.62 1.59 C13.4 0.31, 12.76 1.34, 12.77 1.65 M27.38 2.04 C30.75 3.55, 33.74 7.03, 35.26 9.98 C36.79 12.94, 37.71 16.44, 36.54 19.75 C35.36 23.06, 31.27 27.45, 28.22 29.85 C25.17 32.26, 21.96 34.65, 18.23 34.2 C14.5 33.76, 8.87 29.67, 5.82 27.18 C2.77 24.69, 0.12 22.8, -0.07 19.27 C-0.25 15.74, 2.64 8.93, 4.71 6.02 C6.78 3.1, 8.99 2.56, 12.33 1.75 C15.66 0.95, 22.47 0.95, 24.7 1.2 C26.93 1.44, 25.78 3.1, 25.72 3.24" stroke="#1e1e1e" stroke-width="2" fill="none"></path></g><g stroke-linecap="round" transform="translate(152.6254888270047 236.6453905437) rotate(0 16.4239151850704 15.43126097058812)"><path d="M22.88 1.96 C26.21 3.18, 30.42 5.83, 31.96 8.72 C33.5 11.61, 33.07 16.08, 32.12 19.32 C31.17 22.57, 29.11 26.19, 26.26 28.21 C23.41 30.22, 18.5 31.7, 15.02 31.42 C11.54 31.13, 7.84 28.9, 5.37 26.5 C2.91 24.11, 0.75 20.52, 0.22 17.05 C-0.31 13.59, 0.11 8.54, 2.17 5.69 C4.23 2.84, 8.73 0.47, 12.58 -0.04 C16.42 -0.56, 23.13 2.03, 25.25 2.61 C27.37 3.2, 25.62 3.28, 25.31 3.48 M15.43 -0.01 C18.82 -0.44, 22.82 -0.29, 25.49 1.78 C28.17 3.86, 30.61 9.17, 31.48 12.44 C32.36 15.7, 31.81 18.52, 30.75 21.38 C29.69 24.23, 28.29 28, 25.12 29.57 C21.96 31.14, 15.54 31.51, 11.76 30.82 C7.97 30.13, 4.37 28.16, 2.41 25.44 C0.45 22.71, -0.53 17.98, 0 14.48 C0.52 10.99, 3.13 7.02, 5.57 4.47 C8 1.91, 12.84 -0.3, 14.6 -0.86 C16.37 -1.41, 16.25 0.89, 16.17 1.14" stroke="none" stroke-width="0" fill="#ffffff"></path><path d="M14.97 -0.88 C18.22 -1.46, 21.86 0.91, 24.82 2.86 C27.78 4.81, 31.53 7.77, 32.74 10.82 C33.95 13.86, 33.55 18, 32.07 21.15 C30.59 24.3, 27.08 28.17, 23.88 29.71 C20.68 31.25, 16.24 31.2, 12.87 30.37 C9.5 29.53, 5.75 27.38, 3.68 24.69 C1.61 21.99, 0.28 17.46, 0.47 14.21 C0.66 10.96, 2.27 7.5, 4.82 5.2 C7.37 2.89, 13.96 1.08, 15.76 0.36 C17.56 -0.36, 15.57 0.57, 15.63 0.89 M10.2 1.66 C13.04 -0.07, 18.37 -1.4, 21.58 -0.61 C24.79 0.18, 27.37 3.29, 29.48 6.39 C31.59 9.5, 34.44 14.89, 34.23 18.03 C34.01 21.18, 31 22.96, 28.18 25.27 C25.36 27.59, 20.66 31.69, 17.31 31.93 C13.96 32.17, 11.1 28.68, 8.09 26.73 C5.07 24.78, 0.52 23.32, -0.77 20.23 C-2.05 17.15, -1.36 11.14, 0.38 8.21 C2.12 5.28, 8.24 3.95, 9.69 2.67 C11.13 1.39, 8.88 0.46, 9.05 0.54" stroke="#1e1e1e" stroke-width="2" fill="none"></path></g><g stroke-linecap="round" transform="translate(127.89872986924058 234.57683206713733) rotate(0 20.21404945854819 15.882467431716428)"><path d="M15.79 0.01 C19.83 -1.11, 25.03 -0.36, 28.95 1.19 C32.88 2.75, 37.5 6.07, 39.34 9.35 C41.19 12.62, 41.18 17.52, 40.01 20.86 C38.85 24.21, 35.97 27.51, 32.36 29.41 C28.74 31.31, 22.94 32.78, 18.34 32.27 C13.73 31.75, 7.76 28.93, 4.72 26.31 C1.69 23.69, 0.2 19.74, 0.14 16.54 C0.07 13.33, 1.7 9.7, 4.34 7.07 C6.99 4.45, 13.94 1.83, 16.03 0.79 C18.12 -0.26, 16.79 0.7, 16.86 0.82 M10.88 0.9 C14.18 -0.53, 19.86 0.82, 23.99 1.66 C28.11 2.51, 32.66 3.42, 35.65 5.97 C38.63 8.52, 42.12 13.43, 41.9 16.95 C41.68 20.47, 37.65 24.5, 34.33 27.1 C31.02 29.7, 26.18 32.2, 21.99 32.57 C17.81 32.95, 12.56 31.39, 9.2 29.35 C5.85 27.3, 3.14 23.74, 1.86 20.31 C0.57 16.89, -0.27 11.74, 1.49 8.77 C3.25 5.8, 10.94 3.79, 12.43 2.49 C13.92 1.2, 10.51 0.83, 10.43 1.01" stroke="none" stroke-width="0" fill="#ffffff"></path><path d="M23.41 0.65 C27.51 1.2, 33.54 3.2, 36.47 5.72 C39.39 8.24, 41.11 12.25, 40.95 15.76 C40.8 19.27, 38.43 24.15, 35.54 26.76 C32.65 29.38, 27.83 31, 23.62 31.45 C19.41 31.91, 13.95 31.3, 10.27 29.51 C6.6 27.72, 3.01 23.88, 1.59 20.72 C0.16 17.56, 0.15 13.62, 1.71 10.56 C3.28 7.5, 6.94 3.9, 10.95 2.35 C14.96 0.79, 22.82 1.26, 25.77 1.23 C28.72 1.2, 28.85 1.86, 28.65 2.17 M24.01 -1.03 C27.94 -0.85, 31.93 2.09, 34.92 5.03 C37.9 7.96, 41.68 13.31, 41.91 16.57 C42.14 19.84, 39.3 21.94, 36.29 24.61 C33.27 27.28, 27.91 31.92, 23.82 32.59 C19.73 33.25, 15.68 30.26, 11.72 28.61 C7.77 26.95, 2.06 25.72, 0.07 22.67 C-1.91 19.61, -1.81 13.45, -0.2 10.27 C1.41 7.09, 5.94 5.45, 9.74 3.6 C13.53 1.75, 20.24 -0.39, 22.55 -0.82 C24.86 -1.26, 23.65 0.65, 23.58 0.98" stroke="transparent" stroke-width="2" fill="none"></path></g><g stroke-linecap="round" transform="translate(138.07566704479052 238.25575131450677) rotate(0 17.367791909142817 13.418148785096463)"><path d="M20.62 -0.15 C24.16 0.28, 29.15 2.53, 31.56 4.94 C33.97 7.35, 35.14 11.36, 35.09 14.31 C35.04 17.25, 33.73 20.45, 31.26 22.61 C28.79 24.77, 24.23 26.98, 20.26 27.26 C16.28 27.54, 10.63 25.94, 7.43 24.28 C4.22 22.62, 1.99 19.82, 1.03 17.28 C0.07 14.75, 0.4 11.61, 1.67 9.09 C2.95 6.57, 5.46 3.55, 8.69 2.16 C11.92 0.77, 18.81 1.03, 21.05 0.74 C23.29 0.45, 22.28 0.2, 22.14 0.44 M16.09 1.27 C19.53 1.1, 24.13 0.94, 27.43 2.55 C30.72 4.16, 35.11 8.01, 35.86 10.94 C36.62 13.88, 34.11 17.53, 31.98 20.17 C29.85 22.82, 26.43 25.79, 23.09 26.81 C19.74 27.83, 15.15 27.38, 11.9 26.29 C8.65 25.19, 5.54 22.86, 3.57 20.24 C1.6 17.62, -0.53 13.24, 0.08 10.56 C0.69 7.88, 4.56 6.09, 7.23 4.16 C9.9 2.23, 14.46 -0.43, 16.08 -1.01 C17.69 -1.59, 16.83 0.27, 16.9 0.69" stroke="none" stroke-width="0" fill="#ffffff"></path><path d="M9.68 1.54 C12.85 -0.04, 17.79 -0.72, 21.34 -0.04 C24.88 0.63, 28.69 3.3, 30.94 5.58 C33.2 7.87, 34.9 10.87, 34.87 13.65 C34.83 16.43, 33.17 20.16, 30.76 22.26 C28.35 24.36, 24.07 25.79, 20.4 26.27 C16.73 26.75, 11.87 26.53, 8.72 25.15 C5.58 23.78, 2.83 20.68, 1.54 18 C0.25 15.32, -1.02 11.89, 0.99 9.09 C3 6.28, 11.12 2.48, 13.59 1.16 C16.07 -0.16, 15.83 1.03, 15.82 1.18 M18.86 -0.4 C22.55 0.11, 28.84 3.18, 31.55 5.14 C34.27 7.11, 35.22 8.47, 35.15 11.38 C35.07 14.29, 33.18 20.26, 31.1 22.59 C29.02 24.92, 26.49 24.71, 22.69 25.37 C18.88 26.03, 12.03 27.73, 8.26 26.55 C4.48 25.37, 1.32 20.92, 0.04 18.3 C-1.23 15.69, -0.56 13.74, 0.59 10.87 C1.75 8.01, 3.8 2.85, 6.97 1.13 C10.15 -0.59, 17.74 0.79, 19.64 0.56 C21.55 0.32, 18.25 -0.2, 18.41 -0.27" stroke="transparent" stroke-width="2" fill="none"></path></g><g stroke-linecap="round" transform="translate(148.14938736704687 234.18317918350562) rotate(0 3.679725357285612 2.985437554024152)"><path d="M3.51 0.04 C4.3 0.04, 4.95 0.6, 5.68 0.96 C6.4 1.31, 7.56 1.6, 7.85 2.18 C8.13 2.75, 7.91 3.98, 7.39 4.42 C6.87 4.86, 5.4 4.67, 4.72 4.84 C4.05 5.01, 3.88 5.34, 3.35 5.46 C2.81 5.57, 2.13 5.83, 1.52 5.53 C0.92 5.23, -0.04 4.32, -0.26 3.65 C-0.49 2.99, -0.42 2.23, 0.19 1.55 C0.81 0.87, 2.88 -0.25, 3.43 -0.4 C3.98 -0.56, 3.47 0.51, 3.49 0.61 M1.97 -0.21 C3.05 -0.58, 5.94 0.14, 6.66 0.52 C7.38 0.9, 6.3 1.39, 6.28 2.08 C6.26 2.76, 6.6 4.05, 6.52 4.63 C6.44 5.2, 6.17 5.33, 5.81 5.52 C5.46 5.7, 5.2 5.94, 4.4 5.72 C3.6 5.5, 1.53 4.48, 1.04 4.2 C0.55 3.92, 1.65 4.7, 1.46 4.05 C1.27 3.41, -0.34 0.9, -0.13 0.31 C0.08 -0.28, 2.31 0.53, 2.72 0.53 C3.12 0.54, 2.17 0.39, 2.3 0.33" stroke="none" stroke-width="0" fill="#ffffff"></path><path d="M4.89 -0.26 C5.53 -0.08, 6.09 1.09, 6.52 1.62 C6.96 2.15, 7.44 2.38, 7.49 2.92 C7.55 3.47, 7.3 4.47, 6.84 4.9 C6.38 5.33, 5.49 5.36, 4.72 5.51 C3.95 5.67, 2.86 6.04, 2.21 5.84 C1.57 5.63, 1.2 4.84, 0.84 4.28 C0.48 3.73, -0.29 3.04, 0.03 2.5 C0.35 1.96, 2.13 1.3, 2.75 1.05 C3.37 0.8, 3.36 1.09, 3.75 0.99 C4.14 0.88, 4.92 0.47, 5.09 0.43 M3.68 1.13 C4.53 0.71, 4.66 -1.43, 5.15 -1.21 C5.64 -1, 6 1.86, 6.6 2.43 C7.2 2.99, 9.02 1.54, 8.75 2.19 C8.48 2.84, 6.02 5.75, 4.99 6.32 C3.97 6.89, 3.19 5.53, 2.58 5.61 C1.97 5.68, 1.9 7.26, 1.33 6.77 C0.77 6.28, -0.7 3.44, -0.83 2.66 C-0.97 1.88, 0.21 2.63, 0.54 2.12 C0.88 1.61, 0.66 0.14, 1.17 -0.39 C1.68 -0.91, 3.53 -0.98, 3.6 -1.03" stroke="transparent" stroke-width="2" fill="none"></path></g><g stroke-linecap="round" transform="translate(265.6033531470607 194.52288270442256) rotate(8.259744838024252 29.90186246418338 29.90186246418338)"><path d="M28.43 0.57 C34.42 -0.08, 42.94 2.2, 48.11 5.98 C53.27 9.76, 57.96 17.04, 59.43 23.23 C60.9 29.43, 59.87 37.39, 56.95 43.14 C54.03 48.89, 47.78 55.14, 41.91 57.75 C36.04 60.36, 27.93 60.63, 21.7 58.78 C15.48 56.94, 8 52, 4.56 46.68 C1.13 41.35, 0.41 33.14, 1.1 26.83 C1.8 20.53, 2.98 13.21, 8.75 8.87 C14.53 4.52, 30.2 1.64, 35.77 0.75 C41.33 -0.14, 42.43 3.13, 42.15 3.51 M25.35 -0.92 C31.02 -2.27, 39.21 1.93, 44.89 5.21 C50.58 8.48, 57.51 12.7, 59.48 18.75 C61.45 24.8, 59.39 35.37, 56.7 41.5 C54.01 47.64, 48.73 52.35, 43.34 55.54 C37.94 58.74, 30.57 61.96, 24.34 60.69 C18.1 59.42, 9.95 53.02, 5.92 47.93 C1.89 42.84, 0.13 36.49, 0.16 30.15 C0.19 23.81, 1.75 15.06, 6.1 9.88 C10.45 4.71, 23.25 0.76, 26.28 -0.91 C29.31 -2.59, 24.32 -1, 24.27 -0.16" stroke="#1e1e1e" stroke-width="2" fill="none"></path></g><g stroke-linecap="round" transform="translate(237.2808524513208 217.9332894993386) rotate(8.259744838024252 27.601719197707734 26.540114613180517)"><path d="M23.47 0.22 C29.03 -1.05, 37.12 0.9, 42.24 3.78 C47.35 6.67, 52.24 12.1, 54.16 17.53 C56.09 22.96, 55.86 30.96, 53.76 36.39 C51.66 41.81, 46.85 47.3, 41.57 50.09 C36.29 52.88, 27.83 54.19, 22.07 53.15 C16.31 52.12, 10.8 48.24, 6.99 43.87 C3.17 39.5, -0.84 32.68, -0.82 26.92 C-0.79 21.16, 2.21 13.75, 7.13 9.32 C12.06 4.89, 24.48 1.79, 28.73 0.36 C32.98 -1.07, 32.76 0.18, 32.65 0.73 M35.42 2.22 C41.06 3.49, 49.03 6.09, 52.09 10.86 C55.16 15.63, 54.94 25.06, 53.79 30.84 C52.63 36.61, 49.31 41.58, 45.18 45.51 C41.05 49.44, 34.84 54.21, 29 54.42 C23.16 54.63, 14.84 50.33, 10.15 46.77 C5.47 43.22, 2.27 38.55, 0.9 33.08 C-0.48 27.61, -0.94 19.33, 1.92 13.96 C4.79 8.58, 12.59 3.16, 18.07 0.82 C23.55 -1.51, 31.83 -0.31, 34.81 -0.04 C37.8 0.22, 36.1 1.81, 35.97 2.41" stroke="#1e1e1e" stroke-width="2" fill="none"></path></g><g stroke-linecap="round" transform="translate(264.44506493457425 212.42141244189804) rotate(8.259744838024252 35.91762177650431 32.73280802292264)"><path d="M46.37 0.9 C53.16 2.42, 60.83 8.15, 65.03 13.42 C69.23 18.69, 71.58 26.13, 71.56 32.52 C71.53 38.9, 68.89 46.62, 64.89 51.74 C60.89 56.86, 54.25 61.1, 47.54 63.24 C40.82 65.38, 31.32 66.36, 24.6 64.56 C17.89 62.77, 11.45 57.73, 7.26 52.46 C3.06 47.19, -0.56 39.42, -0.56 32.95 C-0.56 26.47, 3.19 18.63, 7.26 13.61 C11.33 8.59, 16.43 4.61, 23.87 2.82 C31.32 1.04, 46.48 2.34, 51.94 2.89 C57.41 3.45, 56.87 5.6, 56.68 6.16 M37.28 -0.91 C44.06 -0.94, 54.22 3.83, 59.63 7.8 C65.04 11.76, 68.08 16.75, 69.75 22.87 C71.43 28.99, 72.05 38.31, 69.67 44.52 C67.28 50.73, 61.21 56.68, 55.46 60.12 C49.71 63.57, 41.95 65.27, 35.18 65.21 C28.4 65.14, 20.47 63.45, 14.79 59.73 C9.11 56.01, 3.28 49.33, 1.09 42.89 C-1.1 36.45, -1 27.33, 1.66 21.11 C4.31 14.89, 11 9.04, 17.05 5.56 C23.1 2.08, 34.4 1.28, 37.94 0.22 C41.49 -0.84, 38.39 -1.29, 38.3 -0.8" stroke="none" stroke-width="0" fill="#ffffff"></path><path d="M45.69 1.11 C52.32 2.22, 59.93 6.74, 64.35 11.79 C68.76 16.84, 71.83 24.88, 72.2 31.41 C72.58 37.93, 70.57 45.54, 66.62 50.95 C62.66 56.37, 55.02 61.56, 48.48 63.9 C41.94 66.24, 34.28 66.62, 27.39 64.99 C20.49 63.37, 11.62 59.22, 7.11 54.15 C2.61 49.08, 0.54 41.08, 0.37 34.58 C0.2 28.08, 2.44 20.64, 6.1 15.16 C9.76 9.69, 15.21 3.7, 22.32 1.72 C29.43 -0.26, 43.65 2.78, 48.76 3.27 C53.86 3.76, 53.27 4.34, 52.95 4.67 M47.53 3.34 C53.49 5.24, 60.67 9.12, 64.69 14.53 C68.7 19.93, 71.92 29.51, 71.62 35.8 C71.32 42.09, 67.28 47.45, 62.91 52.28 C58.54 57.11, 52.21 63.07, 45.4 64.8 C38.59 66.53, 28.41 65.25, 22.04 62.66 C15.67 60.07, 10.97 54.72, 7.18 49.25 C3.39 43.79, -0.92 35.93, -0.69 29.88 C-0.46 23.82, 4.13 17.74, 8.56 12.93 C12.99 8.12, 19.29 2.63, 25.89 1.01 C32.49 -0.62, 44.41 2.81, 48.17 3.19 C51.93 3.58, 48.4 2.77, 48.45 3.31" stroke="#1e1e1e" stroke-width="2" fill="none"></path></g><g stroke-linecap="round" transform="translate(296.4532544895342 218.29047628921313) rotate(8.259744838024252 32.202005730659025 30.25573065902579)"><path d="M37.3 -0.09 C43.79 0.51, 52.67 5.46, 57.27 10.67 C61.87 15.89, 65.08 24.57, 64.91 31.21 C64.75 37.86, 60.97 45.67, 56.28 50.54 C51.59 55.42, 43.58 59.59, 36.77 60.47 C29.97 61.35, 21.45 59.12, 15.46 55.82 C9.47 52.52, 3.06 46.72, 0.83 40.65 C-1.41 34.58, -0.47 25.62, 2.05 19.4 C4.58 13.18, 8.35 6.09, 15.97 3.34 C23.58 0.58, 41.44 1.81, 47.72 2.87 C54 3.93, 54 9.24, 53.64 9.69 M36.58 0.41 C43.41 0.67, 52.44 5.09, 57.05 9.72 C61.67 14.35, 63.95 21.56, 64.29 28.2 C64.62 34.84, 63.4 44.48, 59.05 49.58 C54.71 54.69, 45.19 57.52, 38.21 58.82 C31.24 60.13, 23.24 60.25, 17.21 57.41 C11.17 54.57, 4.49 47.91, 2 41.79 C-0.49 35.68, -0.1 26.7, 2.27 20.73 C4.65 14.76, 10.55 9.13, 16.23 5.95 C21.91 2.76, 33.09 2.49, 36.38 1.6 C39.66 0.72, 35.81 0.34, 35.95 0.63" stroke="none" stroke-width="0" fill="#ffffff"></path><path d="M31.03 -0.38 C37.56 -1.02, 46.51 2.38, 52.05 6.42 C57.58 10.45, 62.79 17.45, 64.23 23.82 C65.66 30.19, 63.76 38.79, 60.65 44.62 C57.55 50.45, 52.05 56.22, 45.59 58.8 C39.13 61.37, 28.58 62.05, 21.9 60.07 C15.22 58.09, 9.05 52.45, 5.48 46.91 C1.92 41.38, -0.17 33.39, 0.49 26.85 C1.16 20.31, 3.51 11.93, 9.46 7.67 C15.41 3.4, 30.66 2.14, 36.2 1.26 C41.74 0.39, 42.88 2.08, 42.72 2.4 M42.49 3.18 C48.3 5.15, 55.49 9.51, 59.02 15.21 C62.54 20.91, 64.9 31.13, 63.65 37.38 C62.41 43.64, 56.85 48.79, 51.55 52.72 C46.25 56.65, 38.74 61.01, 31.83 60.96 C24.91 60.92, 15.08 57.02, 10.07 52.47 C5.06 47.92, 2.81 40.17, 1.77 33.68 C0.73 27.19, 0.43 18.73, 3.84 13.53 C7.26 8.32, 15.74 4.37, 22.27 2.43 C28.8 0.49, 39.57 1.69, 43.01 1.89 C46.45 2.08, 42.98 3.02, 42.89 3.59" stroke="#1e1e1e" stroke-width="2" fill="none"></path></g><g stroke-linecap="round" transform="translate(255.93685047282216 208.84837638466743) rotate(8.259744838024252 39.63323782234959 31.1404011461318)"><path d="M29.68 1.43 C36.53 -0.42, 46.65 0.46, 53.86 2.58 C61.08 4.7, 68.92 8.98, 72.98 14.17 C77.04 19.37, 78.73 27.59, 78.23 33.73 C77.73 39.87, 74.91 46.51, 69.99 51.03 C65.08 55.55, 56.13 59.43, 48.75 60.85 C41.37 62.28, 32.87 61.61, 25.72 59.59 C18.57 57.56, 10.1 53.87, 5.86 48.7 C1.61 43.53, -0.33 34.91, 0.27 28.58 C0.88 22.24, 3.78 15.41, 9.49 10.69 C15.19 5.98, 29.75 1.87, 34.5 0.3 C39.26 -1.27, 38.02 0.79, 37.99 1.29 M26.66 0.5 C33.28 -1.74, 44.52 -0.14, 51.97 1.94 C59.41 4.03, 66.67 8.17, 71.34 13 C76.01 17.83, 79.74 24.63, 79.98 30.92 C80.23 37.22, 77.56 45.58, 72.83 50.78 C68.1 55.97, 59.29 60.46, 51.62 62.08 C43.94 63.7, 33.95 62.6, 26.79 60.5 C19.62 58.4, 12.97 54.36, 8.6 49.5 C4.23 44.63, 0.58 37.68, 0.57 31.32 C0.56 24.96, 4.03 16.33, 8.54 11.35 C13.04 6.37, 24.37 2.86, 27.61 1.43 C30.86 0.01, 27.59 2.19, 28 2.81" stroke="none" stroke-width="0" fill="#ffffff"></path><path d="M39.35 0.29 C46.75 -0.11, 56.74 2.4, 63 5.94 C69.26 9.49, 74.33 15.74, 76.9 21.57 C79.46 27.4, 80.78 35.03, 78.4 40.91 C76.03 46.8, 68.95 53.31, 62.66 56.91 C56.37 60.51, 48.24 62.49, 40.65 62.51 C33.06 62.52, 23.7 60.6, 17.14 56.99 C10.59 53.38, 3.96 46.52, 1.33 40.86 C-1.29 35.2, -1.11 28.74, 1.4 23.02 C3.9 17.31, 9.24 10.37, 16.37 6.56 C23.49 2.76, 38.29 0.82, 44.15 0.2 C50 -0.42, 51.57 2.45, 51.51 2.85 M54.64 3.75 C61.73 5.47, 68.38 8.79, 72.49 13.84 C76.6 18.89, 79.93 27.9, 79.3 34.05 C78.68 40.19, 73.58 46.39, 68.74 50.73 C63.89 55.07, 57.75 58.76, 50.25 60.09 C42.74 61.43, 31.02 60.72, 23.72 58.74 C16.41 56.75, 10.47 53.21, 6.41 48.18 C2.36 43.15, -1 34.62, -0.58 28.58 C-0.17 22.54, 3.75 16.47, 8.91 11.94 C14.06 7.41, 22.52 2.79, 30.33 1.39 C38.14 -0.01, 51.65 3.26, 55.77 3.56 C59.9 3.87, 55.34 3.19, 55.07 3.22" stroke="transparent" stroke-width="2" fill="none"></path></g><g stroke-linecap="round" transform="translate(269.6961922189647 219.22514583194078) rotate(8.259744838024252 36.094555873925515 26.717048710601716)"><path d="M25.32 1.83 C32.1 -0.03, 42.21 0.29, 49.22 2.39 C56.23 4.49, 63.7 9.53, 67.37 14.42 C71.04 19.32, 72.87 26.14, 71.22 31.77 C69.57 37.4, 63.53 44.6, 57.48 48.2 C51.43 51.79, 42.58 53.69, 34.91 53.35 C27.24 53.01, 17.09 50.03, 11.48 46.15 C5.86 42.28, 2.26 35.5, 1.21 30.08 C0.17 24.66, 1.02 18.56, 5.2 13.64 C9.37 8.73, 22.49 2.72, 26.25 0.59 C30.02 -1.55, 27.56 0.33, 27.8 0.83 M37.46 -0.92 C44.9 -0.87, 56.23 3.87, 61.84 7.71 C67.45 11.55, 70.32 16.51, 71.12 22.13 C71.92 27.75, 70.74 36.39, 66.66 41.42 C62.59 46.45, 53.94 50.69, 46.68 52.32 C39.42 53.95, 30 53.18, 23.1 51.2 C16.2 49.22, 9.03 45.26, 5.27 40.44 C1.52 35.63, -0.78 28.18, 0.59 22.33 C1.95 16.48, 7.12 9.02, 13.45 5.32 C19.79 1.61, 34.5 0.85, 38.6 0.09 C42.71 -0.67, 38.14 0.56, 38.1 0.75" stroke="none" stroke-width="0" fill="#ffffff"></path><path d="M29.21 0.9 C36.2 -0.52, 45.95 0.95, 52.82 3.69 C59.69 6.44, 67.63 12.01, 70.43 17.37 C73.22 22.73, 72.08 30.49, 69.6 35.86 C67.13 41.23, 61.94 46.66, 55.56 49.6 C49.18 52.54, 39.18 54.42, 31.33 53.52 C23.48 52.62, 13.73 48.33, 8.45 44.18 C3.18 40.04, -0.27 34.25, -0.31 28.65 C-0.35 23.04, 2.46 15.36, 8.23 10.57 C13.99 5.78, 28.57 1.38, 34.26 -0.08 C39.95 -1.54, 42.34 1.48, 42.38 1.8 M49.75 3.41 C56.78 5.07, 63.55 8.43, 67.18 13.35 C70.8 18.28, 73.18 27.31, 71.49 32.96 C69.8 38.62, 62.97 44.09, 57.03 47.28 C51.1 50.46, 43.56 52.42, 35.88 52.08 C28.2 51.74, 16.8 48.76, 10.96 45.24 C5.13 41.73, 1.89 36.47, 0.89 30.97 C-0.12 25.47, 0.99 17.03, 4.95 12.24 C8.91 7.46, 17.17 3.88, 24.65 2.26 C32.14 0.65, 45.53 2.32, 49.85 2.57 C54.18 2.81, 50.73 3.35, 50.6 3.72" stroke="transparent" stroke-width="2" fill="none"></path></g></svg>